%TF.GenerationSoftware,KiCad,Pcbnew,7.0.6*%
%TF.CreationDate,2024-06-09T16:50:30+02:00*%
%TF.ProjectId,nRF52832_visitcard,6e524635-3238-4333-925f-766973697463,v0.1*%
%TF.SameCoordinates,Original*%
%TF.FileFunction,Drillmap*%
%TF.FilePolarity,Positive*%
%FSLAX45Y45*%
G04 Gerber Fmt 4.5, Leading zero omitted, Abs format (unit mm)*
G04 Created by KiCad (PCBNEW 7.0.6) date 2024-06-09 16:50:30*
%MOMM*%
%LPD*%
G01*
G04 APERTURE LIST*
%ADD10C,0.100000*%
%ADD11C,0.200000*%
%ADD12C,0.030000*%
%ADD13C,0.040000*%
G04 APERTURE END LIST*
D10*
X10000000Y-8000000D02*
X19100000Y-8000000D01*
X19100000Y-13000000D01*
X10000000Y-13000000D01*
X10000000Y-8000000D01*
D11*
D12*
X18095200Y-9172660D02*
X18125200Y-9202660D01*
X18125200Y-9172660D02*
X18095200Y-9202660D01*
D13*
X10942000Y-9017000D02*
G75*
G03*
X10942000Y-9017000I-20000J0D01*
G01*
X10942000Y-9652000D02*
G75*
G03*
X10942000Y-9652000I-20000J0D01*
G01*
X10942000Y-10541000D02*
G75*
G03*
X10942000Y-10541000I-20000J0D01*
G01*
X10942000Y-11303000D02*
G75*
G03*
X10942000Y-11303000I-20000J0D01*
G01*
X10942000Y-12065000D02*
G75*
G03*
X10942000Y-12065000I-20000J0D01*
G01*
X11196000Y-8890000D02*
G75*
G03*
X11196000Y-8890000I-20000J0D01*
G01*
X11323000Y-9906000D02*
G75*
G03*
X11323000Y-9906000I-20000J0D01*
G01*
X11323000Y-12446000D02*
G75*
G03*
X11323000Y-12446000I-20000J0D01*
G01*
X11450000Y-8382000D02*
G75*
G03*
X11450000Y-8382000I-20000J0D01*
G01*
X11450000Y-8763000D02*
G75*
G03*
X11450000Y-8763000I-20000J0D01*
G01*
X11704000Y-8382000D02*
G75*
G03*
X11704000Y-8382000I-20000J0D01*
G01*
X11704000Y-9525000D02*
G75*
G03*
X11704000Y-9525000I-20000J0D01*
G01*
X11958000Y-8382000D02*
G75*
G03*
X11958000Y-8382000I-20000J0D01*
G01*
X12166280Y-10500360D02*
G75*
G03*
X12166280Y-10500360I-20000J0D01*
G01*
X12178980Y-10236200D02*
G75*
G03*
X12178980Y-10236200I-20000J0D01*
G01*
X12181520Y-10795000D02*
G75*
G03*
X12181520Y-10795000I-20000J0D01*
G01*
X12212000Y-8382000D02*
G75*
G03*
X12212000Y-8382000I-20000J0D01*
G01*
X12339000Y-12065000D02*
G75*
G03*
X12339000Y-12065000I-20000J0D01*
G01*
X12417740Y-9944100D02*
G75*
G03*
X12417740Y-9944100I-20000J0D01*
G01*
X12443140Y-11056620D02*
G75*
G03*
X12443140Y-11056620I-20000J0D01*
G01*
X12466000Y-8382000D02*
G75*
G03*
X12466000Y-8382000I-20000J0D01*
G01*
X12466000Y-11684000D02*
G75*
G03*
X12466000Y-11684000I-20000J0D01*
G01*
X12511720Y-8882380D02*
G75*
G03*
X12511720Y-8882380I-20000J0D01*
G01*
X12720000Y-8382000D02*
G75*
G03*
X12720000Y-8382000I-20000J0D01*
G01*
X12758100Y-9865360D02*
G75*
G03*
X12758100Y-9865360I-20000J0D01*
G01*
X12758100Y-11155680D02*
G75*
G03*
X12758100Y-11155680I-20000J0D01*
G01*
X12974000Y-8382000D02*
G75*
G03*
X12974000Y-8382000I-20000J0D01*
G01*
X13072965Y-9943815D02*
G75*
G03*
X13072965Y-9943815I-20000J0D01*
G01*
X13080680Y-11043920D02*
G75*
G03*
X13080680Y-11043920I-20000J0D01*
G01*
X13228000Y-8382000D02*
G75*
G03*
X13228000Y-8382000I-20000J0D01*
G01*
X13245780Y-8887460D02*
G75*
G03*
X13245780Y-8887460I-20000J0D01*
G01*
X13301660Y-10822940D02*
G75*
G03*
X13301660Y-10822940I-20000J0D01*
G01*
X13314360Y-10137140D02*
G75*
G03*
X13314360Y-10137140I-20000J0D01*
G01*
X13375320Y-10502900D02*
G75*
G03*
X13375320Y-10502900I-20000J0D01*
G01*
X13482000Y-8382000D02*
G75*
G03*
X13482000Y-8382000I-20000J0D01*
G01*
X13736000Y-8382000D02*
G75*
G03*
X13736000Y-8382000I-20000J0D01*
G01*
X13829980Y-11927840D02*
G75*
G03*
X13829980Y-11927840I-20000J0D01*
G01*
X13990000Y-8382000D02*
G75*
G03*
X13990000Y-8382000I-20000J0D01*
G01*
X14066200Y-9093200D02*
G75*
G03*
X14066200Y-9093200I-20000J0D01*
G01*
X14244000Y-8382000D02*
G75*
G03*
X14244000Y-8382000I-20000J0D01*
G01*
X14246540Y-11541760D02*
G75*
G03*
X14246540Y-11541760I-20000J0D01*
G01*
X14294800Y-9204960D02*
G75*
G03*
X14294800Y-9204960I-20000J0D01*
G01*
X14498000Y-8382000D02*
G75*
G03*
X14498000Y-8382000I-20000J0D01*
G01*
X14500540Y-9301480D02*
G75*
G03*
X14500540Y-9301480I-20000J0D01*
G01*
X14752000Y-8382000D02*
G75*
G03*
X14752000Y-8382000I-20000J0D01*
G01*
X14752000Y-11303000D02*
G75*
G03*
X14752000Y-11303000I-20000J0D01*
G01*
X14769780Y-9357360D02*
G75*
G03*
X14769780Y-9357360I-20000J0D01*
G01*
X15000920Y-9532620D02*
G75*
G03*
X15000920Y-9532620I-20000J0D01*
G01*
X15006000Y-8382000D02*
G75*
G03*
X15006000Y-8382000I-20000J0D01*
G01*
X15006000Y-11049000D02*
G75*
G03*
X15006000Y-11049000I-20000J0D01*
G01*
X15234600Y-9690100D02*
G75*
G03*
X15234600Y-9690100I-20000J0D01*
G01*
X15260000Y-8382000D02*
G75*
G03*
X15260000Y-8382000I-20000J0D01*
G01*
X15260000Y-10795000D02*
G75*
G03*
X15260000Y-10795000I-20000J0D01*
G01*
X15473360Y-9626600D02*
G75*
G03*
X15473360Y-9626600I-20000J0D01*
G01*
X15514000Y-8382000D02*
G75*
G03*
X15514000Y-8382000I-20000J0D01*
G01*
X15514000Y-8890000D02*
G75*
G03*
X15514000Y-8890000I-20000J0D01*
G01*
X15630840Y-9573260D02*
G75*
G03*
X15630840Y-9573260I-20000J0D01*
G01*
X15768000Y-8382000D02*
G75*
G03*
X15768000Y-8382000I-20000J0D01*
G01*
X15768000Y-8890000D02*
G75*
G03*
X15768000Y-8890000I-20000J0D01*
G01*
X15808640Y-9776460D02*
G75*
G03*
X15808640Y-9776460I-20000J0D01*
G01*
X15823880Y-10185400D02*
G75*
G03*
X15823880Y-10185400I-20000J0D01*
G01*
X15978820Y-10193020D02*
G75*
G03*
X15978820Y-10193020I-20000J0D01*
G01*
X15996600Y-8432800D02*
G75*
G03*
X15996600Y-8432800I-20000J0D01*
G01*
X16022000Y-8890000D02*
G75*
G03*
X16022000Y-8890000I-20000J0D01*
G01*
X16136300Y-10187940D02*
G75*
G03*
X16136300Y-10187940I-20000J0D01*
G01*
X16187100Y-10500360D02*
G75*
G03*
X16187100Y-10500360I-20000J0D01*
G01*
X16225200Y-8432800D02*
G75*
G03*
X16225200Y-8432800I-20000J0D01*
G01*
X16316641Y-10187939D02*
G75*
G03*
X16316641Y-10187939I-20000J0D01*
G01*
X16382680Y-11292840D02*
G75*
G03*
X16382680Y-11292840I-20000J0D01*
G01*
X16397920Y-8755380D02*
G75*
G03*
X16397920Y-8755380I-20000J0D01*
G01*
X16397920Y-9865360D02*
G75*
G03*
X16397920Y-9865360I-20000J0D01*
G01*
X16453800Y-8435340D02*
G75*
G03*
X16453800Y-8435340I-20000J0D01*
G01*
X16458880Y-8613140D02*
G75*
G03*
X16458880Y-8613140I-20000J0D01*
G01*
X16502060Y-10449560D02*
G75*
G03*
X16502060Y-10449560I-20000J0D01*
G01*
X16530000Y-10020300D02*
G75*
G03*
X16530000Y-10020300I-20000J0D01*
G01*
X16573180Y-9082080D02*
G75*
G03*
X16573180Y-9082080I-20000J0D01*
G01*
X16583340Y-9712960D02*
G75*
G03*
X16583340Y-9712960I-20000J0D01*
G01*
X16608740Y-11010900D02*
G75*
G03*
X16608740Y-11010900I-20000J0D01*
G01*
X16631600Y-10621820D02*
G75*
G03*
X16631600Y-10621820I-20000J0D01*
G01*
X16651920Y-10106660D02*
G75*
G03*
X16651920Y-10106660I-20000J0D01*
G01*
X16682400Y-8442960D02*
G75*
G03*
X16682400Y-8442960I-20000J0D01*
G01*
X16694428Y-10699619D02*
G75*
G03*
X16694428Y-10699619I-20000J0D01*
G01*
X16748440Y-12661900D02*
G75*
G03*
X16748440Y-12661900I-20000J0D01*
G01*
X16784000Y-9271000D02*
G75*
G03*
X16784000Y-9271000I-20000J0D01*
G01*
X16806860Y-8966200D02*
G75*
G03*
X16806860Y-8966200I-20000J0D01*
G01*
X16837340Y-10518140D02*
G75*
G03*
X16837340Y-10518140I-20000J0D01*
G01*
X16839880Y-11529060D02*
G75*
G03*
X16839880Y-11529060I-20000J0D01*
G01*
X16842420Y-10368280D02*
G75*
G03*
X16842420Y-10368280I-20000J0D01*
G01*
X16911000Y-9271000D02*
G75*
G03*
X16911000Y-9271000I-20000J0D01*
G01*
X16911000Y-9398000D02*
G75*
G03*
X16911000Y-9398000I-20000J0D01*
G01*
X16913540Y-11221720D02*
G75*
G03*
X16913540Y-11221720I-20000J0D01*
G01*
X16923700Y-12397740D02*
G75*
G03*
X16923700Y-12397740I-20000J0D01*
G01*
X16926682Y-10109707D02*
G75*
G03*
X16926682Y-10109707I-20000J0D01*
G01*
X16941480Y-10657840D02*
G75*
G03*
X16941480Y-10657840I-20000J0D01*
G01*
X16951640Y-8971280D02*
G75*
G03*
X16951640Y-8971280I-20000J0D01*
G01*
X16966880Y-8351520D02*
G75*
G03*
X16966880Y-8351520I-20000J0D01*
G01*
X17045620Y-10091420D02*
G75*
G03*
X17045620Y-10091420I-20000J0D01*
G01*
X17071210Y-10604500D02*
G75*
G03*
X17071210Y-10604500I-20000J0D01*
G01*
X17106580Y-8976360D02*
G75*
G03*
X17106580Y-8976360I-20000J0D01*
G01*
X17165000Y-12700000D02*
G75*
G03*
X17165000Y-12700000I-20000J0D01*
G01*
X17167540Y-8369300D02*
G75*
G03*
X17167540Y-8369300I-20000J0D01*
G01*
X17189938Y-9783005D02*
G75*
G03*
X17189938Y-9783005I-20000J0D01*
G01*
X17233580Y-11922760D02*
G75*
G03*
X17233580Y-11922760I-20000J0D01*
G01*
X17276404Y-9860869D02*
G75*
G03*
X17276404Y-9860869I-20000J0D01*
G01*
X17276760Y-9979660D02*
G75*
G03*
X17276760Y-9979660I-20000J0D01*
G01*
X17284380Y-10096500D02*
G75*
G03*
X17284380Y-10096500I-20000J0D01*
G01*
X17419000Y-11049000D02*
G75*
G03*
X17419000Y-11049000I-20000J0D01*
G01*
X17419000Y-11303000D02*
G75*
G03*
X17419000Y-11303000I-20000J0D01*
G01*
X17419000Y-11684000D02*
G75*
G03*
X17419000Y-11684000I-20000J0D01*
G01*
X17419000Y-12700000D02*
G75*
G03*
X17419000Y-12700000I-20000J0D01*
G01*
X17434240Y-10327640D02*
G75*
G03*
X17434240Y-10327640I-20000J0D01*
G01*
X17439320Y-10749280D02*
G75*
G03*
X17439320Y-10749280I-20000J0D01*
G01*
X17990500Y-9189720D02*
G75*
G03*
X17990500Y-9189720I-20000J0D01*
G01*
X18003200Y-8763000D02*
G75*
G03*
X18003200Y-8763000I-20000J0D01*
G01*
X18003200Y-8890000D02*
G75*
G03*
X18003200Y-8890000I-20000J0D01*
G01*
X18003200Y-9017000D02*
G75*
G03*
X18003200Y-9017000I-20000J0D01*
G01*
X18003200Y-9525000D02*
G75*
G03*
X18003200Y-9525000I-20000J0D01*
G01*
X18003200Y-9652000D02*
G75*
G03*
X18003200Y-9652000I-20000J0D01*
G01*
X18003200Y-9779000D02*
G75*
G03*
X18003200Y-9779000I-20000J0D01*
G01*
X18003200Y-9906000D02*
G75*
G03*
X18003200Y-9906000I-20000J0D01*
G01*
X18003200Y-10033000D02*
G75*
G03*
X18003200Y-10033000I-20000J0D01*
G01*
X18003200Y-10160000D02*
G75*
G03*
X18003200Y-10160000I-20000J0D01*
G01*
X18003200Y-10287000D02*
G75*
G03*
X18003200Y-10287000I-20000J0D01*
G01*
X18003200Y-10414000D02*
G75*
G03*
X18003200Y-10414000I-20000J0D01*
G01*
X18003200Y-10541000D02*
G75*
G03*
X18003200Y-10541000I-20000J0D01*
G01*
X18003200Y-10668000D02*
G75*
G03*
X18003200Y-10668000I-20000J0D01*
G01*
X18003200Y-10795000D02*
G75*
G03*
X18003200Y-10795000I-20000J0D01*
G01*
X18003200Y-10922000D02*
G75*
G03*
X18003200Y-10922000I-20000J0D01*
G01*
X18003200Y-11049000D02*
G75*
G03*
X18003200Y-11049000I-20000J0D01*
G01*
X18003200Y-11176000D02*
G75*
G03*
X18003200Y-11176000I-20000J0D01*
G01*
X18003200Y-11303000D02*
G75*
G03*
X18003200Y-11303000I-20000J0D01*
G01*
X18003200Y-11430000D02*
G75*
G03*
X18003200Y-11430000I-20000J0D01*
G01*
X18003200Y-11557000D02*
G75*
G03*
X18003200Y-11557000I-20000J0D01*
G01*
X18003200Y-11684000D02*
G75*
G03*
X18003200Y-11684000I-20000J0D01*
G01*
X18003200Y-11811000D02*
G75*
G03*
X18003200Y-11811000I-20000J0D01*
G01*
X18003200Y-11938000D02*
G75*
G03*
X18003200Y-11938000I-20000J0D01*
G01*
X18003200Y-12065000D02*
G75*
G03*
X18003200Y-12065000I-20000J0D01*
G01*
X18003200Y-12192000D02*
G75*
G03*
X18003200Y-12192000I-20000J0D01*
G01*
X18003200Y-12319000D02*
G75*
G03*
X18003200Y-12319000I-20000J0D01*
G01*
X18155600Y-8763000D02*
G75*
G03*
X18155600Y-8763000I-20000J0D01*
G01*
X18155600Y-12319000D02*
G75*
G03*
X18155600Y-12319000I-20000J0D01*
G01*
X18308000Y-8763000D02*
G75*
G03*
X18308000Y-8763000I-20000J0D01*
G01*
X18308000Y-12319000D02*
G75*
G03*
X18308000Y-12319000I-20000J0D01*
G01*
X18381660Y-12555220D02*
G75*
G03*
X18381660Y-12555220I-20000J0D01*
G01*
X18435000Y-8763000D02*
G75*
G03*
X18435000Y-8763000I-20000J0D01*
G01*
X18435000Y-12319000D02*
G75*
G03*
X18435000Y-12319000I-20000J0D01*
G01*
X18562000Y-8763000D02*
G75*
G03*
X18562000Y-8763000I-20000J0D01*
G01*
X18562000Y-12319000D02*
G75*
G03*
X18562000Y-12319000I-20000J0D01*
G01*
X18612800Y-12547600D02*
G75*
G03*
X18612800Y-12547600I-20000J0D01*
G01*
X18689000Y-8763000D02*
G75*
G03*
X18689000Y-8763000I-20000J0D01*
G01*
X18689000Y-12319000D02*
G75*
G03*
X18689000Y-12319000I-20000J0D01*
G01*
X18816000Y-8763000D02*
G75*
G03*
X18816000Y-8763000I-20000J0D01*
G01*
X18816000Y-12319000D02*
G75*
G03*
X18816000Y-12319000I-20000J0D01*
G01*
D11*
X10255777Y-13316484D02*
X10255777Y-13116484D01*
X10255777Y-13116484D02*
X10303396Y-13116484D01*
X10303396Y-13116484D02*
X10331967Y-13126008D01*
X10331967Y-13126008D02*
X10351015Y-13145055D01*
X10351015Y-13145055D02*
X10360539Y-13164103D01*
X10360539Y-13164103D02*
X10370063Y-13202198D01*
X10370063Y-13202198D02*
X10370063Y-13230769D01*
X10370063Y-13230769D02*
X10360539Y-13268865D01*
X10360539Y-13268865D02*
X10351015Y-13287912D01*
X10351015Y-13287912D02*
X10331967Y-13306960D01*
X10331967Y-13306960D02*
X10303396Y-13316484D01*
X10303396Y-13316484D02*
X10255777Y-13316484D01*
X10455777Y-13316484D02*
X10455777Y-13183150D01*
X10455777Y-13221246D02*
X10465301Y-13202198D01*
X10465301Y-13202198D02*
X10474824Y-13192674D01*
X10474824Y-13192674D02*
X10493872Y-13183150D01*
X10493872Y-13183150D02*
X10512920Y-13183150D01*
X10579586Y-13316484D02*
X10579586Y-13183150D01*
X10579586Y-13116484D02*
X10570063Y-13126008D01*
X10570063Y-13126008D02*
X10579586Y-13135531D01*
X10579586Y-13135531D02*
X10589110Y-13126008D01*
X10589110Y-13126008D02*
X10579586Y-13116484D01*
X10579586Y-13116484D02*
X10579586Y-13135531D01*
X10703396Y-13316484D02*
X10684348Y-13306960D01*
X10684348Y-13306960D02*
X10674824Y-13287912D01*
X10674824Y-13287912D02*
X10674824Y-13116484D01*
X10808158Y-13316484D02*
X10789110Y-13306960D01*
X10789110Y-13306960D02*
X10779586Y-13287912D01*
X10779586Y-13287912D02*
X10779586Y-13116484D01*
X11036729Y-13316484D02*
X11036729Y-13116484D01*
X11036729Y-13116484D02*
X11103396Y-13259341D01*
X11103396Y-13259341D02*
X11170063Y-13116484D01*
X11170063Y-13116484D02*
X11170063Y-13316484D01*
X11351015Y-13316484D02*
X11351015Y-13211722D01*
X11351015Y-13211722D02*
X11341491Y-13192674D01*
X11341491Y-13192674D02*
X11322443Y-13183150D01*
X11322443Y-13183150D02*
X11284348Y-13183150D01*
X11284348Y-13183150D02*
X11265301Y-13192674D01*
X11351015Y-13306960D02*
X11331967Y-13316484D01*
X11331967Y-13316484D02*
X11284348Y-13316484D01*
X11284348Y-13316484D02*
X11265301Y-13306960D01*
X11265301Y-13306960D02*
X11255777Y-13287912D01*
X11255777Y-13287912D02*
X11255777Y-13268865D01*
X11255777Y-13268865D02*
X11265301Y-13249817D01*
X11265301Y-13249817D02*
X11284348Y-13240293D01*
X11284348Y-13240293D02*
X11331967Y-13240293D01*
X11331967Y-13240293D02*
X11351015Y-13230769D01*
X11446253Y-13183150D02*
X11446253Y-13383150D01*
X11446253Y-13192674D02*
X11465301Y-13183150D01*
X11465301Y-13183150D02*
X11503396Y-13183150D01*
X11503396Y-13183150D02*
X11522443Y-13192674D01*
X11522443Y-13192674D02*
X11531967Y-13202198D01*
X11531967Y-13202198D02*
X11541491Y-13221246D01*
X11541491Y-13221246D02*
X11541491Y-13278388D01*
X11541491Y-13278388D02*
X11531967Y-13297436D01*
X11531967Y-13297436D02*
X11522443Y-13306960D01*
X11522443Y-13306960D02*
X11503396Y-13316484D01*
X11503396Y-13316484D02*
X11465301Y-13316484D01*
X11465301Y-13316484D02*
X11446253Y-13306960D01*
X11627205Y-13297436D02*
X11636729Y-13306960D01*
X11636729Y-13306960D02*
X11627205Y-13316484D01*
X11627205Y-13316484D02*
X11617682Y-13306960D01*
X11617682Y-13306960D02*
X11627205Y-13297436D01*
X11627205Y-13297436D02*
X11627205Y-13316484D01*
X11627205Y-13192674D02*
X11636729Y-13202198D01*
X11636729Y-13202198D02*
X11627205Y-13211722D01*
X11627205Y-13211722D02*
X11617682Y-13202198D01*
X11617682Y-13202198D02*
X11627205Y-13192674D01*
X11627205Y-13192674D02*
X11627205Y-13211722D01*
D12*
X9965000Y-13630000D02*
X9995000Y-13660000D01*
X9995000Y-13630000D02*
X9965000Y-13660000D01*
D11*
X10293872Y-13536484D02*
X10312920Y-13536484D01*
X10312920Y-13536484D02*
X10331967Y-13546008D01*
X10331967Y-13546008D02*
X10341491Y-13555531D01*
X10341491Y-13555531D02*
X10351015Y-13574579D01*
X10351015Y-13574579D02*
X10360539Y-13612674D01*
X10360539Y-13612674D02*
X10360539Y-13660293D01*
X10360539Y-13660293D02*
X10351015Y-13698388D01*
X10351015Y-13698388D02*
X10341491Y-13717436D01*
X10341491Y-13717436D02*
X10331967Y-13726960D01*
X10331967Y-13726960D02*
X10312920Y-13736484D01*
X10312920Y-13736484D02*
X10293872Y-13736484D01*
X10293872Y-13736484D02*
X10274824Y-13726960D01*
X10274824Y-13726960D02*
X10265301Y-13717436D01*
X10265301Y-13717436D02*
X10255777Y-13698388D01*
X10255777Y-13698388D02*
X10246253Y-13660293D01*
X10246253Y-13660293D02*
X10246253Y-13612674D01*
X10246253Y-13612674D02*
X10255777Y-13574579D01*
X10255777Y-13574579D02*
X10265301Y-13555531D01*
X10265301Y-13555531D02*
X10274824Y-13546008D01*
X10274824Y-13546008D02*
X10293872Y-13536484D01*
X10446253Y-13717436D02*
X10455777Y-13726960D01*
X10455777Y-13726960D02*
X10446253Y-13736484D01*
X10446253Y-13736484D02*
X10436729Y-13726960D01*
X10436729Y-13726960D02*
X10446253Y-13717436D01*
X10446253Y-13717436D02*
X10446253Y-13736484D01*
X10522444Y-13536484D02*
X10646253Y-13536484D01*
X10646253Y-13536484D02*
X10579586Y-13612674D01*
X10579586Y-13612674D02*
X10608158Y-13612674D01*
X10608158Y-13612674D02*
X10627205Y-13622198D01*
X10627205Y-13622198D02*
X10636729Y-13631722D01*
X10636729Y-13631722D02*
X10646253Y-13650769D01*
X10646253Y-13650769D02*
X10646253Y-13698388D01*
X10646253Y-13698388D02*
X10636729Y-13717436D01*
X10636729Y-13717436D02*
X10627205Y-13726960D01*
X10627205Y-13726960D02*
X10608158Y-13736484D01*
X10608158Y-13736484D02*
X10551015Y-13736484D01*
X10551015Y-13736484D02*
X10531967Y-13726960D01*
X10531967Y-13726960D02*
X10522444Y-13717436D01*
X10770063Y-13536484D02*
X10789110Y-13536484D01*
X10789110Y-13536484D02*
X10808158Y-13546008D01*
X10808158Y-13546008D02*
X10817682Y-13555531D01*
X10817682Y-13555531D02*
X10827205Y-13574579D01*
X10827205Y-13574579D02*
X10836729Y-13612674D01*
X10836729Y-13612674D02*
X10836729Y-13660293D01*
X10836729Y-13660293D02*
X10827205Y-13698388D01*
X10827205Y-13698388D02*
X10817682Y-13717436D01*
X10817682Y-13717436D02*
X10808158Y-13726960D01*
X10808158Y-13726960D02*
X10789110Y-13736484D01*
X10789110Y-13736484D02*
X10770063Y-13736484D01*
X10770063Y-13736484D02*
X10751015Y-13726960D01*
X10751015Y-13726960D02*
X10741491Y-13717436D01*
X10741491Y-13717436D02*
X10731967Y-13698388D01*
X10731967Y-13698388D02*
X10722444Y-13660293D01*
X10722444Y-13660293D02*
X10722444Y-13612674D01*
X10722444Y-13612674D02*
X10731967Y-13574579D01*
X10731967Y-13574579D02*
X10741491Y-13555531D01*
X10741491Y-13555531D02*
X10751015Y-13546008D01*
X10751015Y-13546008D02*
X10770063Y-13536484D01*
X10960539Y-13536484D02*
X10979586Y-13536484D01*
X10979586Y-13536484D02*
X10998634Y-13546008D01*
X10998634Y-13546008D02*
X11008158Y-13555531D01*
X11008158Y-13555531D02*
X11017682Y-13574579D01*
X11017682Y-13574579D02*
X11027205Y-13612674D01*
X11027205Y-13612674D02*
X11027205Y-13660293D01*
X11027205Y-13660293D02*
X11017682Y-13698388D01*
X11017682Y-13698388D02*
X11008158Y-13717436D01*
X11008158Y-13717436D02*
X10998634Y-13726960D01*
X10998634Y-13726960D02*
X10979586Y-13736484D01*
X10979586Y-13736484D02*
X10960539Y-13736484D01*
X10960539Y-13736484D02*
X10941491Y-13726960D01*
X10941491Y-13726960D02*
X10931967Y-13717436D01*
X10931967Y-13717436D02*
X10922444Y-13698388D01*
X10922444Y-13698388D02*
X10912920Y-13660293D01*
X10912920Y-13660293D02*
X10912920Y-13612674D01*
X10912920Y-13612674D02*
X10922444Y-13574579D01*
X10922444Y-13574579D02*
X10931967Y-13555531D01*
X10931967Y-13555531D02*
X10941491Y-13546008D01*
X10941491Y-13546008D02*
X10960539Y-13536484D01*
X11112920Y-13736484D02*
X11112920Y-13603150D01*
X11112920Y-13622198D02*
X11122444Y-13612674D01*
X11122444Y-13612674D02*
X11141491Y-13603150D01*
X11141491Y-13603150D02*
X11170063Y-13603150D01*
X11170063Y-13603150D02*
X11189110Y-13612674D01*
X11189110Y-13612674D02*
X11198634Y-13631722D01*
X11198634Y-13631722D02*
X11198634Y-13736484D01*
X11198634Y-13631722D02*
X11208158Y-13612674D01*
X11208158Y-13612674D02*
X11227205Y-13603150D01*
X11227205Y-13603150D02*
X11255777Y-13603150D01*
X11255777Y-13603150D02*
X11274824Y-13612674D01*
X11274824Y-13612674D02*
X11284348Y-13631722D01*
X11284348Y-13631722D02*
X11284348Y-13736484D01*
X11379586Y-13736484D02*
X11379586Y-13603150D01*
X11379586Y-13622198D02*
X11389110Y-13612674D01*
X11389110Y-13612674D02*
X11408158Y-13603150D01*
X11408158Y-13603150D02*
X11436729Y-13603150D01*
X11436729Y-13603150D02*
X11455777Y-13612674D01*
X11455777Y-13612674D02*
X11465301Y-13631722D01*
X11465301Y-13631722D02*
X11465301Y-13736484D01*
X11465301Y-13631722D02*
X11474824Y-13612674D01*
X11474824Y-13612674D02*
X11493872Y-13603150D01*
X11493872Y-13603150D02*
X11522443Y-13603150D01*
X11522443Y-13603150D02*
X11541491Y-13612674D01*
X11541491Y-13612674D02*
X11551015Y-13631722D01*
X11551015Y-13631722D02*
X11551015Y-13736484D01*
X11941491Y-13526960D02*
X11770063Y-13784103D01*
X12198634Y-13536484D02*
X12217682Y-13536484D01*
X12217682Y-13536484D02*
X12236729Y-13546008D01*
X12236729Y-13546008D02*
X12246253Y-13555531D01*
X12246253Y-13555531D02*
X12255777Y-13574579D01*
X12255777Y-13574579D02*
X12265301Y-13612674D01*
X12265301Y-13612674D02*
X12265301Y-13660293D01*
X12265301Y-13660293D02*
X12255777Y-13698388D01*
X12255777Y-13698388D02*
X12246253Y-13717436D01*
X12246253Y-13717436D02*
X12236729Y-13726960D01*
X12236729Y-13726960D02*
X12217682Y-13736484D01*
X12217682Y-13736484D02*
X12198634Y-13736484D01*
X12198634Y-13736484D02*
X12179586Y-13726960D01*
X12179586Y-13726960D02*
X12170063Y-13717436D01*
X12170063Y-13717436D02*
X12160539Y-13698388D01*
X12160539Y-13698388D02*
X12151015Y-13660293D01*
X12151015Y-13660293D02*
X12151015Y-13612674D01*
X12151015Y-13612674D02*
X12160539Y-13574579D01*
X12160539Y-13574579D02*
X12170063Y-13555531D01*
X12170063Y-13555531D02*
X12179586Y-13546008D01*
X12179586Y-13546008D02*
X12198634Y-13536484D01*
X12351015Y-13717436D02*
X12360539Y-13726960D01*
X12360539Y-13726960D02*
X12351015Y-13736484D01*
X12351015Y-13736484D02*
X12341491Y-13726960D01*
X12341491Y-13726960D02*
X12351015Y-13717436D01*
X12351015Y-13717436D02*
X12351015Y-13736484D01*
X12484348Y-13536484D02*
X12503396Y-13536484D01*
X12503396Y-13536484D02*
X12522444Y-13546008D01*
X12522444Y-13546008D02*
X12531967Y-13555531D01*
X12531967Y-13555531D02*
X12541491Y-13574579D01*
X12541491Y-13574579D02*
X12551015Y-13612674D01*
X12551015Y-13612674D02*
X12551015Y-13660293D01*
X12551015Y-13660293D02*
X12541491Y-13698388D01*
X12541491Y-13698388D02*
X12531967Y-13717436D01*
X12531967Y-13717436D02*
X12522444Y-13726960D01*
X12522444Y-13726960D02*
X12503396Y-13736484D01*
X12503396Y-13736484D02*
X12484348Y-13736484D01*
X12484348Y-13736484D02*
X12465301Y-13726960D01*
X12465301Y-13726960D02*
X12455777Y-13717436D01*
X12455777Y-13717436D02*
X12446253Y-13698388D01*
X12446253Y-13698388D02*
X12436729Y-13660293D01*
X12436729Y-13660293D02*
X12436729Y-13612674D01*
X12436729Y-13612674D02*
X12446253Y-13574579D01*
X12446253Y-13574579D02*
X12455777Y-13555531D01*
X12455777Y-13555531D02*
X12465301Y-13546008D01*
X12465301Y-13546008D02*
X12484348Y-13536484D01*
X12741491Y-13736484D02*
X12627206Y-13736484D01*
X12684348Y-13736484D02*
X12684348Y-13536484D01*
X12684348Y-13536484D02*
X12665301Y-13565055D01*
X12665301Y-13565055D02*
X12646253Y-13584103D01*
X12646253Y-13584103D02*
X12627206Y-13593627D01*
X12931967Y-13736484D02*
X12817682Y-13736484D01*
X12874825Y-13736484D02*
X12874825Y-13536484D01*
X12874825Y-13536484D02*
X12855777Y-13565055D01*
X12855777Y-13565055D02*
X12836729Y-13584103D01*
X12836729Y-13584103D02*
X12817682Y-13593627D01*
X13046253Y-13622198D02*
X13027206Y-13612674D01*
X13027206Y-13612674D02*
X13017682Y-13603150D01*
X13017682Y-13603150D02*
X13008158Y-13584103D01*
X13008158Y-13584103D02*
X13008158Y-13574579D01*
X13008158Y-13574579D02*
X13017682Y-13555531D01*
X13017682Y-13555531D02*
X13027206Y-13546008D01*
X13027206Y-13546008D02*
X13046253Y-13536484D01*
X13046253Y-13536484D02*
X13084348Y-13536484D01*
X13084348Y-13536484D02*
X13103396Y-13546008D01*
X13103396Y-13546008D02*
X13112920Y-13555531D01*
X13112920Y-13555531D02*
X13122444Y-13574579D01*
X13122444Y-13574579D02*
X13122444Y-13584103D01*
X13122444Y-13584103D02*
X13112920Y-13603150D01*
X13112920Y-13603150D02*
X13103396Y-13612674D01*
X13103396Y-13612674D02*
X13084348Y-13622198D01*
X13084348Y-13622198D02*
X13046253Y-13622198D01*
X13046253Y-13622198D02*
X13027206Y-13631722D01*
X13027206Y-13631722D02*
X13017682Y-13641246D01*
X13017682Y-13641246D02*
X13008158Y-13660293D01*
X13008158Y-13660293D02*
X13008158Y-13698388D01*
X13008158Y-13698388D02*
X13017682Y-13717436D01*
X13017682Y-13717436D02*
X13027206Y-13726960D01*
X13027206Y-13726960D02*
X13046253Y-13736484D01*
X13046253Y-13736484D02*
X13084348Y-13736484D01*
X13084348Y-13736484D02*
X13103396Y-13726960D01*
X13103396Y-13726960D02*
X13112920Y-13717436D01*
X13112920Y-13717436D02*
X13122444Y-13698388D01*
X13122444Y-13698388D02*
X13122444Y-13660293D01*
X13122444Y-13660293D02*
X13112920Y-13641246D01*
X13112920Y-13641246D02*
X13103396Y-13631722D01*
X13103396Y-13631722D02*
X13084348Y-13622198D01*
X13198634Y-13536484D02*
X13198634Y-13574579D01*
X13274825Y-13536484D02*
X13274825Y-13574579D01*
X13570063Y-13812674D02*
X13560539Y-13803150D01*
X13560539Y-13803150D02*
X13541491Y-13774579D01*
X13541491Y-13774579D02*
X13531968Y-13755531D01*
X13531968Y-13755531D02*
X13522444Y-13726960D01*
X13522444Y-13726960D02*
X13512920Y-13679341D01*
X13512920Y-13679341D02*
X13512920Y-13641246D01*
X13512920Y-13641246D02*
X13522444Y-13593627D01*
X13522444Y-13593627D02*
X13531968Y-13565055D01*
X13531968Y-13565055D02*
X13541491Y-13546008D01*
X13541491Y-13546008D02*
X13560539Y-13517436D01*
X13560539Y-13517436D02*
X13570063Y-13507912D01*
X13751015Y-13736484D02*
X13636729Y-13736484D01*
X13693872Y-13736484D02*
X13693872Y-13536484D01*
X13693872Y-13536484D02*
X13674825Y-13565055D01*
X13674825Y-13565055D02*
X13655777Y-13584103D01*
X13655777Y-13584103D02*
X13636729Y-13593627D01*
X13989110Y-13736484D02*
X13989110Y-13536484D01*
X14074825Y-13736484D02*
X14074825Y-13631722D01*
X14074825Y-13631722D02*
X14065301Y-13612674D01*
X14065301Y-13612674D02*
X14046253Y-13603150D01*
X14046253Y-13603150D02*
X14017682Y-13603150D01*
X14017682Y-13603150D02*
X13998634Y-13612674D01*
X13998634Y-13612674D02*
X13989110Y-13622198D01*
X14198634Y-13736484D02*
X14179587Y-13726960D01*
X14179587Y-13726960D02*
X14170063Y-13717436D01*
X14170063Y-13717436D02*
X14160539Y-13698388D01*
X14160539Y-13698388D02*
X14160539Y-13641246D01*
X14160539Y-13641246D02*
X14170063Y-13622198D01*
X14170063Y-13622198D02*
X14179587Y-13612674D01*
X14179587Y-13612674D02*
X14198634Y-13603150D01*
X14198634Y-13603150D02*
X14227206Y-13603150D01*
X14227206Y-13603150D02*
X14246253Y-13612674D01*
X14246253Y-13612674D02*
X14255777Y-13622198D01*
X14255777Y-13622198D02*
X14265301Y-13641246D01*
X14265301Y-13641246D02*
X14265301Y-13698388D01*
X14265301Y-13698388D02*
X14255777Y-13717436D01*
X14255777Y-13717436D02*
X14246253Y-13726960D01*
X14246253Y-13726960D02*
X14227206Y-13736484D01*
X14227206Y-13736484D02*
X14198634Y-13736484D01*
X14379587Y-13736484D02*
X14360539Y-13726960D01*
X14360539Y-13726960D02*
X14351015Y-13707912D01*
X14351015Y-13707912D02*
X14351015Y-13536484D01*
X14531968Y-13726960D02*
X14512920Y-13736484D01*
X14512920Y-13736484D02*
X14474825Y-13736484D01*
X14474825Y-13736484D02*
X14455777Y-13726960D01*
X14455777Y-13726960D02*
X14446253Y-13707912D01*
X14446253Y-13707912D02*
X14446253Y-13631722D01*
X14446253Y-13631722D02*
X14455777Y-13612674D01*
X14455777Y-13612674D02*
X14474825Y-13603150D01*
X14474825Y-13603150D02*
X14512920Y-13603150D01*
X14512920Y-13603150D02*
X14531968Y-13612674D01*
X14531968Y-13612674D02*
X14541491Y-13631722D01*
X14541491Y-13631722D02*
X14541491Y-13650769D01*
X14541491Y-13650769D02*
X14446253Y-13669817D01*
X14608158Y-13812674D02*
X14617682Y-13803150D01*
X14617682Y-13803150D02*
X14636730Y-13774579D01*
X14636730Y-13774579D02*
X14646253Y-13755531D01*
X14646253Y-13755531D02*
X14655777Y-13726960D01*
X14655777Y-13726960D02*
X14665301Y-13679341D01*
X14665301Y-13679341D02*
X14665301Y-13641246D01*
X14665301Y-13641246D02*
X14655777Y-13593627D01*
X14655777Y-13593627D02*
X14646253Y-13565055D01*
X14646253Y-13565055D02*
X14636730Y-13546008D01*
X14636730Y-13546008D02*
X14617682Y-13517436D01*
X14617682Y-13517436D02*
X14608158Y-13507912D01*
D13*
X9995000Y-13909000D02*
G75*
G03*
X9995000Y-13909000I-20000J0D01*
G01*
D11*
X10293872Y-13800484D02*
X10312920Y-13800484D01*
X10312920Y-13800484D02*
X10331967Y-13810008D01*
X10331967Y-13810008D02*
X10341491Y-13819531D01*
X10341491Y-13819531D02*
X10351015Y-13838579D01*
X10351015Y-13838579D02*
X10360539Y-13876674D01*
X10360539Y-13876674D02*
X10360539Y-13924293D01*
X10360539Y-13924293D02*
X10351015Y-13962388D01*
X10351015Y-13962388D02*
X10341491Y-13981436D01*
X10341491Y-13981436D02*
X10331967Y-13990960D01*
X10331967Y-13990960D02*
X10312920Y-14000484D01*
X10312920Y-14000484D02*
X10293872Y-14000484D01*
X10293872Y-14000484D02*
X10274824Y-13990960D01*
X10274824Y-13990960D02*
X10265301Y-13981436D01*
X10265301Y-13981436D02*
X10255777Y-13962388D01*
X10255777Y-13962388D02*
X10246253Y-13924293D01*
X10246253Y-13924293D02*
X10246253Y-13876674D01*
X10246253Y-13876674D02*
X10255777Y-13838579D01*
X10255777Y-13838579D02*
X10265301Y-13819531D01*
X10265301Y-13819531D02*
X10274824Y-13810008D01*
X10274824Y-13810008D02*
X10293872Y-13800484D01*
X10446253Y-13981436D02*
X10455777Y-13990960D01*
X10455777Y-13990960D02*
X10446253Y-14000484D01*
X10446253Y-14000484D02*
X10436729Y-13990960D01*
X10436729Y-13990960D02*
X10446253Y-13981436D01*
X10446253Y-13981436D02*
X10446253Y-14000484D01*
X10627205Y-13867150D02*
X10627205Y-14000484D01*
X10579586Y-13790960D02*
X10531967Y-13933817D01*
X10531967Y-13933817D02*
X10655777Y-13933817D01*
X10770063Y-13800484D02*
X10789110Y-13800484D01*
X10789110Y-13800484D02*
X10808158Y-13810008D01*
X10808158Y-13810008D02*
X10817682Y-13819531D01*
X10817682Y-13819531D02*
X10827205Y-13838579D01*
X10827205Y-13838579D02*
X10836729Y-13876674D01*
X10836729Y-13876674D02*
X10836729Y-13924293D01*
X10836729Y-13924293D02*
X10827205Y-13962388D01*
X10827205Y-13962388D02*
X10817682Y-13981436D01*
X10817682Y-13981436D02*
X10808158Y-13990960D01*
X10808158Y-13990960D02*
X10789110Y-14000484D01*
X10789110Y-14000484D02*
X10770063Y-14000484D01*
X10770063Y-14000484D02*
X10751015Y-13990960D01*
X10751015Y-13990960D02*
X10741491Y-13981436D01*
X10741491Y-13981436D02*
X10731967Y-13962388D01*
X10731967Y-13962388D02*
X10722444Y-13924293D01*
X10722444Y-13924293D02*
X10722444Y-13876674D01*
X10722444Y-13876674D02*
X10731967Y-13838579D01*
X10731967Y-13838579D02*
X10741491Y-13819531D01*
X10741491Y-13819531D02*
X10751015Y-13810008D01*
X10751015Y-13810008D02*
X10770063Y-13800484D01*
X10960539Y-13800484D02*
X10979586Y-13800484D01*
X10979586Y-13800484D02*
X10998634Y-13810008D01*
X10998634Y-13810008D02*
X11008158Y-13819531D01*
X11008158Y-13819531D02*
X11017682Y-13838579D01*
X11017682Y-13838579D02*
X11027205Y-13876674D01*
X11027205Y-13876674D02*
X11027205Y-13924293D01*
X11027205Y-13924293D02*
X11017682Y-13962388D01*
X11017682Y-13962388D02*
X11008158Y-13981436D01*
X11008158Y-13981436D02*
X10998634Y-13990960D01*
X10998634Y-13990960D02*
X10979586Y-14000484D01*
X10979586Y-14000484D02*
X10960539Y-14000484D01*
X10960539Y-14000484D02*
X10941491Y-13990960D01*
X10941491Y-13990960D02*
X10931967Y-13981436D01*
X10931967Y-13981436D02*
X10922444Y-13962388D01*
X10922444Y-13962388D02*
X10912920Y-13924293D01*
X10912920Y-13924293D02*
X10912920Y-13876674D01*
X10912920Y-13876674D02*
X10922444Y-13838579D01*
X10922444Y-13838579D02*
X10931967Y-13819531D01*
X10931967Y-13819531D02*
X10941491Y-13810008D01*
X10941491Y-13810008D02*
X10960539Y-13800484D01*
X11112920Y-14000484D02*
X11112920Y-13867150D01*
X11112920Y-13886198D02*
X11122444Y-13876674D01*
X11122444Y-13876674D02*
X11141491Y-13867150D01*
X11141491Y-13867150D02*
X11170063Y-13867150D01*
X11170063Y-13867150D02*
X11189110Y-13876674D01*
X11189110Y-13876674D02*
X11198634Y-13895722D01*
X11198634Y-13895722D02*
X11198634Y-14000484D01*
X11198634Y-13895722D02*
X11208158Y-13876674D01*
X11208158Y-13876674D02*
X11227205Y-13867150D01*
X11227205Y-13867150D02*
X11255777Y-13867150D01*
X11255777Y-13867150D02*
X11274824Y-13876674D01*
X11274824Y-13876674D02*
X11284348Y-13895722D01*
X11284348Y-13895722D02*
X11284348Y-14000484D01*
X11379586Y-14000484D02*
X11379586Y-13867150D01*
X11379586Y-13886198D02*
X11389110Y-13876674D01*
X11389110Y-13876674D02*
X11408158Y-13867150D01*
X11408158Y-13867150D02*
X11436729Y-13867150D01*
X11436729Y-13867150D02*
X11455777Y-13876674D01*
X11455777Y-13876674D02*
X11465301Y-13895722D01*
X11465301Y-13895722D02*
X11465301Y-14000484D01*
X11465301Y-13895722D02*
X11474824Y-13876674D01*
X11474824Y-13876674D02*
X11493872Y-13867150D01*
X11493872Y-13867150D02*
X11522443Y-13867150D01*
X11522443Y-13867150D02*
X11541491Y-13876674D01*
X11541491Y-13876674D02*
X11551015Y-13895722D01*
X11551015Y-13895722D02*
X11551015Y-14000484D01*
X11941491Y-13790960D02*
X11770063Y-14048103D01*
X12198634Y-13800484D02*
X12217682Y-13800484D01*
X12217682Y-13800484D02*
X12236729Y-13810008D01*
X12236729Y-13810008D02*
X12246253Y-13819531D01*
X12246253Y-13819531D02*
X12255777Y-13838579D01*
X12255777Y-13838579D02*
X12265301Y-13876674D01*
X12265301Y-13876674D02*
X12265301Y-13924293D01*
X12265301Y-13924293D02*
X12255777Y-13962388D01*
X12255777Y-13962388D02*
X12246253Y-13981436D01*
X12246253Y-13981436D02*
X12236729Y-13990960D01*
X12236729Y-13990960D02*
X12217682Y-14000484D01*
X12217682Y-14000484D02*
X12198634Y-14000484D01*
X12198634Y-14000484D02*
X12179586Y-13990960D01*
X12179586Y-13990960D02*
X12170063Y-13981436D01*
X12170063Y-13981436D02*
X12160539Y-13962388D01*
X12160539Y-13962388D02*
X12151015Y-13924293D01*
X12151015Y-13924293D02*
X12151015Y-13876674D01*
X12151015Y-13876674D02*
X12160539Y-13838579D01*
X12160539Y-13838579D02*
X12170063Y-13819531D01*
X12170063Y-13819531D02*
X12179586Y-13810008D01*
X12179586Y-13810008D02*
X12198634Y-13800484D01*
X12351015Y-13981436D02*
X12360539Y-13990960D01*
X12360539Y-13990960D02*
X12351015Y-14000484D01*
X12351015Y-14000484D02*
X12341491Y-13990960D01*
X12341491Y-13990960D02*
X12351015Y-13981436D01*
X12351015Y-13981436D02*
X12351015Y-14000484D01*
X12484348Y-13800484D02*
X12503396Y-13800484D01*
X12503396Y-13800484D02*
X12522444Y-13810008D01*
X12522444Y-13810008D02*
X12531967Y-13819531D01*
X12531967Y-13819531D02*
X12541491Y-13838579D01*
X12541491Y-13838579D02*
X12551015Y-13876674D01*
X12551015Y-13876674D02*
X12551015Y-13924293D01*
X12551015Y-13924293D02*
X12541491Y-13962388D01*
X12541491Y-13962388D02*
X12531967Y-13981436D01*
X12531967Y-13981436D02*
X12522444Y-13990960D01*
X12522444Y-13990960D02*
X12503396Y-14000484D01*
X12503396Y-14000484D02*
X12484348Y-14000484D01*
X12484348Y-14000484D02*
X12465301Y-13990960D01*
X12465301Y-13990960D02*
X12455777Y-13981436D01*
X12455777Y-13981436D02*
X12446253Y-13962388D01*
X12446253Y-13962388D02*
X12436729Y-13924293D01*
X12436729Y-13924293D02*
X12436729Y-13876674D01*
X12436729Y-13876674D02*
X12446253Y-13838579D01*
X12446253Y-13838579D02*
X12455777Y-13819531D01*
X12455777Y-13819531D02*
X12465301Y-13810008D01*
X12465301Y-13810008D02*
X12484348Y-13800484D01*
X12741491Y-14000484D02*
X12627206Y-14000484D01*
X12684348Y-14000484D02*
X12684348Y-13800484D01*
X12684348Y-13800484D02*
X12665301Y-13829055D01*
X12665301Y-13829055D02*
X12646253Y-13848103D01*
X12646253Y-13848103D02*
X12627206Y-13857627D01*
X12922444Y-13800484D02*
X12827206Y-13800484D01*
X12827206Y-13800484D02*
X12817682Y-13895722D01*
X12817682Y-13895722D02*
X12827206Y-13886198D01*
X12827206Y-13886198D02*
X12846253Y-13876674D01*
X12846253Y-13876674D02*
X12893872Y-13876674D01*
X12893872Y-13876674D02*
X12912920Y-13886198D01*
X12912920Y-13886198D02*
X12922444Y-13895722D01*
X12922444Y-13895722D02*
X12931967Y-13914769D01*
X12931967Y-13914769D02*
X12931967Y-13962388D01*
X12931967Y-13962388D02*
X12922444Y-13981436D01*
X12922444Y-13981436D02*
X12912920Y-13990960D01*
X12912920Y-13990960D02*
X12893872Y-14000484D01*
X12893872Y-14000484D02*
X12846253Y-14000484D01*
X12846253Y-14000484D02*
X12827206Y-13990960D01*
X12827206Y-13990960D02*
X12817682Y-13981436D01*
X12998634Y-13800484D02*
X13131967Y-13800484D01*
X13131967Y-13800484D02*
X13046253Y-14000484D01*
X13198634Y-13800484D02*
X13198634Y-13838579D01*
X13274825Y-13800484D02*
X13274825Y-13838579D01*
X13570063Y-14076674D02*
X13560539Y-14067150D01*
X13560539Y-14067150D02*
X13541491Y-14038579D01*
X13541491Y-14038579D02*
X13531968Y-14019531D01*
X13531968Y-14019531D02*
X13522444Y-13990960D01*
X13522444Y-13990960D02*
X13512920Y-13943341D01*
X13512920Y-13943341D02*
X13512920Y-13905246D01*
X13512920Y-13905246D02*
X13522444Y-13857627D01*
X13522444Y-13857627D02*
X13531968Y-13829055D01*
X13531968Y-13829055D02*
X13541491Y-13810008D01*
X13541491Y-13810008D02*
X13560539Y-13781436D01*
X13560539Y-13781436D02*
X13570063Y-13771912D01*
X13751015Y-14000484D02*
X13636729Y-14000484D01*
X13693872Y-14000484D02*
X13693872Y-13800484D01*
X13693872Y-13800484D02*
X13674825Y-13829055D01*
X13674825Y-13829055D02*
X13655777Y-13848103D01*
X13655777Y-13848103D02*
X13636729Y-13857627D01*
X13931968Y-13800484D02*
X13836729Y-13800484D01*
X13836729Y-13800484D02*
X13827206Y-13895722D01*
X13827206Y-13895722D02*
X13836729Y-13886198D01*
X13836729Y-13886198D02*
X13855777Y-13876674D01*
X13855777Y-13876674D02*
X13903396Y-13876674D01*
X13903396Y-13876674D02*
X13922444Y-13886198D01*
X13922444Y-13886198D02*
X13931968Y-13895722D01*
X13931968Y-13895722D02*
X13941491Y-13914769D01*
X13941491Y-13914769D02*
X13941491Y-13962388D01*
X13941491Y-13962388D02*
X13931968Y-13981436D01*
X13931968Y-13981436D02*
X13922444Y-13990960D01*
X13922444Y-13990960D02*
X13903396Y-14000484D01*
X13903396Y-14000484D02*
X13855777Y-14000484D01*
X13855777Y-14000484D02*
X13836729Y-13990960D01*
X13836729Y-13990960D02*
X13827206Y-13981436D01*
X14008158Y-13800484D02*
X14131968Y-13800484D01*
X14131968Y-13800484D02*
X14065301Y-13876674D01*
X14065301Y-13876674D02*
X14093872Y-13876674D01*
X14093872Y-13876674D02*
X14112920Y-13886198D01*
X14112920Y-13886198D02*
X14122444Y-13895722D01*
X14122444Y-13895722D02*
X14131968Y-13914769D01*
X14131968Y-13914769D02*
X14131968Y-13962388D01*
X14131968Y-13962388D02*
X14122444Y-13981436D01*
X14122444Y-13981436D02*
X14112920Y-13990960D01*
X14112920Y-13990960D02*
X14093872Y-14000484D01*
X14093872Y-14000484D02*
X14036729Y-14000484D01*
X14036729Y-14000484D02*
X14017682Y-13990960D01*
X14017682Y-13990960D02*
X14008158Y-13981436D01*
X14370063Y-14000484D02*
X14370063Y-13800484D01*
X14455777Y-14000484D02*
X14455777Y-13895722D01*
X14455777Y-13895722D02*
X14446253Y-13876674D01*
X14446253Y-13876674D02*
X14427206Y-13867150D01*
X14427206Y-13867150D02*
X14398634Y-13867150D01*
X14398634Y-13867150D02*
X14379587Y-13876674D01*
X14379587Y-13876674D02*
X14370063Y-13886198D01*
X14579587Y-14000484D02*
X14560539Y-13990960D01*
X14560539Y-13990960D02*
X14551015Y-13981436D01*
X14551015Y-13981436D02*
X14541491Y-13962388D01*
X14541491Y-13962388D02*
X14541491Y-13905246D01*
X14541491Y-13905246D02*
X14551015Y-13886198D01*
X14551015Y-13886198D02*
X14560539Y-13876674D01*
X14560539Y-13876674D02*
X14579587Y-13867150D01*
X14579587Y-13867150D02*
X14608158Y-13867150D01*
X14608158Y-13867150D02*
X14627206Y-13876674D01*
X14627206Y-13876674D02*
X14636730Y-13886198D01*
X14636730Y-13886198D02*
X14646253Y-13905246D01*
X14646253Y-13905246D02*
X14646253Y-13962388D01*
X14646253Y-13962388D02*
X14636730Y-13981436D01*
X14636730Y-13981436D02*
X14627206Y-13990960D01*
X14627206Y-13990960D02*
X14608158Y-14000484D01*
X14608158Y-14000484D02*
X14579587Y-14000484D01*
X14760539Y-14000484D02*
X14741491Y-13990960D01*
X14741491Y-13990960D02*
X14731968Y-13971912D01*
X14731968Y-13971912D02*
X14731968Y-13800484D01*
X14912920Y-13990960D02*
X14893872Y-14000484D01*
X14893872Y-14000484D02*
X14855777Y-14000484D01*
X14855777Y-14000484D02*
X14836730Y-13990960D01*
X14836730Y-13990960D02*
X14827206Y-13971912D01*
X14827206Y-13971912D02*
X14827206Y-13895722D01*
X14827206Y-13895722D02*
X14836730Y-13876674D01*
X14836730Y-13876674D02*
X14855777Y-13867150D01*
X14855777Y-13867150D02*
X14893872Y-13867150D01*
X14893872Y-13867150D02*
X14912920Y-13876674D01*
X14912920Y-13876674D02*
X14922444Y-13895722D01*
X14922444Y-13895722D02*
X14922444Y-13914769D01*
X14922444Y-13914769D02*
X14827206Y-13933817D01*
X14998634Y-13990960D02*
X15017682Y-14000484D01*
X15017682Y-14000484D02*
X15055777Y-14000484D01*
X15055777Y-14000484D02*
X15074825Y-13990960D01*
X15074825Y-13990960D02*
X15084349Y-13971912D01*
X15084349Y-13971912D02*
X15084349Y-13962388D01*
X15084349Y-13962388D02*
X15074825Y-13943341D01*
X15074825Y-13943341D02*
X15055777Y-13933817D01*
X15055777Y-13933817D02*
X15027206Y-13933817D01*
X15027206Y-13933817D02*
X15008158Y-13924293D01*
X15008158Y-13924293D02*
X14998634Y-13905246D01*
X14998634Y-13905246D02*
X14998634Y-13895722D01*
X14998634Y-13895722D02*
X15008158Y-13876674D01*
X15008158Y-13876674D02*
X15027206Y-13867150D01*
X15027206Y-13867150D02*
X15055777Y-13867150D01*
X15055777Y-13867150D02*
X15074825Y-13876674D01*
X15151015Y-14076674D02*
X15160539Y-14067150D01*
X15160539Y-14067150D02*
X15179587Y-14038579D01*
X15179587Y-14038579D02*
X15189111Y-14019531D01*
X15189111Y-14019531D02*
X15198634Y-13990960D01*
X15198634Y-13990960D02*
X15208158Y-13943341D01*
X15208158Y-13943341D02*
X15208158Y-13905246D01*
X15208158Y-13905246D02*
X15198634Y-13857627D01*
X15198634Y-13857627D02*
X15189111Y-13829055D01*
X15189111Y-13829055D02*
X15179587Y-13810008D01*
X15179587Y-13810008D02*
X15160539Y-13781436D01*
X15160539Y-13781436D02*
X15151015Y-13771912D01*
M02*
