%TF.GenerationSoftware,KiCad,Pcbnew,7.0.6*%
%TF.CreationDate,2024-06-09T16:50:33+02:00*%
%TF.ProjectId,nRF52832_visitcard,6e524635-3238-4333-925f-766973697463,v0.1*%
%TF.SameCoordinates,Original*%
%TF.FileFunction,Copper,L2,Inr*%
%TF.FilePolarity,Positive*%
%FSLAX46Y46*%
G04 Gerber Fmt 4.6, Leading zero omitted, Abs format (unit mm)*
G04 Created by KiCad (PCBNEW 7.0.6) date 2024-06-09 16:50:33*
%MOMM*%
%LPD*%
G01*
G04 APERTURE LIST*
%TA.AperFunction,ComponentPad*%
%ADD10R,0.500000X0.900000*%
%TD*%
%TA.AperFunction,ViaPad*%
%ADD11C,0.800000*%
%TD*%
%TA.AperFunction,Conductor*%
%ADD12C,0.200000*%
%TD*%
G04 APERTURE END LIST*
D10*
%TO.N,GND*%
%TO.C, *%
X181102000Y-91876600D03*
%TD*%
D11*
%TO.N,VDD*%
X165531800Y-90820800D03*
X183616600Y-125552200D03*
X165633400Y-97129600D03*
X168935400Y-112217200D03*
X162052000Y-84328000D03*
X172135800Y-119227600D03*
X166744278Y-106996194D03*
X170865800Y-89763600D03*
X138099800Y-119278400D03*
X154533600Y-96266000D03*
X142265400Y-115417600D03*
X174193200Y-107492800D03*
X168198800Y-115290600D03*
%TO.N,GND*%
X187960000Y-123190000D03*
X165887400Y-110109000D03*
X109220000Y-90170000D03*
X166116000Y-106218202D03*
X137160000Y-83820000D03*
X179832000Y-109220000D03*
X168910000Y-93980000D03*
X123190000Y-120650000D03*
X109220000Y-105410000D03*
X139700000Y-83820000D03*
X167640000Y-92710000D03*
X179832000Y-97790000D03*
X114300000Y-83820000D03*
X171450000Y-127000000D03*
X179832000Y-105410000D03*
X179832000Y-116840000D03*
X179832000Y-101600000D03*
X164820600Y-104495600D03*
X116840000Y-95250000D03*
X152400000Y-83820000D03*
X179832000Y-113030000D03*
X179832000Y-104140000D03*
X179832000Y-95250000D03*
X179832000Y-87630000D03*
X179832000Y-114300000D03*
X152400000Y-107950000D03*
X185420000Y-123190000D03*
X179832000Y-115570000D03*
X179832000Y-90170000D03*
X171475400Y-83693000D03*
X179832000Y-119380000D03*
X184150000Y-87630000D03*
X114300000Y-87630000D03*
X179832000Y-99060000D03*
X173990000Y-127000000D03*
X147320000Y-113030000D03*
X109220000Y-120650000D03*
X185928000Y-125476000D03*
X185420000Y-87630000D03*
X160020000Y-88900000D03*
X119380000Y-83820000D03*
X181356000Y-87630000D03*
X149860000Y-83820000D03*
X179832000Y-102870000D03*
X182880000Y-123190000D03*
X124460000Y-83820000D03*
X121920000Y-83820000D03*
X111760000Y-88900000D03*
X154940000Y-83820000D03*
X179832000Y-111760000D03*
X124460000Y-116840000D03*
X127000000Y-83820000D03*
X186690000Y-87630000D03*
X159766000Y-84328000D03*
X179832000Y-106680000D03*
X179832000Y-123190000D03*
X179832000Y-107950000D03*
X173990000Y-110490000D03*
X179832000Y-120650000D03*
X173990000Y-116840000D03*
X179705000Y-91897200D03*
X157480000Y-83820000D03*
X182880000Y-87630000D03*
X149860000Y-110490000D03*
X157480000Y-88900000D03*
X109220000Y-96520000D03*
X179832000Y-100330000D03*
X184150000Y-123190000D03*
X113030000Y-99060000D03*
X173990000Y-113030000D03*
X179832000Y-96520000D03*
X142240000Y-83820000D03*
X169468800Y-83515200D03*
X179832000Y-118110000D03*
X179832000Y-110490000D03*
X179832000Y-88900000D03*
X144780000Y-83820000D03*
X116840000Y-83820000D03*
X179832000Y-121920000D03*
X109220000Y-113030000D03*
X186690000Y-123190000D03*
X129540000Y-83820000D03*
X154940000Y-88900000D03*
X181356000Y-123190000D03*
X168910000Y-92710000D03*
X187960000Y-87630000D03*
X163779200Y-98653600D03*
X113030000Y-124460000D03*
X132080000Y-83820000D03*
X134620000Y-83820000D03*
X147320000Y-83820000D03*
%TO.N,/SETC*%
X168173400Y-105181400D03*
X161671000Y-105003600D03*
%TO.N,/PB*%
X168224200Y-103682800D03*
X157886400Y-97764600D03*
%TO.N,/SDA*%
X170512100Y-106045000D03*
X165100002Y-100203000D03*
%TO.N,/DRSSI1*%
X169066824Y-101097073D03*
X167284400Y-126619000D03*
%TO.N,/DRSSI2*%
X174142400Y-103276400D03*
X170256200Y-100914200D03*
%TO.N,/DRSSI3*%
X172643800Y-100965000D03*
X169037000Y-123977400D03*
%TO.N,/DRSSI4*%
X172567598Y-99796600D03*
X124917200Y-88823800D03*
%TO.N,/DRSSI5*%
X172564037Y-98608693D03*
X163779200Y-87553800D03*
%TO.N,/DRSSI6*%
X171699381Y-97830054D03*
X164388800Y-86131400D03*
%TO.N,/D10*%
X121462800Y-105003600D03*
X159588200Y-101930200D03*
%TO.N,/D11*%
X121589800Y-102362000D03*
X161163000Y-101879400D03*
%TO.N,/D9*%
X121615200Y-107950000D03*
X158038800Y-101854000D03*
%TO.N,/D12*%
X123977400Y-99441000D03*
X163626800Y-112928400D03*
X162966413Y-101879387D03*
%TO.N,/D8*%
X156108400Y-95732600D03*
X124231400Y-110566200D03*
%TO.N,/D1*%
X132257800Y-88874600D03*
X127381000Y-98653600D03*
%TO.N,/D7*%
X127381000Y-111556800D03*
X152146000Y-96901000D03*
%TO.N,/D2*%
X130529650Y-99438152D03*
X140462000Y-90932000D03*
%TO.N,/D6*%
X130606800Y-110439200D03*
X149809200Y-95326200D03*
%TO.N,/D3*%
X132943600Y-101371400D03*
X142748000Y-92049600D03*
%TO.N,/D5*%
X147497800Y-93573600D03*
X132816600Y-108229400D03*
%TO.N,/D4*%
X144805400Y-93014800D03*
X133553200Y-105029000D03*
%TO.N,/DRDY*%
X169214800Y-106578400D03*
X166319200Y-101066600D03*
%TO.N,/RX*%
X167868600Y-89662000D03*
X164338000Y-84353400D03*
%TO.N,/TX*%
X169316400Y-89712800D03*
X166624000Y-84429600D03*
%TD*%
D12*
%TO.N,/D12*%
X162966413Y-101879387D02*
X162966413Y-112268013D01*
X162966413Y-112268013D02*
X163626800Y-112928400D01*
%TD*%
%TA.AperFunction,Conductor*%
%TO.N,GND*%
G36*
X189173039Y-81299685D02*
G01*
X189218794Y-81352489D01*
X189230000Y-81404000D01*
X189230000Y-88776000D01*
X189210315Y-88843039D01*
X189157511Y-88888794D01*
X189106000Y-88900000D01*
X180975000Y-88900000D01*
X180771800Y-121843800D01*
X189107120Y-121918892D01*
X189173976Y-121939180D01*
X189219254Y-121992394D01*
X189230000Y-122042887D01*
X189230000Y-128146000D01*
X189210315Y-128213039D01*
X189157511Y-128258794D01*
X189106000Y-128270000D01*
X101724000Y-128270000D01*
X101656961Y-128250315D01*
X101611206Y-128197511D01*
X101600000Y-128146000D01*
X101600000Y-126619000D01*
X166378940Y-126619000D01*
X166398726Y-126807256D01*
X166398727Y-126807259D01*
X166457218Y-126987277D01*
X166457221Y-126987284D01*
X166551867Y-127151216D01*
X166678528Y-127291887D01*
X166678529Y-127291888D01*
X166831665Y-127403148D01*
X166831670Y-127403151D01*
X167004592Y-127480142D01*
X167004597Y-127480144D01*
X167189754Y-127519500D01*
X167189755Y-127519500D01*
X167379044Y-127519500D01*
X167379046Y-127519500D01*
X167564203Y-127480144D01*
X167737130Y-127403151D01*
X167890271Y-127291888D01*
X168016933Y-127151216D01*
X168111579Y-126987284D01*
X168170074Y-126807256D01*
X168189860Y-126619000D01*
X168170074Y-126430744D01*
X168111579Y-126250716D01*
X168016933Y-126086784D01*
X167890271Y-125946112D01*
X167890270Y-125946111D01*
X167737134Y-125834851D01*
X167737129Y-125834848D01*
X167564207Y-125757857D01*
X167564202Y-125757855D01*
X167418401Y-125726865D01*
X167379046Y-125718500D01*
X167189754Y-125718500D01*
X167157297Y-125725398D01*
X167004597Y-125757855D01*
X167004592Y-125757857D01*
X166831670Y-125834848D01*
X166831665Y-125834851D01*
X166678529Y-125946111D01*
X166551866Y-126086785D01*
X166457221Y-126250715D01*
X166457218Y-126250722D01*
X166398727Y-126430740D01*
X166398726Y-126430744D01*
X166378940Y-126619000D01*
X101600000Y-126619000D01*
X101600000Y-125552200D01*
X182711140Y-125552200D01*
X182730926Y-125740456D01*
X182730927Y-125740459D01*
X182789418Y-125920477D01*
X182789421Y-125920484D01*
X182884067Y-126084416D01*
X183010729Y-126225088D01*
X183163865Y-126336348D01*
X183163870Y-126336351D01*
X183336792Y-126413342D01*
X183336797Y-126413344D01*
X183521954Y-126452700D01*
X183521955Y-126452700D01*
X183711244Y-126452700D01*
X183711246Y-126452700D01*
X183896403Y-126413344D01*
X184069330Y-126336351D01*
X184222471Y-126225088D01*
X184349133Y-126084416D01*
X184443779Y-125920484D01*
X184502274Y-125740456D01*
X184522060Y-125552200D01*
X184502274Y-125363944D01*
X184443779Y-125183916D01*
X184349133Y-125019984D01*
X184222471Y-124879312D01*
X184220528Y-124877900D01*
X184069334Y-124768051D01*
X184069329Y-124768048D01*
X183896407Y-124691057D01*
X183896402Y-124691055D01*
X183750600Y-124660065D01*
X183711246Y-124651700D01*
X183521954Y-124651700D01*
X183489497Y-124658598D01*
X183336797Y-124691055D01*
X183336792Y-124691057D01*
X183163870Y-124768048D01*
X183163865Y-124768051D01*
X183010729Y-124879311D01*
X182884066Y-125019985D01*
X182789421Y-125183915D01*
X182789418Y-125183922D01*
X182730927Y-125363940D01*
X182730926Y-125363944D01*
X182711140Y-125552200D01*
X101600000Y-125552200D01*
X101600000Y-123977400D01*
X168131540Y-123977400D01*
X168151326Y-124165656D01*
X168151327Y-124165659D01*
X168209818Y-124345677D01*
X168209821Y-124345684D01*
X168304467Y-124509616D01*
X168431129Y-124650287D01*
X168431129Y-124650288D01*
X168584265Y-124761548D01*
X168584270Y-124761551D01*
X168757192Y-124838542D01*
X168757197Y-124838544D01*
X168942354Y-124877900D01*
X168942355Y-124877900D01*
X169131644Y-124877900D01*
X169131646Y-124877900D01*
X169316803Y-124838544D01*
X169489730Y-124761551D01*
X169642871Y-124650288D01*
X169769533Y-124509616D01*
X169864179Y-124345684D01*
X169922674Y-124165656D01*
X169942460Y-123977400D01*
X169922674Y-123789144D01*
X169864179Y-123609116D01*
X169769533Y-123445184D01*
X169642871Y-123304512D01*
X169642870Y-123304511D01*
X169489734Y-123193251D01*
X169489729Y-123193248D01*
X169316807Y-123116257D01*
X169316802Y-123116255D01*
X169171000Y-123085265D01*
X169131646Y-123076900D01*
X168942354Y-123076900D01*
X168909897Y-123083798D01*
X168757197Y-123116255D01*
X168757192Y-123116257D01*
X168584270Y-123193248D01*
X168584265Y-123193251D01*
X168431129Y-123304511D01*
X168304466Y-123445185D01*
X168209821Y-123609115D01*
X168209818Y-123609122D01*
X168151327Y-123789140D01*
X168151326Y-123789144D01*
X168131540Y-123977400D01*
X101600000Y-123977400D01*
X101600000Y-119278400D01*
X137194340Y-119278400D01*
X137214126Y-119466656D01*
X137214127Y-119466659D01*
X137272618Y-119646677D01*
X137272621Y-119646684D01*
X137367267Y-119810616D01*
X137493929Y-119951287D01*
X137493929Y-119951288D01*
X137647065Y-120062548D01*
X137647070Y-120062551D01*
X137819992Y-120139542D01*
X137819997Y-120139544D01*
X138005154Y-120178900D01*
X138005155Y-120178900D01*
X138194444Y-120178900D01*
X138194446Y-120178900D01*
X138379603Y-120139544D01*
X138552530Y-120062551D01*
X138705671Y-119951288D01*
X138832333Y-119810616D01*
X138926979Y-119646684D01*
X138985474Y-119466656D01*
X139005260Y-119278400D01*
X138999921Y-119227600D01*
X171230340Y-119227600D01*
X171250126Y-119415856D01*
X171250127Y-119415859D01*
X171308618Y-119595877D01*
X171308621Y-119595884D01*
X171403267Y-119759816D01*
X171449006Y-119810614D01*
X171529929Y-119900488D01*
X171683065Y-120011748D01*
X171683070Y-120011751D01*
X171855992Y-120088742D01*
X171855997Y-120088744D01*
X172041154Y-120128100D01*
X172041155Y-120128100D01*
X172230444Y-120128100D01*
X172230446Y-120128100D01*
X172415603Y-120088744D01*
X172588530Y-120011751D01*
X172741671Y-119900488D01*
X172868333Y-119759816D01*
X172962979Y-119595884D01*
X173021474Y-119415856D01*
X173041260Y-119227600D01*
X173021474Y-119039344D01*
X172962979Y-118859316D01*
X172868333Y-118695384D01*
X172741671Y-118554712D01*
X172741670Y-118554711D01*
X172588534Y-118443451D01*
X172588529Y-118443448D01*
X172415607Y-118366457D01*
X172415602Y-118366455D01*
X172269801Y-118335465D01*
X172230446Y-118327100D01*
X172041154Y-118327100D01*
X172008697Y-118333998D01*
X171855997Y-118366455D01*
X171855992Y-118366457D01*
X171683070Y-118443448D01*
X171683065Y-118443451D01*
X171529929Y-118554711D01*
X171403266Y-118695385D01*
X171308621Y-118859315D01*
X171308618Y-118859322D01*
X171250127Y-119039340D01*
X171250126Y-119039344D01*
X171230340Y-119227600D01*
X138999921Y-119227600D01*
X138985474Y-119090144D01*
X138926979Y-118910116D01*
X138832333Y-118746184D01*
X138705671Y-118605512D01*
X138635751Y-118554712D01*
X138552534Y-118494251D01*
X138552529Y-118494248D01*
X138379607Y-118417257D01*
X138379602Y-118417255D01*
X138233800Y-118386265D01*
X138194446Y-118377900D01*
X138005154Y-118377900D01*
X137972697Y-118384798D01*
X137819997Y-118417255D01*
X137819992Y-118417257D01*
X137647070Y-118494248D01*
X137647065Y-118494251D01*
X137493929Y-118605511D01*
X137367266Y-118746185D01*
X137272621Y-118910115D01*
X137272618Y-118910122D01*
X137230633Y-119039340D01*
X137214126Y-119090144D01*
X137194340Y-119278400D01*
X101600000Y-119278400D01*
X101600000Y-115417600D01*
X141359940Y-115417600D01*
X141379726Y-115605856D01*
X141379727Y-115605859D01*
X141438218Y-115785877D01*
X141438221Y-115785884D01*
X141532867Y-115949816D01*
X141645357Y-116074748D01*
X141659529Y-116090488D01*
X141812665Y-116201748D01*
X141812670Y-116201751D01*
X141985592Y-116278742D01*
X141985597Y-116278744D01*
X142170754Y-116318100D01*
X142170755Y-116318100D01*
X142360044Y-116318100D01*
X142360046Y-116318100D01*
X142545203Y-116278744D01*
X142718130Y-116201751D01*
X142871271Y-116090488D01*
X142997933Y-115949816D01*
X143092579Y-115785884D01*
X143151074Y-115605856D01*
X143170860Y-115417600D01*
X143157512Y-115290600D01*
X167293340Y-115290600D01*
X167313126Y-115478856D01*
X167313127Y-115478859D01*
X167371618Y-115658877D01*
X167371621Y-115658884D01*
X167466267Y-115822816D01*
X167580617Y-115949814D01*
X167592929Y-115963488D01*
X167746065Y-116074748D01*
X167746070Y-116074751D01*
X167918992Y-116151742D01*
X167918997Y-116151744D01*
X168104154Y-116191100D01*
X168104155Y-116191100D01*
X168293444Y-116191100D01*
X168293446Y-116191100D01*
X168478603Y-116151744D01*
X168651530Y-116074751D01*
X168804671Y-115963488D01*
X168931333Y-115822816D01*
X169025979Y-115658884D01*
X169084474Y-115478856D01*
X169104260Y-115290600D01*
X169084474Y-115102344D01*
X169025979Y-114922316D01*
X168931333Y-114758384D01*
X168804671Y-114617712D01*
X168804670Y-114617711D01*
X168651534Y-114506451D01*
X168651529Y-114506448D01*
X168478607Y-114429457D01*
X168478602Y-114429455D01*
X168332800Y-114398465D01*
X168293446Y-114390100D01*
X168104154Y-114390100D01*
X168071697Y-114396998D01*
X167918997Y-114429455D01*
X167918992Y-114429457D01*
X167746070Y-114506448D01*
X167746065Y-114506451D01*
X167592929Y-114617711D01*
X167466266Y-114758385D01*
X167371621Y-114922315D01*
X167371618Y-114922322D01*
X167313127Y-115102340D01*
X167313126Y-115102344D01*
X167293340Y-115290600D01*
X143157512Y-115290600D01*
X143151074Y-115229344D01*
X143092579Y-115049316D01*
X142997933Y-114885384D01*
X142871271Y-114744712D01*
X142871270Y-114744711D01*
X142718134Y-114633451D01*
X142718129Y-114633448D01*
X142545207Y-114556457D01*
X142545202Y-114556455D01*
X142399401Y-114525465D01*
X142360046Y-114517100D01*
X142170754Y-114517100D01*
X142138297Y-114523998D01*
X141985597Y-114556455D01*
X141985592Y-114556457D01*
X141812670Y-114633448D01*
X141812665Y-114633451D01*
X141659529Y-114744711D01*
X141532866Y-114885385D01*
X141438221Y-115049315D01*
X141438218Y-115049322D01*
X141379727Y-115229340D01*
X141379726Y-115229344D01*
X141359940Y-115417600D01*
X101600000Y-115417600D01*
X101600000Y-111556800D01*
X126475540Y-111556800D01*
X126495326Y-111745056D01*
X126495327Y-111745059D01*
X126553818Y-111925077D01*
X126553821Y-111925084D01*
X126648467Y-112089016D01*
X126698201Y-112144251D01*
X126775129Y-112229688D01*
X126928265Y-112340948D01*
X126928270Y-112340951D01*
X127101192Y-112417942D01*
X127101197Y-112417944D01*
X127286354Y-112457300D01*
X127286355Y-112457300D01*
X127475644Y-112457300D01*
X127475646Y-112457300D01*
X127660803Y-112417944D01*
X127833730Y-112340951D01*
X127986871Y-112229688D01*
X128113533Y-112089016D01*
X128208179Y-111925084D01*
X128266674Y-111745056D01*
X128286460Y-111556800D01*
X128266674Y-111368544D01*
X128208179Y-111188516D01*
X128113533Y-111024584D01*
X127986871Y-110883912D01*
X127986870Y-110883911D01*
X127833734Y-110772651D01*
X127833729Y-110772648D01*
X127660807Y-110695657D01*
X127660802Y-110695655D01*
X127515000Y-110664665D01*
X127475646Y-110656300D01*
X127286354Y-110656300D01*
X127253897Y-110663198D01*
X127101197Y-110695655D01*
X127101192Y-110695657D01*
X126928270Y-110772648D01*
X126928265Y-110772651D01*
X126775129Y-110883911D01*
X126648466Y-111024585D01*
X126553821Y-111188515D01*
X126553818Y-111188522D01*
X126499383Y-111356057D01*
X126495326Y-111368544D01*
X126475540Y-111556800D01*
X101600000Y-111556800D01*
X101600000Y-110566200D01*
X123325940Y-110566200D01*
X123345726Y-110754456D01*
X123345727Y-110754459D01*
X123404218Y-110934477D01*
X123404221Y-110934484D01*
X123498867Y-111098416D01*
X123579993Y-111188515D01*
X123625529Y-111239088D01*
X123778665Y-111350348D01*
X123778670Y-111350351D01*
X123951592Y-111427342D01*
X123951597Y-111427344D01*
X124136754Y-111466700D01*
X124136755Y-111466700D01*
X124326044Y-111466700D01*
X124326046Y-111466700D01*
X124511203Y-111427344D01*
X124684130Y-111350351D01*
X124837271Y-111239088D01*
X124963933Y-111098416D01*
X125058579Y-110934484D01*
X125117074Y-110754456D01*
X125136860Y-110566200D01*
X125123512Y-110439200D01*
X129701340Y-110439200D01*
X129721126Y-110627456D01*
X129721127Y-110627459D01*
X129779618Y-110807477D01*
X129779621Y-110807484D01*
X129874267Y-110971416D01*
X129922140Y-111024584D01*
X130000929Y-111112088D01*
X130154065Y-111223348D01*
X130154070Y-111223351D01*
X130326992Y-111300342D01*
X130326997Y-111300344D01*
X130512154Y-111339700D01*
X130512155Y-111339700D01*
X130701444Y-111339700D01*
X130701446Y-111339700D01*
X130886603Y-111300344D01*
X131059530Y-111223351D01*
X131212671Y-111112088D01*
X131339333Y-110971416D01*
X131433979Y-110807484D01*
X131492474Y-110627456D01*
X131512260Y-110439200D01*
X131492474Y-110250944D01*
X131433979Y-110070916D01*
X131339333Y-109906984D01*
X131212671Y-109766312D01*
X131212670Y-109766311D01*
X131059534Y-109655051D01*
X131059529Y-109655048D01*
X130886607Y-109578057D01*
X130886602Y-109578055D01*
X130740801Y-109547065D01*
X130701446Y-109538700D01*
X130512154Y-109538700D01*
X130479697Y-109545598D01*
X130326997Y-109578055D01*
X130326992Y-109578057D01*
X130154070Y-109655048D01*
X130154065Y-109655051D01*
X130000929Y-109766311D01*
X129874266Y-109906985D01*
X129779621Y-110070915D01*
X129779618Y-110070922D01*
X129721127Y-110250940D01*
X129721126Y-110250944D01*
X129701340Y-110439200D01*
X125123512Y-110439200D01*
X125117074Y-110377944D01*
X125058579Y-110197916D01*
X124963933Y-110033984D01*
X124837271Y-109893312D01*
X124837270Y-109893311D01*
X124684134Y-109782051D01*
X124684129Y-109782048D01*
X124511207Y-109705057D01*
X124511202Y-109705055D01*
X124365401Y-109674065D01*
X124326046Y-109665700D01*
X124136754Y-109665700D01*
X124104297Y-109672598D01*
X123951597Y-109705055D01*
X123951592Y-109705057D01*
X123778670Y-109782048D01*
X123778665Y-109782051D01*
X123625529Y-109893311D01*
X123498866Y-110033985D01*
X123404221Y-110197915D01*
X123404218Y-110197922D01*
X123345727Y-110377940D01*
X123345726Y-110377944D01*
X123325940Y-110566200D01*
X101600000Y-110566200D01*
X101600000Y-107950000D01*
X120709740Y-107950000D01*
X120729526Y-108138256D01*
X120729527Y-108138259D01*
X120788018Y-108318277D01*
X120788021Y-108318284D01*
X120882667Y-108482216D01*
X120986629Y-108597677D01*
X121009329Y-108622888D01*
X121162465Y-108734148D01*
X121162470Y-108734151D01*
X121335392Y-108811142D01*
X121335397Y-108811144D01*
X121520554Y-108850500D01*
X121520555Y-108850500D01*
X121709844Y-108850500D01*
X121709846Y-108850500D01*
X121895003Y-108811144D01*
X122067930Y-108734151D01*
X122221071Y-108622888D01*
X122347733Y-108482216D01*
X122442379Y-108318284D01*
X122471259Y-108229400D01*
X131911140Y-108229400D01*
X131930926Y-108417656D01*
X131930927Y-108417659D01*
X131989418Y-108597677D01*
X131989421Y-108597684D01*
X132084067Y-108761616D01*
X132164099Y-108850500D01*
X132210729Y-108902288D01*
X132363865Y-109013548D01*
X132363870Y-109013551D01*
X132536792Y-109090542D01*
X132536797Y-109090544D01*
X132721954Y-109129900D01*
X132721955Y-109129900D01*
X132911244Y-109129900D01*
X132911246Y-109129900D01*
X133096403Y-109090544D01*
X133269330Y-109013551D01*
X133422471Y-108902288D01*
X133549133Y-108761616D01*
X133643779Y-108597684D01*
X133702274Y-108417656D01*
X133722060Y-108229400D01*
X133702274Y-108041144D01*
X133643779Y-107861116D01*
X133549133Y-107697184D01*
X133422471Y-107556512D01*
X133383792Y-107528410D01*
X133269334Y-107445251D01*
X133269329Y-107445248D01*
X133096407Y-107368257D01*
X133096402Y-107368255D01*
X132950601Y-107337265D01*
X132911246Y-107328900D01*
X132721954Y-107328900D01*
X132689497Y-107335798D01*
X132536797Y-107368255D01*
X132536792Y-107368257D01*
X132363870Y-107445248D01*
X132363865Y-107445251D01*
X132210729Y-107556511D01*
X132084066Y-107697185D01*
X131989421Y-107861115D01*
X131989418Y-107861122D01*
X131936167Y-108025014D01*
X131930926Y-108041144D01*
X131911140Y-108229400D01*
X122471259Y-108229400D01*
X122500874Y-108138256D01*
X122520660Y-107950000D01*
X122500874Y-107761744D01*
X122442379Y-107581716D01*
X122347733Y-107417784D01*
X122221071Y-107277112D01*
X122221070Y-107277111D01*
X122067934Y-107165851D01*
X122067929Y-107165848D01*
X121895007Y-107088857D01*
X121895002Y-107088855D01*
X121749201Y-107057865D01*
X121709846Y-107049500D01*
X121520554Y-107049500D01*
X121488097Y-107056398D01*
X121335397Y-107088855D01*
X121335392Y-107088857D01*
X121162470Y-107165848D01*
X121162465Y-107165851D01*
X121009329Y-107277111D01*
X120882666Y-107417785D01*
X120788021Y-107581715D01*
X120788018Y-107581722D01*
X120729527Y-107761740D01*
X120729526Y-107761744D01*
X120709740Y-107950000D01*
X101600000Y-107950000D01*
X101600000Y-105003600D01*
X120557340Y-105003600D01*
X120577126Y-105191856D01*
X120577127Y-105191859D01*
X120635618Y-105371877D01*
X120635621Y-105371884D01*
X120730267Y-105535816D01*
X120767887Y-105577597D01*
X120856929Y-105676488D01*
X121010065Y-105787748D01*
X121010070Y-105787751D01*
X121182992Y-105864742D01*
X121182997Y-105864744D01*
X121368154Y-105904100D01*
X121368155Y-105904100D01*
X121557444Y-105904100D01*
X121557446Y-105904100D01*
X121742603Y-105864744D01*
X121915530Y-105787751D01*
X122068671Y-105676488D01*
X122195333Y-105535816D01*
X122289979Y-105371884D01*
X122348474Y-105191856D01*
X122365590Y-105029000D01*
X132647740Y-105029000D01*
X132667526Y-105217256D01*
X132667527Y-105217259D01*
X132726018Y-105397277D01*
X132726021Y-105397284D01*
X132820667Y-105561216D01*
X132925730Y-105677900D01*
X132947329Y-105701888D01*
X133100465Y-105813148D01*
X133100470Y-105813151D01*
X133273392Y-105890142D01*
X133273397Y-105890144D01*
X133458554Y-105929500D01*
X133458555Y-105929500D01*
X133647844Y-105929500D01*
X133647846Y-105929500D01*
X133833003Y-105890144D01*
X134005930Y-105813151D01*
X134159071Y-105701888D01*
X134285733Y-105561216D01*
X134380379Y-105397284D01*
X134438874Y-105217256D01*
X134458660Y-105029000D01*
X134438874Y-104840744D01*
X134380379Y-104660716D01*
X134285733Y-104496784D01*
X134159071Y-104356112D01*
X134159070Y-104356111D01*
X134005934Y-104244851D01*
X134005929Y-104244848D01*
X133833007Y-104167857D01*
X133833002Y-104167855D01*
X133687201Y-104136865D01*
X133647846Y-104128500D01*
X133458554Y-104128500D01*
X133426097Y-104135398D01*
X133273397Y-104167855D01*
X133273392Y-104167857D01*
X133100470Y-104244848D01*
X133100465Y-104244851D01*
X132947329Y-104356111D01*
X132820666Y-104496785D01*
X132726021Y-104660715D01*
X132726018Y-104660722D01*
X132676503Y-104813115D01*
X132667526Y-104840744D01*
X132647740Y-105029000D01*
X122365590Y-105029000D01*
X122368260Y-105003600D01*
X122348474Y-104815344D01*
X122289979Y-104635316D01*
X122195333Y-104471384D01*
X122068671Y-104330712D01*
X121991686Y-104274779D01*
X121915534Y-104219451D01*
X121915529Y-104219448D01*
X121742607Y-104142457D01*
X121742602Y-104142455D01*
X121596800Y-104111465D01*
X121557446Y-104103100D01*
X121368154Y-104103100D01*
X121335697Y-104109998D01*
X121182997Y-104142455D01*
X121182992Y-104142457D01*
X121010070Y-104219448D01*
X121010065Y-104219451D01*
X120856929Y-104330711D01*
X120730266Y-104471385D01*
X120635621Y-104635315D01*
X120635618Y-104635322D01*
X120577850Y-104813115D01*
X120577126Y-104815344D01*
X120557340Y-105003600D01*
X101600000Y-105003600D01*
X101600000Y-102362000D01*
X120684340Y-102362000D01*
X120704126Y-102550256D01*
X120704127Y-102550259D01*
X120762618Y-102730277D01*
X120762621Y-102730284D01*
X120857267Y-102894216D01*
X120983928Y-103034888D01*
X120983929Y-103034888D01*
X121137065Y-103146148D01*
X121137070Y-103146151D01*
X121309992Y-103223142D01*
X121309997Y-103223144D01*
X121495154Y-103262500D01*
X121495155Y-103262500D01*
X121684444Y-103262500D01*
X121684446Y-103262500D01*
X121869603Y-103223144D01*
X122042530Y-103146151D01*
X122195671Y-103034888D01*
X122322333Y-102894216D01*
X122416979Y-102730284D01*
X122475474Y-102550256D01*
X122495260Y-102362000D01*
X122475474Y-102173744D01*
X122416979Y-101993716D01*
X122322333Y-101829784D01*
X122195671Y-101689112D01*
X122195670Y-101689111D01*
X122042534Y-101577851D01*
X122042529Y-101577848D01*
X121869607Y-101500857D01*
X121869602Y-101500855D01*
X121723801Y-101469865D01*
X121684446Y-101461500D01*
X121495154Y-101461500D01*
X121466380Y-101467616D01*
X121309997Y-101500855D01*
X121309992Y-101500857D01*
X121137070Y-101577848D01*
X121137065Y-101577851D01*
X120983929Y-101689111D01*
X120857266Y-101829785D01*
X120762621Y-101993715D01*
X120762618Y-101993722D01*
X120738596Y-102067656D01*
X120704126Y-102173744D01*
X120684340Y-102362000D01*
X101600000Y-102362000D01*
X101600000Y-101371400D01*
X132038140Y-101371400D01*
X132057926Y-101559656D01*
X132057927Y-101559659D01*
X132116418Y-101739677D01*
X132116421Y-101739684D01*
X132211067Y-101903616D01*
X132292193Y-101993715D01*
X132337729Y-102044288D01*
X132490865Y-102155548D01*
X132490870Y-102155551D01*
X132663792Y-102232542D01*
X132663797Y-102232544D01*
X132848954Y-102271900D01*
X132848955Y-102271900D01*
X133038244Y-102271900D01*
X133038246Y-102271900D01*
X133223403Y-102232544D01*
X133396330Y-102155551D01*
X133549471Y-102044288D01*
X133676133Y-101903616D01*
X133704779Y-101854000D01*
X157133340Y-101854000D01*
X157153126Y-102042256D01*
X157153127Y-102042259D01*
X157211618Y-102222277D01*
X157211621Y-102222284D01*
X157306267Y-102386216D01*
X157357557Y-102443179D01*
X157432929Y-102526888D01*
X157586065Y-102638148D01*
X157586070Y-102638151D01*
X157758992Y-102715142D01*
X157758997Y-102715144D01*
X157944154Y-102754500D01*
X157944155Y-102754500D01*
X158133444Y-102754500D01*
X158133446Y-102754500D01*
X158318603Y-102715144D01*
X158491530Y-102638151D01*
X158644671Y-102526888D01*
X158687045Y-102479826D01*
X158746530Y-102443179D01*
X158816387Y-102444508D01*
X158871344Y-102479827D01*
X158982329Y-102603088D01*
X159135465Y-102714348D01*
X159135470Y-102714351D01*
X159308392Y-102791342D01*
X159308397Y-102791344D01*
X159493554Y-102830700D01*
X159493555Y-102830700D01*
X159682844Y-102830700D01*
X159682846Y-102830700D01*
X159868003Y-102791344D01*
X160040930Y-102714351D01*
X160194071Y-102603088D01*
X160306322Y-102478420D01*
X160365806Y-102441773D01*
X160435663Y-102443103D01*
X160490618Y-102478421D01*
X160530638Y-102522867D01*
X160557129Y-102552288D01*
X160710265Y-102663548D01*
X160710270Y-102663551D01*
X160883192Y-102740542D01*
X160883197Y-102740544D01*
X161068354Y-102779900D01*
X161068355Y-102779900D01*
X161257644Y-102779900D01*
X161257646Y-102779900D01*
X161442803Y-102740544D01*
X161615730Y-102663551D01*
X161768871Y-102552288D01*
X161895533Y-102411616D01*
X161957324Y-102304589D01*
X162007889Y-102256376D01*
X162076496Y-102243152D01*
X162141361Y-102269120D01*
X162172097Y-102304592D01*
X162233876Y-102411598D01*
X162233878Y-102411601D01*
X162334063Y-102522867D01*
X162364293Y-102585858D01*
X162365913Y-102605839D01*
X162365913Y-104152041D01*
X162346228Y-104219080D01*
X162293424Y-104264835D01*
X162224266Y-104274779D01*
X162169028Y-104252359D01*
X162123734Y-104219451D01*
X162123729Y-104219448D01*
X161950807Y-104142457D01*
X161950802Y-104142455D01*
X161805001Y-104111465D01*
X161765646Y-104103100D01*
X161576354Y-104103100D01*
X161543897Y-104109998D01*
X161391197Y-104142455D01*
X161391192Y-104142457D01*
X161218270Y-104219448D01*
X161218265Y-104219451D01*
X161065129Y-104330711D01*
X160938466Y-104471385D01*
X160843821Y-104635315D01*
X160843818Y-104635322D01*
X160786050Y-104813115D01*
X160785326Y-104815344D01*
X160765540Y-105003600D01*
X160785326Y-105191856D01*
X160785327Y-105191859D01*
X160843818Y-105371877D01*
X160843821Y-105371884D01*
X160938467Y-105535816D01*
X160976087Y-105577597D01*
X161065129Y-105676488D01*
X161218265Y-105787748D01*
X161218270Y-105787751D01*
X161391192Y-105864742D01*
X161391197Y-105864744D01*
X161576354Y-105904100D01*
X161576355Y-105904100D01*
X161765644Y-105904100D01*
X161765646Y-105904100D01*
X161950803Y-105864744D01*
X162123730Y-105787751D01*
X162169029Y-105754839D01*
X162234833Y-105731360D01*
X162302887Y-105747185D01*
X162351582Y-105797290D01*
X162365913Y-105855158D01*
X162365913Y-112224584D01*
X162365382Y-112232686D01*
X162360731Y-112268012D01*
X162360731Y-112268013D01*
X162365913Y-112307373D01*
X162381368Y-112424773D01*
X162381369Y-112424775D01*
X162437431Y-112560122D01*
X162441877Y-112570854D01*
X162538131Y-112696295D01*
X162566408Y-112717993D01*
X162572498Y-112723333D01*
X162685023Y-112835858D01*
X162718506Y-112897177D01*
X162721340Y-112923536D01*
X162721339Y-112928397D01*
X162729007Y-113001348D01*
X162741126Y-113116656D01*
X162741127Y-113116659D01*
X162799618Y-113296677D01*
X162799621Y-113296684D01*
X162894267Y-113460616D01*
X163020928Y-113601287D01*
X163020929Y-113601288D01*
X163174065Y-113712548D01*
X163174070Y-113712551D01*
X163346992Y-113789542D01*
X163346997Y-113789544D01*
X163532154Y-113828900D01*
X163532155Y-113828900D01*
X163721444Y-113828900D01*
X163721446Y-113828900D01*
X163906603Y-113789544D01*
X164079530Y-113712551D01*
X164232671Y-113601288D01*
X164359333Y-113460616D01*
X164453979Y-113296684D01*
X164512474Y-113116656D01*
X164532260Y-112928400D01*
X164512474Y-112740144D01*
X164453979Y-112560116D01*
X164359333Y-112396184D01*
X164232671Y-112255512D01*
X164201254Y-112232686D01*
X164179939Y-112217200D01*
X168029940Y-112217200D01*
X168049726Y-112405456D01*
X168049727Y-112405459D01*
X168108218Y-112585477D01*
X168108221Y-112585484D01*
X168202867Y-112749416D01*
X168329529Y-112890088D01*
X168482665Y-113001348D01*
X168482670Y-113001351D01*
X168655592Y-113078342D01*
X168655597Y-113078344D01*
X168840754Y-113117700D01*
X168840755Y-113117700D01*
X169030044Y-113117700D01*
X169030046Y-113117700D01*
X169215203Y-113078344D01*
X169388130Y-113001351D01*
X169541271Y-112890088D01*
X169667933Y-112749416D01*
X169762579Y-112585484D01*
X169821074Y-112405456D01*
X169840860Y-112217200D01*
X169821074Y-112028944D01*
X169762579Y-111848916D01*
X169667933Y-111684984D01*
X169541271Y-111544312D01*
X169541270Y-111544311D01*
X169388134Y-111433051D01*
X169388129Y-111433048D01*
X169215207Y-111356057D01*
X169215202Y-111356055D01*
X169069401Y-111325065D01*
X169030046Y-111316700D01*
X168840754Y-111316700D01*
X168808297Y-111323598D01*
X168655597Y-111356055D01*
X168655592Y-111356057D01*
X168482670Y-111433048D01*
X168482665Y-111433051D01*
X168329529Y-111544311D01*
X168202866Y-111684985D01*
X168108221Y-111848915D01*
X168108218Y-111848922D01*
X168050065Y-112027900D01*
X168049726Y-112028944D01*
X168029940Y-112217200D01*
X164179939Y-112217200D01*
X164079534Y-112144251D01*
X164079529Y-112144248D01*
X163906607Y-112067257D01*
X163906602Y-112067255D01*
X163760800Y-112036265D01*
X163721446Y-112027900D01*
X163721445Y-112027900D01*
X163690913Y-112027900D01*
X163623874Y-112008215D01*
X163578119Y-111955411D01*
X163566913Y-111903900D01*
X163566913Y-106996194D01*
X165838818Y-106996194D01*
X165858604Y-107184450D01*
X165858605Y-107184453D01*
X165917096Y-107364471D01*
X165917099Y-107364478D01*
X166011745Y-107528410D01*
X166138407Y-107669081D01*
X166138407Y-107669082D01*
X166291543Y-107780342D01*
X166291548Y-107780345D01*
X166464470Y-107857336D01*
X166464475Y-107857338D01*
X166649632Y-107896694D01*
X166649633Y-107896694D01*
X166838922Y-107896694D01*
X166838924Y-107896694D01*
X167024081Y-107857338D01*
X167197008Y-107780345D01*
X167350149Y-107669082D01*
X167476811Y-107528410D01*
X167497370Y-107492800D01*
X173287740Y-107492800D01*
X173307526Y-107681056D01*
X173307527Y-107681059D01*
X173366018Y-107861077D01*
X173366021Y-107861084D01*
X173460667Y-108025016D01*
X173475189Y-108041144D01*
X173587329Y-108165688D01*
X173740465Y-108276948D01*
X173740470Y-108276951D01*
X173913392Y-108353942D01*
X173913397Y-108353944D01*
X174098554Y-108393300D01*
X174098555Y-108393300D01*
X174287844Y-108393300D01*
X174287846Y-108393300D01*
X174473003Y-108353944D01*
X174645930Y-108276951D01*
X174799071Y-108165688D01*
X174925733Y-108025016D01*
X175020379Y-107861084D01*
X175078874Y-107681056D01*
X175098660Y-107492800D01*
X175078874Y-107304544D01*
X175020379Y-107124516D01*
X174925733Y-106960584D01*
X174799071Y-106819912D01*
X174799070Y-106819911D01*
X174645934Y-106708651D01*
X174645929Y-106708648D01*
X174473007Y-106631657D01*
X174473002Y-106631655D01*
X174327201Y-106600665D01*
X174287846Y-106592300D01*
X174098554Y-106592300D01*
X174066097Y-106599198D01*
X173913397Y-106631655D01*
X173913392Y-106631657D01*
X173740470Y-106708648D01*
X173740465Y-106708651D01*
X173587329Y-106819911D01*
X173460666Y-106960585D01*
X173366021Y-107124515D01*
X173366018Y-107124522D01*
X173316439Y-107277112D01*
X173307526Y-107304544D01*
X173287740Y-107492800D01*
X167497370Y-107492800D01*
X167571457Y-107364478D01*
X167629952Y-107184450D01*
X167649738Y-106996194D01*
X167629952Y-106807938D01*
X167575390Y-106640017D01*
X167571459Y-106627916D01*
X167571458Y-106627915D01*
X167571457Y-106627910D01*
X167476811Y-106463978D01*
X167350149Y-106323306D01*
X167350148Y-106323305D01*
X167197012Y-106212045D01*
X167197007Y-106212042D01*
X167024085Y-106135051D01*
X167024080Y-106135049D01*
X166866639Y-106101585D01*
X166838924Y-106095694D01*
X166649632Y-106095694D01*
X166621917Y-106101585D01*
X166464475Y-106135049D01*
X166464470Y-106135051D01*
X166291548Y-106212042D01*
X166291543Y-106212045D01*
X166138407Y-106323305D01*
X166011744Y-106463979D01*
X165917099Y-106627909D01*
X165917096Y-106627916D01*
X165890864Y-106708651D01*
X165858604Y-106807938D01*
X165838818Y-106996194D01*
X163566913Y-106996194D01*
X163566913Y-105181400D01*
X167267940Y-105181400D01*
X167287726Y-105369656D01*
X167287727Y-105369659D01*
X167346218Y-105549677D01*
X167346221Y-105549684D01*
X167440867Y-105713616D01*
X167530489Y-105813151D01*
X167567529Y-105854288D01*
X167720665Y-105965548D01*
X167720670Y-105965551D01*
X167893592Y-106042542D01*
X167893597Y-106042544D01*
X168078754Y-106081900D01*
X168078755Y-106081900D01*
X168258609Y-106081900D01*
X168325648Y-106101585D01*
X168371403Y-106154389D01*
X168381347Y-106223547D01*
X168376540Y-106244218D01*
X168350843Y-106323305D01*
X168329126Y-106390144D01*
X168309340Y-106578400D01*
X168329126Y-106766656D01*
X168329127Y-106766659D01*
X168387618Y-106946677D01*
X168387621Y-106946684D01*
X168482267Y-107110616D01*
X168608929Y-107251287D01*
X168608929Y-107251288D01*
X168762065Y-107362548D01*
X168762070Y-107362551D01*
X168934992Y-107439542D01*
X168934997Y-107439544D01*
X169120154Y-107478900D01*
X169120155Y-107478900D01*
X169309444Y-107478900D01*
X169309446Y-107478900D01*
X169494603Y-107439544D01*
X169667530Y-107362551D01*
X169820671Y-107251288D01*
X169947333Y-107110616D01*
X170041979Y-106946684D01*
X170041979Y-106946682D01*
X170043691Y-106943718D01*
X170094257Y-106895503D01*
X170162864Y-106882279D01*
X170201514Y-106892439D01*
X170232292Y-106906142D01*
X170232297Y-106906144D01*
X170417454Y-106945500D01*
X170417455Y-106945500D01*
X170606744Y-106945500D01*
X170606746Y-106945500D01*
X170791903Y-106906144D01*
X170964830Y-106829151D01*
X171117971Y-106717888D01*
X171244633Y-106577216D01*
X171339279Y-106413284D01*
X171397774Y-106233256D01*
X171417560Y-106045000D01*
X171397774Y-105856744D01*
X171339279Y-105676716D01*
X171244633Y-105512784D01*
X171117971Y-105372112D01*
X171117970Y-105372111D01*
X170964834Y-105260851D01*
X170964829Y-105260848D01*
X170791907Y-105183857D01*
X170791902Y-105183855D01*
X170646101Y-105152865D01*
X170606746Y-105144500D01*
X170417454Y-105144500D01*
X170384997Y-105151398D01*
X170232297Y-105183855D01*
X170232292Y-105183857D01*
X170059370Y-105260848D01*
X170059365Y-105260851D01*
X169906229Y-105372111D01*
X169779565Y-105512785D01*
X169683208Y-105679682D01*
X169632641Y-105727898D01*
X169564034Y-105741121D01*
X169525385Y-105730961D01*
X169515362Y-105726498D01*
X169494602Y-105717255D01*
X169348800Y-105686265D01*
X169309446Y-105677900D01*
X169129591Y-105677900D01*
X169062552Y-105658215D01*
X169016797Y-105605411D01*
X169006853Y-105536253D01*
X169011660Y-105515582D01*
X169027633Y-105466419D01*
X169059074Y-105369656D01*
X169078860Y-105181400D01*
X169059074Y-104993144D01*
X169000579Y-104813116D01*
X168905933Y-104649184D01*
X168808324Y-104540779D01*
X168778095Y-104477789D01*
X168786720Y-104408454D01*
X168825404Y-104360218D01*
X168825241Y-104360037D01*
X168826354Y-104359034D01*
X168827596Y-104357485D01*
X168830071Y-104355688D01*
X168956733Y-104215016D01*
X169051379Y-104051084D01*
X169109874Y-103871056D01*
X169129660Y-103682800D01*
X169109874Y-103494544D01*
X169051379Y-103314516D01*
X169029373Y-103276400D01*
X173236940Y-103276400D01*
X173256726Y-103464656D01*
X173256727Y-103464659D01*
X173315218Y-103644677D01*
X173315221Y-103644684D01*
X173409867Y-103808616D01*
X173536529Y-103949288D01*
X173689665Y-104060548D01*
X173689670Y-104060551D01*
X173862592Y-104137542D01*
X173862597Y-104137544D01*
X174047754Y-104176900D01*
X174047755Y-104176900D01*
X174237044Y-104176900D01*
X174237046Y-104176900D01*
X174422203Y-104137544D01*
X174595130Y-104060551D01*
X174748271Y-103949288D01*
X174874933Y-103808616D01*
X174969579Y-103644684D01*
X175028074Y-103464656D01*
X175047860Y-103276400D01*
X175028074Y-103088144D01*
X174969579Y-102908116D01*
X174874933Y-102744184D01*
X174748271Y-102603512D01*
X174748270Y-102603511D01*
X174595134Y-102492251D01*
X174595129Y-102492248D01*
X174422207Y-102415257D01*
X174422202Y-102415255D01*
X174276400Y-102384265D01*
X174237046Y-102375900D01*
X174047754Y-102375900D01*
X174015297Y-102382798D01*
X173862597Y-102415255D01*
X173862592Y-102415257D01*
X173689670Y-102492248D01*
X173689665Y-102492251D01*
X173536529Y-102603511D01*
X173409866Y-102744185D01*
X173315221Y-102908115D01*
X173315218Y-102908122D01*
X173282145Y-103009912D01*
X173256726Y-103088144D01*
X173236940Y-103276400D01*
X169029373Y-103276400D01*
X168956733Y-103150584D01*
X168830071Y-103009912D01*
X168830070Y-103009911D01*
X168676934Y-102898651D01*
X168676929Y-102898648D01*
X168504007Y-102821657D01*
X168504002Y-102821655D01*
X168358201Y-102790665D01*
X168318846Y-102782300D01*
X168129554Y-102782300D01*
X168097097Y-102789198D01*
X167944397Y-102821655D01*
X167944392Y-102821657D01*
X167771470Y-102898648D01*
X167771465Y-102898651D01*
X167618329Y-103009911D01*
X167491666Y-103150585D01*
X167397021Y-103314515D01*
X167397018Y-103314522D01*
X167348237Y-103464656D01*
X167338526Y-103494544D01*
X167318740Y-103682800D01*
X167338526Y-103871056D01*
X167338527Y-103871059D01*
X167397018Y-104051077D01*
X167397021Y-104051084D01*
X167491667Y-104215016D01*
X167545478Y-104274779D01*
X167589274Y-104323419D01*
X167619504Y-104386410D01*
X167610879Y-104455745D01*
X167572192Y-104503990D01*
X167572353Y-104504169D01*
X167571263Y-104505150D01*
X167570018Y-104506703D01*
X167567531Y-104508510D01*
X167567523Y-104508516D01*
X167440866Y-104649185D01*
X167346221Y-104813115D01*
X167346218Y-104813122D01*
X167287727Y-104993140D01*
X167287726Y-104993144D01*
X167267940Y-105181400D01*
X163566913Y-105181400D01*
X163566913Y-102605839D01*
X163586598Y-102538800D01*
X163598763Y-102522867D01*
X163698946Y-102411603D01*
X163793592Y-102247671D01*
X163852087Y-102067643D01*
X163871873Y-101879387D01*
X163852087Y-101691131D01*
X163793592Y-101511103D01*
X163698946Y-101347171D01*
X163572284Y-101206499D01*
X163555221Y-101194102D01*
X163419147Y-101095238D01*
X163419142Y-101095235D01*
X163246220Y-101018244D01*
X163246215Y-101018242D01*
X163099924Y-100987148D01*
X163061059Y-100978887D01*
X162871767Y-100978887D01*
X162839310Y-100985785D01*
X162686610Y-101018242D01*
X162686605Y-101018244D01*
X162513683Y-101095235D01*
X162513678Y-101095238D01*
X162360542Y-101206498D01*
X162233878Y-101347172D01*
X162172089Y-101454195D01*
X162121522Y-101502411D01*
X162052915Y-101515633D01*
X161988050Y-101489665D01*
X161957317Y-101454197D01*
X161895533Y-101347184D01*
X161768871Y-101206512D01*
X161768852Y-101206498D01*
X161615734Y-101095251D01*
X161615729Y-101095248D01*
X161442807Y-101018257D01*
X161442802Y-101018255D01*
X161296450Y-100987148D01*
X161257646Y-100978900D01*
X161068354Y-100978900D01*
X161035897Y-100985798D01*
X160883197Y-101018255D01*
X160883192Y-101018257D01*
X160710270Y-101095248D01*
X160710265Y-101095251D01*
X160557132Y-101206509D01*
X160557129Y-101206511D01*
X160557129Y-101206512D01*
X160444880Y-101331177D01*
X160444879Y-101331178D01*
X160385392Y-101367826D01*
X160315535Y-101366495D01*
X160260580Y-101331177D01*
X160194071Y-101257312D01*
X160124151Y-101206512D01*
X160040934Y-101146051D01*
X160040929Y-101146048D01*
X159868007Y-101069057D01*
X159868002Y-101069055D01*
X159722201Y-101038065D01*
X159682846Y-101029700D01*
X159493554Y-101029700D01*
X159461097Y-101036598D01*
X159308397Y-101069055D01*
X159308392Y-101069057D01*
X159135470Y-101146048D01*
X159135465Y-101146051D01*
X158982329Y-101257311D01*
X158982328Y-101257312D01*
X158939954Y-101304373D01*
X158880467Y-101341021D01*
X158810610Y-101339690D01*
X158755655Y-101304372D01*
X158711070Y-101254856D01*
X158644671Y-101181112D01*
X158644670Y-101181111D01*
X158491534Y-101069851D01*
X158491529Y-101069848D01*
X158318607Y-100992857D01*
X158318602Y-100992855D01*
X158172800Y-100961865D01*
X158133446Y-100953500D01*
X157944154Y-100953500D01*
X157911697Y-100960398D01*
X157758997Y-100992855D01*
X157758992Y-100992857D01*
X157586070Y-101069848D01*
X157586065Y-101069851D01*
X157432929Y-101181111D01*
X157306266Y-101321785D01*
X157211621Y-101485715D01*
X157211618Y-101485722D01*
X157164971Y-101629289D01*
X157153126Y-101665744D01*
X157133340Y-101854000D01*
X133704779Y-101854000D01*
X133770779Y-101739684D01*
X133829274Y-101559656D01*
X133849060Y-101371400D01*
X133829274Y-101183144D01*
X133770779Y-101003116D01*
X133676133Y-100839184D01*
X133549471Y-100698512D01*
X133549470Y-100698511D01*
X133396334Y-100587251D01*
X133396329Y-100587248D01*
X133223407Y-100510257D01*
X133223402Y-100510255D01*
X133077600Y-100479265D01*
X133038246Y-100470900D01*
X132848954Y-100470900D01*
X132816497Y-100477798D01*
X132663797Y-100510255D01*
X132663792Y-100510257D01*
X132490870Y-100587248D01*
X132490865Y-100587251D01*
X132337729Y-100698511D01*
X132211066Y-100839185D01*
X132116421Y-101003115D01*
X132116418Y-101003122D01*
X132058586Y-101181112D01*
X132057926Y-101183144D01*
X132055470Y-101206512D01*
X132038656Y-101366495D01*
X132038140Y-101371400D01*
X101600000Y-101371400D01*
X101600000Y-99441000D01*
X123071940Y-99441000D01*
X123091726Y-99629256D01*
X123091727Y-99629259D01*
X123150218Y-99809277D01*
X123150221Y-99809284D01*
X123244867Y-99973216D01*
X123336960Y-100075495D01*
X123371529Y-100113888D01*
X123524665Y-100225148D01*
X123524670Y-100225151D01*
X123697592Y-100302142D01*
X123697597Y-100302144D01*
X123882754Y-100341500D01*
X123882755Y-100341500D01*
X124072044Y-100341500D01*
X124072046Y-100341500D01*
X124257203Y-100302144D01*
X124430130Y-100225151D01*
X124583271Y-100113888D01*
X124709933Y-99973216D01*
X124804579Y-99809284D01*
X124863074Y-99629256D01*
X124882860Y-99441000D01*
X124863074Y-99252744D01*
X124804579Y-99072716D01*
X124709933Y-98908784D01*
X124583271Y-98768112D01*
X124531577Y-98730554D01*
X124430134Y-98656851D01*
X124430129Y-98656848D01*
X124422834Y-98653600D01*
X126475540Y-98653600D01*
X126495326Y-98841856D01*
X126495327Y-98841859D01*
X126553818Y-99021877D01*
X126553821Y-99021884D01*
X126648467Y-99185816D01*
X126722222Y-99267729D01*
X126775129Y-99326488D01*
X126928265Y-99437748D01*
X126928270Y-99437751D01*
X127101192Y-99514742D01*
X127101197Y-99514744D01*
X127286354Y-99554100D01*
X127286355Y-99554100D01*
X127475644Y-99554100D01*
X127475646Y-99554100D01*
X127660803Y-99514744D01*
X127832829Y-99438152D01*
X129624190Y-99438152D01*
X129643976Y-99626408D01*
X129643977Y-99626411D01*
X129702468Y-99806429D01*
X129702471Y-99806436D01*
X129797117Y-99970368D01*
X129871569Y-100053055D01*
X129923779Y-100111040D01*
X130076915Y-100222300D01*
X130076920Y-100222303D01*
X130249842Y-100299294D01*
X130249847Y-100299296D01*
X130435004Y-100338652D01*
X130435005Y-100338652D01*
X130624294Y-100338652D01*
X130624296Y-100338652D01*
X130809453Y-100299296D01*
X130982380Y-100222303D01*
X131008948Y-100203000D01*
X164194542Y-100203000D01*
X164214328Y-100391256D01*
X164214329Y-100391259D01*
X164272820Y-100571277D01*
X164272823Y-100571284D01*
X164367469Y-100735216D01*
X164494131Y-100875887D01*
X164494131Y-100875888D01*
X164647267Y-100987148D01*
X164647272Y-100987151D01*
X164820194Y-101064142D01*
X164820199Y-101064144D01*
X165005356Y-101103500D01*
X165005357Y-101103500D01*
X165194646Y-101103500D01*
X165194648Y-101103500D01*
X165278041Y-101085774D01*
X165347706Y-101091090D01*
X165403439Y-101133226D01*
X165427140Y-101194100D01*
X165433526Y-101254856D01*
X165433527Y-101254859D01*
X165492018Y-101434877D01*
X165492021Y-101434884D01*
X165586667Y-101598816D01*
X165676289Y-101698351D01*
X165713329Y-101739488D01*
X165866465Y-101850748D01*
X165866470Y-101850751D01*
X166039392Y-101927742D01*
X166039397Y-101927744D01*
X166224554Y-101967100D01*
X166224555Y-101967100D01*
X166413844Y-101967100D01*
X166413846Y-101967100D01*
X166599003Y-101927744D01*
X166771930Y-101850751D01*
X166925071Y-101739488D01*
X167051733Y-101598816D01*
X167146379Y-101434884D01*
X167204874Y-101254856D01*
X167221457Y-101097073D01*
X168161364Y-101097073D01*
X168181150Y-101285329D01*
X168181151Y-101285332D01*
X168239642Y-101465350D01*
X168239645Y-101465357D01*
X168334291Y-101629289D01*
X168437787Y-101744233D01*
X168460953Y-101769961D01*
X168614089Y-101881221D01*
X168614094Y-101881224D01*
X168787016Y-101958215D01*
X168787021Y-101958217D01*
X168972178Y-101997573D01*
X168972179Y-101997573D01*
X169161468Y-101997573D01*
X169161470Y-101997573D01*
X169346627Y-101958217D01*
X169519554Y-101881224D01*
X169672695Y-101769961D01*
X169695862Y-101744231D01*
X169755345Y-101707583D01*
X169825202Y-101708912D01*
X169838447Y-101713924D01*
X169976392Y-101775342D01*
X169976397Y-101775344D01*
X170161554Y-101814700D01*
X170161555Y-101814700D01*
X170350844Y-101814700D01*
X170350846Y-101814700D01*
X170536003Y-101775344D01*
X170708930Y-101698351D01*
X170862071Y-101587088D01*
X170988733Y-101446416D01*
X171083379Y-101282484D01*
X171141874Y-101102456D01*
X171161660Y-100914200D01*
X171141874Y-100725944D01*
X171083379Y-100545916D01*
X170988733Y-100381984D01*
X170862071Y-100241312D01*
X170862063Y-100241306D01*
X170708934Y-100130051D01*
X170708929Y-100130048D01*
X170536007Y-100053057D01*
X170536002Y-100053055D01*
X170390201Y-100022065D01*
X170350846Y-100013700D01*
X170161554Y-100013700D01*
X170129097Y-100020598D01*
X169976397Y-100053055D01*
X169976392Y-100053057D01*
X169803470Y-100130048D01*
X169803465Y-100130051D01*
X169650335Y-100241306D01*
X169650331Y-100241309D01*
X169627159Y-100267044D01*
X169567671Y-100303691D01*
X169497814Y-100302358D01*
X169484575Y-100297348D01*
X169346631Y-100235930D01*
X169346626Y-100235928D01*
X169191707Y-100203000D01*
X169161470Y-100196573D01*
X168972178Y-100196573D01*
X168941941Y-100203000D01*
X168787021Y-100235928D01*
X168787016Y-100235930D01*
X168614094Y-100312921D01*
X168614089Y-100312924D01*
X168460953Y-100424184D01*
X168334290Y-100564858D01*
X168239645Y-100728788D01*
X168239642Y-100728795D01*
X168191051Y-100878344D01*
X168181150Y-100908817D01*
X168161364Y-101097073D01*
X167221457Y-101097073D01*
X167224660Y-101066600D01*
X167204874Y-100878344D01*
X167146379Y-100698316D01*
X167051733Y-100534384D01*
X166925071Y-100393712D01*
X166921691Y-100391256D01*
X166771934Y-100282451D01*
X166771929Y-100282448D01*
X166599007Y-100205457D01*
X166599002Y-100205455D01*
X166453200Y-100174465D01*
X166413846Y-100166100D01*
X166224554Y-100166100D01*
X166141159Y-100183825D01*
X166071494Y-100178509D01*
X166015761Y-100136371D01*
X165992061Y-100075498D01*
X165985676Y-100014744D01*
X165927181Y-99834716D01*
X165832535Y-99670784D01*
X165705873Y-99530112D01*
X165684718Y-99514742D01*
X165552736Y-99418851D01*
X165552731Y-99418848D01*
X165379809Y-99341857D01*
X165379804Y-99341855D01*
X165234002Y-99310865D01*
X165194648Y-99302500D01*
X165005356Y-99302500D01*
X164972899Y-99309398D01*
X164820199Y-99341855D01*
X164820194Y-99341857D01*
X164647272Y-99418848D01*
X164647267Y-99418851D01*
X164494131Y-99530111D01*
X164367468Y-99670785D01*
X164272823Y-99834715D01*
X164272820Y-99834722D01*
X164227822Y-99973214D01*
X164214328Y-100014744D01*
X164194542Y-100203000D01*
X131008948Y-100203000D01*
X131135521Y-100111040D01*
X131262183Y-99970368D01*
X131356829Y-99806436D01*
X131415324Y-99626408D01*
X131435110Y-99438152D01*
X131415324Y-99249896D01*
X131356829Y-99069868D01*
X131262183Y-98905936D01*
X131135521Y-98765264D01*
X131135520Y-98765263D01*
X130982384Y-98654003D01*
X130982379Y-98654000D01*
X130809457Y-98577009D01*
X130809452Y-98577007D01*
X130663650Y-98546017D01*
X130624296Y-98537652D01*
X130435004Y-98537652D01*
X130402547Y-98544550D01*
X130249847Y-98577007D01*
X130249842Y-98577009D01*
X130076920Y-98654000D01*
X130076915Y-98654003D01*
X129923779Y-98765263D01*
X129797116Y-98905937D01*
X129702471Y-99069867D01*
X129702468Y-99069874D01*
X129658686Y-99204623D01*
X129643976Y-99249896D01*
X129624190Y-99438152D01*
X127832829Y-99438152D01*
X127833730Y-99437751D01*
X127986871Y-99326488D01*
X128113533Y-99185816D01*
X128208179Y-99021884D01*
X128266674Y-98841856D01*
X128286460Y-98653600D01*
X128266674Y-98465344D01*
X128208179Y-98285316D01*
X128113533Y-98121384D01*
X127986871Y-97980712D01*
X127986870Y-97980711D01*
X127833734Y-97869451D01*
X127833729Y-97869448D01*
X127660807Y-97792457D01*
X127660802Y-97792455D01*
X127515000Y-97761465D01*
X127475646Y-97753100D01*
X127286354Y-97753100D01*
X127253897Y-97759998D01*
X127101197Y-97792455D01*
X127101192Y-97792457D01*
X126928270Y-97869448D01*
X126928265Y-97869451D01*
X126775129Y-97980711D01*
X126648466Y-98121385D01*
X126553821Y-98285315D01*
X126553818Y-98285322D01*
X126509917Y-98420437D01*
X126495326Y-98465344D01*
X126475540Y-98653600D01*
X124422834Y-98653600D01*
X124257207Y-98579857D01*
X124257202Y-98579855D01*
X124110850Y-98548748D01*
X124072046Y-98540500D01*
X123882754Y-98540500D01*
X123850297Y-98547398D01*
X123697597Y-98579855D01*
X123697592Y-98579857D01*
X123524670Y-98656848D01*
X123524665Y-98656851D01*
X123371529Y-98768111D01*
X123244866Y-98908785D01*
X123150221Y-99072715D01*
X123150218Y-99072722D01*
X123092651Y-99249896D01*
X123091726Y-99252744D01*
X123071940Y-99441000D01*
X101600000Y-99441000D01*
X101600000Y-96901000D01*
X151240540Y-96901000D01*
X151260326Y-97089256D01*
X151260327Y-97089259D01*
X151318818Y-97269277D01*
X151318821Y-97269284D01*
X151413467Y-97433216D01*
X151540128Y-97573888D01*
X151540129Y-97573888D01*
X151693265Y-97685148D01*
X151693270Y-97685151D01*
X151866192Y-97762142D01*
X151866197Y-97762144D01*
X152051354Y-97801500D01*
X152051355Y-97801500D01*
X152240644Y-97801500D01*
X152240646Y-97801500D01*
X152414248Y-97764600D01*
X156980940Y-97764600D01*
X157000726Y-97952856D01*
X157000727Y-97952859D01*
X157059218Y-98132877D01*
X157059221Y-98132884D01*
X157153867Y-98296816D01*
X157265173Y-98420433D01*
X157280529Y-98437488D01*
X157433665Y-98548748D01*
X157433670Y-98548751D01*
X157606592Y-98625742D01*
X157606597Y-98625744D01*
X157791754Y-98665100D01*
X157791755Y-98665100D01*
X157981044Y-98665100D01*
X157981046Y-98665100D01*
X158166203Y-98625744D01*
X158339130Y-98548751D01*
X158492271Y-98437488D01*
X158618933Y-98296816D01*
X158713579Y-98132884D01*
X158772074Y-97952856D01*
X158791860Y-97764600D01*
X158772074Y-97576344D01*
X158713579Y-97396316D01*
X158618933Y-97232384D01*
X158526386Y-97129600D01*
X164727940Y-97129600D01*
X164747726Y-97317856D01*
X164747727Y-97317859D01*
X164806218Y-97497877D01*
X164806221Y-97497884D01*
X164900867Y-97661816D01*
X165018495Y-97792455D01*
X165027529Y-97802488D01*
X165180665Y-97913748D01*
X165180670Y-97913751D01*
X165353592Y-97990742D01*
X165353597Y-97990744D01*
X165538754Y-98030100D01*
X165538755Y-98030100D01*
X165728044Y-98030100D01*
X165728046Y-98030100D01*
X165913203Y-97990744D01*
X166086130Y-97913751D01*
X166201330Y-97830054D01*
X170793921Y-97830054D01*
X170813707Y-98018310D01*
X170813708Y-98018313D01*
X170872199Y-98198331D01*
X170872202Y-98198338D01*
X170966848Y-98362270D01*
X171019222Y-98420437D01*
X171093510Y-98502942D01*
X171246646Y-98614202D01*
X171246651Y-98614205D01*
X171419573Y-98691196D01*
X171419574Y-98691196D01*
X171419578Y-98691198D01*
X171590624Y-98727554D01*
X171652105Y-98760746D01*
X171682774Y-98810526D01*
X171736855Y-98976970D01*
X171736860Y-98976982D01*
X171833132Y-99143731D01*
X171849605Y-99211631D01*
X171833133Y-99267729D01*
X171740418Y-99428318D01*
X171740416Y-99428322D01*
X171707343Y-99530112D01*
X171681924Y-99608344D01*
X171662138Y-99796600D01*
X171681924Y-99984856D01*
X171681925Y-99984859D01*
X171740416Y-100164877D01*
X171740419Y-100164884D01*
X171835065Y-100328816D01*
X171846486Y-100341500D01*
X171857787Y-100354052D01*
X171888016Y-100417044D01*
X171879390Y-100486379D01*
X171873024Y-100499022D01*
X171816620Y-100596718D01*
X171816618Y-100596722D01*
X171771620Y-100735214D01*
X171758126Y-100776744D01*
X171738340Y-100965000D01*
X171758126Y-101153256D01*
X171758127Y-101153259D01*
X171816618Y-101333277D01*
X171816621Y-101333284D01*
X171911267Y-101497216D01*
X172030185Y-101629287D01*
X172037929Y-101637888D01*
X172191065Y-101749148D01*
X172191070Y-101749151D01*
X172363992Y-101826142D01*
X172363997Y-101826144D01*
X172549154Y-101865500D01*
X172549155Y-101865500D01*
X172738444Y-101865500D01*
X172738446Y-101865500D01*
X172923603Y-101826144D01*
X173096530Y-101749151D01*
X173249671Y-101637888D01*
X173376333Y-101497216D01*
X173470979Y-101333284D01*
X173529474Y-101153256D01*
X173549260Y-100965000D01*
X173529474Y-100776744D01*
X173470979Y-100596716D01*
X173376333Y-100432784D01*
X173353610Y-100407547D01*
X173323381Y-100344555D01*
X173332007Y-100275220D01*
X173338369Y-100262584D01*
X173394777Y-100164884D01*
X173453272Y-99984856D01*
X173473058Y-99796600D01*
X173453272Y-99608344D01*
X173394777Y-99428316D01*
X173300131Y-99264384D01*
X173298502Y-99261562D01*
X173282029Y-99193661D01*
X173298502Y-99137562D01*
X173391216Y-98976977D01*
X173449711Y-98796949D01*
X173469497Y-98608693D01*
X173449711Y-98420437D01*
X173391216Y-98240409D01*
X173296570Y-98076477D01*
X173169908Y-97935805D01*
X173169907Y-97935804D01*
X173016771Y-97824544D01*
X173016766Y-97824541D01*
X172843844Y-97747550D01*
X172843839Y-97747548D01*
X172672793Y-97711192D01*
X172611311Y-97678000D01*
X172580643Y-97628220D01*
X172526562Y-97461775D01*
X172526559Y-97461769D01*
X172510073Y-97433214D01*
X172431914Y-97297838D01*
X172305252Y-97157166D01*
X172267311Y-97129600D01*
X172152115Y-97045905D01*
X172152110Y-97045902D01*
X171979188Y-96968911D01*
X171979183Y-96968909D01*
X171833381Y-96937919D01*
X171794027Y-96929554D01*
X171604735Y-96929554D01*
X171572278Y-96936452D01*
X171419578Y-96968909D01*
X171419573Y-96968911D01*
X171246651Y-97045902D01*
X171246646Y-97045905D01*
X171093510Y-97157165D01*
X170966847Y-97297839D01*
X170872202Y-97461769D01*
X170872199Y-97461776D01*
X170813708Y-97641794D01*
X170813707Y-97641798D01*
X170793921Y-97830054D01*
X166201330Y-97830054D01*
X166239271Y-97802488D01*
X166365933Y-97661816D01*
X166460579Y-97497884D01*
X166519074Y-97317856D01*
X166538860Y-97129600D01*
X166519074Y-96941344D01*
X166460579Y-96761316D01*
X166365933Y-96597384D01*
X166239271Y-96456712D01*
X166235891Y-96454256D01*
X166086134Y-96345451D01*
X166086129Y-96345448D01*
X165913207Y-96268457D01*
X165913202Y-96268455D01*
X165767401Y-96237465D01*
X165728046Y-96229100D01*
X165538754Y-96229100D01*
X165506297Y-96235998D01*
X165353597Y-96268455D01*
X165353592Y-96268457D01*
X165180670Y-96345448D01*
X165180665Y-96345451D01*
X165027529Y-96456711D01*
X164900866Y-96597385D01*
X164806221Y-96761315D01*
X164806218Y-96761322D01*
X164748524Y-96938888D01*
X164747726Y-96941344D01*
X164727940Y-97129600D01*
X158526386Y-97129600D01*
X158492271Y-97091712D01*
X158488891Y-97089256D01*
X158339134Y-96980451D01*
X158339129Y-96980448D01*
X158166207Y-96903457D01*
X158166202Y-96903455D01*
X158020401Y-96872465D01*
X157981046Y-96864100D01*
X157791754Y-96864100D01*
X157759297Y-96870998D01*
X157606597Y-96903455D01*
X157606592Y-96903457D01*
X157433670Y-96980448D01*
X157433665Y-96980451D01*
X157280529Y-97091711D01*
X157153866Y-97232385D01*
X157059221Y-97396315D01*
X157059218Y-97396322D01*
X157026219Y-97497884D01*
X157000726Y-97576344D01*
X156980940Y-97764600D01*
X152414248Y-97764600D01*
X152425803Y-97762144D01*
X152598730Y-97685151D01*
X152751871Y-97573888D01*
X152878533Y-97433216D01*
X152973179Y-97269284D01*
X153031674Y-97089256D01*
X153051460Y-96901000D01*
X153031674Y-96712744D01*
X152973179Y-96532716D01*
X152878533Y-96368784D01*
X152785986Y-96266000D01*
X153628140Y-96266000D01*
X153647926Y-96454256D01*
X153647927Y-96454259D01*
X153706418Y-96634277D01*
X153706421Y-96634284D01*
X153801067Y-96798216D01*
X153895825Y-96903455D01*
X153927729Y-96938888D01*
X154080865Y-97050148D01*
X154080870Y-97050151D01*
X154253792Y-97127142D01*
X154253797Y-97127144D01*
X154438954Y-97166500D01*
X154438955Y-97166500D01*
X154628244Y-97166500D01*
X154628246Y-97166500D01*
X154813403Y-97127144D01*
X154986330Y-97050151D01*
X155139471Y-96938888D01*
X155266133Y-96798216D01*
X155360779Y-96634284D01*
X155395253Y-96528181D01*
X155434690Y-96470508D01*
X155499048Y-96443309D01*
X155567895Y-96455223D01*
X155586063Y-96466178D01*
X155655666Y-96516748D01*
X155655670Y-96516751D01*
X155828592Y-96593742D01*
X155828597Y-96593744D01*
X156013754Y-96633100D01*
X156013755Y-96633100D01*
X156203044Y-96633100D01*
X156203046Y-96633100D01*
X156388203Y-96593744D01*
X156561130Y-96516751D01*
X156714271Y-96405488D01*
X156840933Y-96264816D01*
X156935579Y-96100884D01*
X156994074Y-95920856D01*
X157013860Y-95732600D01*
X156994074Y-95544344D01*
X156935579Y-95364316D01*
X156840933Y-95200384D01*
X156714271Y-95059712D01*
X156714270Y-95059711D01*
X156561134Y-94948451D01*
X156561129Y-94948448D01*
X156388207Y-94871457D01*
X156388202Y-94871455D01*
X156242400Y-94840465D01*
X156203046Y-94832100D01*
X156013754Y-94832100D01*
X155981297Y-94838998D01*
X155828597Y-94871455D01*
X155828592Y-94871457D01*
X155655670Y-94948448D01*
X155655665Y-94948451D01*
X155502529Y-95059711D01*
X155375866Y-95200385D01*
X155281221Y-95364315D01*
X155281219Y-95364319D01*
X155246746Y-95470417D01*
X155207308Y-95528092D01*
X155142949Y-95555290D01*
X155074103Y-95543375D01*
X155055933Y-95532418D01*
X154986330Y-95481849D01*
X154986329Y-95481848D01*
X154813407Y-95404857D01*
X154813402Y-95404855D01*
X154667601Y-95373865D01*
X154628246Y-95365500D01*
X154438954Y-95365500D01*
X154406497Y-95372398D01*
X154253797Y-95404855D01*
X154253792Y-95404857D01*
X154080870Y-95481848D01*
X154080865Y-95481851D01*
X153927729Y-95593111D01*
X153801066Y-95733785D01*
X153706421Y-95897715D01*
X153706418Y-95897722D01*
X153660236Y-96039857D01*
X153647926Y-96077744D01*
X153628140Y-96266000D01*
X152785986Y-96266000D01*
X152751871Y-96228112D01*
X152749928Y-96226700D01*
X152598734Y-96116851D01*
X152598729Y-96116848D01*
X152425807Y-96039857D01*
X152425802Y-96039855D01*
X152280000Y-96008865D01*
X152240646Y-96000500D01*
X152051354Y-96000500D01*
X152018897Y-96007398D01*
X151866197Y-96039855D01*
X151866192Y-96039857D01*
X151693270Y-96116848D01*
X151693265Y-96116851D01*
X151540129Y-96228111D01*
X151413466Y-96368785D01*
X151318821Y-96532715D01*
X151318818Y-96532722D01*
X151285821Y-96634278D01*
X151260326Y-96712744D01*
X151240540Y-96901000D01*
X101600000Y-96901000D01*
X101600000Y-95326200D01*
X148903740Y-95326200D01*
X148923526Y-95514456D01*
X148923527Y-95514459D01*
X148982018Y-95694477D01*
X148982021Y-95694484D01*
X149076667Y-95858416D01*
X149203328Y-95999087D01*
X149203329Y-95999088D01*
X149356465Y-96110348D01*
X149356470Y-96110351D01*
X149529392Y-96187342D01*
X149529397Y-96187344D01*
X149714554Y-96226700D01*
X149714555Y-96226700D01*
X149903844Y-96226700D01*
X149903846Y-96226700D01*
X150089003Y-96187344D01*
X150261930Y-96110351D01*
X150415071Y-95999088D01*
X150541733Y-95858416D01*
X150636379Y-95694484D01*
X150694874Y-95514456D01*
X150714660Y-95326200D01*
X150694874Y-95137944D01*
X150636379Y-94957916D01*
X150541733Y-94793984D01*
X150415071Y-94653312D01*
X150415070Y-94653311D01*
X150261934Y-94542051D01*
X150261929Y-94542048D01*
X150089007Y-94465057D01*
X150089002Y-94465055D01*
X149943201Y-94434065D01*
X149903846Y-94425700D01*
X149714554Y-94425700D01*
X149682097Y-94432598D01*
X149529397Y-94465055D01*
X149529392Y-94465057D01*
X149356470Y-94542048D01*
X149356465Y-94542051D01*
X149203329Y-94653311D01*
X149076666Y-94793985D01*
X148982021Y-94957915D01*
X148982018Y-94957922D01*
X148948945Y-95059712D01*
X148923526Y-95137944D01*
X148903740Y-95326200D01*
X101600000Y-95326200D01*
X101600000Y-93014800D01*
X143899940Y-93014800D01*
X143919726Y-93203056D01*
X143919727Y-93203059D01*
X143978218Y-93383077D01*
X143978221Y-93383084D01*
X144072867Y-93547016D01*
X144199529Y-93687687D01*
X144199529Y-93687688D01*
X144352665Y-93798948D01*
X144352670Y-93798951D01*
X144525592Y-93875942D01*
X144525597Y-93875944D01*
X144710754Y-93915300D01*
X144710755Y-93915300D01*
X144900044Y-93915300D01*
X144900046Y-93915300D01*
X145085203Y-93875944D01*
X145258130Y-93798951D01*
X145411271Y-93687688D01*
X145513997Y-93573600D01*
X146592340Y-93573600D01*
X146612126Y-93761856D01*
X146612127Y-93761859D01*
X146670618Y-93941877D01*
X146670621Y-93941884D01*
X146765267Y-94105816D01*
X146891928Y-94246487D01*
X146891929Y-94246488D01*
X147045065Y-94357748D01*
X147045070Y-94357751D01*
X147217992Y-94434742D01*
X147217997Y-94434744D01*
X147403154Y-94474100D01*
X147403155Y-94474100D01*
X147592444Y-94474100D01*
X147592446Y-94474100D01*
X147777603Y-94434744D01*
X147950530Y-94357751D01*
X148103671Y-94246488D01*
X148230333Y-94105816D01*
X148324979Y-93941884D01*
X148383474Y-93761856D01*
X148403260Y-93573600D01*
X148383474Y-93385344D01*
X148324979Y-93205316D01*
X148230333Y-93041384D01*
X148103671Y-92900712D01*
X148103670Y-92900711D01*
X147950534Y-92789451D01*
X147950529Y-92789448D01*
X147777607Y-92712457D01*
X147777602Y-92712455D01*
X147631801Y-92681465D01*
X147592446Y-92673100D01*
X147403154Y-92673100D01*
X147370697Y-92679998D01*
X147217997Y-92712455D01*
X147217992Y-92712457D01*
X147045070Y-92789448D01*
X147045065Y-92789451D01*
X146891929Y-92900711D01*
X146765266Y-93041385D01*
X146670621Y-93205315D01*
X146670618Y-93205322D01*
X146612860Y-93383084D01*
X146612126Y-93385344D01*
X146592340Y-93573600D01*
X145513997Y-93573600D01*
X145537933Y-93547016D01*
X145632579Y-93383084D01*
X145691074Y-93203056D01*
X145710860Y-93014800D01*
X145691074Y-92826544D01*
X145632579Y-92646516D01*
X145537933Y-92482584D01*
X145411271Y-92341912D01*
X145411270Y-92341911D01*
X145258134Y-92230651D01*
X145258129Y-92230648D01*
X145085207Y-92153657D01*
X145085202Y-92153655D01*
X144939401Y-92122665D01*
X144900046Y-92114300D01*
X144710754Y-92114300D01*
X144678297Y-92121198D01*
X144525597Y-92153655D01*
X144525592Y-92153657D01*
X144352670Y-92230648D01*
X144352665Y-92230651D01*
X144199529Y-92341911D01*
X144072866Y-92482585D01*
X143978221Y-92646515D01*
X143978218Y-92646522D01*
X143931779Y-92789448D01*
X143919726Y-92826544D01*
X143899940Y-93014800D01*
X101600000Y-93014800D01*
X101600000Y-92049600D01*
X141842540Y-92049600D01*
X141862326Y-92237856D01*
X141862327Y-92237859D01*
X141920818Y-92417877D01*
X141920821Y-92417884D01*
X142015467Y-92581816D01*
X142073729Y-92646522D01*
X142142129Y-92722488D01*
X142295265Y-92833748D01*
X142295270Y-92833751D01*
X142468192Y-92910742D01*
X142468197Y-92910744D01*
X142653354Y-92950100D01*
X142653355Y-92950100D01*
X142842644Y-92950100D01*
X142842646Y-92950100D01*
X143027803Y-92910744D01*
X143200730Y-92833751D01*
X143353871Y-92722488D01*
X143480533Y-92581816D01*
X143575179Y-92417884D01*
X143633674Y-92237856D01*
X143653460Y-92049600D01*
X143633674Y-91861344D01*
X143575179Y-91681316D01*
X143480533Y-91517384D01*
X143353871Y-91376712D01*
X143353870Y-91376711D01*
X143200734Y-91265451D01*
X143200729Y-91265448D01*
X143027807Y-91188457D01*
X143027802Y-91188455D01*
X142882000Y-91157465D01*
X142842646Y-91149100D01*
X142653354Y-91149100D01*
X142620897Y-91155998D01*
X142468197Y-91188455D01*
X142468192Y-91188457D01*
X142295270Y-91265448D01*
X142295265Y-91265451D01*
X142142129Y-91376711D01*
X142015466Y-91517385D01*
X141920821Y-91681315D01*
X141920818Y-91681322D01*
X141871698Y-91832500D01*
X141862326Y-91861344D01*
X141842540Y-92049600D01*
X101600000Y-92049600D01*
X101600000Y-90932000D01*
X139556540Y-90932000D01*
X139576326Y-91120256D01*
X139576327Y-91120259D01*
X139634818Y-91300277D01*
X139634821Y-91300284D01*
X139729467Y-91464216D01*
X139756004Y-91493688D01*
X139856129Y-91604888D01*
X140009265Y-91716148D01*
X140009270Y-91716151D01*
X140182192Y-91793142D01*
X140182197Y-91793144D01*
X140367354Y-91832500D01*
X140367355Y-91832500D01*
X140556644Y-91832500D01*
X140556646Y-91832500D01*
X140741803Y-91793144D01*
X140914730Y-91716151D01*
X141067871Y-91604888D01*
X141194533Y-91464216D01*
X141289179Y-91300284D01*
X141347674Y-91120256D01*
X141367460Y-90932000D01*
X141355773Y-90820800D01*
X164626340Y-90820800D01*
X164646126Y-91009056D01*
X164646127Y-91009059D01*
X164704618Y-91189077D01*
X164704621Y-91189084D01*
X164799267Y-91353016D01*
X164899392Y-91464216D01*
X164925929Y-91493688D01*
X165079065Y-91604948D01*
X165079070Y-91604951D01*
X165251992Y-91681942D01*
X165251997Y-91681944D01*
X165437154Y-91721300D01*
X165437155Y-91721300D01*
X165626444Y-91721300D01*
X165626446Y-91721300D01*
X165811603Y-91681944D01*
X165984530Y-91604951D01*
X166137671Y-91493688D01*
X166264333Y-91353016D01*
X166358979Y-91189084D01*
X166417474Y-91009056D01*
X166437260Y-90820800D01*
X166417474Y-90632544D01*
X166358979Y-90452516D01*
X166264333Y-90288584D01*
X166137671Y-90147912D01*
X166137587Y-90147851D01*
X165984534Y-90036651D01*
X165984529Y-90036648D01*
X165811607Y-89959657D01*
X165811602Y-89959655D01*
X165665800Y-89928665D01*
X165626446Y-89920300D01*
X165437154Y-89920300D01*
X165404697Y-89927198D01*
X165251997Y-89959655D01*
X165251992Y-89959657D01*
X165079070Y-90036648D01*
X165079065Y-90036651D01*
X164925929Y-90147911D01*
X164799266Y-90288585D01*
X164704621Y-90452515D01*
X164704618Y-90452522D01*
X164648661Y-90624742D01*
X164646126Y-90632544D01*
X164626340Y-90820800D01*
X141355773Y-90820800D01*
X141347674Y-90743744D01*
X141289179Y-90563716D01*
X141194533Y-90399784D01*
X141067871Y-90259112D01*
X141067870Y-90259111D01*
X140914734Y-90147851D01*
X140914729Y-90147848D01*
X140741807Y-90070857D01*
X140741802Y-90070855D01*
X140596001Y-90039865D01*
X140556646Y-90031500D01*
X140367354Y-90031500D01*
X140343130Y-90036649D01*
X140182197Y-90070855D01*
X140182192Y-90070857D01*
X140009270Y-90147848D01*
X140009265Y-90147851D01*
X139856129Y-90259111D01*
X139729466Y-90399785D01*
X139634821Y-90563715D01*
X139634818Y-90563722D01*
X139576327Y-90743740D01*
X139576326Y-90743744D01*
X139556540Y-90932000D01*
X101600000Y-90932000D01*
X101600000Y-88823800D01*
X124011740Y-88823800D01*
X124031526Y-89012056D01*
X124031527Y-89012059D01*
X124090018Y-89192077D01*
X124090021Y-89192084D01*
X124184667Y-89356016D01*
X124290670Y-89473744D01*
X124311329Y-89496688D01*
X124464465Y-89607948D01*
X124464470Y-89607951D01*
X124637392Y-89684942D01*
X124637397Y-89684944D01*
X124822554Y-89724300D01*
X124822555Y-89724300D01*
X125011844Y-89724300D01*
X125011846Y-89724300D01*
X125197003Y-89684944D01*
X125369930Y-89607951D01*
X125523071Y-89496688D01*
X125649733Y-89356016D01*
X125744379Y-89192084D01*
X125802874Y-89012056D01*
X125817321Y-88874600D01*
X131352340Y-88874600D01*
X131372126Y-89062856D01*
X131372127Y-89062859D01*
X131430618Y-89242877D01*
X131430621Y-89242884D01*
X131525267Y-89406816D01*
X131651928Y-89547488D01*
X131651929Y-89547488D01*
X131805065Y-89658748D01*
X131805070Y-89658751D01*
X131977992Y-89735742D01*
X131977997Y-89735744D01*
X132163154Y-89775100D01*
X132163155Y-89775100D01*
X132352444Y-89775100D01*
X132352446Y-89775100D01*
X132537603Y-89735744D01*
X132703233Y-89662000D01*
X166963140Y-89662000D01*
X166982926Y-89850256D01*
X166982927Y-89850259D01*
X167041418Y-90030277D01*
X167041421Y-90030284D01*
X167136067Y-90194216D01*
X167254661Y-90325928D01*
X167262729Y-90334888D01*
X167415865Y-90446148D01*
X167415870Y-90446151D01*
X167588792Y-90523142D01*
X167588797Y-90523144D01*
X167773954Y-90562500D01*
X167773955Y-90562500D01*
X167963244Y-90562500D01*
X167963246Y-90562500D01*
X168148403Y-90523144D01*
X168321330Y-90446151D01*
X168474471Y-90334888D01*
X168474475Y-90334884D01*
X168477479Y-90331548D01*
X168536965Y-90294899D01*
X168606822Y-90296228D01*
X168661780Y-90331547D01*
X168710529Y-90385688D01*
X168863665Y-90496948D01*
X168863670Y-90496951D01*
X169036592Y-90573942D01*
X169036597Y-90573944D01*
X169221754Y-90613300D01*
X169221755Y-90613300D01*
X169411044Y-90613300D01*
X169411046Y-90613300D01*
X169596203Y-90573944D01*
X169769130Y-90496951D01*
X169922271Y-90385688D01*
X169976080Y-90325926D01*
X170035565Y-90289279D01*
X170105422Y-90290608D01*
X170160379Y-90325927D01*
X170259929Y-90436488D01*
X170413065Y-90547748D01*
X170413070Y-90547751D01*
X170585992Y-90624742D01*
X170585997Y-90624744D01*
X170771154Y-90664100D01*
X170771155Y-90664100D01*
X170960444Y-90664100D01*
X170960446Y-90664100D01*
X171145603Y-90624744D01*
X171318530Y-90547751D01*
X171471671Y-90436488D01*
X171598333Y-90295816D01*
X171692979Y-90131884D01*
X171751474Y-89951856D01*
X171771260Y-89763600D01*
X171751474Y-89575344D01*
X171692979Y-89395316D01*
X171598333Y-89231384D01*
X171471671Y-89090712D01*
X171454958Y-89078569D01*
X171318534Y-88979451D01*
X171318529Y-88979448D01*
X171145607Y-88902457D01*
X171145602Y-88902455D01*
X170999801Y-88871465D01*
X170960446Y-88863100D01*
X170771154Y-88863100D01*
X170738697Y-88869998D01*
X170585997Y-88902455D01*
X170585992Y-88902457D01*
X170413070Y-88979448D01*
X170413065Y-88979451D01*
X170259929Y-89090711D01*
X170259928Y-89090712D01*
X170206119Y-89150473D01*
X170146632Y-89187121D01*
X170076775Y-89185790D01*
X170021820Y-89150472D01*
X169922270Y-89039911D01*
X169769134Y-88928651D01*
X169769129Y-88928648D01*
X169596207Y-88851657D01*
X169596202Y-88851655D01*
X169450400Y-88820665D01*
X169411046Y-88812300D01*
X169221754Y-88812300D01*
X169189297Y-88819198D01*
X169036597Y-88851655D01*
X169036592Y-88851657D01*
X168863670Y-88928648D01*
X168863665Y-88928651D01*
X168710531Y-89039910D01*
X168710524Y-89039916D01*
X168707515Y-89043258D01*
X168648027Y-89079903D01*
X168578170Y-89078569D01*
X168523220Y-89043253D01*
X168474470Y-88989111D01*
X168321334Y-88877851D01*
X168321329Y-88877848D01*
X168148407Y-88800857D01*
X168148402Y-88800855D01*
X168002600Y-88769865D01*
X167963246Y-88761500D01*
X167773954Y-88761500D01*
X167741497Y-88768398D01*
X167588797Y-88800855D01*
X167588792Y-88800857D01*
X167415870Y-88877848D01*
X167415865Y-88877851D01*
X167262729Y-88989111D01*
X167136066Y-89129785D01*
X167041421Y-89293715D01*
X167041418Y-89293722D01*
X167004672Y-89406816D01*
X166982926Y-89473744D01*
X166963140Y-89662000D01*
X132703233Y-89662000D01*
X132710530Y-89658751D01*
X132863671Y-89547488D01*
X132990333Y-89406816D01*
X133084979Y-89242884D01*
X133143474Y-89062856D01*
X133163260Y-88874600D01*
X133143474Y-88686344D01*
X133084979Y-88506316D01*
X132990333Y-88342384D01*
X132863671Y-88201712D01*
X132793751Y-88150912D01*
X132710534Y-88090451D01*
X132710529Y-88090448D01*
X132537607Y-88013457D01*
X132537602Y-88013455D01*
X132391801Y-87982465D01*
X132352446Y-87974100D01*
X132163154Y-87974100D01*
X132130697Y-87980998D01*
X131977997Y-88013455D01*
X131977992Y-88013457D01*
X131805070Y-88090448D01*
X131805065Y-88090451D01*
X131651929Y-88201711D01*
X131525266Y-88342385D01*
X131430621Y-88506315D01*
X131430618Y-88506322D01*
X131388633Y-88635540D01*
X131372126Y-88686344D01*
X131352340Y-88874600D01*
X125817321Y-88874600D01*
X125822660Y-88823800D01*
X125802874Y-88635544D01*
X125744379Y-88455516D01*
X125649733Y-88291584D01*
X125523071Y-88150912D01*
X125523070Y-88150911D01*
X125369934Y-88039651D01*
X125369929Y-88039648D01*
X125197007Y-87962657D01*
X125197002Y-87962655D01*
X125051200Y-87931665D01*
X125011846Y-87923300D01*
X124822554Y-87923300D01*
X124790097Y-87930198D01*
X124637397Y-87962655D01*
X124637392Y-87962657D01*
X124464470Y-88039648D01*
X124464465Y-88039651D01*
X124311329Y-88150911D01*
X124184666Y-88291585D01*
X124090021Y-88455515D01*
X124090018Y-88455522D01*
X124031527Y-88635540D01*
X124031526Y-88635544D01*
X124011740Y-88823800D01*
X101600000Y-88823800D01*
X101600000Y-87553800D01*
X162873740Y-87553800D01*
X162893526Y-87742056D01*
X162893527Y-87742059D01*
X162952018Y-87922077D01*
X162952021Y-87922084D01*
X163046667Y-88086016D01*
X163173328Y-88226688D01*
X163173329Y-88226688D01*
X163326465Y-88337948D01*
X163326470Y-88337951D01*
X163499392Y-88414942D01*
X163499397Y-88414944D01*
X163684554Y-88454300D01*
X163684555Y-88454300D01*
X163873844Y-88454300D01*
X163873846Y-88454300D01*
X164059003Y-88414944D01*
X164231930Y-88337951D01*
X164385071Y-88226688D01*
X164511733Y-88086016D01*
X164606379Y-87922084D01*
X164664874Y-87742056D01*
X164684660Y-87553800D01*
X164664874Y-87365544D01*
X164606379Y-87185516D01*
X164598957Y-87172661D01*
X164582484Y-87104764D01*
X164605335Y-87038737D01*
X164660256Y-86995545D01*
X164668039Y-86992727D01*
X164668593Y-86992545D01*
X164668603Y-86992544D01*
X164841530Y-86915551D01*
X164994671Y-86804288D01*
X165121333Y-86663616D01*
X165215979Y-86499684D01*
X165274474Y-86319656D01*
X165294260Y-86131400D01*
X165274474Y-85943144D01*
X165215979Y-85763116D01*
X165121333Y-85599184D01*
X164994671Y-85458512D01*
X164994670Y-85458511D01*
X164841534Y-85347251D01*
X164841529Y-85347248D01*
X164827279Y-85340904D01*
X164774042Y-85295654D01*
X164753721Y-85228805D01*
X164772767Y-85161581D01*
X164804830Y-85127307D01*
X164838990Y-85102488D01*
X164943871Y-85026288D01*
X165070533Y-84885616D01*
X165165179Y-84721684D01*
X165223674Y-84541656D01*
X165235451Y-84429600D01*
X165718540Y-84429600D01*
X165738326Y-84617856D01*
X165738327Y-84617859D01*
X165796818Y-84797877D01*
X165796821Y-84797884D01*
X165891467Y-84961816D01*
X165926648Y-85000888D01*
X166018129Y-85102488D01*
X166171265Y-85213748D01*
X166171270Y-85213751D01*
X166344192Y-85290742D01*
X166344197Y-85290744D01*
X166529354Y-85330100D01*
X166529355Y-85330100D01*
X166718644Y-85330100D01*
X166718646Y-85330100D01*
X166903803Y-85290744D01*
X167076730Y-85213751D01*
X167229871Y-85102488D01*
X167356533Y-84961816D01*
X167451179Y-84797884D01*
X167509674Y-84617856D01*
X167529460Y-84429600D01*
X167509674Y-84241344D01*
X167451179Y-84061316D01*
X167356533Y-83897384D01*
X167229871Y-83756712D01*
X167229870Y-83756711D01*
X167076734Y-83645451D01*
X167076729Y-83645448D01*
X166903807Y-83568457D01*
X166903802Y-83568455D01*
X166758001Y-83537465D01*
X166718646Y-83529100D01*
X166529354Y-83529100D01*
X166496897Y-83535998D01*
X166344197Y-83568455D01*
X166344192Y-83568457D01*
X166171270Y-83645448D01*
X166171265Y-83645451D01*
X166018129Y-83756711D01*
X165891466Y-83897385D01*
X165796821Y-84061315D01*
X165796818Y-84061322D01*
X165738327Y-84241340D01*
X165738326Y-84241344D01*
X165718540Y-84429600D01*
X165235451Y-84429600D01*
X165243460Y-84353400D01*
X165223674Y-84165144D01*
X165165179Y-83985116D01*
X165070533Y-83821184D01*
X164943871Y-83680512D01*
X164908911Y-83655112D01*
X164790734Y-83569251D01*
X164790729Y-83569248D01*
X164617807Y-83492257D01*
X164617802Y-83492255D01*
X164472000Y-83461265D01*
X164432646Y-83452900D01*
X164243354Y-83452900D01*
X164210897Y-83459798D01*
X164058197Y-83492255D01*
X164058192Y-83492257D01*
X163885270Y-83569248D01*
X163885265Y-83569251D01*
X163732129Y-83680511D01*
X163605466Y-83821185D01*
X163510821Y-83985115D01*
X163510818Y-83985122D01*
X163460580Y-84139740D01*
X163452326Y-84165144D01*
X163432540Y-84353400D01*
X163452326Y-84541656D01*
X163452327Y-84541659D01*
X163510818Y-84721677D01*
X163510821Y-84721684D01*
X163605467Y-84885616D01*
X163674078Y-84961816D01*
X163732129Y-85026288D01*
X163885265Y-85137548D01*
X163885266Y-85137548D01*
X163885270Y-85137551D01*
X163899519Y-85143895D01*
X163952755Y-85189143D01*
X163973078Y-85255992D01*
X163954034Y-85323216D01*
X163921970Y-85357492D01*
X163782927Y-85458513D01*
X163656266Y-85599185D01*
X163561621Y-85763115D01*
X163561618Y-85763122D01*
X163503127Y-85943140D01*
X163503126Y-85943144D01*
X163483340Y-86131400D01*
X163503126Y-86319656D01*
X163503127Y-86319659D01*
X163561621Y-86499685D01*
X163569041Y-86512537D01*
X163585514Y-86580437D01*
X163562661Y-86646464D01*
X163507740Y-86689655D01*
X163499985Y-86692464D01*
X163499399Y-86692654D01*
X163326470Y-86769648D01*
X163326465Y-86769651D01*
X163173329Y-86880911D01*
X163046666Y-87021585D01*
X162952021Y-87185515D01*
X162952018Y-87185522D01*
X162893527Y-87365540D01*
X162893526Y-87365544D01*
X162873740Y-87553800D01*
X101600000Y-87553800D01*
X101600000Y-84328000D01*
X161146540Y-84328000D01*
X161166326Y-84516256D01*
X161166327Y-84516259D01*
X161224818Y-84696277D01*
X161224821Y-84696284D01*
X161319467Y-84860216D01*
X161446129Y-85000888D01*
X161599265Y-85112148D01*
X161599270Y-85112151D01*
X161772192Y-85189142D01*
X161772195Y-85189143D01*
X161772197Y-85189144D01*
X161957354Y-85228500D01*
X161957355Y-85228500D01*
X162146644Y-85228500D01*
X162146646Y-85228500D01*
X162331803Y-85189144D01*
X162504730Y-85112151D01*
X162657871Y-85000888D01*
X162784533Y-84860216D01*
X162879179Y-84696284D01*
X162937674Y-84516256D01*
X162957460Y-84328000D01*
X162937674Y-84139744D01*
X162879179Y-83959716D01*
X162784533Y-83795784D01*
X162657871Y-83655112D01*
X162644570Y-83645448D01*
X162504734Y-83543851D01*
X162504729Y-83543848D01*
X162331807Y-83466857D01*
X162331802Y-83466855D01*
X162186001Y-83435865D01*
X162146646Y-83427500D01*
X161957354Y-83427500D01*
X161924897Y-83434398D01*
X161772197Y-83466855D01*
X161772192Y-83466857D01*
X161599270Y-83543848D01*
X161599265Y-83543851D01*
X161446129Y-83655111D01*
X161319466Y-83795785D01*
X161224821Y-83959715D01*
X161224818Y-83959722D01*
X161166327Y-84139740D01*
X161166326Y-84139744D01*
X161146540Y-84328000D01*
X101600000Y-84328000D01*
X101600000Y-81404000D01*
X101619685Y-81336961D01*
X101672489Y-81291206D01*
X101724000Y-81280000D01*
X189106000Y-81280000D01*
X189173039Y-81299685D01*
G37*
%TD.AperFunction*%
%TD*%
M02*
