%TF.GenerationSoftware,KiCad,Pcbnew,7.0.6*%
%TF.CreationDate,2024-06-09T16:50:33+02:00*%
%TF.ProjectId,nRF52832_visitcard,6e524635-3238-4333-925f-766973697463,v0.1*%
%TF.SameCoordinates,Original*%
%TF.FileFunction,Soldermask,Top*%
%TF.FilePolarity,Negative*%
%FSLAX46Y46*%
G04 Gerber Fmt 4.6, Leading zero omitted, Abs format (unit mm)*
G04 Created by KiCad (PCBNEW 7.0.6) date 2024-06-09 16:50:33*
%MOMM*%
%LPD*%
G01*
G04 APERTURE LIST*
G04 Aperture macros list*
%AMRoundRect*
0 Rectangle with rounded corners*
0 $1 Rounding radius*
0 $2 $3 $4 $5 $6 $7 $8 $9 X,Y pos of 4 corners*
0 Add a 4 corners polygon primitive as box body*
4,1,4,$2,$3,$4,$5,$6,$7,$8,$9,$2,$3,0*
0 Add four circle primitives for the rounded corners*
1,1,$1+$1,$2,$3*
1,1,$1+$1,$4,$5*
1,1,$1+$1,$6,$7*
1,1,$1+$1,$8,$9*
0 Add four rect primitives between the rounded corners*
20,1,$1+$1,$2,$3,$4,$5,0*
20,1,$1+$1,$4,$5,$6,$7,0*
20,1,$1+$1,$6,$7,$8,$9,0*
20,1,$1+$1,$8,$9,$2,$3,0*%
G04 Aperture macros list end*
%ADD10RoundRect,0.237500X-0.250000X-0.237500X0.250000X-0.237500X0.250000X0.237500X-0.250000X0.237500X0*%
%ADD11RoundRect,0.237500X-0.237500X0.250000X-0.237500X-0.250000X0.237500X-0.250000X0.237500X0.250000X0*%
%ADD12RoundRect,0.237500X0.237500X-0.250000X0.237500X0.250000X-0.237500X0.250000X-0.237500X-0.250000X0*%
%ADD13RoundRect,0.155000X-0.155000X0.212500X-0.155000X-0.212500X0.155000X-0.212500X0.155000X0.212500X0*%
%ADD14RoundRect,0.050000X-0.350000X-0.050000X0.350000X-0.050000X0.350000X0.050000X-0.350000X0.050000X0*%
%ADD15RoundRect,0.050000X-0.050000X-0.350000X0.050000X-0.350000X0.050000X0.350000X-0.050000X0.350000X0*%
%ADD16R,4.600000X4.600000*%
%ADD17RoundRect,0.237500X-0.130232X-0.349431X0.367732X-0.061931X0.130232X0.349431X-0.367732X0.061931X0*%
%ADD18RoundRect,0.237500X0.250000X0.237500X-0.250000X0.237500X-0.250000X-0.237500X0.250000X-0.237500X0*%
%ADD19RoundRect,0.237500X-0.287500X-0.237500X0.287500X-0.237500X0.287500X0.237500X-0.287500X0.237500X0*%
%ADD20RoundRect,0.237500X0.237500X-0.300000X0.237500X0.300000X-0.237500X0.300000X-0.237500X-0.300000X0*%
%ADD21RoundRect,0.237500X-0.330681X0.097756X-0.080681X-0.335256X0.330681X-0.097756X0.080681X0.335256X0*%
%ADD22RoundRect,0.155000X0.155000X-0.212500X0.155000X0.212500X-0.155000X0.212500X-0.155000X-0.212500X0*%
%ADD23RoundRect,0.237500X-0.237500X0.287500X-0.237500X-0.287500X0.237500X-0.287500X0.237500X0.287500X0*%
%ADD24RoundRect,0.237500X0.237500X-0.287500X0.237500X0.287500X-0.237500X0.287500X-0.237500X-0.287500X0*%
%ADD25RoundRect,0.237500X0.349431X-0.130232X0.061931X0.367732X-0.349431X0.130232X-0.061931X-0.367732X0*%
%ADD26RoundRect,0.237500X0.287500X0.237500X-0.287500X0.237500X-0.287500X-0.237500X0.287500X-0.237500X0*%
%ADD27RoundRect,0.237500X-0.335256X-0.080681X0.097756X-0.330681X0.335256X0.080681X-0.097756X0.330681X0*%
%ADD28RoundRect,0.237500X-0.237500X0.300000X-0.237500X-0.300000X0.237500X-0.300000X0.237500X0.300000X0*%
%ADD29R,0.800000X0.900000*%
%ADD30RoundRect,0.237500X0.335256X0.080681X-0.097756X0.330681X-0.335256X-0.080681X0.097756X-0.330681X0*%
%ADD31R,2.000000X3.000000*%
%ADD32RoundRect,0.155000X0.212500X0.155000X-0.212500X0.155000X-0.212500X-0.155000X0.212500X-0.155000X0*%
%ADD33RoundRect,0.237500X0.367732X0.061931X-0.130232X0.349431X-0.367732X-0.061931X0.130232X-0.349431X0*%
%ADD34RoundRect,0.237500X0.300000X0.237500X-0.300000X0.237500X-0.300000X-0.237500X0.300000X-0.237500X0*%
%ADD35R,0.250000X0.825000*%
%ADD36R,0.825000X0.250000*%
%ADD37RoundRect,0.237500X0.061931X-0.367732X0.349431X0.130232X-0.061931X0.367732X-0.349431X-0.130232X0*%
%ADD38RoundRect,0.237500X-0.080681X0.335256X-0.330681X-0.097756X0.080681X-0.335256X0.330681X0.097756X0*%
%ADD39RoundRect,0.237500X-0.367732X-0.061931X0.130232X-0.349431X0.367732X0.061931X-0.130232X0.349431X0*%
%ADD40RoundRect,0.155000X-0.212500X-0.155000X0.212500X-0.155000X0.212500X0.155000X-0.212500X0.155000X0*%
%ADD41RoundRect,0.237500X-0.061931X0.367732X-0.349431X-0.130232X0.061931X-0.367732X0.349431X0.130232X0*%
%ADD42RoundRect,0.237500X-0.300000X-0.237500X0.300000X-0.237500X0.300000X0.237500X-0.300000X0.237500X0*%
%ADD43RoundRect,0.237500X0.097756X0.330681X-0.335256X0.080681X-0.097756X-0.330681X0.335256X-0.080681X0*%
%ADD44RoundRect,0.237500X-0.349431X0.130232X-0.061931X-0.367732X0.349431X-0.130232X0.061931X0.367732X0*%
%ADD45RoundRect,0.237500X0.130232X0.349431X-0.367732X0.061931X-0.130232X-0.349431X0.367732X-0.061931X0*%
%ADD46R,5.000000X5.000000*%
%ADD47R,4.000000X4.000000*%
%ADD48RoundRect,0.237500X-0.097756X-0.330681X0.335256X-0.080681X0.097756X0.330681X-0.335256X0.080681X0*%
%ADD49R,1.550000X1.300000*%
%ADD50RoundRect,0.237500X0.080681X-0.335256X0.330681X0.097756X-0.080681X0.335256X-0.330681X-0.097756X0*%
%ADD51RoundRect,0.237500X0.330681X-0.097756X0.080681X0.335256X-0.330681X0.097756X-0.080681X-0.335256X0*%
G04 APERTURE END LIST*
D10*
%TO.C,R2*%
X170512100Y-107518200D03*
X172337100Y-107518200D03*
%TD*%
D11*
%TO.C,R15*%
X127355600Y-113285900D03*
X127355600Y-115110900D03*
%TD*%
D12*
%TO.C,R14*%
X127406400Y-96746700D03*
X127406400Y-94921700D03*
%TD*%
D13*
%TO.C,C15*%
X177393600Y-93962600D03*
X177393600Y-95097600D03*
%TD*%
D14*
%TO.C,U1*%
X165579000Y-91570800D03*
X165579000Y-91970800D03*
X165579000Y-92370800D03*
X165579000Y-92770800D03*
X165579000Y-93170800D03*
X165579000Y-93570800D03*
X165579000Y-93970800D03*
X165579000Y-94370800D03*
X165579000Y-94770800D03*
X165579000Y-95170800D03*
X165579000Y-95570800D03*
X165579000Y-95970800D03*
D15*
X166329000Y-96720800D03*
X166729000Y-96720800D03*
X167129000Y-96720800D03*
X167529000Y-96720800D03*
X167929000Y-96720800D03*
X168329000Y-96720800D03*
X168729000Y-96720800D03*
X169129000Y-96720800D03*
X169529000Y-96720800D03*
X169929000Y-96720800D03*
X170329000Y-96720800D03*
X170729000Y-96720800D03*
D14*
X171479000Y-95970800D03*
X171479000Y-95570800D03*
X171479000Y-95170800D03*
X171479000Y-94770800D03*
X171479000Y-94370800D03*
X171479000Y-93970800D03*
X171479000Y-93570800D03*
X171479000Y-93170800D03*
X171479000Y-92770800D03*
X171479000Y-92370800D03*
X171479000Y-91970800D03*
X171479000Y-91570800D03*
D15*
X170729000Y-90820800D03*
X170329000Y-90820800D03*
X169929000Y-90820800D03*
X169529000Y-90820800D03*
X169129000Y-90820800D03*
X168729000Y-90820800D03*
X168329000Y-90820800D03*
X167929000Y-90820800D03*
X167529000Y-90820800D03*
X167129000Y-90820800D03*
X166729000Y-90820800D03*
X166329000Y-90820800D03*
D16*
X168529000Y-93770800D03*
%TD*%
D17*
%TO.C,D9*%
X115299056Y-111644400D03*
X116814600Y-110769400D03*
%TD*%
D18*
%TO.C,R5*%
X109775000Y-109143800D03*
X107950000Y-109143800D03*
%TD*%
D19*
%TO.C,D16*%
X102898000Y-109143800D03*
X104648000Y-109143800D03*
%TD*%
D10*
%TO.C,R21*%
X154256100Y-97739200D03*
X156081100Y-97739200D03*
%TD*%
D20*
%TO.C,C2*%
X171475400Y-89102100D03*
X171475400Y-87377100D03*
%TD*%
D21*
%TO.C,R17*%
X131699000Y-112014000D03*
X132611500Y-113594496D03*
%TD*%
D19*
%TO.C,D17*%
X102898000Y-116052600D03*
X104648000Y-116052600D03*
%TD*%
D22*
%TO.C,C6*%
X175971200Y-89975500D03*
X175971200Y-88840500D03*
%TD*%
D19*
%TO.C,D14*%
X102898000Y-93751400D03*
X104648000Y-93751400D03*
%TD*%
D23*
%TO.C,D1*%
X127381000Y-91341000D03*
X127381000Y-93091000D03*
%TD*%
D24*
%TO.C,L2*%
X167767000Y-88350000D03*
X167767000Y-86600000D03*
%TD*%
D20*
%TO.C,C3*%
X169468800Y-88339000D03*
X169468800Y-86614000D03*
%TD*%
D25*
%TO.C,D6*%
X134498700Y-116657972D03*
X133623700Y-115142428D03*
%TD*%
D26*
%TO.C,D4*%
X141094400Y-105054400D03*
X139344400Y-105054400D03*
%TD*%
D27*
%TO.C,R19*%
X134467600Y-109067600D03*
X136048096Y-109980100D03*
%TD*%
D13*
%TO.C,C11*%
X164795200Y-108966000D03*
X164795200Y-110101000D03*
%TD*%
D28*
%TO.C,C9*%
X163296600Y-104293500D03*
X163296600Y-106018500D03*
%TD*%
D19*
%TO.C,L3*%
X174210800Y-93958400D03*
X175960800Y-93958400D03*
%TD*%
%TO.C,D15*%
X102847200Y-101396800D03*
X104597200Y-101396800D03*
%TD*%
D29*
%TO.C,Y1*%
X174387600Y-90539800D03*
X174387600Y-89139800D03*
X173287600Y-89139800D03*
X173287600Y-90539800D03*
%TD*%
D30*
%TO.C,R10*%
X119865448Y-101395850D03*
X118284952Y-100483350D03*
%TD*%
D31*
%TO.C,Programming*%
X185877200Y-128270000D03*
X183591200Y-128270000D03*
X181305200Y-128270000D03*
X179019200Y-128270000D03*
%TD*%
D32*
%TO.C,C4*%
X165896100Y-98044000D03*
X164761100Y-98044000D03*
%TD*%
D18*
%TO.C,R4*%
X109622600Y-116128800D03*
X107797600Y-116128800D03*
%TD*%
D33*
%TO.C,D5*%
X139285144Y-111720600D03*
X137769600Y-110845600D03*
%TD*%
D34*
%TO.C,C10*%
X166775300Y-103124000D03*
X165050300Y-103124000D03*
%TD*%
D19*
%TO.C,D18*%
X102909400Y-124587000D03*
X104659400Y-124587000D03*
%TD*%
D32*
%TO.C,C14*%
X174998000Y-92100400D03*
X173863000Y-92100400D03*
%TD*%
D35*
%TO.C,U2*%
X167221600Y-108206200D03*
X166721600Y-108206200D03*
X166221600Y-108206200D03*
X165721600Y-108206200D03*
D36*
X164971600Y-107506200D03*
X164971600Y-107006200D03*
X164971600Y-106506200D03*
X164971600Y-106006200D03*
D35*
X165721600Y-105206200D03*
X166221600Y-105206200D03*
X166721600Y-105206200D03*
X167221600Y-105206200D03*
D36*
X167971600Y-106006200D03*
X167971600Y-106506200D03*
X167971600Y-107006200D03*
X167971600Y-107506200D03*
%TD*%
D19*
%TO.C,D13*%
X102960200Y-86156800D03*
X104710200Y-86156800D03*
%TD*%
D24*
%TO.C,D7*%
X127381000Y-118666200D03*
X127381000Y-116916200D03*
%TD*%
D18*
%TO.C,R3*%
X109675300Y-124561600D03*
X107850300Y-124561600D03*
%TD*%
D37*
%TO.C,D8*%
X120486200Y-116907744D03*
X121361200Y-115392200D03*
%TD*%
D38*
%TO.C,R13*%
X123239850Y-112239752D03*
X122327350Y-113820248D03*
%TD*%
D13*
%TO.C,C13*%
X176250600Y-91389200D03*
X176250600Y-92524200D03*
%TD*%
D32*
%TO.C,C8*%
X164050600Y-90068400D03*
X162915600Y-90068400D03*
%TD*%
D18*
%TO.C,R6*%
X109775000Y-101371400D03*
X107950000Y-101371400D03*
%TD*%
%TO.C,R7*%
X109698800Y-93726000D03*
X107873800Y-93726000D03*
%TD*%
D39*
%TO.C,D11*%
X115167828Y-98749500D03*
X116683372Y-99624500D03*
%TD*%
D40*
%TO.C,C5*%
X173270100Y-87757000D03*
X174405100Y-87757000D03*
%TD*%
D41*
%TO.C,D2*%
X134191050Y-93066980D03*
X133316050Y-94582524D03*
%TD*%
D10*
%TO.C,R20*%
X135559800Y-105054400D03*
X137384800Y-105054400D03*
%TD*%
D42*
%TO.C,C12*%
X148083100Y-97790000D03*
X149808100Y-97790000D03*
%TD*%
D43*
%TO.C,R11*%
X119967048Y-108941550D03*
X118386552Y-109854050D03*
%TD*%
D44*
%TO.C,D12*%
X120192800Y-93319600D03*
X121067800Y-94835144D03*
%TD*%
D19*
%TO.C,D10*%
X113856800Y-105029000D03*
X115606800Y-105029000D03*
%TD*%
D31*
%TO.C,UART*%
X159766000Y-81788000D03*
X162052000Y-81788000D03*
X164338000Y-81788000D03*
X166624000Y-81788000D03*
%TD*%
D45*
%TO.C,D3*%
X139118648Y-97790950D03*
X137603104Y-98665950D03*
%TD*%
D32*
%TO.C,C1*%
X164067300Y-91135200D03*
X162932300Y-91135200D03*
%TD*%
D46*
%TO.C,BT1*%
X168194800Y-119278400D03*
X142294800Y-119278400D03*
D47*
X155244800Y-119278400D03*
%TD*%
D48*
%TO.C,R18*%
X134388552Y-100583050D03*
X135969048Y-99670550D03*
%TD*%
D49*
%TO.C,SW1*%
X148145600Y-99858000D03*
X156095600Y-99858000D03*
X148145600Y-104358000D03*
X156095600Y-104358000D03*
%TD*%
D11*
%TO.C,R1*%
X167233600Y-110417600D03*
X167233600Y-112242600D03*
%TD*%
D18*
%TO.C,R9*%
X119403500Y-104978200D03*
X117578500Y-104978200D03*
%TD*%
D50*
%TO.C,R16*%
X131394200Y-97840800D03*
X132306700Y-96260304D03*
%TD*%
D18*
%TO.C,R8*%
X109753400Y-86156800D03*
X107928400Y-86156800D03*
%TD*%
D13*
%TO.C,C7*%
X172799800Y-93975100D03*
X172799800Y-95110100D03*
%TD*%
D23*
%TO.C,L1*%
X166090600Y-86614000D03*
X166090600Y-88364000D03*
%TD*%
D51*
%TO.C,R12*%
X122934100Y-97948096D03*
X122021600Y-96367600D03*
%TD*%
M02*
