%TF.GenerationSoftware,KiCad,Pcbnew,7.0.6*%
%TF.CreationDate,2024-12-04T01:06:54+01:00*%
%TF.ProjectId,nRF52832_visitcard,6e524635-3238-4333-925f-766973697463,v0.1*%
%TF.SameCoordinates,Original*%
%TF.FileFunction,Copper,L3,Inr*%
%TF.FilePolarity,Positive*%
%FSLAX46Y46*%
G04 Gerber Fmt 4.6, Leading zero omitted, Abs format (unit mm)*
G04 Created by KiCad (PCBNEW 7.0.6) date 2024-12-04 01:06:54*
%MOMM*%
%LPD*%
G01*
G04 APERTURE LIST*
%TA.AperFunction,ComponentPad*%
%ADD10R,0.500000X0.900000*%
%TD*%
%TA.AperFunction,ViaPad*%
%ADD11C,0.800000*%
%TD*%
%TA.AperFunction,Conductor*%
%ADD12C,0.200000*%
%TD*%
G04 APERTURE END LIST*
D10*
%TO.N,GND*%
%TO.C,AE1*%
X181102000Y-91876600D03*
%TD*%
D11*
%TO.N,VDD*%
X167665400Y-105054400D03*
%TO.N,GND*%
X168427400Y-109829600D03*
X166801800Y-107365800D03*
%TO.N,VDD*%
X165531800Y-90820800D03*
X183616600Y-125552200D03*
X165633400Y-97129600D03*
X162052000Y-84328000D03*
X172135800Y-119227600D03*
X170865800Y-89763600D03*
X164439600Y-107645200D03*
X138099800Y-119278400D03*
X154533600Y-96266000D03*
X142265400Y-115417600D03*
X168198800Y-115290600D03*
X162712400Y-102590600D03*
%TO.N,GND*%
X187960000Y-123190000D03*
X164439600Y-110286800D03*
X109220000Y-90170000D03*
X137160000Y-83820000D03*
X179832000Y-109220000D03*
X168910000Y-93980000D03*
X123190000Y-120650000D03*
X109220000Y-105410000D03*
X139700000Y-83820000D03*
X167640000Y-92710000D03*
X179832000Y-97790000D03*
X114300000Y-83820000D03*
X171450000Y-127000000D03*
X179832000Y-105410000D03*
X179832000Y-116840000D03*
X179832000Y-101600000D03*
X116840000Y-95250000D03*
X152400000Y-83820000D03*
X179832000Y-113030000D03*
X179832000Y-104140000D03*
X179832000Y-95250000D03*
X179832000Y-87630000D03*
X179832000Y-114300000D03*
X152400000Y-107950000D03*
X185420000Y-123190000D03*
X179832000Y-115570000D03*
X179832000Y-90170000D03*
X171475400Y-83693000D03*
X179832000Y-119380000D03*
X184150000Y-87630000D03*
X114300000Y-87630000D03*
X179832000Y-99060000D03*
X173990000Y-127000000D03*
X147320000Y-113030000D03*
X109220000Y-120650000D03*
X185928000Y-125476000D03*
X185420000Y-87630000D03*
X160020000Y-88900000D03*
X119380000Y-83820000D03*
X181356000Y-87630000D03*
X149860000Y-83820000D03*
X179832000Y-102870000D03*
X182880000Y-123190000D03*
X124460000Y-83820000D03*
X121920000Y-83820000D03*
X111760000Y-88900000D03*
X154940000Y-83820000D03*
X179832000Y-111760000D03*
X124460000Y-116840000D03*
X127000000Y-83820000D03*
X186690000Y-87630000D03*
X159766000Y-84328000D03*
X179832000Y-106680000D03*
X179832000Y-123190000D03*
X179832000Y-107950000D03*
X173990000Y-110490000D03*
X179832000Y-120650000D03*
X173990000Y-116840000D03*
X179705000Y-91897200D03*
X157480000Y-83820000D03*
X182880000Y-87630000D03*
X149860000Y-110490000D03*
X157480000Y-88900000D03*
X109220000Y-96520000D03*
X179832000Y-100330000D03*
X184150000Y-123190000D03*
X113030000Y-99060000D03*
X173990000Y-113030000D03*
X179832000Y-96520000D03*
X142240000Y-83820000D03*
X169468800Y-83515200D03*
X179832000Y-118110000D03*
X179832000Y-110490000D03*
X179832000Y-88900000D03*
X144780000Y-83820000D03*
X116840000Y-83820000D03*
X179832000Y-121920000D03*
X109220000Y-113030000D03*
X186690000Y-123190000D03*
X129540000Y-83820000D03*
X154940000Y-88900000D03*
X181356000Y-123190000D03*
X168910000Y-92710000D03*
X187960000Y-87630000D03*
X163779200Y-98653600D03*
X113030000Y-124460000D03*
X132080000Y-83820000D03*
X134620000Y-83820000D03*
X147320000Y-83820000D03*
%TO.N,/PB*%
X167208200Y-103073200D03*
X157886400Y-97764600D03*
%TO.N,/DRSSI1*%
X169066824Y-101097073D03*
X167284400Y-126619000D03*
%TO.N,/DRSSI2*%
X174142400Y-103276400D03*
X170256200Y-100914200D03*
%TO.N,/DRSSI3*%
X172643800Y-100965000D03*
X169037000Y-123977400D03*
%TO.N,/DRSSI4*%
X172567598Y-99796600D03*
X124917200Y-88823800D03*
%TO.N,/DRSSI5*%
X172564037Y-98608693D03*
X163779200Y-87553800D03*
%TO.N,/DRSSI6*%
X171699381Y-97830054D03*
X164388800Y-86131400D03*
%TO.N,/D10*%
X121462800Y-105003600D03*
X159588200Y-101930200D03*
%TO.N,/D11*%
X121589800Y-102362000D03*
X161163000Y-100939600D03*
%TO.N,/D9*%
X121615200Y-107950000D03*
X158038800Y-101854000D03*
%TO.N,/D12*%
X123977400Y-99441000D03*
X163626800Y-112928400D03*
X165582600Y-102971600D03*
%TO.N,/D8*%
X156108400Y-95732600D03*
X124231400Y-110566200D03*
%TO.N,/D1*%
X132257800Y-88874600D03*
X127381000Y-98653600D03*
%TO.N,/D7*%
X127381000Y-111556800D03*
X152146000Y-96901000D03*
%TO.N,/D2*%
X130529650Y-99438152D03*
X140462000Y-90932000D03*
%TO.N,/D6*%
X130606800Y-110439200D03*
X149809200Y-95326200D03*
%TO.N,/D3*%
X132943600Y-101371400D03*
X142748000Y-92049600D03*
%TO.N,/D5*%
X147497800Y-93573600D03*
X132816600Y-108229400D03*
%TO.N,/D4*%
X144805400Y-93014800D03*
X133553200Y-105029000D03*
%TO.N,/DRDY*%
X169214800Y-104190800D03*
X166649723Y-100736723D03*
%TO.N,/RX*%
X167868600Y-89662000D03*
X164338000Y-84353400D03*
%TO.N,/TX*%
X169316400Y-89712800D03*
X166624000Y-84429600D03*
%TD*%
D12*
%TO.N,/RX*%
X167868600Y-87884000D02*
X167868600Y-89662000D01*
X164338000Y-84353400D02*
X167868600Y-87884000D01*
%TO.N,/TX*%
X169316400Y-87122000D02*
X169316400Y-89712800D01*
X166624000Y-84429600D02*
X169316400Y-87122000D01*
%TD*%
%TA.AperFunction,Conductor*%
%TO.N,VDD*%
G36*
X189173039Y-81299685D02*
G01*
X189218794Y-81352489D01*
X189230000Y-81404000D01*
X189230000Y-88776760D01*
X189210315Y-88843799D01*
X189157511Y-88889554D01*
X189106763Y-88900758D01*
X180974998Y-88950800D01*
X180961226Y-88964572D01*
X180972612Y-88987183D01*
X180974632Y-89010252D01*
X180973196Y-89242877D01*
X180968500Y-90002926D01*
X180948401Y-90069843D01*
X180895316Y-90115270D01*
X180826097Y-90124786D01*
X180762722Y-90095369D01*
X180725311Y-90036359D01*
X180721182Y-90015129D01*
X180717674Y-89981744D01*
X180659179Y-89801716D01*
X180564533Y-89637784D01*
X180546693Y-89617971D01*
X180516464Y-89554981D01*
X180525089Y-89485646D01*
X180546694Y-89452028D01*
X180564533Y-89432216D01*
X180659179Y-89268284D01*
X180717674Y-89088256D01*
X180727314Y-88996526D01*
X180751539Y-88937646D01*
X180737708Y-88902368D01*
X180737459Y-88900004D01*
X180737460Y-88900000D01*
X180717674Y-88711744D01*
X180659179Y-88531716D01*
X180657574Y-88528937D01*
X180657136Y-88527129D01*
X180656538Y-88525786D01*
X180656783Y-88525676D01*
X180641100Y-88461043D01*
X180663948Y-88395015D01*
X180718867Y-88351821D01*
X180788420Y-88345176D01*
X180837845Y-88366618D01*
X180903265Y-88414148D01*
X180903270Y-88414151D01*
X181076192Y-88491142D01*
X181076197Y-88491144D01*
X181261354Y-88530500D01*
X181261355Y-88530500D01*
X181450644Y-88530500D01*
X181450646Y-88530500D01*
X181635803Y-88491144D01*
X181808730Y-88414151D01*
X181961871Y-88302888D01*
X182025850Y-88231831D01*
X182085337Y-88195183D01*
X182155194Y-88196514D01*
X182210149Y-88231831D01*
X182245000Y-88270537D01*
X182274129Y-88302888D01*
X182427265Y-88414148D01*
X182427270Y-88414151D01*
X182600192Y-88491142D01*
X182600197Y-88491144D01*
X182785354Y-88530500D01*
X182785355Y-88530500D01*
X182974644Y-88530500D01*
X182974646Y-88530500D01*
X183159803Y-88491144D01*
X183332730Y-88414151D01*
X183442117Y-88334676D01*
X183507920Y-88311198D01*
X183575974Y-88327023D01*
X183587871Y-88334668D01*
X183697266Y-88414148D01*
X183697270Y-88414151D01*
X183870192Y-88491142D01*
X183870197Y-88491144D01*
X184055354Y-88530500D01*
X184055355Y-88530500D01*
X184244644Y-88530500D01*
X184244646Y-88530500D01*
X184429803Y-88491144D01*
X184602730Y-88414151D01*
X184712117Y-88334676D01*
X184777920Y-88311198D01*
X184845974Y-88327023D01*
X184857871Y-88334668D01*
X184967266Y-88414148D01*
X184967270Y-88414151D01*
X185140192Y-88491142D01*
X185140197Y-88491144D01*
X185325354Y-88530500D01*
X185325355Y-88530500D01*
X185514644Y-88530500D01*
X185514646Y-88530500D01*
X185699803Y-88491144D01*
X185872730Y-88414151D01*
X185982117Y-88334676D01*
X186047920Y-88311198D01*
X186115974Y-88327023D01*
X186127871Y-88334668D01*
X186237266Y-88414148D01*
X186237270Y-88414151D01*
X186410192Y-88491142D01*
X186410197Y-88491144D01*
X186595354Y-88530500D01*
X186595355Y-88530500D01*
X186784644Y-88530500D01*
X186784646Y-88530500D01*
X186969803Y-88491144D01*
X187142730Y-88414151D01*
X187252117Y-88334676D01*
X187317920Y-88311198D01*
X187385974Y-88327023D01*
X187397871Y-88334668D01*
X187507266Y-88414148D01*
X187507270Y-88414151D01*
X187680192Y-88491142D01*
X187680197Y-88491144D01*
X187865354Y-88530500D01*
X187865355Y-88530500D01*
X188054644Y-88530500D01*
X188054646Y-88530500D01*
X188239803Y-88491144D01*
X188412730Y-88414151D01*
X188565871Y-88302888D01*
X188692533Y-88162216D01*
X188787179Y-87998284D01*
X188845674Y-87818256D01*
X188865460Y-87630000D01*
X188845674Y-87441744D01*
X188787179Y-87261716D01*
X188692533Y-87097784D01*
X188565871Y-86957112D01*
X188554432Y-86948801D01*
X188412734Y-86845851D01*
X188412729Y-86845848D01*
X188239807Y-86768857D01*
X188239802Y-86768855D01*
X188094001Y-86737865D01*
X188054646Y-86729500D01*
X187865354Y-86729500D01*
X187832897Y-86736398D01*
X187680197Y-86768855D01*
X187680192Y-86768857D01*
X187507270Y-86845848D01*
X187507265Y-86845851D01*
X187397885Y-86925321D01*
X187332079Y-86948801D01*
X187264025Y-86932975D01*
X187252115Y-86925321D01*
X187142734Y-86845851D01*
X187142729Y-86845848D01*
X186969807Y-86768857D01*
X186969802Y-86768855D01*
X186824000Y-86737865D01*
X186784646Y-86729500D01*
X186595354Y-86729500D01*
X186562897Y-86736398D01*
X186410197Y-86768855D01*
X186410192Y-86768857D01*
X186237270Y-86845848D01*
X186237265Y-86845851D01*
X186127885Y-86925321D01*
X186062079Y-86948801D01*
X185994025Y-86932975D01*
X185982115Y-86925321D01*
X185872734Y-86845851D01*
X185872729Y-86845848D01*
X185699807Y-86768857D01*
X185699802Y-86768855D01*
X185554001Y-86737865D01*
X185514646Y-86729500D01*
X185325354Y-86729500D01*
X185292897Y-86736398D01*
X185140197Y-86768855D01*
X185140192Y-86768857D01*
X184967270Y-86845848D01*
X184967265Y-86845851D01*
X184857885Y-86925321D01*
X184792079Y-86948801D01*
X184724025Y-86932975D01*
X184712115Y-86925321D01*
X184602734Y-86845851D01*
X184602729Y-86845848D01*
X184429807Y-86768857D01*
X184429802Y-86768855D01*
X184284000Y-86737865D01*
X184244646Y-86729500D01*
X184055354Y-86729500D01*
X184022897Y-86736398D01*
X183870197Y-86768855D01*
X183870192Y-86768857D01*
X183697271Y-86845848D01*
X183587884Y-86925322D01*
X183522077Y-86948801D01*
X183454023Y-86932975D01*
X183442123Y-86925328D01*
X183332730Y-86845849D01*
X183332729Y-86845848D01*
X183159807Y-86768857D01*
X183159802Y-86768855D01*
X183014001Y-86737865D01*
X182974646Y-86729500D01*
X182785354Y-86729500D01*
X182752897Y-86736398D01*
X182600197Y-86768855D01*
X182600192Y-86768857D01*
X182427270Y-86845848D01*
X182427265Y-86845851D01*
X182274129Y-86957111D01*
X182274128Y-86957112D01*
X182210149Y-87028168D01*
X182150663Y-87064816D01*
X182080806Y-87063485D01*
X182025851Y-87028168D01*
X181961871Y-86957112D01*
X181961870Y-86957111D01*
X181808734Y-86845851D01*
X181808729Y-86845848D01*
X181635807Y-86768857D01*
X181635802Y-86768855D01*
X181490001Y-86737865D01*
X181450646Y-86729500D01*
X181261354Y-86729500D01*
X181228897Y-86736398D01*
X181076197Y-86768855D01*
X181076192Y-86768857D01*
X180903270Y-86845848D01*
X180903265Y-86845851D01*
X180750129Y-86957111D01*
X180750128Y-86957112D01*
X180686149Y-87028168D01*
X180626663Y-87064816D01*
X180556806Y-87063485D01*
X180501851Y-87028168D01*
X180437871Y-86957112D01*
X180437870Y-86957111D01*
X180284734Y-86845851D01*
X180284729Y-86845848D01*
X180111807Y-86768857D01*
X180111802Y-86768855D01*
X179966001Y-86737865D01*
X179926646Y-86729500D01*
X179737354Y-86729500D01*
X179704897Y-86736398D01*
X179552197Y-86768855D01*
X179552192Y-86768857D01*
X179379270Y-86845848D01*
X179379265Y-86845851D01*
X179226129Y-86957111D01*
X179099466Y-87097785D01*
X179004821Y-87261715D01*
X179004818Y-87261722D01*
X178946327Y-87441740D01*
X178946326Y-87441744D01*
X178926540Y-87630000D01*
X178946326Y-87818256D01*
X178946327Y-87818259D01*
X179004818Y-87998277D01*
X179004821Y-87998284D01*
X179099467Y-88162216D01*
X179117305Y-88182027D01*
X179147535Y-88245018D01*
X179138910Y-88314354D01*
X179117308Y-88347968D01*
X179099466Y-88367784D01*
X179004821Y-88531715D01*
X179004818Y-88531722D01*
X178954580Y-88686340D01*
X178946326Y-88711744D01*
X178926540Y-88900000D01*
X178946326Y-89088256D01*
X178946327Y-89088259D01*
X179004818Y-89268277D01*
X179004821Y-89268284D01*
X179099467Y-89432216D01*
X179109806Y-89443699D01*
X179117307Y-89452030D01*
X179147535Y-89515022D01*
X179138909Y-89584357D01*
X179117307Y-89617970D01*
X179099466Y-89637785D01*
X179004821Y-89801715D01*
X179004818Y-89801722D01*
X178972543Y-89901056D01*
X178946326Y-89981744D01*
X178926540Y-90170000D01*
X178946326Y-90358256D01*
X178946327Y-90358259D01*
X179004818Y-90538277D01*
X179004821Y-90538284D01*
X179099467Y-90702216D01*
X179226129Y-90842887D01*
X179226129Y-90842888D01*
X179292863Y-90891373D01*
X179335529Y-90946703D01*
X179341508Y-91016316D01*
X179308903Y-91078111D01*
X179270417Y-91104969D01*
X179252269Y-91113049D01*
X179252265Y-91113051D01*
X179099129Y-91224311D01*
X178972466Y-91364985D01*
X178877821Y-91528915D01*
X178877818Y-91528922D01*
X178828303Y-91681315D01*
X178819326Y-91708944D01*
X178799540Y-91897200D01*
X178819326Y-92085456D01*
X178819327Y-92085459D01*
X178877818Y-92265477D01*
X178877821Y-92265484D01*
X178972467Y-92429416D01*
X179055596Y-92521740D01*
X179099129Y-92570088D01*
X179252265Y-92681348D01*
X179252270Y-92681351D01*
X179425192Y-92758342D01*
X179425197Y-92758344D01*
X179610354Y-92797700D01*
X179610355Y-92797700D01*
X179799644Y-92797700D01*
X179799646Y-92797700D01*
X179984803Y-92758344D01*
X180157730Y-92681351D01*
X180275583Y-92595725D01*
X180341386Y-92572247D01*
X180409440Y-92588072D01*
X180447731Y-92621732D01*
X180494454Y-92684146D01*
X180532270Y-92712455D01*
X180609664Y-92770393D01*
X180609671Y-92770397D01*
X180654618Y-92787160D01*
X180744517Y-92820691D01*
X180804127Y-92827100D01*
X180826282Y-92827099D01*
X180893319Y-92846781D01*
X180939076Y-92899583D01*
X180950282Y-92951865D01*
X180937893Y-94957375D01*
X180917794Y-95024292D01*
X180864709Y-95069719D01*
X180795490Y-95079236D01*
X180732115Y-95049819D01*
X180695964Y-94994927D01*
X180659181Y-94881722D01*
X180659180Y-94881721D01*
X180659179Y-94881716D01*
X180564533Y-94717784D01*
X180437871Y-94577112D01*
X180437870Y-94577111D01*
X180284734Y-94465851D01*
X180284729Y-94465848D01*
X180111807Y-94388857D01*
X180111802Y-94388855D01*
X179965450Y-94357748D01*
X179926646Y-94349500D01*
X179737354Y-94349500D01*
X179704897Y-94356398D01*
X179552197Y-94388855D01*
X179552192Y-94388857D01*
X179379270Y-94465848D01*
X179379265Y-94465851D01*
X179226129Y-94577111D01*
X179099466Y-94717785D01*
X179004821Y-94881715D01*
X179004818Y-94881722D01*
X178946986Y-95059712D01*
X178946326Y-95061744D01*
X178926540Y-95250000D01*
X178946326Y-95438256D01*
X178946327Y-95438259D01*
X179004818Y-95618277D01*
X179004821Y-95618284D01*
X179099467Y-95782216D01*
X179109806Y-95793699D01*
X179117307Y-95802030D01*
X179147535Y-95865022D01*
X179138909Y-95934357D01*
X179117307Y-95967970D01*
X179099466Y-95987785D01*
X179004821Y-96151715D01*
X179004818Y-96151722D01*
X178948341Y-96325541D01*
X178946326Y-96331744D01*
X178926540Y-96520000D01*
X178946326Y-96708256D01*
X178946327Y-96708259D01*
X179004818Y-96888277D01*
X179004821Y-96888284D01*
X179099467Y-97052216D01*
X179109806Y-97063699D01*
X179117307Y-97072030D01*
X179147535Y-97135022D01*
X179138909Y-97204357D01*
X179117307Y-97237970D01*
X179099466Y-97257785D01*
X179004821Y-97421715D01*
X179004818Y-97421722D01*
X178973893Y-97516901D01*
X178946326Y-97601744D01*
X178926540Y-97790000D01*
X178946326Y-97978256D01*
X178946327Y-97978259D01*
X179004818Y-98158277D01*
X179004820Y-98158281D01*
X179004821Y-98158284D01*
X179099467Y-98322216D01*
X179117305Y-98342027D01*
X179147535Y-98405018D01*
X179138910Y-98474354D01*
X179117308Y-98507968D01*
X179099466Y-98527784D01*
X179004821Y-98691715D01*
X179004818Y-98691722D01*
X178956037Y-98841856D01*
X178946326Y-98871744D01*
X178926540Y-99060000D01*
X178946326Y-99248256D01*
X178946327Y-99248259D01*
X179004818Y-99428277D01*
X179004821Y-99428284D01*
X179099467Y-99592216D01*
X179109806Y-99603699D01*
X179117307Y-99612030D01*
X179147535Y-99675022D01*
X179138909Y-99744357D01*
X179117307Y-99777970D01*
X179099466Y-99797785D01*
X179004821Y-99961715D01*
X179004818Y-99961722D01*
X178966889Y-100078457D01*
X178946326Y-100141744D01*
X178926540Y-100330000D01*
X178946326Y-100518256D01*
X178946327Y-100518259D01*
X179004818Y-100698277D01*
X179004821Y-100698283D01*
X179004821Y-100698284D01*
X179099467Y-100862216D01*
X179109806Y-100873699D01*
X179117307Y-100882030D01*
X179147535Y-100945022D01*
X179138909Y-101014357D01*
X179117307Y-101047970D01*
X179099466Y-101067785D01*
X179004821Y-101231715D01*
X179004818Y-101231722D01*
X178950797Y-101397984D01*
X178946326Y-101411744D01*
X178926540Y-101600000D01*
X178946326Y-101788256D01*
X178946327Y-101788259D01*
X179004818Y-101968277D01*
X179004821Y-101968284D01*
X179099467Y-102132216D01*
X179109806Y-102143699D01*
X179117307Y-102152030D01*
X179147535Y-102215022D01*
X179138909Y-102284357D01*
X179117307Y-102317970D01*
X179099466Y-102337785D01*
X179004821Y-102501715D01*
X179004818Y-102501722D01*
X178971745Y-102603512D01*
X178946326Y-102681744D01*
X178926540Y-102870000D01*
X178946326Y-103058256D01*
X178946327Y-103058259D01*
X179004818Y-103238277D01*
X179004821Y-103238284D01*
X179099467Y-103402216D01*
X179104985Y-103408344D01*
X179117307Y-103422030D01*
X179147535Y-103485022D01*
X179138909Y-103554357D01*
X179117307Y-103587970D01*
X179099466Y-103607785D01*
X179004821Y-103771715D01*
X179004818Y-103771722D01*
X178947124Y-103949288D01*
X178946326Y-103951744D01*
X178926540Y-104140000D01*
X178946326Y-104328256D01*
X178946327Y-104328259D01*
X179004818Y-104508277D01*
X179004821Y-104508284D01*
X179099467Y-104672216D01*
X179109806Y-104683699D01*
X179117307Y-104692030D01*
X179147535Y-104755022D01*
X179138909Y-104824357D01*
X179117307Y-104857970D01*
X179099466Y-104877785D01*
X179004821Y-105041715D01*
X179004818Y-105041722D01*
X178956037Y-105191856D01*
X178946326Y-105221744D01*
X178926540Y-105410000D01*
X178946326Y-105598256D01*
X178946327Y-105598259D01*
X179004818Y-105778277D01*
X179004821Y-105778284D01*
X179099467Y-105942216D01*
X179109806Y-105953699D01*
X179117307Y-105962030D01*
X179147535Y-106025022D01*
X179138909Y-106094357D01*
X179117307Y-106127970D01*
X179099466Y-106147785D01*
X179004821Y-106311715D01*
X179004818Y-106311722D01*
X178954918Y-106465300D01*
X178946326Y-106491744D01*
X178926540Y-106680000D01*
X178946326Y-106868256D01*
X178946327Y-106868259D01*
X179004818Y-107048277D01*
X179004821Y-107048284D01*
X179099467Y-107212216D01*
X179109806Y-107223699D01*
X179117307Y-107232030D01*
X179147535Y-107295022D01*
X179138909Y-107364357D01*
X179117307Y-107397970D01*
X179099466Y-107417785D01*
X179004821Y-107581715D01*
X179004818Y-107581722D01*
X178955313Y-107734084D01*
X178946326Y-107761744D01*
X178926540Y-107950000D01*
X178946326Y-108138256D01*
X178946327Y-108138259D01*
X179004818Y-108318277D01*
X179004821Y-108318284D01*
X179099467Y-108482216D01*
X179109806Y-108493699D01*
X179117307Y-108502030D01*
X179147535Y-108565022D01*
X179138909Y-108634357D01*
X179117307Y-108667970D01*
X179099466Y-108687785D01*
X179004821Y-108851715D01*
X179004818Y-108851722D01*
X178966889Y-108968457D01*
X178946326Y-109031744D01*
X178926540Y-109220000D01*
X178946326Y-109408256D01*
X178946327Y-109408259D01*
X179004818Y-109588277D01*
X179004821Y-109588284D01*
X179099467Y-109752216D01*
X179109806Y-109763699D01*
X179117307Y-109772030D01*
X179147535Y-109835022D01*
X179138909Y-109904357D01*
X179117307Y-109937970D01*
X179099466Y-109957785D01*
X179004821Y-110121715D01*
X179004818Y-110121722D01*
X178946327Y-110301740D01*
X178946326Y-110301744D01*
X178926540Y-110490000D01*
X178946326Y-110678256D01*
X178946327Y-110678259D01*
X179004818Y-110858277D01*
X179004821Y-110858284D01*
X179099467Y-111022216D01*
X179109806Y-111033699D01*
X179117307Y-111042030D01*
X179147535Y-111105022D01*
X179138909Y-111174357D01*
X179117307Y-111207970D01*
X179099466Y-111227785D01*
X179004821Y-111391715D01*
X179004818Y-111391722D01*
X178946327Y-111571740D01*
X178946326Y-111571744D01*
X178926540Y-111760000D01*
X178946326Y-111948256D01*
X178946327Y-111948259D01*
X179004818Y-112128277D01*
X179004821Y-112128284D01*
X179099467Y-112292216D01*
X179101595Y-112294579D01*
X179117307Y-112312030D01*
X179147535Y-112375022D01*
X179138909Y-112444357D01*
X179117307Y-112477970D01*
X179099466Y-112497785D01*
X179004821Y-112661715D01*
X179004818Y-112661722D01*
X178946327Y-112841740D01*
X178946326Y-112841744D01*
X178926540Y-113030000D01*
X178946326Y-113218256D01*
X178946327Y-113218259D01*
X179004818Y-113398277D01*
X179004821Y-113398284D01*
X179099467Y-113562216D01*
X179113963Y-113578315D01*
X179117305Y-113582027D01*
X179147535Y-113645018D01*
X179138910Y-113714354D01*
X179117308Y-113747968D01*
X179099466Y-113767784D01*
X179004821Y-113931715D01*
X179004818Y-113931722D01*
X178946327Y-114111740D01*
X178946326Y-114111744D01*
X178926540Y-114300000D01*
X178946326Y-114488256D01*
X178946327Y-114488259D01*
X179004818Y-114668277D01*
X179004821Y-114668284D01*
X179099467Y-114832216D01*
X179109806Y-114843699D01*
X179117307Y-114852030D01*
X179147535Y-114915022D01*
X179138909Y-114984357D01*
X179117307Y-115017970D01*
X179099466Y-115037785D01*
X179004821Y-115201715D01*
X179004818Y-115201722D01*
X178946327Y-115381740D01*
X178946326Y-115381744D01*
X178926540Y-115570000D01*
X178946326Y-115758256D01*
X178946327Y-115758259D01*
X179004818Y-115938277D01*
X179004821Y-115938284D01*
X179099467Y-116102216D01*
X179117305Y-116122027D01*
X179147535Y-116185018D01*
X179138910Y-116254354D01*
X179117308Y-116287968D01*
X179099466Y-116307784D01*
X179004821Y-116471715D01*
X179004818Y-116471722D01*
X178946327Y-116651740D01*
X178946326Y-116651744D01*
X178926540Y-116840000D01*
X178946326Y-117028256D01*
X178946327Y-117028259D01*
X179004818Y-117208277D01*
X179004821Y-117208284D01*
X179099467Y-117372216D01*
X179109806Y-117383699D01*
X179117307Y-117392030D01*
X179147535Y-117455022D01*
X179138909Y-117524357D01*
X179117307Y-117557970D01*
X179099466Y-117577785D01*
X179004821Y-117741715D01*
X179004818Y-117741722D01*
X178946327Y-117921740D01*
X178946326Y-117921744D01*
X178926540Y-118110000D01*
X178946326Y-118298256D01*
X178946327Y-118298259D01*
X179004818Y-118478277D01*
X179004821Y-118478284D01*
X179099467Y-118642216D01*
X179109806Y-118653699D01*
X179117307Y-118662030D01*
X179147535Y-118725022D01*
X179138909Y-118794357D01*
X179117307Y-118827970D01*
X179099466Y-118847785D01*
X179004821Y-119011715D01*
X179004818Y-119011722D01*
X178946327Y-119191740D01*
X178946326Y-119191744D01*
X178926540Y-119380000D01*
X178946326Y-119568256D01*
X178946327Y-119568259D01*
X179004818Y-119748277D01*
X179004821Y-119748284D01*
X179099467Y-119912216D01*
X179117305Y-119932027D01*
X179147535Y-119995018D01*
X179138910Y-120064354D01*
X179117308Y-120097968D01*
X179099466Y-120117784D01*
X179004821Y-120281715D01*
X179004818Y-120281722D01*
X178946327Y-120461740D01*
X178946326Y-120461744D01*
X178926540Y-120650000D01*
X178946326Y-120838256D01*
X178946327Y-120838259D01*
X179004818Y-121018277D01*
X179004821Y-121018284D01*
X179099467Y-121182216D01*
X179109806Y-121193699D01*
X179117307Y-121202030D01*
X179147535Y-121265022D01*
X179138909Y-121334357D01*
X179117307Y-121367970D01*
X179099466Y-121387785D01*
X179004821Y-121551715D01*
X179004818Y-121551722D01*
X178946327Y-121731740D01*
X178946326Y-121731744D01*
X178926540Y-121920000D01*
X178946326Y-122108256D01*
X178946327Y-122108259D01*
X179004818Y-122288277D01*
X179004821Y-122288284D01*
X179099467Y-122452216D01*
X179107408Y-122461035D01*
X179117305Y-122472027D01*
X179147535Y-122535018D01*
X179138910Y-122604354D01*
X179117308Y-122637968D01*
X179099466Y-122657784D01*
X179004821Y-122821715D01*
X179004818Y-122821722D01*
X178946327Y-123001740D01*
X178946326Y-123001744D01*
X178926540Y-123190000D01*
X178946326Y-123378256D01*
X178946327Y-123378259D01*
X179004818Y-123558277D01*
X179004821Y-123558284D01*
X179099467Y-123722216D01*
X179162150Y-123791832D01*
X179226129Y-123862888D01*
X179379265Y-123974148D01*
X179379270Y-123974151D01*
X179552192Y-124051142D01*
X179552197Y-124051144D01*
X179737354Y-124090500D01*
X179737355Y-124090500D01*
X179926644Y-124090500D01*
X179926646Y-124090500D01*
X180111803Y-124051144D01*
X180284730Y-123974151D01*
X180437871Y-123862888D01*
X180501850Y-123791831D01*
X180561337Y-123755183D01*
X180631194Y-123756514D01*
X180686150Y-123791832D01*
X180750129Y-123862888D01*
X180903265Y-123974148D01*
X180903270Y-123974151D01*
X181076192Y-124051142D01*
X181076197Y-124051144D01*
X181261354Y-124090500D01*
X181261355Y-124090500D01*
X181450644Y-124090500D01*
X181450646Y-124090500D01*
X181635803Y-124051144D01*
X181808730Y-123974151D01*
X181961871Y-123862888D01*
X182025850Y-123791831D01*
X182085337Y-123755183D01*
X182155194Y-123756514D01*
X182210150Y-123791832D01*
X182274129Y-123862888D01*
X182427265Y-123974148D01*
X182427270Y-123974151D01*
X182600192Y-124051142D01*
X182600197Y-124051144D01*
X182785354Y-124090500D01*
X182785355Y-124090500D01*
X182974644Y-124090500D01*
X182974646Y-124090500D01*
X183159803Y-124051144D01*
X183332730Y-123974151D01*
X183442117Y-123894676D01*
X183507920Y-123871198D01*
X183575974Y-123887023D01*
X183587871Y-123894668D01*
X183697266Y-123974148D01*
X183697270Y-123974151D01*
X183870192Y-124051142D01*
X183870197Y-124051144D01*
X184055354Y-124090500D01*
X184055355Y-124090500D01*
X184244644Y-124090500D01*
X184244646Y-124090500D01*
X184429803Y-124051144D01*
X184602730Y-123974151D01*
X184712117Y-123894676D01*
X184777920Y-123871198D01*
X184845974Y-123887023D01*
X184857871Y-123894668D01*
X184967266Y-123974148D01*
X184967270Y-123974151D01*
X185140192Y-124051142D01*
X185140197Y-124051144D01*
X185325354Y-124090500D01*
X185325355Y-124090500D01*
X185514644Y-124090500D01*
X185514646Y-124090500D01*
X185699803Y-124051144D01*
X185872730Y-123974151D01*
X185982117Y-123894676D01*
X186047920Y-123871198D01*
X186115974Y-123887023D01*
X186127871Y-123894668D01*
X186237266Y-123974148D01*
X186237270Y-123974151D01*
X186410192Y-124051142D01*
X186410197Y-124051144D01*
X186595354Y-124090500D01*
X186595355Y-124090500D01*
X186784644Y-124090500D01*
X186784646Y-124090500D01*
X186969803Y-124051144D01*
X187142730Y-123974151D01*
X187252117Y-123894676D01*
X187317920Y-123871198D01*
X187385974Y-123887023D01*
X187397871Y-123894668D01*
X187507266Y-123974148D01*
X187507270Y-123974151D01*
X187680192Y-124051142D01*
X187680197Y-124051144D01*
X187865354Y-124090500D01*
X187865355Y-124090500D01*
X188054644Y-124090500D01*
X188054646Y-124090500D01*
X188239803Y-124051144D01*
X188412730Y-123974151D01*
X188565871Y-123862888D01*
X188692533Y-123722216D01*
X188787179Y-123558284D01*
X188845674Y-123378256D01*
X188865460Y-123190000D01*
X188845674Y-123001744D01*
X188787179Y-122821716D01*
X188692533Y-122657784D01*
X188565871Y-122517112D01*
X188554432Y-122508801D01*
X188412734Y-122405851D01*
X188412729Y-122405848D01*
X188239807Y-122328857D01*
X188239802Y-122328855D01*
X188076908Y-122294232D01*
X188054646Y-122289500D01*
X187865354Y-122289500D01*
X187843092Y-122294232D01*
X187680197Y-122328855D01*
X187680192Y-122328857D01*
X187507270Y-122405848D01*
X187507265Y-122405851D01*
X187397885Y-122485321D01*
X187332079Y-122508801D01*
X187264025Y-122492975D01*
X187252115Y-122485321D01*
X187142734Y-122405851D01*
X187142729Y-122405848D01*
X186969807Y-122328857D01*
X186969802Y-122328855D01*
X186806908Y-122294232D01*
X186784646Y-122289500D01*
X186595354Y-122289500D01*
X186573092Y-122294232D01*
X186410197Y-122328855D01*
X186410192Y-122328857D01*
X186237270Y-122405848D01*
X186237265Y-122405851D01*
X186127885Y-122485321D01*
X186062079Y-122508801D01*
X185994025Y-122492975D01*
X185982115Y-122485321D01*
X185872734Y-122405851D01*
X185872729Y-122405848D01*
X185699807Y-122328857D01*
X185699802Y-122328855D01*
X185536908Y-122294232D01*
X185514646Y-122289500D01*
X185325354Y-122289500D01*
X185303092Y-122294232D01*
X185140197Y-122328855D01*
X185140192Y-122328857D01*
X184967270Y-122405848D01*
X184967265Y-122405851D01*
X184857885Y-122485321D01*
X184792079Y-122508801D01*
X184724025Y-122492975D01*
X184712115Y-122485321D01*
X184602734Y-122405851D01*
X184602729Y-122405848D01*
X184429807Y-122328857D01*
X184429802Y-122328855D01*
X184266908Y-122294232D01*
X184244646Y-122289500D01*
X184055354Y-122289500D01*
X184033092Y-122294232D01*
X183870197Y-122328855D01*
X183870192Y-122328857D01*
X183697270Y-122405848D01*
X183697265Y-122405851D01*
X183587885Y-122485321D01*
X183522079Y-122508801D01*
X183454025Y-122492975D01*
X183442115Y-122485321D01*
X183332734Y-122405851D01*
X183332729Y-122405848D01*
X183159807Y-122328857D01*
X183159802Y-122328855D01*
X182996908Y-122294232D01*
X182974646Y-122289500D01*
X182785354Y-122289500D01*
X182763092Y-122294232D01*
X182600197Y-122328855D01*
X182600192Y-122328857D01*
X182427270Y-122405848D01*
X182427265Y-122405851D01*
X182274129Y-122517111D01*
X182274128Y-122517112D01*
X182210149Y-122588168D01*
X182150663Y-122624816D01*
X182080806Y-122623485D01*
X182025851Y-122588168D01*
X181961871Y-122517112D01*
X181961870Y-122517111D01*
X181808734Y-122405851D01*
X181808729Y-122405848D01*
X181635807Y-122328857D01*
X181635802Y-122328855D01*
X181472908Y-122294232D01*
X181450646Y-122289500D01*
X181261354Y-122289500D01*
X181239092Y-122294232D01*
X181076197Y-122328855D01*
X181076192Y-122328857D01*
X180903270Y-122405848D01*
X180903266Y-122405851D01*
X180837844Y-122453382D01*
X180772037Y-122476861D01*
X180703984Y-122461035D01*
X180655290Y-122410928D01*
X180641415Y-122342450D01*
X180656579Y-122294232D01*
X180656538Y-122294214D01*
X180656698Y-122293852D01*
X180657578Y-122291056D01*
X180659179Y-122288284D01*
X180717674Y-122108256D01*
X180733717Y-121955606D01*
X180760300Y-121890996D01*
X180817597Y-121851011D01*
X180858148Y-121844577D01*
X189106623Y-121918888D01*
X189173481Y-121939176D01*
X189218759Y-121992390D01*
X189229504Y-122043381D01*
X189205095Y-128121205D01*
X189185141Y-128188165D01*
X189132154Y-128233707D01*
X189081204Y-128244707D01*
X101749441Y-128320692D01*
X101682384Y-128301066D01*
X101636583Y-128248302D01*
X101625333Y-128196759D01*
X101624904Y-127403151D01*
X101624481Y-126619000D01*
X166378940Y-126619000D01*
X166398726Y-126807256D01*
X166398727Y-126807259D01*
X166457218Y-126987277D01*
X166457221Y-126987284D01*
X166551867Y-127151216D01*
X166585221Y-127188259D01*
X166678529Y-127291888D01*
X166831665Y-127403148D01*
X166831670Y-127403151D01*
X167004592Y-127480142D01*
X167004597Y-127480144D01*
X167189754Y-127519500D01*
X167189755Y-127519500D01*
X167379044Y-127519500D01*
X167379046Y-127519500D01*
X167564203Y-127480144D01*
X167737130Y-127403151D01*
X167890271Y-127291888D01*
X168016933Y-127151216D01*
X168104237Y-127000000D01*
X170544540Y-127000000D01*
X170564326Y-127188256D01*
X170564327Y-127188259D01*
X170622818Y-127368277D01*
X170622821Y-127368284D01*
X170717467Y-127532216D01*
X170844128Y-127672887D01*
X170844129Y-127672888D01*
X170997265Y-127784148D01*
X170997270Y-127784151D01*
X171170192Y-127861142D01*
X171170197Y-127861144D01*
X171355354Y-127900500D01*
X171355355Y-127900500D01*
X171544644Y-127900500D01*
X171544646Y-127900500D01*
X171729803Y-127861144D01*
X171902730Y-127784151D01*
X172055871Y-127672888D01*
X172182533Y-127532216D01*
X172277179Y-127368284D01*
X172335674Y-127188256D01*
X172355460Y-127000000D01*
X173084540Y-127000000D01*
X173104326Y-127188256D01*
X173104327Y-127188259D01*
X173162818Y-127368277D01*
X173162821Y-127368284D01*
X173257467Y-127532216D01*
X173384128Y-127672888D01*
X173384129Y-127672888D01*
X173537265Y-127784148D01*
X173537270Y-127784151D01*
X173710192Y-127861142D01*
X173710197Y-127861144D01*
X173895354Y-127900500D01*
X173895355Y-127900500D01*
X174084644Y-127900500D01*
X174084646Y-127900500D01*
X174269803Y-127861144D01*
X174442730Y-127784151D01*
X174595871Y-127672888D01*
X174722533Y-127532216D01*
X174817179Y-127368284D01*
X174875674Y-127188256D01*
X174895460Y-127000000D01*
X174875674Y-126811744D01*
X174817179Y-126631716D01*
X174722533Y-126467784D01*
X174595871Y-126327112D01*
X174595870Y-126327111D01*
X174442734Y-126215851D01*
X174442729Y-126215848D01*
X174269807Y-126138857D01*
X174269802Y-126138855D01*
X174124001Y-126107865D01*
X174084646Y-126099500D01*
X173895354Y-126099500D01*
X173862897Y-126106398D01*
X173710197Y-126138855D01*
X173710192Y-126138857D01*
X173537270Y-126215848D01*
X173537265Y-126215851D01*
X173384129Y-126327111D01*
X173257466Y-126467785D01*
X173162821Y-126631715D01*
X173162818Y-126631722D01*
X173105784Y-126807256D01*
X173104326Y-126811744D01*
X173084540Y-127000000D01*
X172355460Y-127000000D01*
X172335674Y-126811744D01*
X172277179Y-126631716D01*
X172182533Y-126467784D01*
X172055871Y-126327112D01*
X172055870Y-126327111D01*
X171902734Y-126215851D01*
X171902729Y-126215848D01*
X171729807Y-126138857D01*
X171729802Y-126138855D01*
X171584000Y-126107865D01*
X171544646Y-126099500D01*
X171355354Y-126099500D01*
X171322897Y-126106398D01*
X171170197Y-126138855D01*
X171170192Y-126138857D01*
X170997270Y-126215848D01*
X170997265Y-126215851D01*
X170844129Y-126327111D01*
X170717466Y-126467785D01*
X170622821Y-126631715D01*
X170622818Y-126631722D01*
X170565784Y-126807256D01*
X170564326Y-126811744D01*
X170544540Y-127000000D01*
X168104237Y-127000000D01*
X168111579Y-126987284D01*
X168170074Y-126807256D01*
X168189860Y-126619000D01*
X168170074Y-126430744D01*
X168111579Y-126250716D01*
X168016933Y-126086784D01*
X167890271Y-125946112D01*
X167890270Y-125946111D01*
X167737134Y-125834851D01*
X167737129Y-125834848D01*
X167564207Y-125757857D01*
X167564202Y-125757855D01*
X167418401Y-125726865D01*
X167379046Y-125718500D01*
X167189754Y-125718500D01*
X167157297Y-125725398D01*
X167004597Y-125757855D01*
X167004592Y-125757857D01*
X166831670Y-125834848D01*
X166831665Y-125834851D01*
X166678529Y-125946111D01*
X166551866Y-126086785D01*
X166457221Y-126250715D01*
X166457218Y-126250722D01*
X166416351Y-126376500D01*
X166398726Y-126430744D01*
X166378940Y-126619000D01*
X101624481Y-126619000D01*
X101623864Y-125476000D01*
X185022540Y-125476000D01*
X185042326Y-125664256D01*
X185042327Y-125664259D01*
X185100818Y-125844277D01*
X185100821Y-125844284D01*
X185195467Y-126008216D01*
X185266211Y-126086785D01*
X185322129Y-126148888D01*
X185475265Y-126260148D01*
X185475270Y-126260151D01*
X185648192Y-126337142D01*
X185648197Y-126337144D01*
X185833354Y-126376500D01*
X185833355Y-126376500D01*
X186022644Y-126376500D01*
X186022646Y-126376500D01*
X186207803Y-126337144D01*
X186380730Y-126260151D01*
X186533871Y-126148888D01*
X186660533Y-126008216D01*
X186755179Y-125844284D01*
X186813674Y-125664256D01*
X186833460Y-125476000D01*
X186813674Y-125287744D01*
X186755179Y-125107716D01*
X186660533Y-124943784D01*
X186533871Y-124803112D01*
X186533870Y-124803111D01*
X186380734Y-124691851D01*
X186380729Y-124691848D01*
X186207807Y-124614857D01*
X186207802Y-124614855D01*
X186062001Y-124583865D01*
X186022646Y-124575500D01*
X185833354Y-124575500D01*
X185800897Y-124582398D01*
X185648197Y-124614855D01*
X185648192Y-124614857D01*
X185475270Y-124691848D01*
X185475265Y-124691851D01*
X185322129Y-124803111D01*
X185195466Y-124943785D01*
X185100821Y-125107715D01*
X185100818Y-125107722D01*
X185056491Y-125244148D01*
X185042326Y-125287744D01*
X185022540Y-125476000D01*
X101623864Y-125476000D01*
X101623315Y-124460000D01*
X112124540Y-124460000D01*
X112144326Y-124648256D01*
X112144327Y-124648259D01*
X112202818Y-124828277D01*
X112202821Y-124828284D01*
X112297467Y-124992216D01*
X112424129Y-125132888D01*
X112577265Y-125244148D01*
X112577270Y-125244151D01*
X112750192Y-125321142D01*
X112750197Y-125321144D01*
X112935354Y-125360500D01*
X112935355Y-125360500D01*
X113124644Y-125360500D01*
X113124646Y-125360500D01*
X113309803Y-125321144D01*
X113482730Y-125244151D01*
X113635871Y-125132888D01*
X113762533Y-124992216D01*
X113857179Y-124828284D01*
X113915674Y-124648256D01*
X113935460Y-124460000D01*
X113915674Y-124271744D01*
X113857179Y-124091716D01*
X113791179Y-123977400D01*
X168131540Y-123977400D01*
X168151326Y-124165656D01*
X168151327Y-124165659D01*
X168209818Y-124345677D01*
X168209821Y-124345684D01*
X168304467Y-124509616D01*
X168399225Y-124614855D01*
X168431129Y-124650288D01*
X168584265Y-124761548D01*
X168584270Y-124761551D01*
X168757192Y-124838542D01*
X168757197Y-124838544D01*
X168942354Y-124877900D01*
X168942355Y-124877900D01*
X169131644Y-124877900D01*
X169131646Y-124877900D01*
X169316803Y-124838544D01*
X169489730Y-124761551D01*
X169642871Y-124650288D01*
X169769533Y-124509616D01*
X169864179Y-124345684D01*
X169922674Y-124165656D01*
X169942460Y-123977400D01*
X169922674Y-123789144D01*
X169864179Y-123609116D01*
X169769533Y-123445184D01*
X169642871Y-123304512D01*
X169642870Y-123304511D01*
X169489734Y-123193251D01*
X169489729Y-123193248D01*
X169316807Y-123116257D01*
X169316802Y-123116255D01*
X169171000Y-123085265D01*
X169131646Y-123076900D01*
X168942354Y-123076900D01*
X168909897Y-123083798D01*
X168757197Y-123116255D01*
X168757192Y-123116257D01*
X168584270Y-123193248D01*
X168584265Y-123193251D01*
X168431129Y-123304511D01*
X168304466Y-123445185D01*
X168209821Y-123609115D01*
X168209818Y-123609122D01*
X168151986Y-123787112D01*
X168151326Y-123789144D01*
X168131540Y-123977400D01*
X113791179Y-123977400D01*
X113762533Y-123927784D01*
X113635871Y-123787112D01*
X113635870Y-123787111D01*
X113482734Y-123675851D01*
X113482729Y-123675848D01*
X113309807Y-123598857D01*
X113309802Y-123598855D01*
X113164001Y-123567865D01*
X113124646Y-123559500D01*
X112935354Y-123559500D01*
X112902897Y-123566398D01*
X112750197Y-123598855D01*
X112750192Y-123598857D01*
X112577270Y-123675848D01*
X112577265Y-123675851D01*
X112424129Y-123787111D01*
X112297466Y-123927785D01*
X112202821Y-124091715D01*
X112202818Y-124091722D01*
X112178796Y-124165656D01*
X112144326Y-124271744D01*
X112124540Y-124460000D01*
X101623315Y-124460000D01*
X101621258Y-120650000D01*
X108314540Y-120650000D01*
X108334326Y-120838256D01*
X108334327Y-120838259D01*
X108392818Y-121018277D01*
X108392821Y-121018284D01*
X108487467Y-121182216D01*
X108614129Y-121322888D01*
X108767265Y-121434148D01*
X108767270Y-121434151D01*
X108940192Y-121511142D01*
X108940197Y-121511144D01*
X109125354Y-121550500D01*
X109125355Y-121550500D01*
X109314644Y-121550500D01*
X109314646Y-121550500D01*
X109499803Y-121511144D01*
X109672730Y-121434151D01*
X109825871Y-121322888D01*
X109952533Y-121182216D01*
X110047179Y-121018284D01*
X110105674Y-120838256D01*
X110125460Y-120650000D01*
X122284540Y-120650000D01*
X122304326Y-120838256D01*
X122304327Y-120838259D01*
X122362818Y-121018277D01*
X122362821Y-121018284D01*
X122457467Y-121182216D01*
X122584128Y-121322888D01*
X122584129Y-121322888D01*
X122737265Y-121434148D01*
X122737270Y-121434151D01*
X122910192Y-121511142D01*
X122910197Y-121511144D01*
X123095354Y-121550500D01*
X123095355Y-121550500D01*
X123284644Y-121550500D01*
X123284646Y-121550500D01*
X123469803Y-121511144D01*
X123642730Y-121434151D01*
X123795871Y-121322888D01*
X123922533Y-121182216D01*
X124017179Y-121018284D01*
X124075674Y-120838256D01*
X124095460Y-120650000D01*
X124075674Y-120461744D01*
X124017179Y-120281716D01*
X123922533Y-120117784D01*
X123795871Y-119977112D01*
X123733817Y-119932027D01*
X123642734Y-119865851D01*
X123642729Y-119865848D01*
X123469807Y-119788857D01*
X123469802Y-119788855D01*
X123324000Y-119757865D01*
X123284646Y-119749500D01*
X123095354Y-119749500D01*
X123062897Y-119756398D01*
X122910197Y-119788855D01*
X122910192Y-119788857D01*
X122737270Y-119865848D01*
X122737265Y-119865851D01*
X122584129Y-119977111D01*
X122457466Y-120117785D01*
X122362821Y-120281715D01*
X122362818Y-120281722D01*
X122304327Y-120461740D01*
X122304326Y-120461744D01*
X122284540Y-120650000D01*
X110125460Y-120650000D01*
X110105674Y-120461744D01*
X110047179Y-120281716D01*
X109952533Y-120117784D01*
X109825871Y-119977112D01*
X109763817Y-119932027D01*
X109672734Y-119865851D01*
X109672729Y-119865848D01*
X109499807Y-119788857D01*
X109499802Y-119788855D01*
X109354000Y-119757865D01*
X109314646Y-119749500D01*
X109125354Y-119749500D01*
X109092897Y-119756398D01*
X108940197Y-119788855D01*
X108940192Y-119788857D01*
X108767270Y-119865848D01*
X108767265Y-119865851D01*
X108614129Y-119977111D01*
X108487466Y-120117785D01*
X108392821Y-120281715D01*
X108392818Y-120281722D01*
X108334327Y-120461740D01*
X108334326Y-120461744D01*
X108314540Y-120650000D01*
X101621258Y-120650000D01*
X101619200Y-116840000D01*
X123554540Y-116840000D01*
X123574326Y-117028256D01*
X123574327Y-117028259D01*
X123632818Y-117208277D01*
X123632821Y-117208284D01*
X123727467Y-117372216D01*
X123854128Y-117512887D01*
X123854129Y-117512888D01*
X124007265Y-117624148D01*
X124007270Y-117624151D01*
X124180192Y-117701142D01*
X124180197Y-117701144D01*
X124365354Y-117740500D01*
X124365355Y-117740500D01*
X124554644Y-117740500D01*
X124554646Y-117740500D01*
X124739803Y-117701144D01*
X124912730Y-117624151D01*
X125065871Y-117512888D01*
X125192533Y-117372216D01*
X125287179Y-117208284D01*
X125345674Y-117028256D01*
X125365460Y-116840000D01*
X173084540Y-116840000D01*
X173104326Y-117028256D01*
X173104327Y-117028259D01*
X173162818Y-117208277D01*
X173162821Y-117208284D01*
X173257467Y-117372216D01*
X173384128Y-117512888D01*
X173384129Y-117512888D01*
X173537265Y-117624148D01*
X173537270Y-117624151D01*
X173710192Y-117701142D01*
X173710197Y-117701144D01*
X173895354Y-117740500D01*
X173895355Y-117740500D01*
X174084644Y-117740500D01*
X174084646Y-117740500D01*
X174269803Y-117701144D01*
X174442730Y-117624151D01*
X174595871Y-117512888D01*
X174722533Y-117372216D01*
X174817179Y-117208284D01*
X174875674Y-117028256D01*
X174895460Y-116840000D01*
X174875674Y-116651744D01*
X174817179Y-116471716D01*
X174722533Y-116307784D01*
X174595871Y-116167112D01*
X174533817Y-116122027D01*
X174442734Y-116055851D01*
X174442729Y-116055848D01*
X174269807Y-115978857D01*
X174269802Y-115978855D01*
X174124000Y-115947865D01*
X174084646Y-115939500D01*
X173895354Y-115939500D01*
X173862897Y-115946398D01*
X173710197Y-115978855D01*
X173710192Y-115978857D01*
X173537270Y-116055848D01*
X173537265Y-116055851D01*
X173384129Y-116167111D01*
X173257466Y-116307785D01*
X173162821Y-116471715D01*
X173162818Y-116471722D01*
X173104327Y-116651740D01*
X173104326Y-116651744D01*
X173084540Y-116840000D01*
X125365460Y-116840000D01*
X125345674Y-116651744D01*
X125287179Y-116471716D01*
X125192533Y-116307784D01*
X125065871Y-116167112D01*
X125003817Y-116122027D01*
X124912734Y-116055851D01*
X124912729Y-116055848D01*
X124739807Y-115978857D01*
X124739802Y-115978855D01*
X124594001Y-115947865D01*
X124554646Y-115939500D01*
X124365354Y-115939500D01*
X124332897Y-115946398D01*
X124180197Y-115978855D01*
X124180192Y-115978857D01*
X124007270Y-116055848D01*
X124007265Y-116055851D01*
X123854129Y-116167111D01*
X123727466Y-116307785D01*
X123632821Y-116471715D01*
X123632818Y-116471722D01*
X123574327Y-116651740D01*
X123574326Y-116651744D01*
X123554540Y-116840000D01*
X101619200Y-116840000D01*
X101617143Y-113030000D01*
X108314540Y-113030000D01*
X108334326Y-113218256D01*
X108334327Y-113218259D01*
X108392818Y-113398277D01*
X108392821Y-113398284D01*
X108487467Y-113562216D01*
X108614129Y-113702888D01*
X108767265Y-113814148D01*
X108767270Y-113814151D01*
X108940192Y-113891142D01*
X108940197Y-113891144D01*
X109125354Y-113930500D01*
X109125355Y-113930500D01*
X109314644Y-113930500D01*
X109314646Y-113930500D01*
X109499803Y-113891144D01*
X109672730Y-113814151D01*
X109825871Y-113702888D01*
X109952533Y-113562216D01*
X110047179Y-113398284D01*
X110105674Y-113218256D01*
X110125460Y-113030000D01*
X146414540Y-113030000D01*
X146434326Y-113218256D01*
X146434327Y-113218259D01*
X146492818Y-113398277D01*
X146492821Y-113398284D01*
X146587467Y-113562216D01*
X146714128Y-113702888D01*
X146714129Y-113702888D01*
X146867265Y-113814148D01*
X146867270Y-113814151D01*
X147040192Y-113891142D01*
X147040197Y-113891144D01*
X147225354Y-113930500D01*
X147225355Y-113930500D01*
X147414644Y-113930500D01*
X147414646Y-113930500D01*
X147599803Y-113891144D01*
X147772730Y-113814151D01*
X147925871Y-113702888D01*
X148052533Y-113562216D01*
X148147179Y-113398284D01*
X148205674Y-113218256D01*
X148225460Y-113030000D01*
X148214782Y-112928400D01*
X162721340Y-112928400D01*
X162741126Y-113116656D01*
X162741127Y-113116659D01*
X162799618Y-113296677D01*
X162799621Y-113296684D01*
X162894267Y-113460616D01*
X163000244Y-113578315D01*
X163020929Y-113601288D01*
X163174065Y-113712548D01*
X163174070Y-113712551D01*
X163346992Y-113789542D01*
X163346997Y-113789544D01*
X163532154Y-113828900D01*
X163532155Y-113828900D01*
X163721444Y-113828900D01*
X163721446Y-113828900D01*
X163906603Y-113789544D01*
X164079530Y-113712551D01*
X164232671Y-113601288D01*
X164359333Y-113460616D01*
X164453979Y-113296684D01*
X164512474Y-113116656D01*
X164521582Y-113030000D01*
X173084540Y-113030000D01*
X173104326Y-113218256D01*
X173104327Y-113218259D01*
X173162818Y-113398277D01*
X173162821Y-113398284D01*
X173257467Y-113562216D01*
X173384128Y-113702888D01*
X173384129Y-113702888D01*
X173537265Y-113814148D01*
X173537270Y-113814151D01*
X173710192Y-113891142D01*
X173710197Y-113891144D01*
X173895354Y-113930500D01*
X173895355Y-113930500D01*
X174084644Y-113930500D01*
X174084646Y-113930500D01*
X174269803Y-113891144D01*
X174442730Y-113814151D01*
X174595871Y-113702888D01*
X174722533Y-113562216D01*
X174817179Y-113398284D01*
X174875674Y-113218256D01*
X174895460Y-113030000D01*
X174875674Y-112841744D01*
X174817179Y-112661716D01*
X174722533Y-112497784D01*
X174595871Y-112357112D01*
X174595870Y-112357111D01*
X174442734Y-112245851D01*
X174442729Y-112245848D01*
X174269807Y-112168857D01*
X174269802Y-112168855D01*
X174124001Y-112137865D01*
X174084646Y-112129500D01*
X173895354Y-112129500D01*
X173862897Y-112136398D01*
X173710197Y-112168855D01*
X173710192Y-112168857D01*
X173537270Y-112245848D01*
X173537265Y-112245851D01*
X173384129Y-112357111D01*
X173257466Y-112497785D01*
X173162821Y-112661715D01*
X173162818Y-112661722D01*
X173104327Y-112841740D01*
X173104326Y-112841744D01*
X173084540Y-113030000D01*
X164521582Y-113030000D01*
X164532260Y-112928400D01*
X164512474Y-112740144D01*
X164453979Y-112560116D01*
X164359333Y-112396184D01*
X164232671Y-112255512D01*
X164232670Y-112255511D01*
X164079534Y-112144251D01*
X164079529Y-112144248D01*
X163906607Y-112067257D01*
X163906602Y-112067255D01*
X163760800Y-112036265D01*
X163721446Y-112027900D01*
X163532154Y-112027900D01*
X163499697Y-112034798D01*
X163346997Y-112067255D01*
X163346992Y-112067257D01*
X163174070Y-112144248D01*
X163174065Y-112144251D01*
X163020929Y-112255511D01*
X162894266Y-112396185D01*
X162799621Y-112560115D01*
X162799618Y-112560122D01*
X162741127Y-112740140D01*
X162741126Y-112740144D01*
X162721340Y-112928400D01*
X148214782Y-112928400D01*
X148205674Y-112841744D01*
X148147179Y-112661716D01*
X148052533Y-112497784D01*
X147925871Y-112357112D01*
X147925870Y-112357111D01*
X147772734Y-112245851D01*
X147772729Y-112245848D01*
X147599807Y-112168857D01*
X147599802Y-112168855D01*
X147454000Y-112137865D01*
X147414646Y-112129500D01*
X147225354Y-112129500D01*
X147192897Y-112136398D01*
X147040197Y-112168855D01*
X147040192Y-112168857D01*
X146867270Y-112245848D01*
X146867265Y-112245851D01*
X146714129Y-112357111D01*
X146587466Y-112497785D01*
X146492821Y-112661715D01*
X146492818Y-112661722D01*
X146434327Y-112841740D01*
X146434326Y-112841744D01*
X146414540Y-113030000D01*
X110125460Y-113030000D01*
X110105674Y-112841744D01*
X110047179Y-112661716D01*
X109952533Y-112497784D01*
X109825871Y-112357112D01*
X109825870Y-112357111D01*
X109672734Y-112245851D01*
X109672729Y-112245848D01*
X109499807Y-112168857D01*
X109499802Y-112168855D01*
X109354001Y-112137865D01*
X109314646Y-112129500D01*
X109125354Y-112129500D01*
X109092897Y-112136398D01*
X108940197Y-112168855D01*
X108940192Y-112168857D01*
X108767270Y-112245848D01*
X108767265Y-112245851D01*
X108614129Y-112357111D01*
X108487466Y-112497785D01*
X108392821Y-112661715D01*
X108392818Y-112661722D01*
X108334327Y-112841740D01*
X108334326Y-112841744D01*
X108314540Y-113030000D01*
X101617143Y-113030000D01*
X101616348Y-111556800D01*
X126475540Y-111556800D01*
X126495326Y-111745056D01*
X126495327Y-111745059D01*
X126553818Y-111925077D01*
X126553821Y-111925084D01*
X126648467Y-112089016D01*
X126745104Y-112196342D01*
X126775129Y-112229688D01*
X126928265Y-112340948D01*
X126928270Y-112340951D01*
X127101192Y-112417942D01*
X127101197Y-112417944D01*
X127286354Y-112457300D01*
X127286355Y-112457300D01*
X127475644Y-112457300D01*
X127475646Y-112457300D01*
X127660803Y-112417944D01*
X127833730Y-112340951D01*
X127986871Y-112229688D01*
X128113533Y-112089016D01*
X128208179Y-111925084D01*
X128266674Y-111745056D01*
X128286460Y-111556800D01*
X128266674Y-111368544D01*
X128208179Y-111188516D01*
X128113533Y-111024584D01*
X127986871Y-110883912D01*
X127986870Y-110883911D01*
X127833734Y-110772651D01*
X127833729Y-110772648D01*
X127660807Y-110695657D01*
X127660802Y-110695655D01*
X127515000Y-110664665D01*
X127475646Y-110656300D01*
X127286354Y-110656300D01*
X127253897Y-110663198D01*
X127101197Y-110695655D01*
X127101192Y-110695657D01*
X126928270Y-110772648D01*
X126928265Y-110772651D01*
X126775129Y-110883911D01*
X126648466Y-111024585D01*
X126553821Y-111188515D01*
X126553818Y-111188522D01*
X126498064Y-111360116D01*
X126495326Y-111368544D01*
X126475540Y-111556800D01*
X101616348Y-111556800D01*
X101615813Y-110566200D01*
X123325940Y-110566200D01*
X123345726Y-110754456D01*
X123345727Y-110754459D01*
X123404218Y-110934477D01*
X123404221Y-110934484D01*
X123498867Y-111098416D01*
X123556918Y-111162888D01*
X123625529Y-111239088D01*
X123778665Y-111350348D01*
X123778670Y-111350351D01*
X123951592Y-111427342D01*
X123951597Y-111427344D01*
X124136754Y-111466700D01*
X124136755Y-111466700D01*
X124326044Y-111466700D01*
X124326046Y-111466700D01*
X124511203Y-111427344D01*
X124684130Y-111350351D01*
X124837271Y-111239088D01*
X124963933Y-111098416D01*
X125058579Y-110934484D01*
X125117074Y-110754456D01*
X125136860Y-110566200D01*
X125123512Y-110439200D01*
X129701340Y-110439200D01*
X129721126Y-110627456D01*
X129721127Y-110627459D01*
X129779618Y-110807477D01*
X129779621Y-110807484D01*
X129874267Y-110971416D01*
X129988617Y-111098414D01*
X130000929Y-111112088D01*
X130154065Y-111223348D01*
X130154070Y-111223351D01*
X130326992Y-111300342D01*
X130326997Y-111300344D01*
X130512154Y-111339700D01*
X130512155Y-111339700D01*
X130701444Y-111339700D01*
X130701446Y-111339700D01*
X130886603Y-111300344D01*
X131059530Y-111223351D01*
X131212671Y-111112088D01*
X131339333Y-110971416D01*
X131433979Y-110807484D01*
X131492474Y-110627456D01*
X131506921Y-110490000D01*
X148954540Y-110490000D01*
X148974326Y-110678256D01*
X148974327Y-110678259D01*
X149032818Y-110858277D01*
X149032821Y-110858284D01*
X149127467Y-111022216D01*
X149240672Y-111147942D01*
X149254129Y-111162888D01*
X149407265Y-111274148D01*
X149407270Y-111274151D01*
X149580192Y-111351142D01*
X149580197Y-111351144D01*
X149765354Y-111390500D01*
X149765355Y-111390500D01*
X149954644Y-111390500D01*
X149954646Y-111390500D01*
X150139803Y-111351144D01*
X150312730Y-111274151D01*
X150465871Y-111162888D01*
X150592533Y-111022216D01*
X150687179Y-110858284D01*
X150745674Y-110678256D01*
X150765460Y-110490000D01*
X150745674Y-110301744D01*
X150740818Y-110286800D01*
X163534140Y-110286800D01*
X163553926Y-110475056D01*
X163553927Y-110475059D01*
X163612418Y-110655077D01*
X163612421Y-110655084D01*
X163707067Y-110819016D01*
X163791335Y-110912605D01*
X163833729Y-110959688D01*
X163986865Y-111070948D01*
X163986870Y-111070951D01*
X164159792Y-111147942D01*
X164159797Y-111147944D01*
X164344954Y-111187300D01*
X164344955Y-111187300D01*
X164534244Y-111187300D01*
X164534246Y-111187300D01*
X164719403Y-111147944D01*
X164892330Y-111070951D01*
X165045471Y-110959688D01*
X165172133Y-110819016D01*
X165266779Y-110655084D01*
X165325274Y-110475056D01*
X165345060Y-110286800D01*
X165325274Y-110098544D01*
X165266779Y-109918516D01*
X165215443Y-109829600D01*
X167521940Y-109829600D01*
X167541726Y-110017856D01*
X167541727Y-110017859D01*
X167600218Y-110197877D01*
X167600221Y-110197884D01*
X167694867Y-110361816D01*
X167709389Y-110377944D01*
X167821529Y-110502488D01*
X167974665Y-110613748D01*
X167974670Y-110613751D01*
X168147592Y-110690742D01*
X168147597Y-110690744D01*
X168332754Y-110730100D01*
X168332755Y-110730100D01*
X168522044Y-110730100D01*
X168522046Y-110730100D01*
X168707203Y-110690744D01*
X168880130Y-110613751D01*
X169033271Y-110502488D01*
X169044515Y-110490000D01*
X173084540Y-110490000D01*
X173104326Y-110678256D01*
X173104327Y-110678259D01*
X173162818Y-110858277D01*
X173162821Y-110858284D01*
X173257467Y-111022216D01*
X173370672Y-111147942D01*
X173384129Y-111162888D01*
X173537265Y-111274148D01*
X173537270Y-111274151D01*
X173710192Y-111351142D01*
X173710197Y-111351144D01*
X173895354Y-111390500D01*
X173895355Y-111390500D01*
X174084644Y-111390500D01*
X174084646Y-111390500D01*
X174269803Y-111351144D01*
X174442730Y-111274151D01*
X174595871Y-111162888D01*
X174722533Y-111022216D01*
X174817179Y-110858284D01*
X174875674Y-110678256D01*
X174895460Y-110490000D01*
X174875674Y-110301744D01*
X174817179Y-110121716D01*
X174722533Y-109957784D01*
X174595871Y-109817112D01*
X174595870Y-109817111D01*
X174442734Y-109705851D01*
X174442729Y-109705848D01*
X174269807Y-109628857D01*
X174269802Y-109628855D01*
X174124000Y-109597865D01*
X174084646Y-109589500D01*
X173895354Y-109589500D01*
X173862897Y-109596398D01*
X173710197Y-109628855D01*
X173710192Y-109628857D01*
X173537270Y-109705848D01*
X173537265Y-109705851D01*
X173384129Y-109817111D01*
X173257466Y-109957785D01*
X173162821Y-110121715D01*
X173162818Y-110121722D01*
X173104327Y-110301740D01*
X173104326Y-110301744D01*
X173084540Y-110490000D01*
X169044515Y-110490000D01*
X169159933Y-110361816D01*
X169254579Y-110197884D01*
X169313074Y-110017856D01*
X169332860Y-109829600D01*
X169313074Y-109641344D01*
X169254579Y-109461316D01*
X169159933Y-109297384D01*
X169033271Y-109156712D01*
X169033270Y-109156711D01*
X168880134Y-109045451D01*
X168880129Y-109045448D01*
X168707207Y-108968457D01*
X168707202Y-108968455D01*
X168561400Y-108937465D01*
X168522046Y-108929100D01*
X168332754Y-108929100D01*
X168300297Y-108935998D01*
X168147597Y-108968455D01*
X168147592Y-108968457D01*
X167974670Y-109045448D01*
X167974665Y-109045451D01*
X167821529Y-109156711D01*
X167694866Y-109297385D01*
X167600221Y-109461315D01*
X167600218Y-109461322D01*
X167545783Y-109628857D01*
X167541726Y-109641344D01*
X167524977Y-109800701D01*
X167523253Y-109817112D01*
X167521940Y-109829600D01*
X165215443Y-109829600D01*
X165172133Y-109754584D01*
X165045471Y-109613912D01*
X165011871Y-109589500D01*
X164892334Y-109502651D01*
X164892329Y-109502648D01*
X164719407Y-109425657D01*
X164719402Y-109425655D01*
X164573600Y-109394665D01*
X164534246Y-109386300D01*
X164344954Y-109386300D01*
X164312497Y-109393198D01*
X164159797Y-109425655D01*
X164159792Y-109425657D01*
X163986870Y-109502648D01*
X163986865Y-109502651D01*
X163833729Y-109613911D01*
X163707066Y-109754585D01*
X163612421Y-109918515D01*
X163612418Y-109918522D01*
X163571995Y-110042933D01*
X163553926Y-110098544D01*
X163534140Y-110286800D01*
X150740818Y-110286800D01*
X150687179Y-110121716D01*
X150592533Y-109957784D01*
X150465871Y-109817112D01*
X150465870Y-109817111D01*
X150312734Y-109705851D01*
X150312729Y-109705848D01*
X150139807Y-109628857D01*
X150139802Y-109628855D01*
X149994001Y-109597865D01*
X149954646Y-109589500D01*
X149765354Y-109589500D01*
X149732897Y-109596398D01*
X149580197Y-109628855D01*
X149580192Y-109628857D01*
X149407270Y-109705848D01*
X149407265Y-109705851D01*
X149254129Y-109817111D01*
X149127466Y-109957785D01*
X149032821Y-110121715D01*
X149032818Y-110121722D01*
X148974327Y-110301740D01*
X148974326Y-110301744D01*
X148954540Y-110490000D01*
X131506921Y-110490000D01*
X131512260Y-110439200D01*
X131492474Y-110250944D01*
X131433979Y-110070916D01*
X131339333Y-109906984D01*
X131212671Y-109766312D01*
X131212670Y-109766311D01*
X131059534Y-109655051D01*
X131059529Y-109655048D01*
X130886607Y-109578057D01*
X130886602Y-109578055D01*
X130740801Y-109547065D01*
X130701446Y-109538700D01*
X130512154Y-109538700D01*
X130479697Y-109545598D01*
X130326997Y-109578055D01*
X130326992Y-109578057D01*
X130154070Y-109655048D01*
X130154065Y-109655051D01*
X130000929Y-109766311D01*
X129874266Y-109906985D01*
X129779621Y-110070915D01*
X129779618Y-110070922D01*
X129721127Y-110250940D01*
X129721126Y-110250944D01*
X129701340Y-110439200D01*
X125123512Y-110439200D01*
X125117074Y-110377944D01*
X125058579Y-110197916D01*
X124963933Y-110033984D01*
X124837271Y-109893312D01*
X124837270Y-109893311D01*
X124684134Y-109782051D01*
X124684129Y-109782048D01*
X124511207Y-109705057D01*
X124511202Y-109705055D01*
X124365401Y-109674065D01*
X124326046Y-109665700D01*
X124136754Y-109665700D01*
X124104297Y-109672598D01*
X123951597Y-109705055D01*
X123951592Y-109705057D01*
X123778670Y-109782048D01*
X123778665Y-109782051D01*
X123625529Y-109893311D01*
X123498866Y-110033985D01*
X123404221Y-110197915D01*
X123404218Y-110197922D01*
X123350967Y-110361814D01*
X123345726Y-110377944D01*
X123325940Y-110566200D01*
X101615813Y-110566200D01*
X101614400Y-107950000D01*
X120709740Y-107950000D01*
X120729526Y-108138256D01*
X120729527Y-108138259D01*
X120788018Y-108318277D01*
X120788021Y-108318284D01*
X120882667Y-108482216D01*
X121009328Y-108622888D01*
X121009329Y-108622888D01*
X121162465Y-108734148D01*
X121162470Y-108734151D01*
X121335392Y-108811142D01*
X121335397Y-108811144D01*
X121520554Y-108850500D01*
X121520555Y-108850500D01*
X121709844Y-108850500D01*
X121709846Y-108850500D01*
X121895003Y-108811144D01*
X122067930Y-108734151D01*
X122221071Y-108622888D01*
X122347733Y-108482216D01*
X122442379Y-108318284D01*
X122471259Y-108229400D01*
X131911140Y-108229400D01*
X131930926Y-108417656D01*
X131930927Y-108417659D01*
X131989418Y-108597677D01*
X131989421Y-108597684D01*
X132084067Y-108761616D01*
X132134465Y-108817588D01*
X132210729Y-108902288D01*
X132363865Y-109013548D01*
X132363870Y-109013551D01*
X132536792Y-109090542D01*
X132536797Y-109090544D01*
X132721954Y-109129900D01*
X132721955Y-109129900D01*
X132911244Y-109129900D01*
X132911246Y-109129900D01*
X133096403Y-109090544D01*
X133269330Y-109013551D01*
X133422471Y-108902288D01*
X133549133Y-108761616D01*
X133643779Y-108597684D01*
X133702274Y-108417656D01*
X133722060Y-108229400D01*
X133702274Y-108041144D01*
X133672659Y-107950000D01*
X151494540Y-107950000D01*
X151514326Y-108138256D01*
X151514327Y-108138259D01*
X151572818Y-108318277D01*
X151572821Y-108318284D01*
X151667467Y-108482216D01*
X151794128Y-108622888D01*
X151794129Y-108622888D01*
X151947265Y-108734148D01*
X151947270Y-108734151D01*
X152120192Y-108811142D01*
X152120197Y-108811144D01*
X152305354Y-108850500D01*
X152305355Y-108850500D01*
X152494644Y-108850500D01*
X152494646Y-108850500D01*
X152679803Y-108811144D01*
X152852730Y-108734151D01*
X153005871Y-108622888D01*
X153132533Y-108482216D01*
X153227179Y-108318284D01*
X153285674Y-108138256D01*
X153305460Y-107950000D01*
X153285674Y-107761744D01*
X153227179Y-107581716D01*
X153132533Y-107417784D01*
X153085726Y-107365800D01*
X165896340Y-107365800D01*
X165916126Y-107554056D01*
X165916127Y-107554059D01*
X165974618Y-107734077D01*
X165974621Y-107734084D01*
X166069267Y-107898016D01*
X166116074Y-107950000D01*
X166195929Y-108038688D01*
X166349065Y-108149948D01*
X166349070Y-108149951D01*
X166521992Y-108226942D01*
X166521997Y-108226944D01*
X166707154Y-108266300D01*
X166707155Y-108266300D01*
X166896444Y-108266300D01*
X166896446Y-108266300D01*
X167081603Y-108226944D01*
X167254530Y-108149951D01*
X167407671Y-108038688D01*
X167534333Y-107898016D01*
X167628979Y-107734084D01*
X167687474Y-107554056D01*
X167707260Y-107365800D01*
X167687474Y-107177544D01*
X167628979Y-106997516D01*
X167534333Y-106833584D01*
X167407671Y-106692912D01*
X167407670Y-106692911D01*
X167254534Y-106581651D01*
X167254529Y-106581648D01*
X167081607Y-106504657D01*
X167081602Y-106504655D01*
X166935800Y-106473665D01*
X166896446Y-106465300D01*
X166707154Y-106465300D01*
X166674697Y-106472198D01*
X166521997Y-106504655D01*
X166521992Y-106504657D01*
X166349070Y-106581648D01*
X166349065Y-106581651D01*
X166195929Y-106692911D01*
X166069266Y-106833585D01*
X165974621Y-106997515D01*
X165974618Y-106997522D01*
X165935372Y-107118311D01*
X165916126Y-107177544D01*
X165896340Y-107365800D01*
X153085726Y-107365800D01*
X153005871Y-107277112D01*
X153005870Y-107277111D01*
X152852734Y-107165851D01*
X152852729Y-107165848D01*
X152679807Y-107088857D01*
X152679802Y-107088855D01*
X152534001Y-107057865D01*
X152494646Y-107049500D01*
X152305354Y-107049500D01*
X152272897Y-107056398D01*
X152120197Y-107088855D01*
X152120192Y-107088857D01*
X151947270Y-107165848D01*
X151947265Y-107165851D01*
X151794129Y-107277111D01*
X151667466Y-107417785D01*
X151572821Y-107581715D01*
X151572818Y-107581722D01*
X151523313Y-107734084D01*
X151514326Y-107761744D01*
X151494540Y-107950000D01*
X133672659Y-107950000D01*
X133643779Y-107861116D01*
X133549133Y-107697184D01*
X133422471Y-107556512D01*
X133393559Y-107535506D01*
X133269334Y-107445251D01*
X133269329Y-107445248D01*
X133096407Y-107368257D01*
X133096402Y-107368255D01*
X132939855Y-107334981D01*
X132911246Y-107328900D01*
X132721954Y-107328900D01*
X132693345Y-107334981D01*
X132536797Y-107368255D01*
X132536792Y-107368257D01*
X132363870Y-107445248D01*
X132363865Y-107445251D01*
X132210729Y-107556511D01*
X132084066Y-107697185D01*
X131989421Y-107861115D01*
X131989418Y-107861122D01*
X131931724Y-108038688D01*
X131930926Y-108041144D01*
X131911140Y-108229400D01*
X122471259Y-108229400D01*
X122500874Y-108138256D01*
X122520660Y-107950000D01*
X122500874Y-107761744D01*
X122442379Y-107581716D01*
X122347733Y-107417784D01*
X122221071Y-107277112D01*
X122221070Y-107277111D01*
X122067934Y-107165851D01*
X122067929Y-107165848D01*
X121895007Y-107088857D01*
X121895002Y-107088855D01*
X121749201Y-107057865D01*
X121709846Y-107049500D01*
X121520554Y-107049500D01*
X121488097Y-107056398D01*
X121335397Y-107088855D01*
X121335392Y-107088857D01*
X121162470Y-107165848D01*
X121162465Y-107165851D01*
X121009329Y-107277111D01*
X120882666Y-107417785D01*
X120788021Y-107581715D01*
X120788018Y-107581722D01*
X120738513Y-107734084D01*
X120729526Y-107761744D01*
X120709740Y-107950000D01*
X101614400Y-107950000D01*
X101613029Y-105410000D01*
X108314540Y-105410000D01*
X108334326Y-105598256D01*
X108334327Y-105598259D01*
X108392818Y-105778277D01*
X108392821Y-105778284D01*
X108487467Y-105942216D01*
X108614128Y-106082888D01*
X108614129Y-106082888D01*
X108767265Y-106194148D01*
X108767270Y-106194151D01*
X108940192Y-106271142D01*
X108940197Y-106271144D01*
X109125354Y-106310500D01*
X109125355Y-106310500D01*
X109314644Y-106310500D01*
X109314646Y-106310500D01*
X109499803Y-106271144D01*
X109672730Y-106194151D01*
X109825871Y-106082888D01*
X109952533Y-105942216D01*
X110047179Y-105778284D01*
X110105674Y-105598256D01*
X110125460Y-105410000D01*
X110105674Y-105221744D01*
X110047179Y-105041716D01*
X110025173Y-105003600D01*
X120557340Y-105003600D01*
X120577126Y-105191856D01*
X120577127Y-105191859D01*
X120635618Y-105371877D01*
X120635621Y-105371884D01*
X120730267Y-105535816D01*
X120856928Y-105676488D01*
X120856929Y-105676488D01*
X121010065Y-105787748D01*
X121010070Y-105787751D01*
X121182992Y-105864742D01*
X121182997Y-105864744D01*
X121368154Y-105904100D01*
X121368155Y-105904100D01*
X121557444Y-105904100D01*
X121557446Y-105904100D01*
X121742603Y-105864744D01*
X121915530Y-105787751D01*
X122068671Y-105676488D01*
X122195333Y-105535816D01*
X122289979Y-105371884D01*
X122348474Y-105191856D01*
X122365590Y-105029000D01*
X132647740Y-105029000D01*
X132667526Y-105217256D01*
X132667527Y-105217259D01*
X132726018Y-105397277D01*
X132726021Y-105397284D01*
X132820667Y-105561216D01*
X132854021Y-105598259D01*
X132947329Y-105701888D01*
X133100465Y-105813148D01*
X133100470Y-105813151D01*
X133273392Y-105890142D01*
X133273397Y-105890144D01*
X133458554Y-105929500D01*
X133458555Y-105929500D01*
X133647844Y-105929500D01*
X133647846Y-105929500D01*
X133833003Y-105890144D01*
X134005930Y-105813151D01*
X134159071Y-105701888D01*
X134285733Y-105561216D01*
X134380379Y-105397284D01*
X134438874Y-105217256D01*
X134458660Y-105029000D01*
X134438874Y-104840744D01*
X134380379Y-104660716D01*
X134285733Y-104496784D01*
X134159071Y-104356112D01*
X134124111Y-104330712D01*
X134005934Y-104244851D01*
X134005929Y-104244848D01*
X133884537Y-104190800D01*
X168309340Y-104190800D01*
X168329126Y-104379056D01*
X168329127Y-104379059D01*
X168387618Y-104559077D01*
X168387621Y-104559084D01*
X168482267Y-104723016D01*
X168603782Y-104857972D01*
X168608929Y-104863688D01*
X168762065Y-104974948D01*
X168762070Y-104974951D01*
X168934992Y-105051942D01*
X168934997Y-105051944D01*
X169120154Y-105091300D01*
X169120155Y-105091300D01*
X169309444Y-105091300D01*
X169309446Y-105091300D01*
X169494603Y-105051944D01*
X169667530Y-104974951D01*
X169820671Y-104863688D01*
X169947333Y-104723016D01*
X170041979Y-104559084D01*
X170100474Y-104379056D01*
X170120260Y-104190800D01*
X170100474Y-104002544D01*
X170041979Y-103822516D01*
X169947333Y-103658584D01*
X169820671Y-103517912D01*
X169820670Y-103517911D01*
X169667534Y-103406651D01*
X169667529Y-103406648D01*
X169494607Y-103329657D01*
X169494602Y-103329655D01*
X169348800Y-103298665D01*
X169309446Y-103290300D01*
X169120154Y-103290300D01*
X169087697Y-103297198D01*
X168934997Y-103329655D01*
X168934992Y-103329657D01*
X168762070Y-103406648D01*
X168762065Y-103406651D01*
X168608929Y-103517911D01*
X168482266Y-103658585D01*
X168387621Y-103822515D01*
X168387618Y-103822522D01*
X168346430Y-103949288D01*
X168329126Y-104002544D01*
X168309340Y-104190800D01*
X133884537Y-104190800D01*
X133833007Y-104167857D01*
X133833002Y-104167855D01*
X133687201Y-104136865D01*
X133647846Y-104128500D01*
X133458554Y-104128500D01*
X133426097Y-104135398D01*
X133273397Y-104167855D01*
X133273392Y-104167857D01*
X133100470Y-104244848D01*
X133100465Y-104244851D01*
X132947329Y-104356111D01*
X132820666Y-104496785D01*
X132726021Y-104660715D01*
X132726018Y-104660722D01*
X132682395Y-104794981D01*
X132667526Y-104840744D01*
X132647740Y-105029000D01*
X122365590Y-105029000D01*
X122368260Y-105003600D01*
X122348474Y-104815344D01*
X122289979Y-104635316D01*
X122195333Y-104471384D01*
X122068671Y-104330712D01*
X122065291Y-104328256D01*
X121915534Y-104219451D01*
X121915529Y-104219448D01*
X121742607Y-104142457D01*
X121742602Y-104142455D01*
X121596800Y-104111465D01*
X121557446Y-104103100D01*
X121368154Y-104103100D01*
X121335697Y-104109998D01*
X121182997Y-104142455D01*
X121182992Y-104142457D01*
X121010070Y-104219448D01*
X121010065Y-104219451D01*
X120856929Y-104330711D01*
X120730266Y-104471385D01*
X120635621Y-104635315D01*
X120635618Y-104635322D01*
X120583742Y-104794981D01*
X120577126Y-104815344D01*
X120557340Y-105003600D01*
X110025173Y-105003600D01*
X109952533Y-104877784D01*
X109825871Y-104737112D01*
X109825870Y-104737111D01*
X109672734Y-104625851D01*
X109672729Y-104625848D01*
X109499807Y-104548857D01*
X109499802Y-104548855D01*
X109354001Y-104517865D01*
X109314646Y-104509500D01*
X109125354Y-104509500D01*
X109092897Y-104516398D01*
X108940197Y-104548855D01*
X108940192Y-104548857D01*
X108767270Y-104625848D01*
X108767265Y-104625851D01*
X108614129Y-104737111D01*
X108487466Y-104877785D01*
X108392821Y-105041715D01*
X108392818Y-105041722D01*
X108344037Y-105191856D01*
X108334326Y-105221744D01*
X108314540Y-105410000D01*
X101613029Y-105410000D01*
X101611383Y-102362000D01*
X120684340Y-102362000D01*
X120704126Y-102550256D01*
X120704127Y-102550259D01*
X120762618Y-102730277D01*
X120762621Y-102730284D01*
X120857267Y-102894216D01*
X120926944Y-102971600D01*
X120983929Y-103034888D01*
X121137065Y-103146148D01*
X121137070Y-103146151D01*
X121309992Y-103223142D01*
X121309997Y-103223144D01*
X121495154Y-103262500D01*
X121495155Y-103262500D01*
X121684444Y-103262500D01*
X121684446Y-103262500D01*
X121869603Y-103223144D01*
X122042530Y-103146151D01*
X122195671Y-103034888D01*
X122252656Y-102971600D01*
X164677140Y-102971600D01*
X164696926Y-103159856D01*
X164696927Y-103159859D01*
X164755418Y-103339877D01*
X164755421Y-103339884D01*
X164850067Y-103503816D01*
X164943684Y-103607788D01*
X164976729Y-103644488D01*
X165129865Y-103755748D01*
X165129870Y-103755751D01*
X165302792Y-103832742D01*
X165302797Y-103832744D01*
X165487954Y-103872100D01*
X165487955Y-103872100D01*
X165677244Y-103872100D01*
X165677246Y-103872100D01*
X165862403Y-103832744D01*
X166035330Y-103755751D01*
X166188471Y-103644488D01*
X166263005Y-103561708D01*
X166322490Y-103525061D01*
X166392347Y-103526391D01*
X166450396Y-103565278D01*
X166462541Y-103582681D01*
X166475667Y-103605416D01*
X166602329Y-103746088D01*
X166755465Y-103857348D01*
X166755470Y-103857351D01*
X166928392Y-103934342D01*
X166928397Y-103934344D01*
X167113554Y-103973700D01*
X167113555Y-103973700D01*
X167302844Y-103973700D01*
X167302846Y-103973700D01*
X167488003Y-103934344D01*
X167660930Y-103857351D01*
X167814071Y-103746088D01*
X167940733Y-103605416D01*
X168035379Y-103441484D01*
X168089018Y-103276400D01*
X173236940Y-103276400D01*
X173256726Y-103464656D01*
X173256727Y-103464659D01*
X173315218Y-103644677D01*
X173315221Y-103644684D01*
X173409867Y-103808616D01*
X173523072Y-103934342D01*
X173536529Y-103949288D01*
X173689665Y-104060548D01*
X173689670Y-104060551D01*
X173862592Y-104137542D01*
X173862597Y-104137544D01*
X174047754Y-104176900D01*
X174047755Y-104176900D01*
X174237044Y-104176900D01*
X174237046Y-104176900D01*
X174422203Y-104137544D01*
X174595130Y-104060551D01*
X174748271Y-103949288D01*
X174874933Y-103808616D01*
X174969579Y-103644684D01*
X175028074Y-103464656D01*
X175047860Y-103276400D01*
X175028074Y-103088144D01*
X174969579Y-102908116D01*
X174874933Y-102744184D01*
X174748271Y-102603512D01*
X174748270Y-102603511D01*
X174595134Y-102492251D01*
X174595129Y-102492248D01*
X174422207Y-102415257D01*
X174422202Y-102415255D01*
X174276400Y-102384265D01*
X174237046Y-102375900D01*
X174047754Y-102375900D01*
X174015297Y-102382798D01*
X173862597Y-102415255D01*
X173862592Y-102415257D01*
X173689670Y-102492248D01*
X173689665Y-102492251D01*
X173536529Y-102603511D01*
X173409866Y-102744185D01*
X173315221Y-102908115D01*
X173315218Y-102908122D01*
X173256727Y-103088140D01*
X173256726Y-103088144D01*
X173236940Y-103276400D01*
X168089018Y-103276400D01*
X168093874Y-103261456D01*
X168113660Y-103073200D01*
X168093874Y-102884944D01*
X168035379Y-102704916D01*
X167940733Y-102540984D01*
X167814071Y-102400312D01*
X167814070Y-102400311D01*
X167660934Y-102289051D01*
X167660929Y-102289048D01*
X167488007Y-102212057D01*
X167488002Y-102212055D01*
X167342201Y-102181065D01*
X167302846Y-102172700D01*
X167113554Y-102172700D01*
X167081097Y-102179598D01*
X166928397Y-102212055D01*
X166928392Y-102212057D01*
X166755470Y-102289048D01*
X166755465Y-102289051D01*
X166602329Y-102400311D01*
X166602328Y-102400312D01*
X166527794Y-102483090D01*
X166468307Y-102519738D01*
X166398450Y-102518407D01*
X166340402Y-102479520D01*
X166328257Y-102462116D01*
X166316857Y-102442370D01*
X166315133Y-102439384D01*
X166188471Y-102298712D01*
X166188470Y-102298711D01*
X166035334Y-102187451D01*
X166035329Y-102187448D01*
X165862407Y-102110457D01*
X165862402Y-102110455D01*
X165716601Y-102079465D01*
X165677246Y-102071100D01*
X165487954Y-102071100D01*
X165455497Y-102077998D01*
X165302797Y-102110455D01*
X165302792Y-102110457D01*
X165129870Y-102187448D01*
X165129865Y-102187451D01*
X164976729Y-102298711D01*
X164850066Y-102439385D01*
X164755421Y-102603315D01*
X164755418Y-102603322D01*
X164706298Y-102754500D01*
X164696926Y-102783344D01*
X164677140Y-102971600D01*
X122252656Y-102971600D01*
X122322333Y-102894216D01*
X122416979Y-102730284D01*
X122475474Y-102550256D01*
X122495260Y-102362000D01*
X122475474Y-102173744D01*
X122416979Y-101993716D01*
X122322333Y-101829784D01*
X122195671Y-101689112D01*
X122178183Y-101676406D01*
X122042534Y-101577851D01*
X122042529Y-101577848D01*
X121869607Y-101500857D01*
X121869602Y-101500855D01*
X121723801Y-101469865D01*
X121684446Y-101461500D01*
X121495154Y-101461500D01*
X121462697Y-101468398D01*
X121309997Y-101500855D01*
X121309992Y-101500857D01*
X121137070Y-101577848D01*
X121137065Y-101577851D01*
X120983929Y-101689111D01*
X120857266Y-101829785D01*
X120762621Y-101993715D01*
X120762618Y-101993722D01*
X120724689Y-102110457D01*
X120704126Y-102173744D01*
X120684340Y-102362000D01*
X101611383Y-102362000D01*
X101610848Y-101371400D01*
X132038140Y-101371400D01*
X132057926Y-101559656D01*
X132057927Y-101559659D01*
X132116418Y-101739677D01*
X132116421Y-101739684D01*
X132211067Y-101903616D01*
X132292193Y-101993715D01*
X132337729Y-102044288D01*
X132490865Y-102155548D01*
X132490870Y-102155551D01*
X132663792Y-102232542D01*
X132663797Y-102232544D01*
X132848954Y-102271900D01*
X132848955Y-102271900D01*
X133038244Y-102271900D01*
X133038246Y-102271900D01*
X133223403Y-102232544D01*
X133396330Y-102155551D01*
X133549471Y-102044288D01*
X133676133Y-101903616D01*
X133704779Y-101854000D01*
X157133340Y-101854000D01*
X157153126Y-102042256D01*
X157153127Y-102042259D01*
X157211618Y-102222277D01*
X157211621Y-102222284D01*
X157306267Y-102386216D01*
X157411964Y-102503604D01*
X157432929Y-102526888D01*
X157586065Y-102638148D01*
X157586070Y-102638151D01*
X157758992Y-102715142D01*
X157758997Y-102715144D01*
X157944154Y-102754500D01*
X157944155Y-102754500D01*
X158133444Y-102754500D01*
X158133446Y-102754500D01*
X158318603Y-102715144D01*
X158491530Y-102638151D01*
X158644671Y-102526888D01*
X158687045Y-102479826D01*
X158746530Y-102443179D01*
X158816387Y-102444508D01*
X158871344Y-102479827D01*
X158982329Y-102603088D01*
X159135465Y-102714348D01*
X159135470Y-102714351D01*
X159308392Y-102791342D01*
X159308397Y-102791344D01*
X159493554Y-102830700D01*
X159493555Y-102830700D01*
X159682844Y-102830700D01*
X159682846Y-102830700D01*
X159868003Y-102791344D01*
X160040930Y-102714351D01*
X160194071Y-102603088D01*
X160320733Y-102462416D01*
X160415379Y-102298484D01*
X160473874Y-102118456D01*
X160493660Y-101930200D01*
X160481370Y-101813273D01*
X160493939Y-101744548D01*
X160541671Y-101693524D01*
X160609411Y-101676406D01*
X160675653Y-101698628D01*
X160677576Y-101699998D01*
X160710265Y-101723748D01*
X160710270Y-101723751D01*
X160883192Y-101800742D01*
X160883197Y-101800744D01*
X161068354Y-101840100D01*
X161068355Y-101840100D01*
X161257644Y-101840100D01*
X161257646Y-101840100D01*
X161442803Y-101800744D01*
X161615730Y-101723751D01*
X161768871Y-101612488D01*
X161895533Y-101471816D01*
X161990179Y-101307884D01*
X162048674Y-101127856D01*
X162068460Y-100939600D01*
X162048674Y-100751344D01*
X162043923Y-100736723D01*
X165744263Y-100736723D01*
X165764049Y-100924979D01*
X165764050Y-100924982D01*
X165822541Y-101105000D01*
X165822544Y-101105007D01*
X165917190Y-101268939D01*
X166009446Y-101371399D01*
X166043852Y-101409611D01*
X166196988Y-101520871D01*
X166196993Y-101520874D01*
X166369915Y-101597865D01*
X166369920Y-101597867D01*
X166555077Y-101637223D01*
X166555078Y-101637223D01*
X166744367Y-101637223D01*
X166744369Y-101637223D01*
X166929526Y-101597867D01*
X167102453Y-101520874D01*
X167255594Y-101409611D01*
X167382256Y-101268939D01*
X167476902Y-101105007D01*
X167479480Y-101097073D01*
X168161364Y-101097073D01*
X168181150Y-101285329D01*
X168181151Y-101285332D01*
X168239642Y-101465350D01*
X168239645Y-101465357D01*
X168334291Y-101629289D01*
X168435726Y-101741944D01*
X168460953Y-101769961D01*
X168614089Y-101881221D01*
X168614094Y-101881224D01*
X168787016Y-101958215D01*
X168787021Y-101958217D01*
X168972178Y-101997573D01*
X168972179Y-101997573D01*
X169161468Y-101997573D01*
X169161470Y-101997573D01*
X169346627Y-101958217D01*
X169519554Y-101881224D01*
X169672695Y-101769961D01*
X169695862Y-101744231D01*
X169755345Y-101707583D01*
X169825202Y-101708912D01*
X169838447Y-101713924D01*
X169976392Y-101775342D01*
X169976397Y-101775344D01*
X170161554Y-101814700D01*
X170161555Y-101814700D01*
X170350844Y-101814700D01*
X170350846Y-101814700D01*
X170536003Y-101775344D01*
X170708930Y-101698351D01*
X170862071Y-101587088D01*
X170988733Y-101446416D01*
X171083379Y-101282484D01*
X171141874Y-101102456D01*
X171161660Y-100914200D01*
X171141874Y-100725944D01*
X171083379Y-100545916D01*
X170988733Y-100381984D01*
X170862071Y-100241312D01*
X170862063Y-100241306D01*
X170708934Y-100130051D01*
X170708929Y-100130048D01*
X170536007Y-100053057D01*
X170536002Y-100053055D01*
X170390201Y-100022065D01*
X170350846Y-100013700D01*
X170161554Y-100013700D01*
X170129097Y-100020598D01*
X169976397Y-100053055D01*
X169976392Y-100053057D01*
X169803470Y-100130048D01*
X169803465Y-100130051D01*
X169650335Y-100241306D01*
X169650331Y-100241309D01*
X169627159Y-100267044D01*
X169567671Y-100303691D01*
X169497814Y-100302358D01*
X169484575Y-100297348D01*
X169346631Y-100235930D01*
X169346626Y-100235928D01*
X169198797Y-100204507D01*
X169161470Y-100196573D01*
X168972178Y-100196573D01*
X168939721Y-100203471D01*
X168787021Y-100235928D01*
X168787016Y-100235930D01*
X168614094Y-100312921D01*
X168614089Y-100312924D01*
X168460953Y-100424184D01*
X168334290Y-100564858D01*
X168239645Y-100728788D01*
X168239642Y-100728795D01*
X168181151Y-100908813D01*
X168181150Y-100908817D01*
X168161364Y-101097073D01*
X167479480Y-101097073D01*
X167535397Y-100924979D01*
X167555183Y-100736723D01*
X167535397Y-100548467D01*
X167476902Y-100368439D01*
X167382256Y-100204507D01*
X167255594Y-100063835D01*
X167255593Y-100063834D01*
X167102457Y-99952574D01*
X167102452Y-99952571D01*
X166929530Y-99875580D01*
X166929525Y-99875578D01*
X166781668Y-99844151D01*
X166744369Y-99836223D01*
X166555077Y-99836223D01*
X166522620Y-99843121D01*
X166369920Y-99875578D01*
X166369915Y-99875580D01*
X166196993Y-99952571D01*
X166196988Y-99952574D01*
X166043852Y-100063834D01*
X165917189Y-100204508D01*
X165822544Y-100368438D01*
X165822541Y-100368445D01*
X165776464Y-100510257D01*
X165764049Y-100548467D01*
X165744263Y-100736723D01*
X162043923Y-100736723D01*
X161990179Y-100571316D01*
X161895533Y-100407384D01*
X161768871Y-100266712D01*
X161768870Y-100266711D01*
X161615734Y-100155451D01*
X161615729Y-100155448D01*
X161442807Y-100078457D01*
X161442802Y-100078455D01*
X161297001Y-100047465D01*
X161257646Y-100039100D01*
X161068354Y-100039100D01*
X161035897Y-100045998D01*
X160883197Y-100078455D01*
X160883192Y-100078457D01*
X160710270Y-100155448D01*
X160710265Y-100155451D01*
X160557129Y-100266711D01*
X160430466Y-100407385D01*
X160335821Y-100571315D01*
X160335818Y-100571322D01*
X160277327Y-100751340D01*
X160277326Y-100751344D01*
X160257540Y-100939600D01*
X160263137Y-100992857D01*
X160269829Y-101056522D01*
X160257259Y-101125252D01*
X160209527Y-101176275D01*
X160141787Y-101193393D01*
X160075546Y-101171170D01*
X160073623Y-101169801D01*
X160040934Y-101146051D01*
X160040929Y-101146048D01*
X159868007Y-101069057D01*
X159868002Y-101069055D01*
X159722201Y-101038065D01*
X159682846Y-101029700D01*
X159493554Y-101029700D01*
X159461097Y-101036598D01*
X159308397Y-101069055D01*
X159308392Y-101069057D01*
X159135470Y-101146048D01*
X159135465Y-101146051D01*
X158982329Y-101257311D01*
X158982328Y-101257312D01*
X158939954Y-101304373D01*
X158880467Y-101341021D01*
X158810610Y-101339690D01*
X158755655Y-101304372D01*
X158690240Y-101231722D01*
X158644671Y-101181112D01*
X158644670Y-101181111D01*
X158491534Y-101069851D01*
X158491529Y-101069848D01*
X158318607Y-100992857D01*
X158318602Y-100992855D01*
X158172800Y-100961865D01*
X158133446Y-100953500D01*
X157944154Y-100953500D01*
X157911697Y-100960398D01*
X157758997Y-100992855D01*
X157758992Y-100992857D01*
X157586070Y-101069848D01*
X157586065Y-101069851D01*
X157432929Y-101181111D01*
X157306266Y-101321785D01*
X157211621Y-101485715D01*
X157211618Y-101485722D01*
X157164971Y-101629289D01*
X157153126Y-101665744D01*
X157133340Y-101854000D01*
X133704779Y-101854000D01*
X133770779Y-101739684D01*
X133829274Y-101559656D01*
X133849060Y-101371400D01*
X133829274Y-101183144D01*
X133770779Y-101003116D01*
X133676133Y-100839184D01*
X133549471Y-100698512D01*
X133549470Y-100698511D01*
X133396334Y-100587251D01*
X133396329Y-100587248D01*
X133223407Y-100510257D01*
X133223402Y-100510255D01*
X133077600Y-100479265D01*
X133038246Y-100470900D01*
X132848954Y-100470900D01*
X132816497Y-100477798D01*
X132663797Y-100510255D01*
X132663792Y-100510257D01*
X132490870Y-100587248D01*
X132490865Y-100587251D01*
X132337729Y-100698511D01*
X132211066Y-100839185D01*
X132116421Y-101003115D01*
X132116418Y-101003122D01*
X132058586Y-101181112D01*
X132057926Y-101183144D01*
X132038140Y-101371400D01*
X101610848Y-101371400D01*
X101609600Y-99060000D01*
X112124540Y-99060000D01*
X112144326Y-99248256D01*
X112144327Y-99248259D01*
X112202818Y-99428277D01*
X112202821Y-99428284D01*
X112297467Y-99592216D01*
X112424128Y-99732887D01*
X112424129Y-99732888D01*
X112577265Y-99844148D01*
X112577270Y-99844151D01*
X112750192Y-99921142D01*
X112750197Y-99921144D01*
X112935354Y-99960500D01*
X112935355Y-99960500D01*
X113124644Y-99960500D01*
X113124646Y-99960500D01*
X113309803Y-99921144D01*
X113482730Y-99844151D01*
X113635871Y-99732888D01*
X113762533Y-99592216D01*
X113849837Y-99441000D01*
X123071940Y-99441000D01*
X123091726Y-99629256D01*
X123091727Y-99629259D01*
X123150218Y-99809277D01*
X123150221Y-99809284D01*
X123244867Y-99973216D01*
X123339625Y-100078455D01*
X123371529Y-100113888D01*
X123524665Y-100225148D01*
X123524670Y-100225151D01*
X123697592Y-100302142D01*
X123697597Y-100302144D01*
X123882754Y-100341500D01*
X123882755Y-100341500D01*
X124072044Y-100341500D01*
X124072046Y-100341500D01*
X124257203Y-100302144D01*
X124430130Y-100225151D01*
X124583271Y-100113888D01*
X124709933Y-99973216D01*
X124804579Y-99809284D01*
X124863074Y-99629256D01*
X124882860Y-99441000D01*
X124863074Y-99252744D01*
X124804579Y-99072716D01*
X124709933Y-98908784D01*
X124583271Y-98768112D01*
X124579350Y-98765263D01*
X124430134Y-98656851D01*
X124430129Y-98656848D01*
X124422834Y-98653600D01*
X126475540Y-98653600D01*
X126495326Y-98841856D01*
X126495327Y-98841859D01*
X126553818Y-99021877D01*
X126553821Y-99021884D01*
X126648467Y-99185816D01*
X126722222Y-99267729D01*
X126775129Y-99326488D01*
X126928265Y-99437748D01*
X126928270Y-99437751D01*
X127101192Y-99514742D01*
X127101197Y-99514744D01*
X127286354Y-99554100D01*
X127286355Y-99554100D01*
X127475644Y-99554100D01*
X127475646Y-99554100D01*
X127660803Y-99514744D01*
X127832829Y-99438152D01*
X129624190Y-99438152D01*
X129643976Y-99626408D01*
X129643977Y-99626411D01*
X129702468Y-99806429D01*
X129702471Y-99806436D01*
X129797117Y-99970368D01*
X129881833Y-100064454D01*
X129923779Y-100111040D01*
X130076915Y-100222300D01*
X130076920Y-100222303D01*
X130249842Y-100299294D01*
X130249847Y-100299296D01*
X130435004Y-100338652D01*
X130435005Y-100338652D01*
X130624294Y-100338652D01*
X130624296Y-100338652D01*
X130809453Y-100299296D01*
X130982380Y-100222303D01*
X131135521Y-100111040D01*
X131262183Y-99970368D01*
X131356829Y-99806436D01*
X131415324Y-99626408D01*
X131435110Y-99438152D01*
X131415324Y-99249896D01*
X131356829Y-99069868D01*
X131262183Y-98905936D01*
X131135521Y-98765264D01*
X131135520Y-98765263D01*
X130982384Y-98654003D01*
X130982379Y-98654000D01*
X130809457Y-98577009D01*
X130809452Y-98577007D01*
X130663650Y-98546017D01*
X130624296Y-98537652D01*
X130435004Y-98537652D01*
X130402547Y-98544550D01*
X130249847Y-98577007D01*
X130249842Y-98577009D01*
X130076920Y-98654000D01*
X130076915Y-98654003D01*
X129923779Y-98765263D01*
X129797116Y-98905937D01*
X129702471Y-99069867D01*
X129702468Y-99069874D01*
X129658686Y-99204623D01*
X129643976Y-99249896D01*
X129624190Y-99438152D01*
X127832829Y-99438152D01*
X127833730Y-99437751D01*
X127986871Y-99326488D01*
X128113533Y-99185816D01*
X128208179Y-99021884D01*
X128266674Y-98841856D01*
X128286460Y-98653600D01*
X128266674Y-98465344D01*
X128208179Y-98285316D01*
X128113533Y-98121384D01*
X127986871Y-97980712D01*
X127983491Y-97978256D01*
X127833734Y-97869451D01*
X127833729Y-97869448D01*
X127660807Y-97792457D01*
X127660802Y-97792455D01*
X127515000Y-97761465D01*
X127475646Y-97753100D01*
X127286354Y-97753100D01*
X127253897Y-97759998D01*
X127101197Y-97792455D01*
X127101192Y-97792457D01*
X126928270Y-97869448D01*
X126928265Y-97869451D01*
X126775129Y-97980711D01*
X126648466Y-98121385D01*
X126553821Y-98285315D01*
X126553818Y-98285322D01*
X126504377Y-98437488D01*
X126495326Y-98465344D01*
X126475540Y-98653600D01*
X124422834Y-98653600D01*
X124257207Y-98579857D01*
X124257202Y-98579855D01*
X124110850Y-98548748D01*
X124072046Y-98540500D01*
X123882754Y-98540500D01*
X123850297Y-98547398D01*
X123697597Y-98579855D01*
X123697592Y-98579857D01*
X123524670Y-98656848D01*
X123524665Y-98656851D01*
X123371529Y-98768111D01*
X123244866Y-98908785D01*
X123150221Y-99072715D01*
X123150218Y-99072722D01*
X123092651Y-99249896D01*
X123091726Y-99252744D01*
X123071940Y-99441000D01*
X113849837Y-99441000D01*
X113857179Y-99428284D01*
X113915674Y-99248256D01*
X113935460Y-99060000D01*
X113915674Y-98871744D01*
X113857179Y-98691716D01*
X113762533Y-98527784D01*
X113635871Y-98387112D01*
X113635870Y-98387111D01*
X113482734Y-98275851D01*
X113482729Y-98275848D01*
X113309807Y-98198857D01*
X113309802Y-98198855D01*
X113164000Y-98167865D01*
X113124646Y-98159500D01*
X112935354Y-98159500D01*
X112902897Y-98166398D01*
X112750197Y-98198855D01*
X112750192Y-98198857D01*
X112577270Y-98275848D01*
X112577265Y-98275851D01*
X112424129Y-98387111D01*
X112297466Y-98527785D01*
X112202821Y-98691715D01*
X112202818Y-98691722D01*
X112154037Y-98841856D01*
X112144326Y-98871744D01*
X112124540Y-99060000D01*
X101609600Y-99060000D01*
X101608229Y-96520000D01*
X108314540Y-96520000D01*
X108334326Y-96708256D01*
X108334327Y-96708259D01*
X108392818Y-96888277D01*
X108392821Y-96888284D01*
X108487467Y-97052216D01*
X108614128Y-97192887D01*
X108614129Y-97192888D01*
X108767265Y-97304148D01*
X108767270Y-97304151D01*
X108940192Y-97381142D01*
X108940197Y-97381144D01*
X109125354Y-97420500D01*
X109125355Y-97420500D01*
X109314644Y-97420500D01*
X109314646Y-97420500D01*
X109499803Y-97381144D01*
X109672730Y-97304151D01*
X109825871Y-97192888D01*
X109952533Y-97052216D01*
X110039837Y-96901000D01*
X151240540Y-96901000D01*
X151260326Y-97089256D01*
X151260327Y-97089259D01*
X151318818Y-97269277D01*
X151318821Y-97269284D01*
X151413467Y-97433216D01*
X151488818Y-97516901D01*
X151540129Y-97573888D01*
X151693265Y-97685148D01*
X151693270Y-97685151D01*
X151866192Y-97762142D01*
X151866197Y-97762144D01*
X152051354Y-97801500D01*
X152051355Y-97801500D01*
X152240644Y-97801500D01*
X152240646Y-97801500D01*
X152414248Y-97764600D01*
X156980940Y-97764600D01*
X157000726Y-97952856D01*
X157000727Y-97952859D01*
X157059218Y-98132877D01*
X157059221Y-98132884D01*
X157153867Y-98296816D01*
X157235170Y-98387112D01*
X157280529Y-98437488D01*
X157433665Y-98548748D01*
X157433670Y-98548751D01*
X157606592Y-98625742D01*
X157606597Y-98625744D01*
X157791754Y-98665100D01*
X157791755Y-98665100D01*
X157981044Y-98665100D01*
X157981046Y-98665100D01*
X158035150Y-98653600D01*
X162873740Y-98653600D01*
X162893526Y-98841856D01*
X162893527Y-98841859D01*
X162952018Y-99021877D01*
X162952021Y-99021884D01*
X163046667Y-99185816D01*
X163120422Y-99267729D01*
X163173329Y-99326488D01*
X163326465Y-99437748D01*
X163326470Y-99437751D01*
X163499392Y-99514742D01*
X163499397Y-99514744D01*
X163684554Y-99554100D01*
X163684555Y-99554100D01*
X163873844Y-99554100D01*
X163873846Y-99554100D01*
X164059003Y-99514744D01*
X164231930Y-99437751D01*
X164385071Y-99326488D01*
X164511733Y-99185816D01*
X164606379Y-99021884D01*
X164664874Y-98841856D01*
X164684660Y-98653600D01*
X164664874Y-98465344D01*
X164606379Y-98285316D01*
X164511733Y-98121384D01*
X164385071Y-97980712D01*
X164381691Y-97978256D01*
X164231934Y-97869451D01*
X164231929Y-97869448D01*
X164143450Y-97830054D01*
X170793921Y-97830054D01*
X170813707Y-98018310D01*
X170813708Y-98018313D01*
X170872199Y-98198331D01*
X170872202Y-98198338D01*
X170966848Y-98362270D01*
X171019222Y-98420437D01*
X171093510Y-98502942D01*
X171246646Y-98614202D01*
X171246651Y-98614205D01*
X171419573Y-98691196D01*
X171419574Y-98691196D01*
X171419578Y-98691198D01*
X171590624Y-98727554D01*
X171652105Y-98760746D01*
X171682774Y-98810526D01*
X171736855Y-98976970D01*
X171736860Y-98976982D01*
X171833132Y-99143731D01*
X171849605Y-99211631D01*
X171833133Y-99267729D01*
X171771449Y-99374570D01*
X171740438Y-99428284D01*
X171740418Y-99428318D01*
X171740416Y-99428322D01*
X171699549Y-99554100D01*
X171681924Y-99608344D01*
X171662138Y-99796600D01*
X171681924Y-99984856D01*
X171681925Y-99984859D01*
X171740416Y-100164877D01*
X171740419Y-100164884D01*
X171835065Y-100328816D01*
X171846486Y-100341500D01*
X171857787Y-100354052D01*
X171888016Y-100417044D01*
X171879390Y-100486379D01*
X171873024Y-100499022D01*
X171816620Y-100596718D01*
X171816618Y-100596722D01*
X171766380Y-100751340D01*
X171758126Y-100776744D01*
X171738340Y-100965000D01*
X171758126Y-101153256D01*
X171758127Y-101153259D01*
X171816618Y-101333277D01*
X171816621Y-101333284D01*
X171911267Y-101497216D01*
X172015059Y-101612488D01*
X172037929Y-101637888D01*
X172191065Y-101749148D01*
X172191070Y-101749151D01*
X172363992Y-101826142D01*
X172363997Y-101826144D01*
X172549154Y-101865500D01*
X172549155Y-101865500D01*
X172738444Y-101865500D01*
X172738446Y-101865500D01*
X172923603Y-101826144D01*
X173096530Y-101749151D01*
X173249671Y-101637888D01*
X173376333Y-101497216D01*
X173470979Y-101333284D01*
X173529474Y-101153256D01*
X173549260Y-100965000D01*
X173529474Y-100776744D01*
X173470979Y-100596716D01*
X173376333Y-100432784D01*
X173353610Y-100407547D01*
X173323381Y-100344555D01*
X173332007Y-100275220D01*
X173338369Y-100262584D01*
X173394777Y-100164884D01*
X173453272Y-99984856D01*
X173473058Y-99796600D01*
X173453272Y-99608344D01*
X173394777Y-99428316D01*
X173300131Y-99264384D01*
X173298502Y-99261562D01*
X173282029Y-99193661D01*
X173298502Y-99137562D01*
X173391216Y-98976977D01*
X173449711Y-98796949D01*
X173469497Y-98608693D01*
X173449711Y-98420437D01*
X173391216Y-98240409D01*
X173296570Y-98076477D01*
X173169908Y-97935805D01*
X173169907Y-97935804D01*
X173016771Y-97824544D01*
X173016766Y-97824541D01*
X172843844Y-97747550D01*
X172843839Y-97747548D01*
X172672793Y-97711192D01*
X172611311Y-97678000D01*
X172580643Y-97628220D01*
X172572040Y-97601744D01*
X172526560Y-97461770D01*
X172431914Y-97297838D01*
X172305252Y-97157166D01*
X172302271Y-97155000D01*
X172152115Y-97045905D01*
X172152110Y-97045902D01*
X171979188Y-96968911D01*
X171979183Y-96968909D01*
X171833381Y-96937919D01*
X171794027Y-96929554D01*
X171604735Y-96929554D01*
X171572278Y-96936452D01*
X171419578Y-96968909D01*
X171419573Y-96968911D01*
X171246651Y-97045902D01*
X171246646Y-97045905D01*
X171093510Y-97157165D01*
X170966847Y-97297839D01*
X170872202Y-97461769D01*
X170872199Y-97461776D01*
X170813708Y-97641794D01*
X170813707Y-97641798D01*
X170793921Y-97830054D01*
X164143450Y-97830054D01*
X164059007Y-97792457D01*
X164059002Y-97792455D01*
X163913201Y-97761465D01*
X163873846Y-97753100D01*
X163684554Y-97753100D01*
X163652097Y-97759998D01*
X163499397Y-97792455D01*
X163499392Y-97792457D01*
X163326470Y-97869448D01*
X163326465Y-97869451D01*
X163173329Y-97980711D01*
X163046666Y-98121385D01*
X162952021Y-98285315D01*
X162952018Y-98285322D01*
X162902577Y-98437488D01*
X162893526Y-98465344D01*
X162873740Y-98653600D01*
X158035150Y-98653600D01*
X158166203Y-98625744D01*
X158339130Y-98548751D01*
X158492271Y-98437488D01*
X158618933Y-98296816D01*
X158713579Y-98132884D01*
X158772074Y-97952856D01*
X158791860Y-97764600D01*
X158772074Y-97576344D01*
X158713579Y-97396316D01*
X158618933Y-97232384D01*
X158492271Y-97091712D01*
X158465181Y-97072030D01*
X158339134Y-96980451D01*
X158339129Y-96980448D01*
X158166207Y-96903457D01*
X158166202Y-96903455D01*
X158020401Y-96872465D01*
X157981046Y-96864100D01*
X157791754Y-96864100D01*
X157759297Y-96870998D01*
X157606597Y-96903455D01*
X157606592Y-96903457D01*
X157433670Y-96980448D01*
X157433665Y-96980451D01*
X157280529Y-97091711D01*
X157153866Y-97232385D01*
X157059221Y-97396315D01*
X157059218Y-97396322D01*
X157020040Y-97516901D01*
X157000726Y-97576344D01*
X156980940Y-97764600D01*
X152414248Y-97764600D01*
X152425803Y-97762144D01*
X152598730Y-97685151D01*
X152751871Y-97573888D01*
X152878533Y-97433216D01*
X152973179Y-97269284D01*
X153031674Y-97089256D01*
X153051460Y-96901000D01*
X153031674Y-96712744D01*
X152973179Y-96532716D01*
X152878533Y-96368784D01*
X152751871Y-96228112D01*
X152749928Y-96226700D01*
X152598734Y-96116851D01*
X152598729Y-96116848D01*
X152425807Y-96039857D01*
X152425802Y-96039855D01*
X152280000Y-96008865D01*
X152240646Y-96000500D01*
X152051354Y-96000500D01*
X152018897Y-96007398D01*
X151866197Y-96039855D01*
X151866192Y-96039857D01*
X151693270Y-96116848D01*
X151693265Y-96116851D01*
X151540129Y-96228111D01*
X151413466Y-96368785D01*
X151318821Y-96532715D01*
X151318818Y-96532722D01*
X151261784Y-96708256D01*
X151260326Y-96712744D01*
X151240540Y-96901000D01*
X110039837Y-96901000D01*
X110047179Y-96888284D01*
X110105674Y-96708256D01*
X110125460Y-96520000D01*
X110105674Y-96331744D01*
X110047179Y-96151716D01*
X109952533Y-95987784D01*
X109825871Y-95847112D01*
X109825870Y-95847111D01*
X109672734Y-95735851D01*
X109672729Y-95735848D01*
X109499807Y-95658857D01*
X109499802Y-95658855D01*
X109354001Y-95627865D01*
X109314646Y-95619500D01*
X109125354Y-95619500D01*
X109092897Y-95626398D01*
X108940197Y-95658855D01*
X108940192Y-95658857D01*
X108767270Y-95735848D01*
X108767265Y-95735851D01*
X108614129Y-95847111D01*
X108487466Y-95987785D01*
X108392821Y-96151715D01*
X108392818Y-96151722D01*
X108336341Y-96325541D01*
X108334326Y-96331744D01*
X108314540Y-96520000D01*
X101608229Y-96520000D01*
X101607543Y-95250000D01*
X115934540Y-95250000D01*
X115954326Y-95438256D01*
X115954327Y-95438259D01*
X116012818Y-95618277D01*
X116012821Y-95618284D01*
X116107467Y-95782216D01*
X116232299Y-95920856D01*
X116234129Y-95922888D01*
X116387265Y-96034148D01*
X116387270Y-96034151D01*
X116560192Y-96111142D01*
X116560197Y-96111144D01*
X116745354Y-96150500D01*
X116745355Y-96150500D01*
X116934644Y-96150500D01*
X116934646Y-96150500D01*
X117119803Y-96111144D01*
X117292730Y-96034151D01*
X117445871Y-95922888D01*
X117572533Y-95782216D01*
X117667179Y-95618284D01*
X117725674Y-95438256D01*
X117737451Y-95326200D01*
X148903740Y-95326200D01*
X148923526Y-95514456D01*
X148923527Y-95514459D01*
X148982018Y-95694477D01*
X148982021Y-95694484D01*
X149076667Y-95858416D01*
X149134718Y-95922888D01*
X149203329Y-95999088D01*
X149356465Y-96110348D01*
X149356470Y-96110351D01*
X149529392Y-96187342D01*
X149529397Y-96187344D01*
X149714554Y-96226700D01*
X149714555Y-96226700D01*
X149903844Y-96226700D01*
X149903846Y-96226700D01*
X150089003Y-96187344D01*
X150261930Y-96110351D01*
X150415071Y-95999088D01*
X150541733Y-95858416D01*
X150614373Y-95732600D01*
X155202940Y-95732600D01*
X155222726Y-95920856D01*
X155222727Y-95920859D01*
X155281218Y-96100877D01*
X155281221Y-96100884D01*
X155375867Y-96264816D01*
X155502528Y-96405487D01*
X155502529Y-96405488D01*
X155655665Y-96516748D01*
X155655670Y-96516751D01*
X155828592Y-96593742D01*
X155828597Y-96593744D01*
X156013754Y-96633100D01*
X156013755Y-96633100D01*
X156203044Y-96633100D01*
X156203046Y-96633100D01*
X156388203Y-96593744D01*
X156561130Y-96516751D01*
X156714271Y-96405488D01*
X156840933Y-96264816D01*
X156935579Y-96100884D01*
X156994074Y-95920856D01*
X157013860Y-95732600D01*
X156994074Y-95544344D01*
X156935579Y-95364316D01*
X156840933Y-95200384D01*
X156714271Y-95059712D01*
X156714270Y-95059711D01*
X156561134Y-94948451D01*
X156561129Y-94948448D01*
X156388207Y-94871457D01*
X156388202Y-94871455D01*
X156242400Y-94840465D01*
X156203046Y-94832100D01*
X156013754Y-94832100D01*
X155981297Y-94838998D01*
X155828597Y-94871455D01*
X155828592Y-94871457D01*
X155655670Y-94948448D01*
X155655665Y-94948451D01*
X155502529Y-95059711D01*
X155375866Y-95200385D01*
X155281221Y-95364315D01*
X155281218Y-95364322D01*
X155232437Y-95514456D01*
X155222726Y-95544344D01*
X155202940Y-95732600D01*
X150614373Y-95732600D01*
X150636379Y-95694484D01*
X150694874Y-95514456D01*
X150714660Y-95326200D01*
X150694874Y-95137944D01*
X150636379Y-94957916D01*
X150541733Y-94793984D01*
X150415071Y-94653312D01*
X150415070Y-94653311D01*
X150261934Y-94542051D01*
X150261929Y-94542048D01*
X150089007Y-94465057D01*
X150089002Y-94465055D01*
X149943201Y-94434065D01*
X149903846Y-94425700D01*
X149714554Y-94425700D01*
X149682097Y-94432598D01*
X149529397Y-94465055D01*
X149529392Y-94465057D01*
X149356470Y-94542048D01*
X149356465Y-94542051D01*
X149203329Y-94653311D01*
X149076666Y-94793985D01*
X148982021Y-94957915D01*
X148982018Y-94957922D01*
X148923527Y-95137940D01*
X148923526Y-95137944D01*
X148903740Y-95326200D01*
X117737451Y-95326200D01*
X117745460Y-95250000D01*
X117725674Y-95061744D01*
X117667179Y-94881716D01*
X117572533Y-94717784D01*
X117445871Y-94577112D01*
X117445870Y-94577111D01*
X117292734Y-94465851D01*
X117292729Y-94465848D01*
X117119807Y-94388857D01*
X117119802Y-94388855D01*
X116973450Y-94357748D01*
X116934646Y-94349500D01*
X116745354Y-94349500D01*
X116712897Y-94356398D01*
X116560197Y-94388855D01*
X116560192Y-94388857D01*
X116387270Y-94465848D01*
X116387265Y-94465851D01*
X116234129Y-94577111D01*
X116107466Y-94717785D01*
X116012821Y-94881715D01*
X116012818Y-94881722D01*
X115954986Y-95059712D01*
X115954326Y-95061744D01*
X115934540Y-95250000D01*
X101607543Y-95250000D01*
X101606336Y-93014800D01*
X143899940Y-93014800D01*
X143919726Y-93203056D01*
X143919727Y-93203059D01*
X143978218Y-93383077D01*
X143978221Y-93383084D01*
X144072867Y-93547016D01*
X144131129Y-93611722D01*
X144199529Y-93687688D01*
X144352665Y-93798948D01*
X144352670Y-93798951D01*
X144525592Y-93875942D01*
X144525597Y-93875944D01*
X144710754Y-93915300D01*
X144710755Y-93915300D01*
X144900044Y-93915300D01*
X144900046Y-93915300D01*
X145085203Y-93875944D01*
X145258130Y-93798951D01*
X145411271Y-93687688D01*
X145513997Y-93573600D01*
X146592340Y-93573600D01*
X146612126Y-93761856D01*
X146612127Y-93761859D01*
X146670618Y-93941877D01*
X146670621Y-93941884D01*
X146765267Y-94105816D01*
X146891928Y-94246487D01*
X146891929Y-94246488D01*
X147045065Y-94357748D01*
X147045070Y-94357751D01*
X147217992Y-94434742D01*
X147217997Y-94434744D01*
X147403154Y-94474100D01*
X147403155Y-94474100D01*
X147592444Y-94474100D01*
X147592446Y-94474100D01*
X147777603Y-94434744D01*
X147950530Y-94357751D01*
X148103671Y-94246488D01*
X148230333Y-94105816D01*
X148324979Y-93941884D01*
X148383474Y-93761856D01*
X148403260Y-93573600D01*
X148383474Y-93385344D01*
X148324979Y-93205316D01*
X148230333Y-93041384D01*
X148103671Y-92900712D01*
X148100291Y-92898256D01*
X147950534Y-92789451D01*
X147950529Y-92789448D01*
X147777607Y-92712457D01*
X147777602Y-92712455D01*
X147766052Y-92710000D01*
X166734540Y-92710000D01*
X166754326Y-92898256D01*
X166754327Y-92898259D01*
X166812818Y-93078277D01*
X166812821Y-93078284D01*
X166907467Y-93242216D01*
X167018003Y-93364978D01*
X167034129Y-93382888D01*
X167187265Y-93494148D01*
X167187270Y-93494151D01*
X167360192Y-93571142D01*
X167360197Y-93571144D01*
X167545354Y-93610500D01*
X167545355Y-93610500D01*
X167734644Y-93610500D01*
X167734646Y-93610500D01*
X167898994Y-93575567D01*
X167968661Y-93580883D01*
X168024395Y-93623020D01*
X168048500Y-93688600D01*
X168042706Y-93735174D01*
X168024327Y-93791739D01*
X168024327Y-93791740D01*
X168024326Y-93791744D01*
X168004540Y-93980000D01*
X168024326Y-94168256D01*
X168024327Y-94168259D01*
X168082818Y-94348277D01*
X168082821Y-94348284D01*
X168177467Y-94512216D01*
X168204329Y-94542049D01*
X168304129Y-94652888D01*
X168457265Y-94764148D01*
X168457270Y-94764151D01*
X168630192Y-94841142D01*
X168630197Y-94841144D01*
X168815354Y-94880500D01*
X168815355Y-94880500D01*
X169004644Y-94880500D01*
X169004646Y-94880500D01*
X169189803Y-94841144D01*
X169362730Y-94764151D01*
X169515871Y-94652888D01*
X169642533Y-94512216D01*
X169737179Y-94348284D01*
X169795674Y-94168256D01*
X169815460Y-93980000D01*
X169795674Y-93791744D01*
X169737179Y-93611716D01*
X169642533Y-93447784D01*
X169624693Y-93427970D01*
X169594464Y-93364978D01*
X169603090Y-93295642D01*
X169624694Y-93262027D01*
X169642533Y-93242216D01*
X169737179Y-93078284D01*
X169795674Y-92898256D01*
X169815460Y-92710000D01*
X169795674Y-92521744D01*
X169737179Y-92341716D01*
X169642533Y-92177784D01*
X169515871Y-92037112D01*
X169504432Y-92028801D01*
X169362734Y-91925851D01*
X169362729Y-91925848D01*
X169189807Y-91848857D01*
X169189802Y-91848855D01*
X169044001Y-91817865D01*
X169004646Y-91809500D01*
X168815354Y-91809500D01*
X168782897Y-91816398D01*
X168630197Y-91848855D01*
X168630192Y-91848857D01*
X168457270Y-91925848D01*
X168457265Y-91925851D01*
X168347885Y-92005321D01*
X168282079Y-92028801D01*
X168214025Y-92012975D01*
X168202115Y-92005321D01*
X168092734Y-91925851D01*
X168092729Y-91925848D01*
X167919807Y-91848857D01*
X167919802Y-91848855D01*
X167774000Y-91817865D01*
X167734646Y-91809500D01*
X167545354Y-91809500D01*
X167512897Y-91816398D01*
X167360197Y-91848855D01*
X167360192Y-91848857D01*
X167187270Y-91925848D01*
X167187265Y-91925851D01*
X167034129Y-92037111D01*
X166907466Y-92177785D01*
X166812821Y-92341715D01*
X166812818Y-92341722D01*
X166763564Y-92493312D01*
X166754326Y-92521744D01*
X166734540Y-92710000D01*
X147766052Y-92710000D01*
X147631250Y-92681348D01*
X147592446Y-92673100D01*
X147403154Y-92673100D01*
X147370697Y-92679998D01*
X147217997Y-92712455D01*
X147217992Y-92712457D01*
X147045070Y-92789448D01*
X147045065Y-92789451D01*
X146891929Y-92900711D01*
X146765266Y-93041385D01*
X146670621Y-93205315D01*
X146670618Y-93205322D01*
X146612860Y-93383084D01*
X146612126Y-93385344D01*
X146592340Y-93573600D01*
X145513997Y-93573600D01*
X145537933Y-93547016D01*
X145632579Y-93383084D01*
X145691074Y-93203056D01*
X145710860Y-93014800D01*
X145691074Y-92826544D01*
X145632579Y-92646516D01*
X145537933Y-92482584D01*
X145411271Y-92341912D01*
X145411270Y-92341911D01*
X145258134Y-92230651D01*
X145258129Y-92230648D01*
X145085207Y-92153657D01*
X145085202Y-92153655D01*
X144939401Y-92122665D01*
X144900046Y-92114300D01*
X144710754Y-92114300D01*
X144678297Y-92121198D01*
X144525597Y-92153655D01*
X144525592Y-92153657D01*
X144352670Y-92230648D01*
X144352665Y-92230651D01*
X144199529Y-92341911D01*
X144072866Y-92482585D01*
X143978221Y-92646515D01*
X143978218Y-92646522D01*
X143919727Y-92826540D01*
X143919726Y-92826544D01*
X143899940Y-93014800D01*
X101606336Y-93014800D01*
X101605815Y-92049600D01*
X141842540Y-92049600D01*
X141862326Y-92237856D01*
X141862327Y-92237859D01*
X141920818Y-92417877D01*
X141920821Y-92417884D01*
X142015467Y-92581816D01*
X142105089Y-92681351D01*
X142142129Y-92722488D01*
X142295265Y-92833748D01*
X142295270Y-92833751D01*
X142468192Y-92910742D01*
X142468197Y-92910744D01*
X142653354Y-92950100D01*
X142653355Y-92950100D01*
X142842644Y-92950100D01*
X142842646Y-92950100D01*
X143027803Y-92910744D01*
X143200730Y-92833751D01*
X143353871Y-92722488D01*
X143480533Y-92581816D01*
X143575179Y-92417884D01*
X143633674Y-92237856D01*
X143653460Y-92049600D01*
X143633674Y-91861344D01*
X143575179Y-91681316D01*
X143480533Y-91517384D01*
X143353871Y-91376712D01*
X143353870Y-91376711D01*
X143200734Y-91265451D01*
X143200729Y-91265448D01*
X143027807Y-91188457D01*
X143027802Y-91188455D01*
X142882000Y-91157465D01*
X142842646Y-91149100D01*
X142653354Y-91149100D01*
X142620897Y-91155998D01*
X142468197Y-91188455D01*
X142468192Y-91188457D01*
X142295270Y-91265448D01*
X142295265Y-91265451D01*
X142142129Y-91376711D01*
X142015466Y-91517385D01*
X141920821Y-91681315D01*
X141920818Y-91681322D01*
X141866383Y-91848857D01*
X141862326Y-91861344D01*
X141847194Y-92005321D01*
X141843853Y-92037112D01*
X141842540Y-92049600D01*
X101605815Y-92049600D01*
X101605392Y-91265448D01*
X101604800Y-90170000D01*
X108314540Y-90170000D01*
X108334326Y-90358256D01*
X108334327Y-90358259D01*
X108392818Y-90538277D01*
X108392821Y-90538284D01*
X108487467Y-90702216D01*
X108614128Y-90842888D01*
X108614129Y-90842888D01*
X108767265Y-90954148D01*
X108767270Y-90954151D01*
X108940192Y-91031142D01*
X108940197Y-91031144D01*
X109125354Y-91070500D01*
X109125355Y-91070500D01*
X109314644Y-91070500D01*
X109314646Y-91070500D01*
X109499803Y-91031144D01*
X109672730Y-90954151D01*
X109703218Y-90932000D01*
X139556540Y-90932000D01*
X139576326Y-91120256D01*
X139576327Y-91120259D01*
X139634818Y-91300277D01*
X139634821Y-91300284D01*
X139729467Y-91464216D01*
X139787729Y-91528922D01*
X139856129Y-91604888D01*
X140009265Y-91716148D01*
X140009270Y-91716151D01*
X140182192Y-91793142D01*
X140182197Y-91793144D01*
X140367354Y-91832500D01*
X140367355Y-91832500D01*
X140556644Y-91832500D01*
X140556646Y-91832500D01*
X140741803Y-91793144D01*
X140914730Y-91716151D01*
X141067871Y-91604888D01*
X141194533Y-91464216D01*
X141289179Y-91300284D01*
X141347674Y-91120256D01*
X141367460Y-90932000D01*
X141347674Y-90743744D01*
X141289179Y-90563716D01*
X141194533Y-90399784D01*
X141067871Y-90259112D01*
X141067870Y-90259111D01*
X140914734Y-90147851D01*
X140914729Y-90147848D01*
X140741807Y-90070857D01*
X140741802Y-90070855D01*
X140579506Y-90036359D01*
X140556646Y-90031500D01*
X140367354Y-90031500D01*
X140344494Y-90036359D01*
X140182197Y-90070855D01*
X140182192Y-90070857D01*
X140009270Y-90147848D01*
X140009265Y-90147851D01*
X139856129Y-90259111D01*
X139729466Y-90399785D01*
X139634821Y-90563715D01*
X139634818Y-90563722D01*
X139589820Y-90702214D01*
X139576326Y-90743744D01*
X139556540Y-90932000D01*
X109703218Y-90932000D01*
X109825871Y-90842888D01*
X109952533Y-90702216D01*
X110047179Y-90538284D01*
X110105674Y-90358256D01*
X110125460Y-90170000D01*
X110105674Y-89981744D01*
X110047179Y-89801716D01*
X109952533Y-89637784D01*
X109825871Y-89497112D01*
X109825870Y-89497111D01*
X109672734Y-89385851D01*
X109672729Y-89385848D01*
X109499807Y-89308857D01*
X109499802Y-89308855D01*
X109354000Y-89277865D01*
X109314646Y-89269500D01*
X109125354Y-89269500D01*
X109092897Y-89276398D01*
X108940197Y-89308855D01*
X108940192Y-89308857D01*
X108767270Y-89385848D01*
X108767265Y-89385851D01*
X108614129Y-89497111D01*
X108487466Y-89637785D01*
X108392821Y-89801715D01*
X108392818Y-89801722D01*
X108360543Y-89901056D01*
X108334326Y-89981744D01*
X108314540Y-90170000D01*
X101604800Y-90170000D01*
X101604114Y-88900000D01*
X110854540Y-88900000D01*
X110874326Y-89088256D01*
X110874327Y-89088259D01*
X110932818Y-89268277D01*
X110932821Y-89268284D01*
X111027467Y-89432216D01*
X111154128Y-89572887D01*
X111154129Y-89572888D01*
X111307265Y-89684148D01*
X111307270Y-89684151D01*
X111480192Y-89761142D01*
X111480197Y-89761144D01*
X111665354Y-89800500D01*
X111665355Y-89800500D01*
X111854644Y-89800500D01*
X111854646Y-89800500D01*
X112039803Y-89761144D01*
X112212730Y-89684151D01*
X112365871Y-89572888D01*
X112492533Y-89432216D01*
X112587179Y-89268284D01*
X112645674Y-89088256D01*
X112665460Y-88900000D01*
X112657451Y-88823800D01*
X124011740Y-88823800D01*
X124031526Y-89012056D01*
X124031527Y-89012059D01*
X124090018Y-89192077D01*
X124090021Y-89192084D01*
X124184667Y-89356016D01*
X124290670Y-89473744D01*
X124311329Y-89496688D01*
X124464465Y-89607948D01*
X124464470Y-89607951D01*
X124637392Y-89684942D01*
X124637397Y-89684944D01*
X124822554Y-89724300D01*
X124822555Y-89724300D01*
X125011844Y-89724300D01*
X125011846Y-89724300D01*
X125197003Y-89684944D01*
X125369930Y-89607951D01*
X125523071Y-89496688D01*
X125649733Y-89356016D01*
X125744379Y-89192084D01*
X125802874Y-89012056D01*
X125817321Y-88874600D01*
X131352340Y-88874600D01*
X131372126Y-89062856D01*
X131372127Y-89062859D01*
X131430618Y-89242877D01*
X131430621Y-89242884D01*
X131525267Y-89406816D01*
X131631270Y-89524544D01*
X131651929Y-89547488D01*
X131805065Y-89658748D01*
X131805070Y-89658751D01*
X131977992Y-89735742D01*
X131977997Y-89735744D01*
X132163154Y-89775100D01*
X132163155Y-89775100D01*
X132352444Y-89775100D01*
X132352446Y-89775100D01*
X132537603Y-89735744D01*
X132710530Y-89658751D01*
X132863671Y-89547488D01*
X132990333Y-89406816D01*
X133084979Y-89242884D01*
X133143474Y-89062856D01*
X133160590Y-88900000D01*
X154034540Y-88900000D01*
X154054326Y-89088256D01*
X154054327Y-89088259D01*
X154112818Y-89268277D01*
X154112821Y-89268284D01*
X154207467Y-89432216D01*
X154334128Y-89572887D01*
X154334129Y-89572888D01*
X154487265Y-89684148D01*
X154487270Y-89684151D01*
X154660192Y-89761142D01*
X154660197Y-89761144D01*
X154845354Y-89800500D01*
X154845355Y-89800500D01*
X155034644Y-89800500D01*
X155034646Y-89800500D01*
X155219803Y-89761144D01*
X155392730Y-89684151D01*
X155545871Y-89572888D01*
X155672533Y-89432216D01*
X155767179Y-89268284D01*
X155825674Y-89088256D01*
X155845460Y-88900000D01*
X156574540Y-88900000D01*
X156594326Y-89088256D01*
X156594327Y-89088259D01*
X156652818Y-89268277D01*
X156652821Y-89268284D01*
X156747467Y-89432216D01*
X156874128Y-89572887D01*
X156874129Y-89572888D01*
X157027265Y-89684148D01*
X157027270Y-89684151D01*
X157200192Y-89761142D01*
X157200197Y-89761144D01*
X157385354Y-89800500D01*
X157385355Y-89800500D01*
X157574644Y-89800500D01*
X157574646Y-89800500D01*
X157759803Y-89761144D01*
X157932730Y-89684151D01*
X158085871Y-89572888D01*
X158212533Y-89432216D01*
X158307179Y-89268284D01*
X158365674Y-89088256D01*
X158385460Y-88900000D01*
X159114540Y-88900000D01*
X159134326Y-89088256D01*
X159134327Y-89088259D01*
X159192818Y-89268277D01*
X159192821Y-89268284D01*
X159287467Y-89432216D01*
X159414128Y-89572887D01*
X159414129Y-89572888D01*
X159567265Y-89684148D01*
X159567270Y-89684151D01*
X159740192Y-89761142D01*
X159740197Y-89761144D01*
X159925354Y-89800500D01*
X159925355Y-89800500D01*
X160114644Y-89800500D01*
X160114646Y-89800500D01*
X160299803Y-89761144D01*
X160472730Y-89684151D01*
X160625871Y-89572888D01*
X160752533Y-89432216D01*
X160847179Y-89268284D01*
X160905674Y-89088256D01*
X160925460Y-88900000D01*
X160905674Y-88711744D01*
X160847179Y-88531716D01*
X160752533Y-88367784D01*
X160625871Y-88227112D01*
X160625870Y-88227111D01*
X160472734Y-88115851D01*
X160472729Y-88115848D01*
X160299807Y-88038857D01*
X160299802Y-88038855D01*
X160154000Y-88007865D01*
X160114646Y-87999500D01*
X159925354Y-87999500D01*
X159892897Y-88006398D01*
X159740197Y-88038855D01*
X159740192Y-88038857D01*
X159567270Y-88115848D01*
X159567265Y-88115851D01*
X159414129Y-88227111D01*
X159287466Y-88367785D01*
X159192821Y-88531715D01*
X159192818Y-88531722D01*
X159142580Y-88686340D01*
X159134326Y-88711744D01*
X159114540Y-88900000D01*
X158385460Y-88900000D01*
X158365674Y-88711744D01*
X158307179Y-88531716D01*
X158212533Y-88367784D01*
X158085871Y-88227112D01*
X158085870Y-88227111D01*
X157932734Y-88115851D01*
X157932729Y-88115848D01*
X157759807Y-88038857D01*
X157759802Y-88038855D01*
X157614001Y-88007865D01*
X157574646Y-87999500D01*
X157385354Y-87999500D01*
X157352897Y-88006398D01*
X157200197Y-88038855D01*
X157200192Y-88038857D01*
X157027270Y-88115848D01*
X157027265Y-88115851D01*
X156874129Y-88227111D01*
X156747466Y-88367785D01*
X156652821Y-88531715D01*
X156652818Y-88531722D01*
X156602580Y-88686340D01*
X156594326Y-88711744D01*
X156574540Y-88900000D01*
X155845460Y-88900000D01*
X155825674Y-88711744D01*
X155767179Y-88531716D01*
X155672533Y-88367784D01*
X155545871Y-88227112D01*
X155545870Y-88227111D01*
X155392734Y-88115851D01*
X155392729Y-88115848D01*
X155219807Y-88038857D01*
X155219802Y-88038855D01*
X155074001Y-88007865D01*
X155034646Y-87999500D01*
X154845354Y-87999500D01*
X154812897Y-88006398D01*
X154660197Y-88038855D01*
X154660192Y-88038857D01*
X154487270Y-88115848D01*
X154487265Y-88115851D01*
X154334129Y-88227111D01*
X154207466Y-88367785D01*
X154112821Y-88531715D01*
X154112818Y-88531722D01*
X154062580Y-88686340D01*
X154054326Y-88711744D01*
X154034540Y-88900000D01*
X133160590Y-88900000D01*
X133163260Y-88874600D01*
X133143474Y-88686344D01*
X133084979Y-88506316D01*
X132990333Y-88342384D01*
X132863671Y-88201712D01*
X132836577Y-88182027D01*
X132710534Y-88090451D01*
X132710529Y-88090448D01*
X132537607Y-88013457D01*
X132537602Y-88013455D01*
X132391801Y-87982465D01*
X132352446Y-87974100D01*
X132163154Y-87974100D01*
X132130697Y-87980998D01*
X131977997Y-88013455D01*
X131977992Y-88013457D01*
X131805070Y-88090448D01*
X131805065Y-88090451D01*
X131651929Y-88201711D01*
X131525266Y-88342385D01*
X131430621Y-88506315D01*
X131430618Y-88506322D01*
X131388633Y-88635540D01*
X131372126Y-88686344D01*
X131352340Y-88874600D01*
X125817321Y-88874600D01*
X125822660Y-88823800D01*
X125802874Y-88635544D01*
X125744379Y-88455516D01*
X125649733Y-88291584D01*
X125523071Y-88150912D01*
X125523070Y-88150911D01*
X125369934Y-88039651D01*
X125369929Y-88039648D01*
X125197007Y-87962657D01*
X125197002Y-87962655D01*
X125051200Y-87931665D01*
X125011846Y-87923300D01*
X124822554Y-87923300D01*
X124790097Y-87930198D01*
X124637397Y-87962655D01*
X124637392Y-87962657D01*
X124464470Y-88039648D01*
X124464465Y-88039651D01*
X124311329Y-88150911D01*
X124184666Y-88291585D01*
X124090021Y-88455515D01*
X124090018Y-88455522D01*
X124031527Y-88635540D01*
X124031526Y-88635544D01*
X124011740Y-88823800D01*
X112657451Y-88823800D01*
X112645674Y-88711744D01*
X112587179Y-88531716D01*
X112492533Y-88367784D01*
X112365871Y-88227112D01*
X112365870Y-88227111D01*
X112212734Y-88115851D01*
X112212729Y-88115848D01*
X112039807Y-88038857D01*
X112039802Y-88038855D01*
X111894001Y-88007865D01*
X111854646Y-87999500D01*
X111665354Y-87999500D01*
X111632897Y-88006398D01*
X111480197Y-88038855D01*
X111480192Y-88038857D01*
X111307270Y-88115848D01*
X111307265Y-88115851D01*
X111154129Y-88227111D01*
X111027466Y-88367785D01*
X110932821Y-88531715D01*
X110932818Y-88531722D01*
X110882580Y-88686340D01*
X110874326Y-88711744D01*
X110854540Y-88900000D01*
X101604114Y-88900000D01*
X101603428Y-87630000D01*
X113394540Y-87630000D01*
X113414326Y-87818256D01*
X113414327Y-87818259D01*
X113472818Y-87998277D01*
X113472821Y-87998284D01*
X113567467Y-88162216D01*
X113665000Y-88270537D01*
X113694129Y-88302888D01*
X113847265Y-88414148D01*
X113847270Y-88414151D01*
X114020192Y-88491142D01*
X114020197Y-88491144D01*
X114205354Y-88530500D01*
X114205355Y-88530500D01*
X114394644Y-88530500D01*
X114394646Y-88530500D01*
X114579803Y-88491144D01*
X114752730Y-88414151D01*
X114905871Y-88302888D01*
X115032533Y-88162216D01*
X115127179Y-87998284D01*
X115185674Y-87818256D01*
X115205460Y-87630000D01*
X115197451Y-87553800D01*
X162873740Y-87553800D01*
X162893526Y-87742056D01*
X162893527Y-87742059D01*
X162952018Y-87922077D01*
X162952021Y-87922084D01*
X163046667Y-88086016D01*
X163173328Y-88226688D01*
X163173329Y-88226688D01*
X163326465Y-88337948D01*
X163326470Y-88337951D01*
X163499392Y-88414942D01*
X163499397Y-88414944D01*
X163684554Y-88454300D01*
X163684555Y-88454300D01*
X163873844Y-88454300D01*
X163873846Y-88454300D01*
X164059003Y-88414944D01*
X164231930Y-88337951D01*
X164385071Y-88226688D01*
X164511733Y-88086016D01*
X164606379Y-87922084D01*
X164664874Y-87742056D01*
X164684660Y-87553800D01*
X164664874Y-87365544D01*
X164606379Y-87185516D01*
X164598957Y-87172661D01*
X164582484Y-87104764D01*
X164605335Y-87038737D01*
X164660256Y-86995545D01*
X164668039Y-86992727D01*
X164668593Y-86992545D01*
X164668603Y-86992544D01*
X164841530Y-86915551D01*
X164994671Y-86804288D01*
X165121333Y-86663616D01*
X165215979Y-86499684D01*
X165256221Y-86375829D01*
X165295658Y-86318156D01*
X165360017Y-86290957D01*
X165428863Y-86302871D01*
X165461833Y-86326468D01*
X167231781Y-88096416D01*
X167265266Y-88157739D01*
X167268100Y-88184097D01*
X167268100Y-88935547D01*
X167248415Y-89002586D01*
X167236250Y-89018519D01*
X167136066Y-89129785D01*
X167041421Y-89293715D01*
X167041418Y-89293722D01*
X167004672Y-89406816D01*
X166982926Y-89473744D01*
X166963140Y-89662000D01*
X166982926Y-89850256D01*
X166982927Y-89850259D01*
X167041418Y-90030277D01*
X167041421Y-90030284D01*
X167136067Y-90194216D01*
X167259721Y-90331547D01*
X167262729Y-90334888D01*
X167415865Y-90446148D01*
X167415870Y-90446151D01*
X167588792Y-90523142D01*
X167588797Y-90523144D01*
X167773954Y-90562500D01*
X167773955Y-90562500D01*
X167963244Y-90562500D01*
X167963246Y-90562500D01*
X168148403Y-90523144D01*
X168321330Y-90446151D01*
X168474471Y-90334888D01*
X168474475Y-90334884D01*
X168477479Y-90331548D01*
X168536965Y-90294899D01*
X168606822Y-90296228D01*
X168661780Y-90331547D01*
X168710529Y-90385688D01*
X168863665Y-90496948D01*
X168863670Y-90496951D01*
X169036592Y-90573942D01*
X169036597Y-90573944D01*
X169221754Y-90613300D01*
X169221755Y-90613300D01*
X169411044Y-90613300D01*
X169411046Y-90613300D01*
X169596203Y-90573944D01*
X169769130Y-90496951D01*
X169922271Y-90385688D01*
X170048933Y-90245016D01*
X170143579Y-90081084D01*
X170202074Y-89901056D01*
X170221860Y-89712800D01*
X170202074Y-89524544D01*
X170143579Y-89344516D01*
X170048933Y-89180584D01*
X169965803Y-89088259D01*
X169948750Y-89069319D01*
X169918520Y-89006327D01*
X169916900Y-88986347D01*
X169916900Y-87165428D01*
X169917431Y-87157326D01*
X169922082Y-87121999D01*
X169922082Y-87121998D01*
X169901444Y-86965239D01*
X169901442Y-86965234D01*
X169898077Y-86957111D01*
X169851992Y-86845851D01*
X169840938Y-86819163D01*
X169840938Y-86819162D01*
X169829525Y-86804288D01*
X169768850Y-86725215D01*
X169756766Y-86709466D01*
X169744683Y-86693718D01*
X169716409Y-86672023D01*
X169710312Y-86666677D01*
X167565779Y-84522144D01*
X167532294Y-84460821D01*
X167529460Y-84434463D01*
X167529459Y-84429609D01*
X167529460Y-84429600D01*
X167509674Y-84241344D01*
X167451179Y-84061316D01*
X167356533Y-83897384D01*
X167229871Y-83756712D01*
X167229870Y-83756711D01*
X167076734Y-83645451D01*
X167076729Y-83645448D01*
X166903807Y-83568457D01*
X166903802Y-83568455D01*
X166758001Y-83537465D01*
X166718646Y-83529100D01*
X166529354Y-83529100D01*
X166496897Y-83535998D01*
X166344197Y-83568455D01*
X166344192Y-83568457D01*
X166171270Y-83645448D01*
X166171265Y-83645451D01*
X166018129Y-83756711D01*
X165891466Y-83897385D01*
X165796821Y-84061315D01*
X165796818Y-84061322D01*
X165755566Y-84188284D01*
X165738326Y-84241344D01*
X165720001Y-84415700D01*
X165718540Y-84429600D01*
X165735389Y-84589910D01*
X165722819Y-84658640D01*
X165675087Y-84709663D01*
X165607347Y-84726781D01*
X165541105Y-84704558D01*
X165524387Y-84690552D01*
X165279779Y-84445943D01*
X165246294Y-84384620D01*
X165243460Y-84358262D01*
X165243460Y-84353402D01*
X165243460Y-84353400D01*
X165223674Y-84165144D01*
X165165179Y-83985116D01*
X165070533Y-83821184D01*
X164943871Y-83680512D01*
X164943870Y-83680511D01*
X164790734Y-83569251D01*
X164790729Y-83569248D01*
X164669337Y-83515200D01*
X168563340Y-83515200D01*
X168583126Y-83703456D01*
X168583127Y-83703459D01*
X168641618Y-83883477D01*
X168641621Y-83883484D01*
X168736267Y-84047416D01*
X168842270Y-84165144D01*
X168862929Y-84188088D01*
X169016065Y-84299348D01*
X169016070Y-84299351D01*
X169188992Y-84376342D01*
X169188997Y-84376344D01*
X169374154Y-84415700D01*
X169374155Y-84415700D01*
X169563444Y-84415700D01*
X169563446Y-84415700D01*
X169748603Y-84376344D01*
X169921530Y-84299351D01*
X170074671Y-84188088D01*
X170201333Y-84047416D01*
X170295979Y-83883484D01*
X170337834Y-83754665D01*
X170377271Y-83696991D01*
X170441629Y-83669792D01*
X170510476Y-83681706D01*
X170561952Y-83728950D01*
X170579086Y-83780022D01*
X170589726Y-83881256D01*
X170589727Y-83881259D01*
X170648218Y-84061277D01*
X170648221Y-84061284D01*
X170742867Y-84225216D01*
X170869528Y-84365888D01*
X170869529Y-84365888D01*
X171022665Y-84477148D01*
X171022670Y-84477151D01*
X171195592Y-84554142D01*
X171195597Y-84554144D01*
X171380754Y-84593500D01*
X171380755Y-84593500D01*
X171570044Y-84593500D01*
X171570046Y-84593500D01*
X171755203Y-84554144D01*
X171928130Y-84477151D01*
X172081271Y-84365888D01*
X172207933Y-84225216D01*
X172302579Y-84061284D01*
X172361074Y-83881256D01*
X172380860Y-83693000D01*
X172361074Y-83504744D01*
X172302579Y-83324716D01*
X172207933Y-83160784D01*
X172081271Y-83020112D01*
X172081270Y-83020111D01*
X171928134Y-82908851D01*
X171928129Y-82908848D01*
X171755207Y-82831857D01*
X171755202Y-82831855D01*
X171609401Y-82800865D01*
X171570046Y-82792500D01*
X171380754Y-82792500D01*
X171348297Y-82799398D01*
X171195597Y-82831855D01*
X171195592Y-82831857D01*
X171022670Y-82908848D01*
X171022665Y-82908851D01*
X170869529Y-83020111D01*
X170742866Y-83160785D01*
X170648221Y-83324715D01*
X170648218Y-83324722D01*
X170606365Y-83453533D01*
X170566927Y-83511209D01*
X170502569Y-83538407D01*
X170433722Y-83526492D01*
X170382247Y-83479248D01*
X170365113Y-83428178D01*
X170354474Y-83326944D01*
X170295979Y-83146916D01*
X170201333Y-82982984D01*
X170074671Y-82842312D01*
X170060281Y-82831857D01*
X169921534Y-82731051D01*
X169921529Y-82731048D01*
X169748607Y-82654057D01*
X169748602Y-82654055D01*
X169602800Y-82623065D01*
X169563446Y-82614700D01*
X169374154Y-82614700D01*
X169341697Y-82621598D01*
X169188997Y-82654055D01*
X169188992Y-82654057D01*
X169016070Y-82731048D01*
X169016065Y-82731051D01*
X168862929Y-82842311D01*
X168736266Y-82982985D01*
X168641621Y-83146915D01*
X168641618Y-83146922D01*
X168583850Y-83324715D01*
X168583126Y-83326944D01*
X168563340Y-83515200D01*
X164669337Y-83515200D01*
X164617807Y-83492257D01*
X164617802Y-83492255D01*
X164472000Y-83461265D01*
X164432646Y-83452900D01*
X164243354Y-83452900D01*
X164210897Y-83459798D01*
X164058197Y-83492255D01*
X164058192Y-83492257D01*
X163885270Y-83569248D01*
X163885265Y-83569251D01*
X163732129Y-83680511D01*
X163605466Y-83821185D01*
X163510821Y-83985115D01*
X163510818Y-83985122D01*
X163460580Y-84139740D01*
X163452326Y-84165144D01*
X163432540Y-84353400D01*
X163452326Y-84541656D01*
X163452327Y-84541659D01*
X163510818Y-84721677D01*
X163510821Y-84721684D01*
X163605467Y-84885616D01*
X163674078Y-84961816D01*
X163732129Y-85026288D01*
X163885265Y-85137548D01*
X163885266Y-85137548D01*
X163885270Y-85137551D01*
X163899519Y-85143895D01*
X163952755Y-85189143D01*
X163973078Y-85255992D01*
X163954034Y-85323216D01*
X163921970Y-85357492D01*
X163782927Y-85458513D01*
X163656266Y-85599185D01*
X163561621Y-85763115D01*
X163561618Y-85763122D01*
X163503127Y-85943140D01*
X163503126Y-85943144D01*
X163483340Y-86131400D01*
X163503126Y-86319656D01*
X163503127Y-86319659D01*
X163561621Y-86499685D01*
X163569041Y-86512537D01*
X163585514Y-86580437D01*
X163562661Y-86646464D01*
X163507740Y-86689655D01*
X163499985Y-86692464D01*
X163499399Y-86692654D01*
X163326470Y-86769648D01*
X163326465Y-86769651D01*
X163173329Y-86880911D01*
X163046666Y-87021585D01*
X162952021Y-87185515D01*
X162952018Y-87185522D01*
X162903640Y-87334415D01*
X162893526Y-87365544D01*
X162873740Y-87553800D01*
X115197451Y-87553800D01*
X115185674Y-87441744D01*
X115127179Y-87261716D01*
X115032533Y-87097784D01*
X114905871Y-86957112D01*
X114894432Y-86948801D01*
X114752734Y-86845851D01*
X114752729Y-86845848D01*
X114579807Y-86768857D01*
X114579802Y-86768855D01*
X114434000Y-86737865D01*
X114394646Y-86729500D01*
X114205354Y-86729500D01*
X114172897Y-86736398D01*
X114020197Y-86768855D01*
X114020192Y-86768857D01*
X113847270Y-86845848D01*
X113847265Y-86845851D01*
X113694129Y-86957111D01*
X113567466Y-87097785D01*
X113472821Y-87261715D01*
X113472818Y-87261722D01*
X113414327Y-87441740D01*
X113414326Y-87441744D01*
X113394540Y-87630000D01*
X101603428Y-87630000D01*
X101601371Y-83820000D01*
X113394540Y-83820000D01*
X113414326Y-84008256D01*
X113414327Y-84008259D01*
X113472818Y-84188277D01*
X113472821Y-84188284D01*
X113567467Y-84352216D01*
X113665256Y-84460821D01*
X113694129Y-84492888D01*
X113847265Y-84604148D01*
X113847270Y-84604151D01*
X114020192Y-84681142D01*
X114020197Y-84681144D01*
X114205354Y-84720500D01*
X114205355Y-84720500D01*
X114394644Y-84720500D01*
X114394646Y-84720500D01*
X114579803Y-84681144D01*
X114752730Y-84604151D01*
X114905871Y-84492888D01*
X115032533Y-84352216D01*
X115127179Y-84188284D01*
X115185674Y-84008256D01*
X115205460Y-83820000D01*
X115934540Y-83820000D01*
X115954326Y-84008256D01*
X115954327Y-84008259D01*
X116012818Y-84188277D01*
X116012821Y-84188284D01*
X116107467Y-84352216D01*
X116205256Y-84460821D01*
X116234129Y-84492888D01*
X116387265Y-84604148D01*
X116387270Y-84604151D01*
X116560192Y-84681142D01*
X116560197Y-84681144D01*
X116745354Y-84720500D01*
X116745355Y-84720500D01*
X116934644Y-84720500D01*
X116934646Y-84720500D01*
X117119803Y-84681144D01*
X117292730Y-84604151D01*
X117445871Y-84492888D01*
X117572533Y-84352216D01*
X117667179Y-84188284D01*
X117725674Y-84008256D01*
X117745460Y-83820000D01*
X118474540Y-83820000D01*
X118494326Y-84008256D01*
X118494327Y-84008259D01*
X118552818Y-84188277D01*
X118552821Y-84188284D01*
X118647467Y-84352216D01*
X118745256Y-84460821D01*
X118774129Y-84492888D01*
X118927265Y-84604148D01*
X118927270Y-84604151D01*
X119100192Y-84681142D01*
X119100197Y-84681144D01*
X119285354Y-84720500D01*
X119285355Y-84720500D01*
X119474644Y-84720500D01*
X119474646Y-84720500D01*
X119659803Y-84681144D01*
X119832730Y-84604151D01*
X119985871Y-84492888D01*
X120112533Y-84352216D01*
X120207179Y-84188284D01*
X120265674Y-84008256D01*
X120285460Y-83820000D01*
X121014540Y-83820000D01*
X121034326Y-84008256D01*
X121034327Y-84008259D01*
X121092818Y-84188277D01*
X121092821Y-84188284D01*
X121187467Y-84352216D01*
X121285256Y-84460821D01*
X121314129Y-84492888D01*
X121467265Y-84604148D01*
X121467270Y-84604151D01*
X121640192Y-84681142D01*
X121640197Y-84681144D01*
X121825354Y-84720500D01*
X121825355Y-84720500D01*
X122014644Y-84720500D01*
X122014646Y-84720500D01*
X122199803Y-84681144D01*
X122372730Y-84604151D01*
X122525871Y-84492888D01*
X122652533Y-84352216D01*
X122747179Y-84188284D01*
X122805674Y-84008256D01*
X122825460Y-83820000D01*
X123554540Y-83820000D01*
X123574326Y-84008256D01*
X123574327Y-84008259D01*
X123632818Y-84188277D01*
X123632821Y-84188284D01*
X123727467Y-84352216D01*
X123825256Y-84460821D01*
X123854129Y-84492888D01*
X124007265Y-84604148D01*
X124007270Y-84604151D01*
X124180192Y-84681142D01*
X124180197Y-84681144D01*
X124365354Y-84720500D01*
X124365355Y-84720500D01*
X124554644Y-84720500D01*
X124554646Y-84720500D01*
X124739803Y-84681144D01*
X124912730Y-84604151D01*
X125065871Y-84492888D01*
X125192533Y-84352216D01*
X125287179Y-84188284D01*
X125345674Y-84008256D01*
X125365460Y-83820000D01*
X126094540Y-83820000D01*
X126114326Y-84008256D01*
X126114327Y-84008259D01*
X126172818Y-84188277D01*
X126172821Y-84188284D01*
X126267467Y-84352216D01*
X126365256Y-84460821D01*
X126394129Y-84492888D01*
X126547265Y-84604148D01*
X126547270Y-84604151D01*
X126720192Y-84681142D01*
X126720197Y-84681144D01*
X126905354Y-84720500D01*
X126905355Y-84720500D01*
X127094644Y-84720500D01*
X127094646Y-84720500D01*
X127279803Y-84681144D01*
X127452730Y-84604151D01*
X127605871Y-84492888D01*
X127732533Y-84352216D01*
X127827179Y-84188284D01*
X127885674Y-84008256D01*
X127905460Y-83820000D01*
X128634540Y-83820000D01*
X128654326Y-84008256D01*
X128654327Y-84008259D01*
X128712818Y-84188277D01*
X128712821Y-84188284D01*
X128807467Y-84352216D01*
X128905256Y-84460821D01*
X128934129Y-84492888D01*
X129087265Y-84604148D01*
X129087270Y-84604151D01*
X129260192Y-84681142D01*
X129260197Y-84681144D01*
X129445354Y-84720500D01*
X129445355Y-84720500D01*
X129634644Y-84720500D01*
X129634646Y-84720500D01*
X129819803Y-84681144D01*
X129992730Y-84604151D01*
X130145871Y-84492888D01*
X130272533Y-84352216D01*
X130367179Y-84188284D01*
X130425674Y-84008256D01*
X130445460Y-83820000D01*
X131174540Y-83820000D01*
X131194326Y-84008256D01*
X131194327Y-84008259D01*
X131252818Y-84188277D01*
X131252821Y-84188284D01*
X131347467Y-84352216D01*
X131445256Y-84460821D01*
X131474129Y-84492888D01*
X131627265Y-84604148D01*
X131627270Y-84604151D01*
X131800192Y-84681142D01*
X131800197Y-84681144D01*
X131985354Y-84720500D01*
X131985355Y-84720500D01*
X132174644Y-84720500D01*
X132174646Y-84720500D01*
X132359803Y-84681144D01*
X132532730Y-84604151D01*
X132685871Y-84492888D01*
X132812533Y-84352216D01*
X132907179Y-84188284D01*
X132965674Y-84008256D01*
X132985460Y-83820000D01*
X133714540Y-83820000D01*
X133734326Y-84008256D01*
X133734327Y-84008259D01*
X133792818Y-84188277D01*
X133792821Y-84188284D01*
X133887467Y-84352216D01*
X133985256Y-84460821D01*
X134014129Y-84492888D01*
X134167265Y-84604148D01*
X134167270Y-84604151D01*
X134340192Y-84681142D01*
X134340197Y-84681144D01*
X134525354Y-84720500D01*
X134525355Y-84720500D01*
X134714644Y-84720500D01*
X134714646Y-84720500D01*
X134899803Y-84681144D01*
X135072730Y-84604151D01*
X135225871Y-84492888D01*
X135352533Y-84352216D01*
X135447179Y-84188284D01*
X135505674Y-84008256D01*
X135525460Y-83820000D01*
X136254540Y-83820000D01*
X136274326Y-84008256D01*
X136274327Y-84008259D01*
X136332818Y-84188277D01*
X136332821Y-84188284D01*
X136427467Y-84352216D01*
X136525256Y-84460821D01*
X136554129Y-84492888D01*
X136707265Y-84604148D01*
X136707270Y-84604151D01*
X136880192Y-84681142D01*
X136880197Y-84681144D01*
X137065354Y-84720500D01*
X137065355Y-84720500D01*
X137254644Y-84720500D01*
X137254646Y-84720500D01*
X137439803Y-84681144D01*
X137612730Y-84604151D01*
X137765871Y-84492888D01*
X137892533Y-84352216D01*
X137987179Y-84188284D01*
X138045674Y-84008256D01*
X138065460Y-83820000D01*
X138794540Y-83820000D01*
X138814326Y-84008256D01*
X138814327Y-84008259D01*
X138872818Y-84188277D01*
X138872821Y-84188284D01*
X138967467Y-84352216D01*
X139065256Y-84460821D01*
X139094129Y-84492888D01*
X139247265Y-84604148D01*
X139247270Y-84604151D01*
X139420192Y-84681142D01*
X139420197Y-84681144D01*
X139605354Y-84720500D01*
X139605355Y-84720500D01*
X139794644Y-84720500D01*
X139794646Y-84720500D01*
X139979803Y-84681144D01*
X140152730Y-84604151D01*
X140305871Y-84492888D01*
X140432533Y-84352216D01*
X140527179Y-84188284D01*
X140585674Y-84008256D01*
X140605460Y-83820000D01*
X141334540Y-83820000D01*
X141354326Y-84008256D01*
X141354327Y-84008259D01*
X141412818Y-84188277D01*
X141412821Y-84188284D01*
X141507467Y-84352216D01*
X141605256Y-84460821D01*
X141634129Y-84492888D01*
X141787265Y-84604148D01*
X141787270Y-84604151D01*
X141960192Y-84681142D01*
X141960197Y-84681144D01*
X142145354Y-84720500D01*
X142145355Y-84720500D01*
X142334644Y-84720500D01*
X142334646Y-84720500D01*
X142519803Y-84681144D01*
X142692730Y-84604151D01*
X142845871Y-84492888D01*
X142972533Y-84352216D01*
X143067179Y-84188284D01*
X143125674Y-84008256D01*
X143145460Y-83820000D01*
X143874540Y-83820000D01*
X143894326Y-84008256D01*
X143894327Y-84008259D01*
X143952818Y-84188277D01*
X143952821Y-84188284D01*
X144047467Y-84352216D01*
X144145256Y-84460821D01*
X144174129Y-84492888D01*
X144327265Y-84604148D01*
X144327270Y-84604151D01*
X144500192Y-84681142D01*
X144500197Y-84681144D01*
X144685354Y-84720500D01*
X144685355Y-84720500D01*
X144874644Y-84720500D01*
X144874646Y-84720500D01*
X145059803Y-84681144D01*
X145232730Y-84604151D01*
X145385871Y-84492888D01*
X145512533Y-84352216D01*
X145607179Y-84188284D01*
X145665674Y-84008256D01*
X145685460Y-83820000D01*
X146414540Y-83820000D01*
X146434326Y-84008256D01*
X146434327Y-84008259D01*
X146492818Y-84188277D01*
X146492821Y-84188284D01*
X146587467Y-84352216D01*
X146685256Y-84460821D01*
X146714129Y-84492888D01*
X146867265Y-84604148D01*
X146867270Y-84604151D01*
X147040192Y-84681142D01*
X147040197Y-84681144D01*
X147225354Y-84720500D01*
X147225355Y-84720500D01*
X147414644Y-84720500D01*
X147414646Y-84720500D01*
X147599803Y-84681144D01*
X147772730Y-84604151D01*
X147925871Y-84492888D01*
X148052533Y-84352216D01*
X148147179Y-84188284D01*
X148205674Y-84008256D01*
X148225460Y-83820000D01*
X148954540Y-83820000D01*
X148974326Y-84008256D01*
X148974327Y-84008259D01*
X149032818Y-84188277D01*
X149032821Y-84188284D01*
X149127467Y-84352216D01*
X149225256Y-84460821D01*
X149254129Y-84492888D01*
X149407265Y-84604148D01*
X149407270Y-84604151D01*
X149580192Y-84681142D01*
X149580197Y-84681144D01*
X149765354Y-84720500D01*
X149765355Y-84720500D01*
X149954644Y-84720500D01*
X149954646Y-84720500D01*
X150139803Y-84681144D01*
X150312730Y-84604151D01*
X150465871Y-84492888D01*
X150592533Y-84352216D01*
X150687179Y-84188284D01*
X150745674Y-84008256D01*
X150765460Y-83820000D01*
X151494540Y-83820000D01*
X151514326Y-84008256D01*
X151514327Y-84008259D01*
X151572818Y-84188277D01*
X151572821Y-84188284D01*
X151667467Y-84352216D01*
X151765256Y-84460821D01*
X151794129Y-84492888D01*
X151947265Y-84604148D01*
X151947270Y-84604151D01*
X152120192Y-84681142D01*
X152120197Y-84681144D01*
X152305354Y-84720500D01*
X152305355Y-84720500D01*
X152494644Y-84720500D01*
X152494646Y-84720500D01*
X152679803Y-84681144D01*
X152852730Y-84604151D01*
X153005871Y-84492888D01*
X153132533Y-84352216D01*
X153227179Y-84188284D01*
X153285674Y-84008256D01*
X153305460Y-83820000D01*
X154034540Y-83820000D01*
X154054326Y-84008256D01*
X154054327Y-84008259D01*
X154112818Y-84188277D01*
X154112821Y-84188284D01*
X154207467Y-84352216D01*
X154305256Y-84460821D01*
X154334129Y-84492888D01*
X154487265Y-84604148D01*
X154487270Y-84604151D01*
X154660192Y-84681142D01*
X154660197Y-84681144D01*
X154845354Y-84720500D01*
X154845355Y-84720500D01*
X155034644Y-84720500D01*
X155034646Y-84720500D01*
X155219803Y-84681144D01*
X155392730Y-84604151D01*
X155545871Y-84492888D01*
X155672533Y-84352216D01*
X155767179Y-84188284D01*
X155825674Y-84008256D01*
X155845460Y-83820000D01*
X156574540Y-83820000D01*
X156594326Y-84008256D01*
X156594327Y-84008259D01*
X156652818Y-84188277D01*
X156652821Y-84188284D01*
X156747467Y-84352216D01*
X156845256Y-84460821D01*
X156874129Y-84492888D01*
X157027265Y-84604148D01*
X157027270Y-84604151D01*
X157200192Y-84681142D01*
X157200197Y-84681144D01*
X157385354Y-84720500D01*
X157385355Y-84720500D01*
X157574644Y-84720500D01*
X157574646Y-84720500D01*
X157759803Y-84681144D01*
X157932730Y-84604151D01*
X158085871Y-84492888D01*
X158212533Y-84352216D01*
X158226514Y-84328000D01*
X158860540Y-84328000D01*
X158880326Y-84516256D01*
X158880327Y-84516259D01*
X158938818Y-84696277D01*
X158938821Y-84696284D01*
X159033467Y-84860216D01*
X159160128Y-85000888D01*
X159160129Y-85000888D01*
X159313265Y-85112148D01*
X159313270Y-85112151D01*
X159486192Y-85189142D01*
X159486195Y-85189143D01*
X159486197Y-85189144D01*
X159671354Y-85228500D01*
X159671355Y-85228500D01*
X159860644Y-85228500D01*
X159860646Y-85228500D01*
X160045803Y-85189144D01*
X160218730Y-85112151D01*
X160371871Y-85000888D01*
X160498533Y-84860216D01*
X160593179Y-84696284D01*
X160651674Y-84516256D01*
X160671460Y-84328000D01*
X160651674Y-84139744D01*
X160593179Y-83959716D01*
X160498533Y-83795784D01*
X160371871Y-83655112D01*
X160339708Y-83631744D01*
X160218734Y-83543851D01*
X160218729Y-83543848D01*
X160045807Y-83466857D01*
X160045802Y-83466855D01*
X159900000Y-83435865D01*
X159860646Y-83427500D01*
X159671354Y-83427500D01*
X159638897Y-83434398D01*
X159486197Y-83466855D01*
X159486192Y-83466857D01*
X159313270Y-83543848D01*
X159313265Y-83543851D01*
X159160129Y-83655111D01*
X159033466Y-83795785D01*
X158938821Y-83959715D01*
X158938818Y-83959722D01*
X158880327Y-84139740D01*
X158880326Y-84139744D01*
X158860540Y-84328000D01*
X158226514Y-84328000D01*
X158307179Y-84188284D01*
X158365674Y-84008256D01*
X158385460Y-83820000D01*
X158365674Y-83631744D01*
X158307179Y-83451716D01*
X158212533Y-83287784D01*
X158085871Y-83147112D01*
X158085870Y-83147111D01*
X157932734Y-83035851D01*
X157932729Y-83035848D01*
X157759807Y-82958857D01*
X157759802Y-82958855D01*
X157614001Y-82927865D01*
X157574646Y-82919500D01*
X157385354Y-82919500D01*
X157352897Y-82926398D01*
X157200197Y-82958855D01*
X157200192Y-82958857D01*
X157027270Y-83035848D01*
X157027265Y-83035851D01*
X156874129Y-83147111D01*
X156747466Y-83287785D01*
X156652821Y-83451715D01*
X156652818Y-83451722D01*
X156614631Y-83569251D01*
X156594326Y-83631744D01*
X156574540Y-83820000D01*
X155845460Y-83820000D01*
X155825674Y-83631744D01*
X155767179Y-83451716D01*
X155672533Y-83287784D01*
X155545871Y-83147112D01*
X155545870Y-83147111D01*
X155392734Y-83035851D01*
X155392729Y-83035848D01*
X155219807Y-82958857D01*
X155219802Y-82958855D01*
X155074000Y-82927865D01*
X155034646Y-82919500D01*
X154845354Y-82919500D01*
X154812897Y-82926398D01*
X154660197Y-82958855D01*
X154660192Y-82958857D01*
X154487270Y-83035848D01*
X154487265Y-83035851D01*
X154334129Y-83147111D01*
X154207466Y-83287785D01*
X154112821Y-83451715D01*
X154112818Y-83451722D01*
X154074631Y-83569251D01*
X154054326Y-83631744D01*
X154034540Y-83820000D01*
X153305460Y-83820000D01*
X153285674Y-83631744D01*
X153227179Y-83451716D01*
X153132533Y-83287784D01*
X153005871Y-83147112D01*
X153005870Y-83147111D01*
X152852734Y-83035851D01*
X152852729Y-83035848D01*
X152679807Y-82958857D01*
X152679802Y-82958855D01*
X152534001Y-82927865D01*
X152494646Y-82919500D01*
X152305354Y-82919500D01*
X152272897Y-82926398D01*
X152120197Y-82958855D01*
X152120192Y-82958857D01*
X151947270Y-83035848D01*
X151947265Y-83035851D01*
X151794129Y-83147111D01*
X151667466Y-83287785D01*
X151572821Y-83451715D01*
X151572818Y-83451722D01*
X151534631Y-83569251D01*
X151514326Y-83631744D01*
X151494540Y-83820000D01*
X150765460Y-83820000D01*
X150745674Y-83631744D01*
X150687179Y-83451716D01*
X150592533Y-83287784D01*
X150465871Y-83147112D01*
X150465870Y-83147111D01*
X150312734Y-83035851D01*
X150312729Y-83035848D01*
X150139807Y-82958857D01*
X150139802Y-82958855D01*
X149994000Y-82927865D01*
X149954646Y-82919500D01*
X149765354Y-82919500D01*
X149732897Y-82926398D01*
X149580197Y-82958855D01*
X149580192Y-82958857D01*
X149407270Y-83035848D01*
X149407265Y-83035851D01*
X149254129Y-83147111D01*
X149127466Y-83287785D01*
X149032821Y-83451715D01*
X149032818Y-83451722D01*
X148994631Y-83569251D01*
X148974326Y-83631744D01*
X148954540Y-83820000D01*
X148225460Y-83820000D01*
X148205674Y-83631744D01*
X148147179Y-83451716D01*
X148052533Y-83287784D01*
X147925871Y-83147112D01*
X147925870Y-83147111D01*
X147772734Y-83035851D01*
X147772729Y-83035848D01*
X147599807Y-82958857D01*
X147599802Y-82958855D01*
X147454000Y-82927865D01*
X147414646Y-82919500D01*
X147225354Y-82919500D01*
X147192897Y-82926398D01*
X147040197Y-82958855D01*
X147040192Y-82958857D01*
X146867270Y-83035848D01*
X146867265Y-83035851D01*
X146714129Y-83147111D01*
X146587466Y-83287785D01*
X146492821Y-83451715D01*
X146492818Y-83451722D01*
X146454631Y-83569251D01*
X146434326Y-83631744D01*
X146414540Y-83820000D01*
X145685460Y-83820000D01*
X145665674Y-83631744D01*
X145607179Y-83451716D01*
X145512533Y-83287784D01*
X145385871Y-83147112D01*
X145385870Y-83147111D01*
X145232734Y-83035851D01*
X145232729Y-83035848D01*
X145059807Y-82958857D01*
X145059802Y-82958855D01*
X144914000Y-82927865D01*
X144874646Y-82919500D01*
X144685354Y-82919500D01*
X144652897Y-82926398D01*
X144500197Y-82958855D01*
X144500192Y-82958857D01*
X144327270Y-83035848D01*
X144327265Y-83035851D01*
X144174129Y-83147111D01*
X144047466Y-83287785D01*
X143952821Y-83451715D01*
X143952818Y-83451722D01*
X143914631Y-83569251D01*
X143894326Y-83631744D01*
X143874540Y-83820000D01*
X143145460Y-83820000D01*
X143125674Y-83631744D01*
X143067179Y-83451716D01*
X142972533Y-83287784D01*
X142845871Y-83147112D01*
X142845870Y-83147111D01*
X142692734Y-83035851D01*
X142692729Y-83035848D01*
X142519807Y-82958857D01*
X142519802Y-82958855D01*
X142374001Y-82927865D01*
X142334646Y-82919500D01*
X142145354Y-82919500D01*
X142112897Y-82926398D01*
X141960197Y-82958855D01*
X141960192Y-82958857D01*
X141787270Y-83035848D01*
X141787265Y-83035851D01*
X141634129Y-83147111D01*
X141507466Y-83287785D01*
X141412821Y-83451715D01*
X141412818Y-83451722D01*
X141374631Y-83569251D01*
X141354326Y-83631744D01*
X141334540Y-83820000D01*
X140605460Y-83820000D01*
X140585674Y-83631744D01*
X140527179Y-83451716D01*
X140432533Y-83287784D01*
X140305871Y-83147112D01*
X140305870Y-83147111D01*
X140152734Y-83035851D01*
X140152729Y-83035848D01*
X139979807Y-82958857D01*
X139979802Y-82958855D01*
X139834000Y-82927865D01*
X139794646Y-82919500D01*
X139605354Y-82919500D01*
X139572897Y-82926398D01*
X139420197Y-82958855D01*
X139420192Y-82958857D01*
X139247270Y-83035848D01*
X139247265Y-83035851D01*
X139094129Y-83147111D01*
X138967466Y-83287785D01*
X138872821Y-83451715D01*
X138872818Y-83451722D01*
X138834631Y-83569251D01*
X138814326Y-83631744D01*
X138794540Y-83820000D01*
X138065460Y-83820000D01*
X138045674Y-83631744D01*
X137987179Y-83451716D01*
X137892533Y-83287784D01*
X137765871Y-83147112D01*
X137765870Y-83147111D01*
X137612734Y-83035851D01*
X137612729Y-83035848D01*
X137439807Y-82958857D01*
X137439802Y-82958855D01*
X137294001Y-82927865D01*
X137254646Y-82919500D01*
X137065354Y-82919500D01*
X137032897Y-82926398D01*
X136880197Y-82958855D01*
X136880192Y-82958857D01*
X136707270Y-83035848D01*
X136707265Y-83035851D01*
X136554129Y-83147111D01*
X136427466Y-83287785D01*
X136332821Y-83451715D01*
X136332818Y-83451722D01*
X136294631Y-83569251D01*
X136274326Y-83631744D01*
X136254540Y-83820000D01*
X135525460Y-83820000D01*
X135505674Y-83631744D01*
X135447179Y-83451716D01*
X135352533Y-83287784D01*
X135225871Y-83147112D01*
X135225870Y-83147111D01*
X135072734Y-83035851D01*
X135072729Y-83035848D01*
X134899807Y-82958857D01*
X134899802Y-82958855D01*
X134754000Y-82927865D01*
X134714646Y-82919500D01*
X134525354Y-82919500D01*
X134492897Y-82926398D01*
X134340197Y-82958855D01*
X134340192Y-82958857D01*
X134167270Y-83035848D01*
X134167265Y-83035851D01*
X134014129Y-83147111D01*
X133887466Y-83287785D01*
X133792821Y-83451715D01*
X133792818Y-83451722D01*
X133754631Y-83569251D01*
X133734326Y-83631744D01*
X133714540Y-83820000D01*
X132985460Y-83820000D01*
X132965674Y-83631744D01*
X132907179Y-83451716D01*
X132812533Y-83287784D01*
X132685871Y-83147112D01*
X132685870Y-83147111D01*
X132532734Y-83035851D01*
X132532729Y-83035848D01*
X132359807Y-82958857D01*
X132359802Y-82958855D01*
X132214001Y-82927865D01*
X132174646Y-82919500D01*
X131985354Y-82919500D01*
X131952897Y-82926398D01*
X131800197Y-82958855D01*
X131800192Y-82958857D01*
X131627270Y-83035848D01*
X131627265Y-83035851D01*
X131474129Y-83147111D01*
X131347466Y-83287785D01*
X131252821Y-83451715D01*
X131252818Y-83451722D01*
X131214631Y-83569251D01*
X131194326Y-83631744D01*
X131174540Y-83820000D01*
X130445460Y-83820000D01*
X130425674Y-83631744D01*
X130367179Y-83451716D01*
X130272533Y-83287784D01*
X130145871Y-83147112D01*
X130145870Y-83147111D01*
X129992734Y-83035851D01*
X129992729Y-83035848D01*
X129819807Y-82958857D01*
X129819802Y-82958855D01*
X129674000Y-82927865D01*
X129634646Y-82919500D01*
X129445354Y-82919500D01*
X129412897Y-82926398D01*
X129260197Y-82958855D01*
X129260192Y-82958857D01*
X129087270Y-83035848D01*
X129087265Y-83035851D01*
X128934129Y-83147111D01*
X128807466Y-83287785D01*
X128712821Y-83451715D01*
X128712818Y-83451722D01*
X128674631Y-83569251D01*
X128654326Y-83631744D01*
X128634540Y-83820000D01*
X127905460Y-83820000D01*
X127885674Y-83631744D01*
X127827179Y-83451716D01*
X127732533Y-83287784D01*
X127605871Y-83147112D01*
X127605870Y-83147111D01*
X127452734Y-83035851D01*
X127452729Y-83035848D01*
X127279807Y-82958857D01*
X127279802Y-82958855D01*
X127134000Y-82927865D01*
X127094646Y-82919500D01*
X126905354Y-82919500D01*
X126872897Y-82926398D01*
X126720197Y-82958855D01*
X126720192Y-82958857D01*
X126547270Y-83035848D01*
X126547265Y-83035851D01*
X126394129Y-83147111D01*
X126267466Y-83287785D01*
X126172821Y-83451715D01*
X126172818Y-83451722D01*
X126134631Y-83569251D01*
X126114326Y-83631744D01*
X126094540Y-83820000D01*
X125365460Y-83820000D01*
X125345674Y-83631744D01*
X125287179Y-83451716D01*
X125192533Y-83287784D01*
X125065871Y-83147112D01*
X125065870Y-83147111D01*
X124912734Y-83035851D01*
X124912729Y-83035848D01*
X124739807Y-82958857D01*
X124739802Y-82958855D01*
X124594000Y-82927865D01*
X124554646Y-82919500D01*
X124365354Y-82919500D01*
X124332897Y-82926398D01*
X124180197Y-82958855D01*
X124180192Y-82958857D01*
X124007270Y-83035848D01*
X124007265Y-83035851D01*
X123854129Y-83147111D01*
X123727466Y-83287785D01*
X123632821Y-83451715D01*
X123632818Y-83451722D01*
X123594631Y-83569251D01*
X123574326Y-83631744D01*
X123554540Y-83820000D01*
X122825460Y-83820000D01*
X122805674Y-83631744D01*
X122747179Y-83451716D01*
X122652533Y-83287784D01*
X122525871Y-83147112D01*
X122525870Y-83147111D01*
X122372734Y-83035851D01*
X122372729Y-83035848D01*
X122199807Y-82958857D01*
X122199802Y-82958855D01*
X122054001Y-82927865D01*
X122014646Y-82919500D01*
X121825354Y-82919500D01*
X121792897Y-82926398D01*
X121640197Y-82958855D01*
X121640192Y-82958857D01*
X121467270Y-83035848D01*
X121467265Y-83035851D01*
X121314129Y-83147111D01*
X121187466Y-83287785D01*
X121092821Y-83451715D01*
X121092818Y-83451722D01*
X121054631Y-83569251D01*
X121034326Y-83631744D01*
X121014540Y-83820000D01*
X120285460Y-83820000D01*
X120265674Y-83631744D01*
X120207179Y-83451716D01*
X120112533Y-83287784D01*
X119985871Y-83147112D01*
X119985870Y-83147111D01*
X119832734Y-83035851D01*
X119832729Y-83035848D01*
X119659807Y-82958857D01*
X119659802Y-82958855D01*
X119514000Y-82927865D01*
X119474646Y-82919500D01*
X119285354Y-82919500D01*
X119252897Y-82926398D01*
X119100197Y-82958855D01*
X119100192Y-82958857D01*
X118927270Y-83035848D01*
X118927265Y-83035851D01*
X118774129Y-83147111D01*
X118647466Y-83287785D01*
X118552821Y-83451715D01*
X118552818Y-83451722D01*
X118514631Y-83569251D01*
X118494326Y-83631744D01*
X118474540Y-83820000D01*
X117745460Y-83820000D01*
X117725674Y-83631744D01*
X117667179Y-83451716D01*
X117572533Y-83287784D01*
X117445871Y-83147112D01*
X117445870Y-83147111D01*
X117292734Y-83035851D01*
X117292729Y-83035848D01*
X117119807Y-82958857D01*
X117119802Y-82958855D01*
X116974001Y-82927865D01*
X116934646Y-82919500D01*
X116745354Y-82919500D01*
X116712897Y-82926398D01*
X116560197Y-82958855D01*
X116560192Y-82958857D01*
X116387270Y-83035848D01*
X116387265Y-83035851D01*
X116234129Y-83147111D01*
X116107466Y-83287785D01*
X116012821Y-83451715D01*
X116012818Y-83451722D01*
X115974631Y-83569251D01*
X115954326Y-83631744D01*
X115934540Y-83820000D01*
X115205460Y-83820000D01*
X115185674Y-83631744D01*
X115127179Y-83451716D01*
X115032533Y-83287784D01*
X114905871Y-83147112D01*
X114905870Y-83147111D01*
X114752734Y-83035851D01*
X114752729Y-83035848D01*
X114579807Y-82958857D01*
X114579802Y-82958855D01*
X114434000Y-82927865D01*
X114394646Y-82919500D01*
X114205354Y-82919500D01*
X114172897Y-82926398D01*
X114020197Y-82958855D01*
X114020192Y-82958857D01*
X113847270Y-83035848D01*
X113847265Y-83035851D01*
X113694129Y-83147111D01*
X113567466Y-83287785D01*
X113472821Y-83451715D01*
X113472818Y-83451722D01*
X113434631Y-83569251D01*
X113414326Y-83631744D01*
X113394540Y-83820000D01*
X101601371Y-83820000D01*
X101600067Y-81404067D01*
X101619715Y-81337017D01*
X101672495Y-81291233D01*
X101724067Y-81280000D01*
X189106000Y-81280000D01*
X189173039Y-81299685D01*
G37*
%TD.AperFunction*%
%TD*%
M02*
