%TF.GenerationSoftware,KiCad,Pcbnew,7.0.6*%
%TF.CreationDate,2024-06-09T16:47:21+02:00*%
%TF.ProjectId,nRF52832_visitcard,6e524635-3238-4333-925f-766973697463,v0.1*%
%TF.SameCoordinates,Original*%
%TF.FileFunction,Drillmap*%
%TF.FilePolarity,Positive*%
%FSLAX45Y45*%
G04 Gerber Fmt 4.5, Leading zero omitted, Abs format (unit mm)*
G04 Created by KiCad (PCBNEW 7.0.6) date 2024-06-09 16:47:21*
%MOMM*%
%LPD*%
G01*
G04 APERTURE LIST*
%ADD10C,0.100000*%
%ADD11C,0.200000*%
%ADD12C,0.040000*%
G04 APERTURE END LIST*
D10*
X10000000Y-8000000D02*
X19100000Y-8000000D01*
X19100000Y-13000000D01*
X10000000Y-13000000D01*
X10000000Y-8000000D01*
D11*
D12*
X10902000Y-8997000D02*
X10942000Y-9037000D01*
X10942000Y-8997000D02*
X10902000Y-9037000D01*
X10902000Y-9632000D02*
X10942000Y-9672000D01*
X10942000Y-9632000D02*
X10902000Y-9672000D01*
X10902000Y-10521000D02*
X10942000Y-10561000D01*
X10942000Y-10521000D02*
X10902000Y-10561000D01*
X10902000Y-11283000D02*
X10942000Y-11323000D01*
X10942000Y-11283000D02*
X10902000Y-11323000D01*
X10902000Y-12045000D02*
X10942000Y-12085000D01*
X10942000Y-12045000D02*
X10902000Y-12085000D01*
X11156000Y-8870000D02*
X11196000Y-8910000D01*
X11196000Y-8870000D02*
X11156000Y-8910000D01*
X11283000Y-9886000D02*
X11323000Y-9926000D01*
X11323000Y-9886000D02*
X11283000Y-9926000D01*
X11283000Y-12426000D02*
X11323000Y-12466000D01*
X11323000Y-12426000D02*
X11283000Y-12466000D01*
X11410000Y-8362000D02*
X11450000Y-8402000D01*
X11450000Y-8362000D02*
X11410000Y-8402000D01*
X11410000Y-8743000D02*
X11450000Y-8783000D01*
X11450000Y-8743000D02*
X11410000Y-8783000D01*
X11664000Y-8362000D02*
X11704000Y-8402000D01*
X11704000Y-8362000D02*
X11664000Y-8402000D01*
X11664000Y-9505000D02*
X11704000Y-9545000D01*
X11704000Y-9505000D02*
X11664000Y-9545000D01*
X11918000Y-8362000D02*
X11958000Y-8402000D01*
X11958000Y-8362000D02*
X11918000Y-8402000D01*
X12126280Y-10480360D02*
X12166280Y-10520360D01*
X12166280Y-10480360D02*
X12126280Y-10520360D01*
X12138980Y-10216200D02*
X12178980Y-10256200D01*
X12178980Y-10216200D02*
X12138980Y-10256200D01*
X12141520Y-10775000D02*
X12181520Y-10815000D01*
X12181520Y-10775000D02*
X12141520Y-10815000D01*
X12172000Y-8362000D02*
X12212000Y-8402000D01*
X12212000Y-8362000D02*
X12172000Y-8402000D01*
X12299000Y-12045000D02*
X12339000Y-12085000D01*
X12339000Y-12045000D02*
X12299000Y-12085000D01*
X12377740Y-9924100D02*
X12417740Y-9964100D01*
X12417740Y-9924100D02*
X12377740Y-9964100D01*
X12403140Y-11036620D02*
X12443140Y-11076620D01*
X12443140Y-11036620D02*
X12403140Y-11076620D01*
X12426000Y-8362000D02*
X12466000Y-8402000D01*
X12466000Y-8362000D02*
X12426000Y-8402000D01*
X12426000Y-11664000D02*
X12466000Y-11704000D01*
X12466000Y-11664000D02*
X12426000Y-11704000D01*
X12471720Y-8862380D02*
X12511720Y-8902380D01*
X12511720Y-8862380D02*
X12471720Y-8902380D01*
X12680000Y-8362000D02*
X12720000Y-8402000D01*
X12720000Y-8362000D02*
X12680000Y-8402000D01*
X12718100Y-9845360D02*
X12758100Y-9885360D01*
X12758100Y-9845360D02*
X12718100Y-9885360D01*
X12718100Y-11135680D02*
X12758100Y-11175680D01*
X12758100Y-11135680D02*
X12718100Y-11175680D01*
X12934000Y-8362000D02*
X12974000Y-8402000D01*
X12974000Y-8362000D02*
X12934000Y-8402000D01*
X13032965Y-9923815D02*
X13072965Y-9963815D01*
X13072965Y-9923815D02*
X13032965Y-9963815D01*
X13040680Y-11023920D02*
X13080680Y-11063920D01*
X13080680Y-11023920D02*
X13040680Y-11063920D01*
X13188000Y-8362000D02*
X13228000Y-8402000D01*
X13228000Y-8362000D02*
X13188000Y-8402000D01*
X13205780Y-8867460D02*
X13245780Y-8907460D01*
X13245780Y-8867460D02*
X13205780Y-8907460D01*
X13261660Y-10802940D02*
X13301660Y-10842940D01*
X13301660Y-10802940D02*
X13261660Y-10842940D01*
X13274360Y-10117140D02*
X13314360Y-10157140D01*
X13314360Y-10117140D02*
X13274360Y-10157140D01*
X13335320Y-10482900D02*
X13375320Y-10522900D01*
X13375320Y-10482900D02*
X13335320Y-10522900D01*
X13442000Y-8362000D02*
X13482000Y-8402000D01*
X13482000Y-8362000D02*
X13442000Y-8402000D01*
X13696000Y-8362000D02*
X13736000Y-8402000D01*
X13736000Y-8362000D02*
X13696000Y-8402000D01*
X13789980Y-11907840D02*
X13829980Y-11947840D01*
X13829980Y-11907840D02*
X13789980Y-11947840D01*
X13950000Y-8362000D02*
X13990000Y-8402000D01*
X13990000Y-8362000D02*
X13950000Y-8402000D01*
X14026200Y-9073200D02*
X14066200Y-9113200D01*
X14066200Y-9073200D02*
X14026200Y-9113200D01*
X14204000Y-8362000D02*
X14244000Y-8402000D01*
X14244000Y-8362000D02*
X14204000Y-8402000D01*
X14206540Y-11521760D02*
X14246540Y-11561760D01*
X14246540Y-11521760D02*
X14206540Y-11561760D01*
X14254800Y-9184960D02*
X14294800Y-9224960D01*
X14294800Y-9184960D02*
X14254800Y-9224960D01*
X14458000Y-8362000D02*
X14498000Y-8402000D01*
X14498000Y-8362000D02*
X14458000Y-8402000D01*
X14460540Y-9281480D02*
X14500540Y-9321480D01*
X14500540Y-9281480D02*
X14460540Y-9321480D01*
X14712000Y-8362000D02*
X14752000Y-8402000D01*
X14752000Y-8362000D02*
X14712000Y-8402000D01*
X14712000Y-11283000D02*
X14752000Y-11323000D01*
X14752000Y-11283000D02*
X14712000Y-11323000D01*
X14729780Y-9337360D02*
X14769780Y-9377360D01*
X14769780Y-9337360D02*
X14729780Y-9377360D01*
X14960920Y-9512620D02*
X15000920Y-9552620D01*
X15000920Y-9512620D02*
X14960920Y-9552620D01*
X14966000Y-8362000D02*
X15006000Y-8402000D01*
X15006000Y-8362000D02*
X14966000Y-8402000D01*
X14966000Y-11029000D02*
X15006000Y-11069000D01*
X15006000Y-11029000D02*
X14966000Y-11069000D01*
X15194600Y-9670100D02*
X15234600Y-9710100D01*
X15234600Y-9670100D02*
X15194600Y-9710100D01*
X15220000Y-8362000D02*
X15260000Y-8402000D01*
X15260000Y-8362000D02*
X15220000Y-8402000D01*
X15220000Y-10775000D02*
X15260000Y-10815000D01*
X15260000Y-10775000D02*
X15220000Y-10815000D01*
X15433360Y-9606600D02*
X15473360Y-9646600D01*
X15473360Y-9606600D02*
X15433360Y-9646600D01*
X15474000Y-8362000D02*
X15514000Y-8402000D01*
X15514000Y-8362000D02*
X15474000Y-8402000D01*
X15474000Y-8870000D02*
X15514000Y-8910000D01*
X15514000Y-8870000D02*
X15474000Y-8910000D01*
X15590840Y-9553260D02*
X15630840Y-9593260D01*
X15630840Y-9553260D02*
X15590840Y-9593260D01*
X15728000Y-8362000D02*
X15768000Y-8402000D01*
X15768000Y-8362000D02*
X15728000Y-8402000D01*
X15728000Y-8870000D02*
X15768000Y-8910000D01*
X15768000Y-8870000D02*
X15728000Y-8910000D01*
X15768640Y-9756460D02*
X15808640Y-9796460D01*
X15808640Y-9756460D02*
X15768640Y-9796460D01*
X15783880Y-10165400D02*
X15823880Y-10205400D01*
X15823880Y-10165400D02*
X15783880Y-10205400D01*
X15938820Y-10173020D02*
X15978820Y-10213020D01*
X15978820Y-10173020D02*
X15938820Y-10213020D01*
X15956600Y-8412800D02*
X15996600Y-8452800D01*
X15996600Y-8412800D02*
X15956600Y-8452800D01*
X15982000Y-8870000D02*
X16022000Y-8910000D01*
X16022000Y-8870000D02*
X15982000Y-8910000D01*
X16096300Y-10167940D02*
X16136300Y-10207940D01*
X16136300Y-10167940D02*
X16096300Y-10207940D01*
X16147100Y-10480360D02*
X16187100Y-10520360D01*
X16187100Y-10480360D02*
X16147100Y-10520360D01*
X16185200Y-8412800D02*
X16225200Y-8452800D01*
X16225200Y-8412800D02*
X16185200Y-8452800D01*
X16276641Y-10167939D02*
X16316641Y-10207939D01*
X16316641Y-10167939D02*
X16276641Y-10207939D01*
X16342680Y-11272840D02*
X16382680Y-11312840D01*
X16382680Y-11272840D02*
X16342680Y-11312840D01*
X16357920Y-8735380D02*
X16397920Y-8775380D01*
X16397920Y-8735380D02*
X16357920Y-8775380D01*
X16357920Y-9845360D02*
X16397920Y-9885360D01*
X16397920Y-9845360D02*
X16357920Y-9885360D01*
X16413800Y-8415340D02*
X16453800Y-8455340D01*
X16453800Y-8415340D02*
X16413800Y-8455340D01*
X16418880Y-8593140D02*
X16458880Y-8633140D01*
X16458880Y-8593140D02*
X16418880Y-8633140D01*
X16462060Y-10429560D02*
X16502060Y-10469560D01*
X16502060Y-10429560D02*
X16462060Y-10469560D01*
X16490000Y-10000300D02*
X16530000Y-10040300D01*
X16530000Y-10000300D02*
X16490000Y-10040300D01*
X16533180Y-9062080D02*
X16573180Y-9102080D01*
X16573180Y-9062080D02*
X16533180Y-9102080D01*
X16543340Y-9692960D02*
X16583340Y-9732960D01*
X16583340Y-9692960D02*
X16543340Y-9732960D01*
X16568740Y-10990900D02*
X16608740Y-11030900D01*
X16608740Y-10990900D02*
X16568740Y-11030900D01*
X16591600Y-10601820D02*
X16631600Y-10641820D01*
X16631600Y-10601820D02*
X16591600Y-10641820D01*
X16611920Y-10086660D02*
X16651920Y-10126660D01*
X16651920Y-10086660D02*
X16611920Y-10126660D01*
X16642400Y-8422960D02*
X16682400Y-8462960D01*
X16682400Y-8422960D02*
X16642400Y-8462960D01*
X16654428Y-10679619D02*
X16694428Y-10719619D01*
X16694428Y-10679619D02*
X16654428Y-10719619D01*
X16708440Y-12641900D02*
X16748440Y-12681900D01*
X16748440Y-12641900D02*
X16708440Y-12681900D01*
X16744000Y-9251000D02*
X16784000Y-9291000D01*
X16784000Y-9251000D02*
X16744000Y-9291000D01*
X16766860Y-8946200D02*
X16806860Y-8986200D01*
X16806860Y-8946200D02*
X16766860Y-8986200D01*
X16797340Y-10498140D02*
X16837340Y-10538140D01*
X16837340Y-10498140D02*
X16797340Y-10538140D01*
X16799880Y-11509060D02*
X16839880Y-11549060D01*
X16839880Y-11509060D02*
X16799880Y-11549060D01*
X16802420Y-10348280D02*
X16842420Y-10388280D01*
X16842420Y-10348280D02*
X16802420Y-10388280D01*
X16871000Y-9251000D02*
X16911000Y-9291000D01*
X16911000Y-9251000D02*
X16871000Y-9291000D01*
X16871000Y-9378000D02*
X16911000Y-9418000D01*
X16911000Y-9378000D02*
X16871000Y-9418000D01*
X16873540Y-11201720D02*
X16913540Y-11241720D01*
X16913540Y-11201720D02*
X16873540Y-11241720D01*
X16883700Y-12377740D02*
X16923700Y-12417740D01*
X16923700Y-12377740D02*
X16883700Y-12417740D01*
X16886682Y-10089707D02*
X16926682Y-10129707D01*
X16926682Y-10089707D02*
X16886682Y-10129707D01*
X16901480Y-10637840D02*
X16941480Y-10677840D01*
X16941480Y-10637840D02*
X16901480Y-10677840D01*
X16911640Y-8951280D02*
X16951640Y-8991280D01*
X16951640Y-8951280D02*
X16911640Y-8991280D01*
X16926880Y-8331520D02*
X16966880Y-8371520D01*
X16966880Y-8331520D02*
X16926880Y-8371520D01*
X17005620Y-10071420D02*
X17045620Y-10111420D01*
X17045620Y-10071420D02*
X17005620Y-10111420D01*
X17031210Y-10584500D02*
X17071210Y-10624500D01*
X17071210Y-10584500D02*
X17031210Y-10624500D01*
X17066580Y-8956360D02*
X17106580Y-8996360D01*
X17106580Y-8956360D02*
X17066580Y-8996360D01*
X17125000Y-12680000D02*
X17165000Y-12720000D01*
X17165000Y-12680000D02*
X17125000Y-12720000D01*
X17127540Y-8349300D02*
X17167540Y-8389300D01*
X17167540Y-8349300D02*
X17127540Y-8389300D01*
X17149938Y-9763005D02*
X17189938Y-9803005D01*
X17189938Y-9763005D02*
X17149938Y-9803005D01*
X17193580Y-11902760D02*
X17233580Y-11942760D01*
X17233580Y-11902760D02*
X17193580Y-11942760D01*
X17236404Y-9840869D02*
X17276404Y-9880869D01*
X17276404Y-9840869D02*
X17236404Y-9880869D01*
X17236760Y-9959660D02*
X17276760Y-9999660D01*
X17276760Y-9959660D02*
X17236760Y-9999660D01*
X17244380Y-10076500D02*
X17284380Y-10116500D01*
X17284380Y-10076500D02*
X17244380Y-10116500D01*
X17379000Y-11029000D02*
X17419000Y-11069000D01*
X17419000Y-11029000D02*
X17379000Y-11069000D01*
X17379000Y-11283000D02*
X17419000Y-11323000D01*
X17419000Y-11283000D02*
X17379000Y-11323000D01*
X17379000Y-11664000D02*
X17419000Y-11704000D01*
X17419000Y-11664000D02*
X17379000Y-11704000D01*
X17379000Y-12680000D02*
X17419000Y-12720000D01*
X17419000Y-12680000D02*
X17379000Y-12720000D01*
X17394240Y-10307640D02*
X17434240Y-10347640D01*
X17434240Y-10307640D02*
X17394240Y-10347640D01*
X17399320Y-10729280D02*
X17439320Y-10769280D01*
X17439320Y-10729280D02*
X17399320Y-10769280D01*
X17950500Y-9169720D02*
X17990500Y-9209720D01*
X17990500Y-9169720D02*
X17950500Y-9209720D01*
X17963200Y-8743000D02*
X18003200Y-8783000D01*
X18003200Y-8743000D02*
X17963200Y-8783000D01*
X17963200Y-8870000D02*
X18003200Y-8910000D01*
X18003200Y-8870000D02*
X17963200Y-8910000D01*
X17963200Y-8997000D02*
X18003200Y-9037000D01*
X18003200Y-8997000D02*
X17963200Y-9037000D01*
X17963200Y-9505000D02*
X18003200Y-9545000D01*
X18003200Y-9505000D02*
X17963200Y-9545000D01*
X17963200Y-9632000D02*
X18003200Y-9672000D01*
X18003200Y-9632000D02*
X17963200Y-9672000D01*
X17963200Y-9759000D02*
X18003200Y-9799000D01*
X18003200Y-9759000D02*
X17963200Y-9799000D01*
X17963200Y-9886000D02*
X18003200Y-9926000D01*
X18003200Y-9886000D02*
X17963200Y-9926000D01*
X17963200Y-10013000D02*
X18003200Y-10053000D01*
X18003200Y-10013000D02*
X17963200Y-10053000D01*
X17963200Y-10140000D02*
X18003200Y-10180000D01*
X18003200Y-10140000D02*
X17963200Y-10180000D01*
X17963200Y-10267000D02*
X18003200Y-10307000D01*
X18003200Y-10267000D02*
X17963200Y-10307000D01*
X17963200Y-10394000D02*
X18003200Y-10434000D01*
X18003200Y-10394000D02*
X17963200Y-10434000D01*
X17963200Y-10521000D02*
X18003200Y-10561000D01*
X18003200Y-10521000D02*
X17963200Y-10561000D01*
X17963200Y-10648000D02*
X18003200Y-10688000D01*
X18003200Y-10648000D02*
X17963200Y-10688000D01*
X17963200Y-10775000D02*
X18003200Y-10815000D01*
X18003200Y-10775000D02*
X17963200Y-10815000D01*
X17963200Y-10902000D02*
X18003200Y-10942000D01*
X18003200Y-10902000D02*
X17963200Y-10942000D01*
X17963200Y-11029000D02*
X18003200Y-11069000D01*
X18003200Y-11029000D02*
X17963200Y-11069000D01*
X17963200Y-11156000D02*
X18003200Y-11196000D01*
X18003200Y-11156000D02*
X17963200Y-11196000D01*
X17963200Y-11283000D02*
X18003200Y-11323000D01*
X18003200Y-11283000D02*
X17963200Y-11323000D01*
X17963200Y-11410000D02*
X18003200Y-11450000D01*
X18003200Y-11410000D02*
X17963200Y-11450000D01*
X17963200Y-11537000D02*
X18003200Y-11577000D01*
X18003200Y-11537000D02*
X17963200Y-11577000D01*
X17963200Y-11664000D02*
X18003200Y-11704000D01*
X18003200Y-11664000D02*
X17963200Y-11704000D01*
X17963200Y-11791000D02*
X18003200Y-11831000D01*
X18003200Y-11791000D02*
X17963200Y-11831000D01*
X17963200Y-11918000D02*
X18003200Y-11958000D01*
X18003200Y-11918000D02*
X17963200Y-11958000D01*
X17963200Y-12045000D02*
X18003200Y-12085000D01*
X18003200Y-12045000D02*
X17963200Y-12085000D01*
X17963200Y-12172000D02*
X18003200Y-12212000D01*
X18003200Y-12172000D02*
X17963200Y-12212000D01*
X17963200Y-12299000D02*
X18003200Y-12339000D01*
X18003200Y-12299000D02*
X17963200Y-12339000D01*
X18115600Y-8743000D02*
X18155600Y-8783000D01*
X18155600Y-8743000D02*
X18115600Y-8783000D01*
X18115600Y-12299000D02*
X18155600Y-12339000D01*
X18155600Y-12299000D02*
X18115600Y-12339000D01*
X18268000Y-8743000D02*
X18308000Y-8783000D01*
X18308000Y-8743000D02*
X18268000Y-8783000D01*
X18268000Y-12299000D02*
X18308000Y-12339000D01*
X18308000Y-12299000D02*
X18268000Y-12339000D01*
X18341660Y-12535220D02*
X18381660Y-12575220D01*
X18381660Y-12535220D02*
X18341660Y-12575220D01*
X18395000Y-8743000D02*
X18435000Y-8783000D01*
X18435000Y-8743000D02*
X18395000Y-8783000D01*
X18395000Y-12299000D02*
X18435000Y-12339000D01*
X18435000Y-12299000D02*
X18395000Y-12339000D01*
X18522000Y-8743000D02*
X18562000Y-8783000D01*
X18562000Y-8743000D02*
X18522000Y-8783000D01*
X18522000Y-12299000D02*
X18562000Y-12339000D01*
X18562000Y-12299000D02*
X18522000Y-12339000D01*
X18572800Y-12527600D02*
X18612800Y-12567600D01*
X18612800Y-12527600D02*
X18572800Y-12567600D01*
X18649000Y-8743000D02*
X18689000Y-8783000D01*
X18689000Y-8743000D02*
X18649000Y-8783000D01*
X18649000Y-12299000D02*
X18689000Y-12339000D01*
X18689000Y-12299000D02*
X18649000Y-12339000D01*
X18776000Y-8743000D02*
X18816000Y-8783000D01*
X18816000Y-8743000D02*
X18776000Y-8783000D01*
X18776000Y-12299000D02*
X18816000Y-12339000D01*
X18816000Y-12299000D02*
X18776000Y-12339000D01*
D11*
X10255777Y-13316484D02*
X10255777Y-13116484D01*
X10255777Y-13116484D02*
X10303396Y-13116484D01*
X10303396Y-13116484D02*
X10331967Y-13126008D01*
X10331967Y-13126008D02*
X10351015Y-13145055D01*
X10351015Y-13145055D02*
X10360539Y-13164103D01*
X10360539Y-13164103D02*
X10370063Y-13202198D01*
X10370063Y-13202198D02*
X10370063Y-13230769D01*
X10370063Y-13230769D02*
X10360539Y-13268865D01*
X10360539Y-13268865D02*
X10351015Y-13287912D01*
X10351015Y-13287912D02*
X10331967Y-13306960D01*
X10331967Y-13306960D02*
X10303396Y-13316484D01*
X10303396Y-13316484D02*
X10255777Y-13316484D01*
X10455777Y-13316484D02*
X10455777Y-13183150D01*
X10455777Y-13221246D02*
X10465301Y-13202198D01*
X10465301Y-13202198D02*
X10474824Y-13192674D01*
X10474824Y-13192674D02*
X10493872Y-13183150D01*
X10493872Y-13183150D02*
X10512920Y-13183150D01*
X10579586Y-13316484D02*
X10579586Y-13183150D01*
X10579586Y-13116484D02*
X10570063Y-13126008D01*
X10570063Y-13126008D02*
X10579586Y-13135531D01*
X10579586Y-13135531D02*
X10589110Y-13126008D01*
X10589110Y-13126008D02*
X10579586Y-13116484D01*
X10579586Y-13116484D02*
X10579586Y-13135531D01*
X10703396Y-13316484D02*
X10684348Y-13306960D01*
X10684348Y-13306960D02*
X10674824Y-13287912D01*
X10674824Y-13287912D02*
X10674824Y-13116484D01*
X10808158Y-13316484D02*
X10789110Y-13306960D01*
X10789110Y-13306960D02*
X10779586Y-13287912D01*
X10779586Y-13287912D02*
X10779586Y-13116484D01*
X11036729Y-13316484D02*
X11036729Y-13116484D01*
X11036729Y-13116484D02*
X11103396Y-13259341D01*
X11103396Y-13259341D02*
X11170063Y-13116484D01*
X11170063Y-13116484D02*
X11170063Y-13316484D01*
X11351015Y-13316484D02*
X11351015Y-13211722D01*
X11351015Y-13211722D02*
X11341491Y-13192674D01*
X11341491Y-13192674D02*
X11322443Y-13183150D01*
X11322443Y-13183150D02*
X11284348Y-13183150D01*
X11284348Y-13183150D02*
X11265301Y-13192674D01*
X11351015Y-13306960D02*
X11331967Y-13316484D01*
X11331967Y-13316484D02*
X11284348Y-13316484D01*
X11284348Y-13316484D02*
X11265301Y-13306960D01*
X11265301Y-13306960D02*
X11255777Y-13287912D01*
X11255777Y-13287912D02*
X11255777Y-13268865D01*
X11255777Y-13268865D02*
X11265301Y-13249817D01*
X11265301Y-13249817D02*
X11284348Y-13240293D01*
X11284348Y-13240293D02*
X11331967Y-13240293D01*
X11331967Y-13240293D02*
X11351015Y-13230769D01*
X11446253Y-13183150D02*
X11446253Y-13383150D01*
X11446253Y-13192674D02*
X11465301Y-13183150D01*
X11465301Y-13183150D02*
X11503396Y-13183150D01*
X11503396Y-13183150D02*
X11522443Y-13192674D01*
X11522443Y-13192674D02*
X11531967Y-13202198D01*
X11531967Y-13202198D02*
X11541491Y-13221246D01*
X11541491Y-13221246D02*
X11541491Y-13278388D01*
X11541491Y-13278388D02*
X11531967Y-13297436D01*
X11531967Y-13297436D02*
X11522443Y-13306960D01*
X11522443Y-13306960D02*
X11503396Y-13316484D01*
X11503396Y-13316484D02*
X11465301Y-13316484D01*
X11465301Y-13316484D02*
X11446253Y-13306960D01*
X11627205Y-13297436D02*
X11636729Y-13306960D01*
X11636729Y-13306960D02*
X11627205Y-13316484D01*
X11627205Y-13316484D02*
X11617682Y-13306960D01*
X11617682Y-13306960D02*
X11627205Y-13297436D01*
X11627205Y-13297436D02*
X11627205Y-13316484D01*
X11627205Y-13192674D02*
X11636729Y-13202198D01*
X11636729Y-13202198D02*
X11627205Y-13211722D01*
X11627205Y-13211722D02*
X11617682Y-13202198D01*
X11617682Y-13202198D02*
X11627205Y-13192674D01*
X11627205Y-13192674D02*
X11627205Y-13211722D01*
D12*
X9955000Y-13625000D02*
X9995000Y-13665000D01*
X9995000Y-13625000D02*
X9955000Y-13665000D01*
D11*
X10293872Y-13536484D02*
X10312920Y-13536484D01*
X10312920Y-13536484D02*
X10331967Y-13546008D01*
X10331967Y-13546008D02*
X10341491Y-13555531D01*
X10341491Y-13555531D02*
X10351015Y-13574579D01*
X10351015Y-13574579D02*
X10360539Y-13612674D01*
X10360539Y-13612674D02*
X10360539Y-13660293D01*
X10360539Y-13660293D02*
X10351015Y-13698388D01*
X10351015Y-13698388D02*
X10341491Y-13717436D01*
X10341491Y-13717436D02*
X10331967Y-13726960D01*
X10331967Y-13726960D02*
X10312920Y-13736484D01*
X10312920Y-13736484D02*
X10293872Y-13736484D01*
X10293872Y-13736484D02*
X10274824Y-13726960D01*
X10274824Y-13726960D02*
X10265301Y-13717436D01*
X10265301Y-13717436D02*
X10255777Y-13698388D01*
X10255777Y-13698388D02*
X10246253Y-13660293D01*
X10246253Y-13660293D02*
X10246253Y-13612674D01*
X10246253Y-13612674D02*
X10255777Y-13574579D01*
X10255777Y-13574579D02*
X10265301Y-13555531D01*
X10265301Y-13555531D02*
X10274824Y-13546008D01*
X10274824Y-13546008D02*
X10293872Y-13536484D01*
X10446253Y-13717436D02*
X10455777Y-13726960D01*
X10455777Y-13726960D02*
X10446253Y-13736484D01*
X10446253Y-13736484D02*
X10436729Y-13726960D01*
X10436729Y-13726960D02*
X10446253Y-13717436D01*
X10446253Y-13717436D02*
X10446253Y-13736484D01*
X10627205Y-13603150D02*
X10627205Y-13736484D01*
X10579586Y-13526960D02*
X10531967Y-13669817D01*
X10531967Y-13669817D02*
X10655777Y-13669817D01*
X10770063Y-13536484D02*
X10789110Y-13536484D01*
X10789110Y-13536484D02*
X10808158Y-13546008D01*
X10808158Y-13546008D02*
X10817682Y-13555531D01*
X10817682Y-13555531D02*
X10827205Y-13574579D01*
X10827205Y-13574579D02*
X10836729Y-13612674D01*
X10836729Y-13612674D02*
X10836729Y-13660293D01*
X10836729Y-13660293D02*
X10827205Y-13698388D01*
X10827205Y-13698388D02*
X10817682Y-13717436D01*
X10817682Y-13717436D02*
X10808158Y-13726960D01*
X10808158Y-13726960D02*
X10789110Y-13736484D01*
X10789110Y-13736484D02*
X10770063Y-13736484D01*
X10770063Y-13736484D02*
X10751015Y-13726960D01*
X10751015Y-13726960D02*
X10741491Y-13717436D01*
X10741491Y-13717436D02*
X10731967Y-13698388D01*
X10731967Y-13698388D02*
X10722444Y-13660293D01*
X10722444Y-13660293D02*
X10722444Y-13612674D01*
X10722444Y-13612674D02*
X10731967Y-13574579D01*
X10731967Y-13574579D02*
X10741491Y-13555531D01*
X10741491Y-13555531D02*
X10751015Y-13546008D01*
X10751015Y-13546008D02*
X10770063Y-13536484D01*
X10960539Y-13536484D02*
X10979586Y-13536484D01*
X10979586Y-13536484D02*
X10998634Y-13546008D01*
X10998634Y-13546008D02*
X11008158Y-13555531D01*
X11008158Y-13555531D02*
X11017682Y-13574579D01*
X11017682Y-13574579D02*
X11027205Y-13612674D01*
X11027205Y-13612674D02*
X11027205Y-13660293D01*
X11027205Y-13660293D02*
X11017682Y-13698388D01*
X11017682Y-13698388D02*
X11008158Y-13717436D01*
X11008158Y-13717436D02*
X10998634Y-13726960D01*
X10998634Y-13726960D02*
X10979586Y-13736484D01*
X10979586Y-13736484D02*
X10960539Y-13736484D01*
X10960539Y-13736484D02*
X10941491Y-13726960D01*
X10941491Y-13726960D02*
X10931967Y-13717436D01*
X10931967Y-13717436D02*
X10922444Y-13698388D01*
X10922444Y-13698388D02*
X10912920Y-13660293D01*
X10912920Y-13660293D02*
X10912920Y-13612674D01*
X10912920Y-13612674D02*
X10922444Y-13574579D01*
X10922444Y-13574579D02*
X10931967Y-13555531D01*
X10931967Y-13555531D02*
X10941491Y-13546008D01*
X10941491Y-13546008D02*
X10960539Y-13536484D01*
X11112920Y-13736484D02*
X11112920Y-13603150D01*
X11112920Y-13622198D02*
X11122444Y-13612674D01*
X11122444Y-13612674D02*
X11141491Y-13603150D01*
X11141491Y-13603150D02*
X11170063Y-13603150D01*
X11170063Y-13603150D02*
X11189110Y-13612674D01*
X11189110Y-13612674D02*
X11198634Y-13631722D01*
X11198634Y-13631722D02*
X11198634Y-13736484D01*
X11198634Y-13631722D02*
X11208158Y-13612674D01*
X11208158Y-13612674D02*
X11227205Y-13603150D01*
X11227205Y-13603150D02*
X11255777Y-13603150D01*
X11255777Y-13603150D02*
X11274824Y-13612674D01*
X11274824Y-13612674D02*
X11284348Y-13631722D01*
X11284348Y-13631722D02*
X11284348Y-13736484D01*
X11379586Y-13736484D02*
X11379586Y-13603150D01*
X11379586Y-13622198D02*
X11389110Y-13612674D01*
X11389110Y-13612674D02*
X11408158Y-13603150D01*
X11408158Y-13603150D02*
X11436729Y-13603150D01*
X11436729Y-13603150D02*
X11455777Y-13612674D01*
X11455777Y-13612674D02*
X11465301Y-13631722D01*
X11465301Y-13631722D02*
X11465301Y-13736484D01*
X11465301Y-13631722D02*
X11474824Y-13612674D01*
X11474824Y-13612674D02*
X11493872Y-13603150D01*
X11493872Y-13603150D02*
X11522443Y-13603150D01*
X11522443Y-13603150D02*
X11541491Y-13612674D01*
X11541491Y-13612674D02*
X11551015Y-13631722D01*
X11551015Y-13631722D02*
X11551015Y-13736484D01*
X11941491Y-13526960D02*
X11770063Y-13784103D01*
X12198634Y-13536484D02*
X12217682Y-13536484D01*
X12217682Y-13536484D02*
X12236729Y-13546008D01*
X12236729Y-13546008D02*
X12246253Y-13555531D01*
X12246253Y-13555531D02*
X12255777Y-13574579D01*
X12255777Y-13574579D02*
X12265301Y-13612674D01*
X12265301Y-13612674D02*
X12265301Y-13660293D01*
X12265301Y-13660293D02*
X12255777Y-13698388D01*
X12255777Y-13698388D02*
X12246253Y-13717436D01*
X12246253Y-13717436D02*
X12236729Y-13726960D01*
X12236729Y-13726960D02*
X12217682Y-13736484D01*
X12217682Y-13736484D02*
X12198634Y-13736484D01*
X12198634Y-13736484D02*
X12179586Y-13726960D01*
X12179586Y-13726960D02*
X12170063Y-13717436D01*
X12170063Y-13717436D02*
X12160539Y-13698388D01*
X12160539Y-13698388D02*
X12151015Y-13660293D01*
X12151015Y-13660293D02*
X12151015Y-13612674D01*
X12151015Y-13612674D02*
X12160539Y-13574579D01*
X12160539Y-13574579D02*
X12170063Y-13555531D01*
X12170063Y-13555531D02*
X12179586Y-13546008D01*
X12179586Y-13546008D02*
X12198634Y-13536484D01*
X12351015Y-13717436D02*
X12360539Y-13726960D01*
X12360539Y-13726960D02*
X12351015Y-13736484D01*
X12351015Y-13736484D02*
X12341491Y-13726960D01*
X12341491Y-13726960D02*
X12351015Y-13717436D01*
X12351015Y-13717436D02*
X12351015Y-13736484D01*
X12484348Y-13536484D02*
X12503396Y-13536484D01*
X12503396Y-13536484D02*
X12522444Y-13546008D01*
X12522444Y-13546008D02*
X12531967Y-13555531D01*
X12531967Y-13555531D02*
X12541491Y-13574579D01*
X12541491Y-13574579D02*
X12551015Y-13612674D01*
X12551015Y-13612674D02*
X12551015Y-13660293D01*
X12551015Y-13660293D02*
X12541491Y-13698388D01*
X12541491Y-13698388D02*
X12531967Y-13717436D01*
X12531967Y-13717436D02*
X12522444Y-13726960D01*
X12522444Y-13726960D02*
X12503396Y-13736484D01*
X12503396Y-13736484D02*
X12484348Y-13736484D01*
X12484348Y-13736484D02*
X12465301Y-13726960D01*
X12465301Y-13726960D02*
X12455777Y-13717436D01*
X12455777Y-13717436D02*
X12446253Y-13698388D01*
X12446253Y-13698388D02*
X12436729Y-13660293D01*
X12436729Y-13660293D02*
X12436729Y-13612674D01*
X12436729Y-13612674D02*
X12446253Y-13574579D01*
X12446253Y-13574579D02*
X12455777Y-13555531D01*
X12455777Y-13555531D02*
X12465301Y-13546008D01*
X12465301Y-13546008D02*
X12484348Y-13536484D01*
X12741491Y-13736484D02*
X12627206Y-13736484D01*
X12684348Y-13736484D02*
X12684348Y-13536484D01*
X12684348Y-13536484D02*
X12665301Y-13565055D01*
X12665301Y-13565055D02*
X12646253Y-13584103D01*
X12646253Y-13584103D02*
X12627206Y-13593627D01*
X12922444Y-13536484D02*
X12827206Y-13536484D01*
X12827206Y-13536484D02*
X12817682Y-13631722D01*
X12817682Y-13631722D02*
X12827206Y-13622198D01*
X12827206Y-13622198D02*
X12846253Y-13612674D01*
X12846253Y-13612674D02*
X12893872Y-13612674D01*
X12893872Y-13612674D02*
X12912920Y-13622198D01*
X12912920Y-13622198D02*
X12922444Y-13631722D01*
X12922444Y-13631722D02*
X12931967Y-13650769D01*
X12931967Y-13650769D02*
X12931967Y-13698388D01*
X12931967Y-13698388D02*
X12922444Y-13717436D01*
X12922444Y-13717436D02*
X12912920Y-13726960D01*
X12912920Y-13726960D02*
X12893872Y-13736484D01*
X12893872Y-13736484D02*
X12846253Y-13736484D01*
X12846253Y-13736484D02*
X12827206Y-13726960D01*
X12827206Y-13726960D02*
X12817682Y-13717436D01*
X12998634Y-13536484D02*
X13131967Y-13536484D01*
X13131967Y-13536484D02*
X13046253Y-13736484D01*
X13198634Y-13536484D02*
X13198634Y-13574579D01*
X13274825Y-13536484D02*
X13274825Y-13574579D01*
X13570063Y-13812674D02*
X13560539Y-13803150D01*
X13560539Y-13803150D02*
X13541491Y-13774579D01*
X13541491Y-13774579D02*
X13531968Y-13755531D01*
X13531968Y-13755531D02*
X13522444Y-13726960D01*
X13522444Y-13726960D02*
X13512920Y-13679341D01*
X13512920Y-13679341D02*
X13512920Y-13641246D01*
X13512920Y-13641246D02*
X13522444Y-13593627D01*
X13522444Y-13593627D02*
X13531968Y-13565055D01*
X13531968Y-13565055D02*
X13541491Y-13546008D01*
X13541491Y-13546008D02*
X13560539Y-13517436D01*
X13560539Y-13517436D02*
X13570063Y-13507912D01*
X13751015Y-13736484D02*
X13636729Y-13736484D01*
X13693872Y-13736484D02*
X13693872Y-13536484D01*
X13693872Y-13536484D02*
X13674825Y-13565055D01*
X13674825Y-13565055D02*
X13655777Y-13584103D01*
X13655777Y-13584103D02*
X13636729Y-13593627D01*
X13931968Y-13536484D02*
X13836729Y-13536484D01*
X13836729Y-13536484D02*
X13827206Y-13631722D01*
X13827206Y-13631722D02*
X13836729Y-13622198D01*
X13836729Y-13622198D02*
X13855777Y-13612674D01*
X13855777Y-13612674D02*
X13903396Y-13612674D01*
X13903396Y-13612674D02*
X13922444Y-13622198D01*
X13922444Y-13622198D02*
X13931968Y-13631722D01*
X13931968Y-13631722D02*
X13941491Y-13650769D01*
X13941491Y-13650769D02*
X13941491Y-13698388D01*
X13941491Y-13698388D02*
X13931968Y-13717436D01*
X13931968Y-13717436D02*
X13922444Y-13726960D01*
X13922444Y-13726960D02*
X13903396Y-13736484D01*
X13903396Y-13736484D02*
X13855777Y-13736484D01*
X13855777Y-13736484D02*
X13836729Y-13726960D01*
X13836729Y-13726960D02*
X13827206Y-13717436D01*
X14008158Y-13536484D02*
X14131968Y-13536484D01*
X14131968Y-13536484D02*
X14065301Y-13612674D01*
X14065301Y-13612674D02*
X14093872Y-13612674D01*
X14093872Y-13612674D02*
X14112920Y-13622198D01*
X14112920Y-13622198D02*
X14122444Y-13631722D01*
X14122444Y-13631722D02*
X14131968Y-13650769D01*
X14131968Y-13650769D02*
X14131968Y-13698388D01*
X14131968Y-13698388D02*
X14122444Y-13717436D01*
X14122444Y-13717436D02*
X14112920Y-13726960D01*
X14112920Y-13726960D02*
X14093872Y-13736484D01*
X14093872Y-13736484D02*
X14036729Y-13736484D01*
X14036729Y-13736484D02*
X14017682Y-13726960D01*
X14017682Y-13726960D02*
X14008158Y-13717436D01*
X14370063Y-13736484D02*
X14370063Y-13536484D01*
X14455777Y-13736484D02*
X14455777Y-13631722D01*
X14455777Y-13631722D02*
X14446253Y-13612674D01*
X14446253Y-13612674D02*
X14427206Y-13603150D01*
X14427206Y-13603150D02*
X14398634Y-13603150D01*
X14398634Y-13603150D02*
X14379587Y-13612674D01*
X14379587Y-13612674D02*
X14370063Y-13622198D01*
X14579587Y-13736484D02*
X14560539Y-13726960D01*
X14560539Y-13726960D02*
X14551015Y-13717436D01*
X14551015Y-13717436D02*
X14541491Y-13698388D01*
X14541491Y-13698388D02*
X14541491Y-13641246D01*
X14541491Y-13641246D02*
X14551015Y-13622198D01*
X14551015Y-13622198D02*
X14560539Y-13612674D01*
X14560539Y-13612674D02*
X14579587Y-13603150D01*
X14579587Y-13603150D02*
X14608158Y-13603150D01*
X14608158Y-13603150D02*
X14627206Y-13612674D01*
X14627206Y-13612674D02*
X14636730Y-13622198D01*
X14636730Y-13622198D02*
X14646253Y-13641246D01*
X14646253Y-13641246D02*
X14646253Y-13698388D01*
X14646253Y-13698388D02*
X14636730Y-13717436D01*
X14636730Y-13717436D02*
X14627206Y-13726960D01*
X14627206Y-13726960D02*
X14608158Y-13736484D01*
X14608158Y-13736484D02*
X14579587Y-13736484D01*
X14760539Y-13736484D02*
X14741491Y-13726960D01*
X14741491Y-13726960D02*
X14731968Y-13707912D01*
X14731968Y-13707912D02*
X14731968Y-13536484D01*
X14912920Y-13726960D02*
X14893872Y-13736484D01*
X14893872Y-13736484D02*
X14855777Y-13736484D01*
X14855777Y-13736484D02*
X14836730Y-13726960D01*
X14836730Y-13726960D02*
X14827206Y-13707912D01*
X14827206Y-13707912D02*
X14827206Y-13631722D01*
X14827206Y-13631722D02*
X14836730Y-13612674D01*
X14836730Y-13612674D02*
X14855777Y-13603150D01*
X14855777Y-13603150D02*
X14893872Y-13603150D01*
X14893872Y-13603150D02*
X14912920Y-13612674D01*
X14912920Y-13612674D02*
X14922444Y-13631722D01*
X14922444Y-13631722D02*
X14922444Y-13650769D01*
X14922444Y-13650769D02*
X14827206Y-13669817D01*
X14998634Y-13726960D02*
X15017682Y-13736484D01*
X15017682Y-13736484D02*
X15055777Y-13736484D01*
X15055777Y-13736484D02*
X15074825Y-13726960D01*
X15074825Y-13726960D02*
X15084349Y-13707912D01*
X15084349Y-13707912D02*
X15084349Y-13698388D01*
X15084349Y-13698388D02*
X15074825Y-13679341D01*
X15074825Y-13679341D02*
X15055777Y-13669817D01*
X15055777Y-13669817D02*
X15027206Y-13669817D01*
X15027206Y-13669817D02*
X15008158Y-13660293D01*
X15008158Y-13660293D02*
X14998634Y-13641246D01*
X14998634Y-13641246D02*
X14998634Y-13631722D01*
X14998634Y-13631722D02*
X15008158Y-13612674D01*
X15008158Y-13612674D02*
X15027206Y-13603150D01*
X15027206Y-13603150D02*
X15055777Y-13603150D01*
X15055777Y-13603150D02*
X15074825Y-13612674D01*
X15151015Y-13812674D02*
X15160539Y-13803150D01*
X15160539Y-13803150D02*
X15179587Y-13774579D01*
X15179587Y-13774579D02*
X15189111Y-13755531D01*
X15189111Y-13755531D02*
X15198634Y-13726960D01*
X15198634Y-13726960D02*
X15208158Y-13679341D01*
X15208158Y-13679341D02*
X15208158Y-13641246D01*
X15208158Y-13641246D02*
X15198634Y-13593627D01*
X15198634Y-13593627D02*
X15189111Y-13565055D01*
X15189111Y-13565055D02*
X15179587Y-13546008D01*
X15179587Y-13546008D02*
X15160539Y-13517436D01*
X15160539Y-13517436D02*
X15151015Y-13507912D01*
M02*
