M48
; DRILL file {KiCad 7.0.6} date Sun Jun  9 16:47:21 2024
; FORMAT={-:-/ absolute / inch / decimal}
; #@! TF.CreationDate,2024-06-09T16:47:21+02:00
; #@! TF.GenerationSoftware,Kicad,Pcbnew,7.0.6
; #@! TF.FileFunction,Plated,1,4,PTH
FMAT,2
INCH
; #@! TA.AperFunction,Plated,PTH,ViaDrill
T1C0.0157
%
G90
G05
T1
X4.3Y-3.55
X4.3Y-3.8
X4.3Y-4.15
X4.3Y-4.45
X4.3Y-4.75
X4.4Y-3.5
X4.45Y-3.9
X4.45Y-4.9
X4.5Y-3.3
X4.5Y-3.45
X4.6Y-3.3
X4.6Y-3.75
X4.7Y-3.3
X4.782Y-4.134
X4.787Y-4.03
X4.788Y-4.25
X4.8Y-3.3
X4.85Y-4.75
X4.881Y-3.915
X4.891Y-4.353
X4.9Y-3.3
X4.9Y-4.6
X4.918Y-3.497
X5.0Y-3.3
X5.015Y-3.884
X5.015Y-4.392
X5.1Y-3.3
X5.139Y-3.9149
X5.142Y-4.348
X5.2Y-3.3
X5.207Y-3.499
X5.229Y-4.261
X5.234Y-3.991
X5.258Y-4.135
X5.3Y-3.3
X5.4Y-3.3
X5.437Y-4.696
X5.5Y-3.3
X5.53Y-3.58
X5.6Y-3.3
X5.601Y-4.544
X5.62Y-3.624
X5.7Y-3.3
X5.701Y-3.662
X5.8Y-3.3
X5.8Y-4.45
X5.807Y-3.684
X5.898Y-3.753
X5.9Y-3.3
X5.9Y-4.35
X5.99Y-3.815
X6.0Y-3.3
X6.0Y-4.25
X6.084Y-3.79
X6.1Y-3.3
X6.1Y-3.5
X6.146Y-3.769
X6.2Y-3.3
X6.2Y-3.5
X6.216Y-3.849
X6.222Y-4.01
X6.283Y-4.013
X6.29Y-3.32
X6.3Y-3.5
X6.345Y-4.011
X6.365Y-4.134
X6.38Y-3.32
X6.416Y-4.011
X6.442Y-4.446
X6.448Y-3.447
X6.448Y-3.884
X6.47Y-3.321
X6.472Y-3.391
X6.489Y-4.114
X6.5Y-3.945
X6.517Y-3.5756
X6.521Y-3.824
X6.531Y-4.335
X6.54Y-4.1818
X6.548Y-3.979
X6.56Y-3.324
X6.5647Y-4.2124
X6.586Y-4.985
X6.6Y-3.65
X6.609Y-3.53
X6.621Y-4.141
X6.622Y-4.539
X6.623Y-4.082
X6.65Y-3.65
X6.65Y-3.7
X6.651Y-4.418
X6.655Y-4.881
X6.6562Y-3.9802
X6.662Y-4.196
X6.666Y-3.532
X6.672Y-3.288
X6.703Y-3.973
X6.7131Y-4.175
X6.727Y-3.534
X6.75Y-5.0
X6.751Y-3.295
X6.7598Y-3.8516
X6.777Y-4.694
X6.7939Y-3.8822
X6.794Y-3.929
X6.797Y-3.975
X6.85Y-4.35
X6.85Y-4.45
X6.85Y-4.6
X6.85Y-5.0
X6.856Y-4.066
X6.858Y-4.232
X7.075Y-3.618
X7.08Y-3.45
X7.08Y-3.5
X7.08Y-3.55
X7.08Y-3.75
X7.08Y-3.8
X7.08Y-3.85
X7.08Y-3.9
X7.08Y-3.95
X7.08Y-4.0
X7.08Y-4.05
X7.08Y-4.1
X7.08Y-4.15
X7.08Y-4.2
X7.08Y-4.25
X7.08Y-4.3
X7.08Y-4.35
X7.08Y-4.4
X7.08Y-4.45
X7.08Y-4.5
X7.08Y-4.55
X7.08Y-4.6
X7.08Y-4.65
X7.08Y-4.7
X7.08Y-4.75
X7.08Y-4.8
X7.08Y-4.85
X7.14Y-3.45
X7.14Y-4.85
X7.2Y-3.45
X7.2Y-4.85
X7.229Y-4.943
X7.25Y-3.45
X7.25Y-4.85
X7.3Y-3.45
X7.3Y-4.85
X7.32Y-4.94
X7.35Y-3.45
X7.35Y-4.85
X7.4Y-3.45
X7.4Y-4.85
T0
M30
