%TF.GenerationSoftware,KiCad,Pcbnew,7.0.6*%
%TF.CreationDate,2024-06-09T16:47:21+02:00*%
%TF.ProjectId,nRF52832_visitcard,6e524635-3238-4333-925f-766973697463,v0.1*%
%TF.SameCoordinates,Original*%
%TF.FileFunction,Drillmap*%
%TF.FilePolarity,Positive*%
%FSLAX45Y45*%
G04 Gerber Fmt 4.5, Leading zero omitted, Abs format (unit mm)*
G04 Created by KiCad (PCBNEW 7.0.6) date 2024-06-09 16:47:21*
%MOMM*%
%LPD*%
G01*
G04 APERTURE LIST*
%ADD10C,0.100000*%
%ADD11C,0.200000*%
G04 APERTURE END LIST*
D10*
X10000000Y-8000000D02*
X19100000Y-8000000D01*
X19100000Y-13000000D01*
X10000000Y-13000000D01*
X10000000Y-8000000D01*
D11*
X10255777Y-13316484D02*
X10255777Y-13116484D01*
X10255777Y-13116484D02*
X10303396Y-13116484D01*
X10303396Y-13116484D02*
X10331967Y-13126008D01*
X10331967Y-13126008D02*
X10351015Y-13145055D01*
X10351015Y-13145055D02*
X10360539Y-13164103D01*
X10360539Y-13164103D02*
X10370063Y-13202198D01*
X10370063Y-13202198D02*
X10370063Y-13230769D01*
X10370063Y-13230769D02*
X10360539Y-13268865D01*
X10360539Y-13268865D02*
X10351015Y-13287912D01*
X10351015Y-13287912D02*
X10331967Y-13306960D01*
X10331967Y-13306960D02*
X10303396Y-13316484D01*
X10303396Y-13316484D02*
X10255777Y-13316484D01*
X10455777Y-13316484D02*
X10455777Y-13183150D01*
X10455777Y-13221246D02*
X10465301Y-13202198D01*
X10465301Y-13202198D02*
X10474824Y-13192674D01*
X10474824Y-13192674D02*
X10493872Y-13183150D01*
X10493872Y-13183150D02*
X10512920Y-13183150D01*
X10579586Y-13316484D02*
X10579586Y-13183150D01*
X10579586Y-13116484D02*
X10570063Y-13126008D01*
X10570063Y-13126008D02*
X10579586Y-13135531D01*
X10579586Y-13135531D02*
X10589110Y-13126008D01*
X10589110Y-13126008D02*
X10579586Y-13116484D01*
X10579586Y-13116484D02*
X10579586Y-13135531D01*
X10703396Y-13316484D02*
X10684348Y-13306960D01*
X10684348Y-13306960D02*
X10674824Y-13287912D01*
X10674824Y-13287912D02*
X10674824Y-13116484D01*
X10808158Y-13316484D02*
X10789110Y-13306960D01*
X10789110Y-13306960D02*
X10779586Y-13287912D01*
X10779586Y-13287912D02*
X10779586Y-13116484D01*
X11036729Y-13316484D02*
X11036729Y-13116484D01*
X11036729Y-13116484D02*
X11103396Y-13259341D01*
X11103396Y-13259341D02*
X11170063Y-13116484D01*
X11170063Y-13116484D02*
X11170063Y-13316484D01*
X11351015Y-13316484D02*
X11351015Y-13211722D01*
X11351015Y-13211722D02*
X11341491Y-13192674D01*
X11341491Y-13192674D02*
X11322443Y-13183150D01*
X11322443Y-13183150D02*
X11284348Y-13183150D01*
X11284348Y-13183150D02*
X11265301Y-13192674D01*
X11351015Y-13306960D02*
X11331967Y-13316484D01*
X11331967Y-13316484D02*
X11284348Y-13316484D01*
X11284348Y-13316484D02*
X11265301Y-13306960D01*
X11265301Y-13306960D02*
X11255777Y-13287912D01*
X11255777Y-13287912D02*
X11255777Y-13268865D01*
X11255777Y-13268865D02*
X11265301Y-13249817D01*
X11265301Y-13249817D02*
X11284348Y-13240293D01*
X11284348Y-13240293D02*
X11331967Y-13240293D01*
X11331967Y-13240293D02*
X11351015Y-13230769D01*
X11446253Y-13183150D02*
X11446253Y-13383150D01*
X11446253Y-13192674D02*
X11465301Y-13183150D01*
X11465301Y-13183150D02*
X11503396Y-13183150D01*
X11503396Y-13183150D02*
X11522443Y-13192674D01*
X11522443Y-13192674D02*
X11531967Y-13202198D01*
X11531967Y-13202198D02*
X11541491Y-13221246D01*
X11541491Y-13221246D02*
X11541491Y-13278388D01*
X11541491Y-13278388D02*
X11531967Y-13297436D01*
X11531967Y-13297436D02*
X11522443Y-13306960D01*
X11522443Y-13306960D02*
X11503396Y-13316484D01*
X11503396Y-13316484D02*
X11465301Y-13316484D01*
X11465301Y-13316484D02*
X11446253Y-13306960D01*
X11627205Y-13297436D02*
X11636729Y-13306960D01*
X11636729Y-13306960D02*
X11627205Y-13316484D01*
X11627205Y-13316484D02*
X11617682Y-13306960D01*
X11617682Y-13306960D02*
X11627205Y-13297436D01*
X11627205Y-13297436D02*
X11627205Y-13316484D01*
X11627205Y-13192674D02*
X11636729Y-13202198D01*
X11636729Y-13202198D02*
X11627205Y-13211722D01*
X11627205Y-13211722D02*
X11617682Y-13202198D01*
X11617682Y-13202198D02*
X11627205Y-13192674D01*
X11627205Y-13192674D02*
X11627205Y-13211722D01*
M02*
